<?xml version="1.0" encoding="utf-8" standalone="no"?>
<!DOCTYPE svg PUBLIC "-//W3C//DTD SVG 1.1//EN"
  "http://www.w3.org/Graphics/SVG/1.1/DTD/svg11.dtd">
<!-- Created with matplotlib (http://matplotlib.org/) -->
<svg height="432pt" version="1.1" viewBox="0 0 576 432" width="576pt" xmlns="http://www.w3.org/2000/svg" xmlns:xlink="http://www.w3.org/1999/xlink">
 <defs>
  <style type="text/css">
*{stroke-linecap:butt;stroke-linejoin:round;stroke-miterlimit:100000;}
  </style>
 </defs>
 <g id="figure_1">
  <g id="patch_1">
   <path d="M 0 432 
L 576 432 
L 576 0 
L 0 0 
z
" style="fill:#ffffff;"/>
  </g>
  <g id="axes_1">
   <g id="patch_2">
    <path d="M 72 388.8 
L 518.4 388.8 
L 518.4 43.2 
L 72 43.2 
z
" style="fill:#ffffff;"/>
   </g>
   <g id="line2d_1">
    <path clip-path="url(#p37e521efc4)" d="M 72 220.18176 
L 72.496 212.33664 
L 72.992 220.56192 
L 73.488 212.30208 
L 73.984 220.04352 
L 74.48 212.40576 
L 74.976 220.04352 
L 75.472 212.40576 
L 75.968 220.38912 
L 76.464 212.40576 
L 76.96 220.04352 
L 77.456 212.3712 
L 77.952 220.04352 
L 78.448 212.3712 
L 78.944 220.07808 
L 79.44 212.3712 
L 79.936 220.04352 
L 80.432 212.3712 
L 80.928 220.00896 
L 81.424 212.26752 
L 81.92 220.07808 
L 82.416 212.40576 
L 82.912 220.07808 
L 83.408 212.0256 
L 83.904 220.04352 
L 84.4 212.40576 
L 84.896 220.18176 
L 85.392 212.44032 
L 85.888 220.04352 
L 86.384 212.40576 
L 86.88 220.07808 
L 87.376 212.40576 
L 87.872 220.07808 
L 88.368 212.3712 
L 88.864 220.07808 
L 89.36 212.44032 
L 89.856 220.18176 
L 90.352 212.40576 
L 90.848 220.11264 
L 91.344 212.26752 
L 91.84 220.11264 
L 92.336 212.44032 
L 92.832 220.04352 
L 93.328 212.44032 
L 93.824 220.07808 
L 94.32 212.3712 
L 94.816 220.07808 
L 95.312 212.44032 
L 95.808 220.07808 
L 96.304 212.44032 
L 96.8 220.52736 
L 97.296 212.16384 
L 97.792 220.04352 
L 98.288 212.44032 
L 98.784 220.07808 
L 99.28 212.47488 
L 99.776 220.35456 
L 100.272 212.40576 
L 100.768 220.04352 
L 101.264 212.40576 
L 101.76 220.04352 
L 102.256 212.44032 
L 102.752 220.25088 
L 103.248 212.44032 
L 103.744 220.07808 
L 104.24 212.33664 
L 104.736 220.07808 
L 105.232 212.44032 
L 105.728 220.07808 
L 106.224 212.3712 
L 106.72 220.07808 
L 107.216 212.44032 
L 107.712 220.25088 
L 108.208 212.40576 
L 108.704 220.07808 
L 109.2 212.47488 
L 109.696 220.56192 
L 110.192 212.40576 
L 110.688 220.38912 
L 111.184 212.47488 
L 111.68 220.07808 
L 112.176 212.33664 
L 112.672 220.11264 
L 113.168 212.44032 
L 113.664 220.11264 
L 114.16 212.3712 
L 114.656 220.07808 
L 115.152 212.44032 
L 115.648 220.07808 
L 116.144 212.40576 
L 116.64 220.04352 
L 117.136 212.1984 
L 117.632 220.07808 
L 118.128 212.47488 
L 118.624 220.07808 
L 119.12 212.3712 
L 119.616 220.07808 
L 120.112 212.44032 
L 120.608 220.07808 
L 121.104 212.47488 
L 121.6 220.07808 
L 122.096 212.47488 
L 122.592 220.07808 
L 123.088 212.40576 
L 123.584 357.5232 
L 124.08 212.44032 
L 124.576 357.5232 
L 125.072 210.67776 
L 125.568 357.5232 
L 126.064 74.4768 
L 126.56 357.5232 
L 127.056 74.4768 
L 127.552 357.5232 
L 128.048 210.33216 
L 128.544 220.04352 
L 129.04 212.44032 
L 129.536 220.07808 
L 130.032 212.44032 
L 130.528 220.73472 
L 131.024 212.44032 
L 131.52 220.42368 
L 132.016 212.40576 
L 132.512 220.11264 
L 133.008 212.40576 
L 133.504 220.4928 
L 134 212.44032 
L 134.496 220.38912 
L 134.992 212.44032 
L 135.488 220.11264 
L 135.984 212.47488 
L 136.48 220.6656 
L 136.976 212.44032 
L 137.472 220.07808 
L 137.968 212.40576 
L 138.464 220.07808 
L 138.96 212.44032 
L 139.456 220.4928 
L 139.952 212.44032 
L 140.448 220.07808 
L 140.944 212.44032 
L 141.44 220.4928 
L 141.936 212.47488 
L 142.432 220.07808 
L 142.928 212.44032 
L 143.424 220.07808 
L 143.92 212.23296 
L 144.416 220.07808 
L 144.912 212.47488 
L 145.408 220.07808 
L 145.904 212.40576 
L 146.4 220.11264 
L 146.896 212.44032 
L 147.392 220.07808 
L 147.888 212.33664 
L 148.384 220.07808 
L 148.88 212.44032 
L 149.376 220.07808 
L 149.872 212.40576 
L 150.368 220.04352 
L 150.864 212.44032 
L 151.36 220.07808 
L 151.856 212.44032 
L 152.352 220.07808 
L 152.848 212.47488 
L 153.344 220.21632 
L 153.84 212.40576 
L 154.336 220.25088 
L 154.832 212.30208 
L 155.328 220.07808 
L 155.824 212.40576 
L 156.32 220.11264 
L 156.816 212.44032 
L 157.312 220.04352 
L 157.808 212.44032 
L 158.304 220.25088 
L 158.8 212.44032 
L 159.296 220.11264 
L 159.792 212.44032 
L 160.288 220.21632 
L 160.784 212.40576 
L 161.28 220.07808 
L 161.776 212.44032 
L 162.272 220.04352 
L 162.768 212.44032 
L 163.264 220.04352 
L 163.76 212.40576 
L 164.256 220.04352 
L 164.752 212.44032 
L 165.248 220.18176 
L 165.744 212.44032 
L 166.24 220.07808 
L 166.736 212.33664 
L 167.232 220.11264 
L 167.728 212.1984 
L 168.224 220.07808 
L 168.72 212.40576 
L 169.216 220.07808 
L 169.712 212.44032 
L 170.208 220.04352 
L 170.704 212.47488 
L 171.2 220.07808 
L 171.696 212.44032 
L 172.192 220.35456 
L 172.688 212.44032 
L 173.184 220.07808 
L 173.68 211.88736 
L 174.176 220.04352 
L 174.672 212.44032 
L 175.168 220.04352 
L 175.664 212.47488 
L 176.16 224.01792 
L 176.656 74.4768 
L 177.152 220.07808 
L 177.648 212.40576 
L 178.144 220.04352 
L 178.64 212.47488 
L 179.136 220.18176 
L 179.632 212.44032 
L 180.128 220.28544 
L 180.624 212.44032 
L 181.12 220.07808 
L 181.616 212.40576 
L 182.112 220.04352 
L 182.608 212.44032 
L 183.104 220.32 
L 183.6 212.26752 
L 184.096 220.04352 
L 184.592 212.44032 
L 185.088 220.04352 
L 185.584 212.44032 
L 186.08 220.11264 
L 186.576 212.40576 
L 187.072 220.07808 
L 187.568 212.47488 
L 188.064 220.1472 
L 188.56 212.44032 
L 189.056 226.29888 
L 189.552 212.3712 
L 190.048 220.07808 
L 190.544 212.44032 
L 191.04 220.07808 
L 191.536 212.47488 
L 192.032 220.18176 
L 192.528 212.12928 
L 193.024 220.07808 
L 193.52 212.40576 
L 194.016 220.11264 
L 194.512 212.47488 
L 195.008 220.1472 
L 195.504 212.44032 
L 196 220.04352 
L 196.496 212.09472 
L 196.992 220.04352 
L 197.488 212.47488 
L 197.984 220.07808 
L 198.48 212.44032 
L 198.976 220.1472 
L 199.472 212.44032 
L 199.968 220.00896 
L 200.464 211.78368 
L 200.96 220.04352 
L 201.456 211.36896 
L 201.952 220.42368 
L 202.448 212.06016 
L 202.944 220.1472 
L 203.44 212.44032 
L 203.936 220.28544 
L 204.432 212.44032 
L 204.928 220.56192 
L 205.424 212.1984 
L 205.92 220.04352 
L 206.416 212.47488 
L 206.912 220.52736 
L 207.408 212.47488 
L 207.904 220.07808 
L 208.4 212.3712 
L 208.896 220.07808 
L 209.392 212.44032 
L 209.888 357.5232 
L 210.384 212.40576 
L 210.88 220.07808 
L 211.376 212.47488 
L 211.872 220.00896 
L 212.368 212.47488 
L 212.864 220.04352 
L 213.36 212.44032 
L 213.856 220.07808 
L 214.352 212.47488 
L 214.848 220.07808 
L 215.344 212.47488 
L 215.84 220.1472 
L 216.336 212.44032 
L 216.832 220.07808 
L 217.328 212.40576 
L 217.824 220.07808 
L 218.32 212.47488 
L 218.816 220.1472 
L 219.312 212.44032 
L 219.808 357.5232 
L 220.304 212.33664 
L 220.8 357.5232 
L 221.296 74.4768 
L 221.792 220.07808 
L 222.288 212.47488 
L 222.784 220.07808 
L 223.28 212.3712 
L 223.776 220.07808 
L 224.272 212.3712 
L 224.768 220.07808 
L 225.264 212.3712 
L 225.76 220.42368 
L 226.256 212.44032 
L 226.752 220.04352 
L 227.248 212.44032 
L 227.744 220.07808 
L 228.24 212.47488 
L 228.736 220.07808 
L 229.232 212.47488 
L 229.728 220.04352 
L 230.224 212.3712 
L 230.72 220.07808 
L 231.216 212.44032 
L 231.712 220.07808 
L 232.208 212.44032 
L 232.704 220.04352 
L 233.2 212.30208 
L 233.696 220.07808 
L 234.192 212.23296 
L 234.688 220.04352 
L 235.184 211.61088 
L 235.68 220.11264 
L 236.176 212.50944 
L 236.672 220.04352 
L 237.168 212.44032 
L 237.664 220.07808 
L 238.16 212.26752 
L 238.656 220.04352 
L 239.152 212.44032 
L 239.648 220.07808 
L 240.144 75.20256 
L 240.64 220.07808 
L 241.136 212.44032 
L 241.632 220.11264 
L 242.128 212.09472 
L 242.624 220.04352 
L 243.12 212.33664 
L 243.616 220.07808 
L 244.112 212.47488 
L 244.608 220.21632 
L 245.104 212.44032 
L 245.6 220.04352 
L 246.096 212.26752 
L 246.592 220.11264 
L 247.088 212.40576 
L 247.584 220.07808 
L 248.08 212.0256 
L 248.576 357.5232 
L 249.072 208.70784 
L 249.568 220.56192 
L 250.064 212.44032 
L 250.56 220.00896 
L 251.056 211.54176 
L 251.552 220.11264 
L 252.048 212.40576 
L 252.544 220.28544 
L 253.04 212.44032 
L 253.536 220.42368 
L 254.032 212.40576 
L 254.528 220.07808 
L 255.024 212.44032 
L 255.52 220.25088 
L 256.016 212.44032 
L 256.512 220.07808 
L 257.008 212.44032 
L 257.504 220.00896 
L 258 212.47488 
L 258.496 220.52736 
L 258.992 211.68 
L 259.488 220.07808 
L 259.984 212.47488 
L 260.48 220.11264 
L 260.976 212.44032 
L 261.472 220.11264 
L 261.968 212.44032 
L 262.464 220.07808 
L 262.96 212.40576 
L 263.456 220.07808 
L 263.952 212.44032 
L 264.448 220.07808 
L 264.944 212.44032 
L 265.44 220.07808 
L 265.936 212.47488 
L 266.432 220.32 
L 266.928 212.47488 
L 267.424 220.04352 
L 267.92 212.44032 
L 268.416 220.00896 
L 268.912 212.47488 
L 269.408 220.07808 
L 269.904 212.47488 
L 270.4 220.07808 
L 270.896 212.40576 
L 271.392 220.11264 
L 271.888 212.33664 
L 272.384 220.07808 
L 272.88 211.71456 
L 273.376 220.59648 
L 273.872 210.02112 
L 274.368 220.04352 
L 274.864 212.44032 
L 275.36 220.07808 
L 275.856 212.09472 
L 276.352 220.07808 
L 276.848 212.47488 
L 277.344 220.52736 
L 277.84 212.44032 
L 278.336 220.11264 
L 278.832 212.44032 
L 279.328 220.07808 
L 279.824 212.47488 
L 280.32 220.07808 
L 280.816 212.40576 
L 281.312 220.11264 
L 281.808 212.3712 
L 282.304 220.07808 
L 282.8 212.47488 
L 283.296 220.07808 
L 283.792 212.33664 
L 284.288 220.07808 
L 284.784 212.44032 
L 285.28 220.07808 
L 285.776 212.47488 
L 286.272 220.04352 
L 286.768 212.44032 
L 287.264 224.8128 
L 287.76 212.40576 
L 288.256 220.04352 
L 288.752 212.47488 
L 289.248 220.07808 
L 289.744 212.47488 
L 290.24 220.07808 
L 290.736 212.44032 
L 291.232 220.07808 
L 291.728 212.44032 
L 292.224 220.18176 
L 292.72 212.40576 
L 293.216 220.07808 
L 293.712 212.40576 
L 294.208 220.07808 
L 294.704 212.47488 
L 295.2 221.90976 
L 295.696 212.44032 
L 296.192 220.07808 
L 296.688 212.3712 
L 297.184 220.07808 
L 297.68 211.40352 
L 298.176 220.07808 
L 298.672 212.40576 
L 299.168 220.04352 
L 299.664 212.40576 
L 300.16 220.38912 
L 300.656 212.50944 
L 301.152 220.04352 
L 301.648 212.44032 
L 302.144 220.07808 
L 302.64 212.47488 
L 303.136 220.11264 
L 303.632 212.33664 
L 304.128 220.11264 
L 304.624 212.44032 
L 305.12 220.07808 
L 305.616 212.50944 
L 306.112 220.07808 
L 306.608 212.47488 
L 307.104 220.07808 
L 307.6 212.47488 
L 308.096 220.04352 
L 308.592 212.44032 
L 309.088 220.11264 
L 309.584 212.44032 
L 310.08 220.18176 
L 310.576 212.40576 
L 311.072 220.04352 
L 311.568 212.3712 
L 312.064 220.04352 
L 312.56 212.44032 
L 313.056 220.11264 
L 313.552 74.4768 
L 314.048 220.07808 
L 314.544 74.4768 
L 315.04 220.04352 
L 315.536 212.44032 
L 316.032 220.07808 
L 316.528 212.40576 
L 317.024 220.21632 
L 317.52 212.40576 
L 318.016 357.5232 
L 318.512 212.40576 
L 319.008 220.04352 
L 319.504 212.44032 
L 320 220.07808 
L 320.496 212.40576 
L 320.992 220.07808 
L 321.488 210.02112 
L 321.984 219.9744 
L 322.48 212.12928 
L 322.976 220.07808 
L 323.472 212.44032 
L 323.968 220.00896 
L 324.464 212.44032 
L 324.96 220.11264 
L 325.456 212.44032 
L 325.952 357.5232 
L 326.448 212.40576 
L 326.944 220.11264 
L 327.44 212.33664 
L 327.936 220.04352 
L 328.432 212.30208 
L 328.928 220.87296 
L 329.424 212.3712 
L 329.92 220.38912 
L 330.416 212.3712 
L 330.912 220.07808 
L 331.408 211.64544 
L 331.904 220.32 
L 332.4 212.44032 
L 332.896 220.04352 
L 333.392 207.42912 
L 333.888 220.07808 
L 334.384 212.44032 
L 334.88 220.04352 
L 335.376 212.40576 
L 335.872 357.5232 
L 336.368 212.44032 
L 336.864 220.04352 
L 337.36 212.44032 
L 337.856 220.11264 
L 338.352 209.88288 
L 338.848 220.07808 
L 339.344 212.44032 
L 339.84 220.07808 
L 340.336 212.44032 
L 340.832 220.59648 
L 341.328 212.44032 
L 341.824 220.07808 
L 342.32 212.44032 
L 342.816 220.11264 
L 343.312 212.44032 
L 343.808 220.07808 
L 344.304 212.23296 
L 344.8 220.07808 
L 345.296 212.50944 
L 345.792 220.07808 
L 346.288 212.16384 
L 346.784 220.07808 
L 347.28 212.44032 
L 347.776 220.56192 
L 348.272 212.44032 
L 348.768 220.07808 
L 349.264 212.44032 
L 349.76 220.07808 
L 350.256 212.30208 
L 350.752 220.04352 
L 351.248 212.44032 
L 351.744 220.07808 
L 352.24 212.23296 
L 352.736 220.07808 
L 353.232 212.44032 
L 353.728 357.5232 
L 354.224 212.47488 
L 354.72 220.00896 
L 355.216 212.23296 
L 355.712 220.07808 
L 356.208 212.47488 
L 356.704 220.07808 
L 357.2 212.47488 
L 357.696 220.07808 
L 358.192 212.40576 
L 358.688 220.07808 
L 359.184 212.40576 
L 359.68 220.04352 
L 360.176 212.44032 
L 360.672 220.07808 
L 361.168 212.44032 
L 361.664 220.45824 
L 362.16 212.47488 
L 362.656 220.11264 
L 363.152 212.44032 
L 363.648 220.11264 
L 364.144 212.26752 
L 364.64 220.00896 
L 365.136 212.44032 
L 365.632 220.21632 
L 366.128 212.23296 
L 366.624 220.07808 
L 367.12 212.30208 
L 367.616 220.07808 
L 368.112 212.40576 
L 368.608 220.07808 
L 369.104 212.44032 
L 369.6 220.04352 
L 370.096 212.47488 
L 370.592 220.07808 
L 371.088 212.44032 
L 371.584 220.07808 
L 372.08 212.44032 
L 372.576 220.07808 
L 373.072 212.40576 
L 373.568 220.04352 
L 374.064 212.44032 
L 374.56 220.07808 
L 375.056 212.44032 
L 375.552 220.28544 
L 376.048 211.64544 
L 376.544 357.5232 
L 377.04 212.44032 
L 377.536 220.07808 
L 378.032 212.3712 
L 378.528 220.07808 
L 379.024 212.47488 
L 379.52 220.18176 
L 380.016 212.47488 
L 380.512 220.07808 
L 381.008 212.47488 
L 381.504 220.04352 
L 382 212.40576 
L 382.496 357.5232 
L 382.992 212.23296 
L 383.488 220.11264 
L 383.984 212.47488 
L 384.48 220.07808 
L 384.976 212.40576 
L 385.472 220.07808 
L 385.968 212.06016 
L 386.464 220.32 
L 386.96 212.3712 
L 387.456 220.07808 
L 387.952 212.44032 
L 388.448 220.04352 
L 388.944 212.47488 
L 389.44 220.07808 
L 389.936 212.3712 
L 390.432 357.5232 
L 390.928 212.44032 
L 391.424 220.11264 
L 391.92 212.30208 
L 392.416 220.25088 
L 392.912 212.44032 
L 393.408 220.35456 
L 393.904 212.47488 
L 394.4 220.04352 
L 394.896 212.3712 
L 395.392 352.58112 
L 395.888 212.44032 
L 396.384 220.04352 
L 396.88 212.44032 
L 397.376 220.25088 
L 397.872 212.40576 
L 398.368 220.04352 
L 398.864 212.40576 
L 399.36 220.00896 
L 399.856 212.44032 
L 400.352 220.21632 
L 400.848 212.40576 
L 401.344 220.07808 
L 401.84 212.44032 
L 402.336 220.07808 
L 402.832 212.44032 
L 403.328 220.42368 
L 403.824 212.44032 
L 404.32 357.5232 
L 404.816 212.40576 
L 405.312 220.07808 
L 405.808 212.47488 
L 406.304 220.07808 
L 406.8 212.47488 
L 407.296 220.04352 
L 407.792 212.40576 
L 408.288 220.07808 
L 408.784 212.47488 
L 409.28 220.07808 
L 409.776 212.3712 
L 410.272 220.1472 
L 410.768 212.40576 
L 411.264 220.07808 
L 411.76 212.44032 
L 412.256 220.38912 
L 412.752 212.12928 
L 413.248 220.07808 
L 413.744 212.44032 
L 414.24 220.94208 
L 414.736 212.44032 
L 415.232 220.07808 
L 415.728 212.40576 
L 416.224 220.07808 
L 416.72 212.40576 
L 417.216 220.07808 
L 417.712 212.44032 
L 418.208 220.07808 
L 418.704 212.33664 
L 419.2 220.07808 
L 419.696 212.47488 
L 420.192 220.11264 
L 420.688 212.44032 
L 421.184 220.04352 
L 421.68 212.47488 
L 422.176 220.04352 
L 422.672 212.44032 
L 423.168 220.32 
L 423.664 212.47488 
L 424.16 220.07808 
L 424.656 212.40576 
L 425.152 220.07808 
L 425.648 212.47488 
L 426.144 220.35456 
L 426.64 212.3712 
L 427.136 220.07808 
L 427.632 212.47488 
L 428.128 220.07808 
L 428.624 212.40576 
L 429.12 220.07808 
L 429.616 212.44032 
L 430.112 220.56192 
L 430.608 209.74464 
L 431.104 220.21632 
L 431.6 209.67552 
L 432.096 220.07808 
L 432.592 212.40576 
L 433.088 220.07808 
L 433.584 212.44032 
L 434.08 220.07808 
L 434.576 212.40576 
L 435.072 220.18176 
L 435.568 212.44032 
L 436.064 357.5232 
L 436.56 212.40576 
L 437.056 220.07808 
L 437.552 212.0256 
L 438.048 220.11264 
L 438.544 212.44032 
L 439.04 357.5232 
L 439.536 212.40576 
L 440.032 220.00896 
L 440.528 209.952 
L 441.024 220.07808 
L 441.52 212.47488 
L 442.016 220.04352 
L 442.512 74.4768 
L 443.008 220.04352 
L 443.504 74.4768 
L 444 220.07808 
L 444.496 212.26752 
L 444.992 220.07808 
L 445.488 212.40576 
L 445.984 220.07808 
L 446.48 212.44032 
L 446.976 220.07808 
L 447.472 212.44032 
L 447.968 357.5232 
L 448.464 212.44032 
L 448.96 220.07808 
L 449.456 212.40576 
L 449.952 220.28544 
L 450.448 212.44032 
L 450.944 220.07808 
L 451.44 210.33216 
L 451.936 220.11264 
L 452.432 212.23296 
L 452.928 220.07808 
L 453.424 212.40576 
L 453.92 220.56192 
L 454.416 212.44032 
L 454.912 220.07808 
L 455.408 212.47488 
L 455.904 220.07808 
L 456.4 212.44032 
L 456.896 220.07808 
L 457.392 212.3712 
L 457.888 220.07808 
L 458.384 212.44032 
L 458.88 220.04352 
L 459.376 212.33664 
L 459.872 220.07808 
L 460.368 211.92192 
L 460.864 220.42368 
L 461.36 212.3712 
L 461.856 220.07808 
L 462.352 211.92192 
L 462.848 220.11264 
L 463.344 211.71456 
L 463.84 221.84064 
L 464.336 212.44032 
L 464.832 220.07808 
L 465.328 209.81376 
L 465.824 220.07808 
L 466.32 212.23296 
L 466.816 220.00896 
L 467.312 211.02336 
L 467.808 220.11264 
L 468.304 212.44032 
L 468.8 220.11264 
L 469.296 209.88288 
L 469.792 220.04352 
L 470.288 212.30208 
L 470.784 220.04352 
L 471.28 212.44032 
L 471.776 221.5296 
L 472.272 212.44032 
L 472.768 220.04352 
L 473.264 212.44032 
L 473.76 220.90752 
L 474.256 212.3712 
L 474.752 220.07808 
L 475.248 212.3712 
L 475.744 220.63104 
L 476.24 212.3712 
L 476.736 220.07808 
L 477.232 212.44032 
L 477.728 220.07808 
L 478.224 212.26752 
L 478.72 220.07808 
L 479.216 212.44032 
L 479.712 220.07808 
L 480.208 212.40576 
L 480.704 220.07808 
L 481.2 212.44032 
L 481.696 357.5232 
L 482.192 212.44032 
L 482.688 220.25088 
L 483.184 212.40576 
L 483.68 220.07808 
L 484.176 212.47488 
L 484.672 220.11264 
L 485.168 212.44032 
L 485.664 220.18176 
L 486.16 212.33664 
L 486.656 220.00896 
L 487.152 212.44032 
L 487.648 220.11264 
L 488.144 212.47488 
L 488.64 220.07808 
L 489.136 212.44032 
L 489.632 220.07808 
L 490.128 212.44032 
L 490.624 220.07808 
L 491.12 212.40576 
L 491.616 221.25312 
L 492.112 212.44032 
L 492.608 220.07808 
L 493.104 212.47488 
L 493.6 220.07808 
L 494.096 212.47488 
L 494.592 220.07808 
L 495.088 212.44032 
L 495.584 220.1472 
L 496.08 212.44032 
L 496.576 220.59648 
L 497.072 212.40576 
L 497.568 220.04352 
L 498.064 74.4768 
L 498.56 220.04352 
L 499.056 212.44032 
L 499.552 220.07808 
L 500.048 212.12928 
L 500.544 220.04352 
L 501.04 212.3712 
L 501.536 220.04352 
L 502.032 212.44032 
L 502.528 220.11264 
L 503.024 212.3712 
L 503.024 212.3712 
" style="fill:none;stroke:#0000ff;stroke-linecap:square;"/>
   </g>
   <g id="patch_3">
    <path d="M 72 43.2 
L 518.4 43.2 
" style="fill:none;stroke:#000000;stroke-linecap:square;stroke-linejoin:miter;"/>
   </g>
   <g id="patch_4">
    <path d="M 518.4 388.8 
L 518.4 43.2 
" style="fill:none;stroke:#000000;stroke-linecap:square;stroke-linejoin:miter;"/>
   </g>
   <g id="patch_5">
    <path d="M 72 388.8 
L 518.4 388.8 
" style="fill:none;stroke:#000000;stroke-linecap:square;stroke-linejoin:miter;"/>
   </g>
   <g id="patch_6">
    <path d="M 72 388.8 
L 72 43.2 
" style="fill:none;stroke:#000000;stroke-linecap:square;stroke-linejoin:miter;"/>
   </g>
   <g id="matplotlib.axis_1">
    <g id="xtick_1">
     <g id="line2d_2">
      <defs>
       <path d="M 0 0 
L 0 -4 
" id="m5360eb515d" style="stroke:#000000;stroke-width:0.5;"/>
      </defs>
      <g>
       <use style="stroke:#000000;stroke-width:0.5;" x="72.0" xlink:href="#m5360eb515d" y="388.8"/>
      </g>
     </g>
     <g id="line2d_3">
      <defs>
       <path d="M 0 0 
L 0 4 
" id="m6d51fdc84c" style="stroke:#000000;stroke-width:0.5;"/>
      </defs>
      <g>
       <use style="stroke:#000000;stroke-width:0.5;" x="72.0" xlink:href="#m6d51fdc84c" y="43.2"/>
      </g>
     </g>
     <g id="text_1">
      <!-- 0 -->
      <defs>
       <path d="M 31.78125 66.40625 
Q 24.171875 66.40625 20.328125 58.90625 
Q 16.5 51.421875 16.5 36.375 
Q 16.5 21.390625 20.328125 13.890625 
Q 24.171875 6.390625 31.78125 6.390625 
Q 39.453125 6.390625 43.28125 13.890625 
Q 47.125 21.390625 47.125 36.375 
Q 47.125 51.421875 43.28125 58.90625 
Q 39.453125 66.40625 31.78125 66.40625 
M 31.78125 74.21875 
Q 44.046875 74.21875 50.515625 64.515625 
Q 56.984375 54.828125 56.984375 36.375 
Q 56.984375 17.96875 50.515625 8.265625 
Q 44.046875 -1.421875 31.78125 -1.421875 
Q 19.53125 -1.421875 13.0625 8.265625 
Q 6.59375 17.96875 6.59375 36.375 
Q 6.59375 54.828125 13.0625 64.515625 
Q 19.53125 74.21875 31.78125 74.21875 
" id="BitstreamVeraSans-Roman-30"/>
      </defs>
      <g transform="translate(68.1825 401.918125)scale(0.12 -0.12)">
       <use xlink:href="#BitstreamVeraSans-Roman-30"/>
      </g>
     </g>
    </g>
    <g id="xtick_2">
     <g id="line2d_4">
      <g>
       <use style="stroke:#000000;stroke-width:0.5;" x="121.6" xlink:href="#m5360eb515d" y="388.8"/>
      </g>
     </g>
     <g id="line2d_5">
      <g>
       <use style="stroke:#000000;stroke-width:0.5;" x="121.6" xlink:href="#m6d51fdc84c" y="43.2"/>
      </g>
     </g>
     <g id="text_2">
      <!-- 100 -->
      <defs>
       <path d="M 12.40625 8.296875 
L 28.515625 8.296875 
L 28.515625 63.921875 
L 10.984375 60.40625 
L 10.984375 69.390625 
L 28.421875 72.90625 
L 38.28125 72.90625 
L 38.28125 8.296875 
L 54.390625 8.296875 
L 54.390625 0 
L 12.40625 0 
z
" id="BitstreamVeraSans-Roman-31"/>
      </defs>
      <g transform="translate(110.1475 401.918125)scale(0.12 -0.12)">
       <use xlink:href="#BitstreamVeraSans-Roman-31"/>
       <use x="63.623046875" xlink:href="#BitstreamVeraSans-Roman-30"/>
       <use x="127.24609375" xlink:href="#BitstreamVeraSans-Roman-30"/>
      </g>
     </g>
    </g>
    <g id="xtick_3">
     <g id="line2d_6">
      <g>
       <use style="stroke:#000000;stroke-width:0.5;" x="171.2" xlink:href="#m5360eb515d" y="388.8"/>
      </g>
     </g>
     <g id="line2d_7">
      <g>
       <use style="stroke:#000000;stroke-width:0.5;" x="171.2" xlink:href="#m6d51fdc84c" y="43.2"/>
      </g>
     </g>
     <g id="text_3">
      <!-- 200 -->
      <defs>
       <path d="M 19.1875 8.296875 
L 53.609375 8.296875 
L 53.609375 0 
L 7.328125 0 
L 7.328125 8.296875 
Q 12.9375 14.109375 22.625 23.890625 
Q 32.328125 33.6875 34.8125 36.53125 
Q 39.546875 41.84375 41.421875 45.53125 
Q 43.3125 49.21875 43.3125 52.78125 
Q 43.3125 58.59375 39.234375 62.25 
Q 35.15625 65.921875 28.609375 65.921875 
Q 23.96875 65.921875 18.8125 64.3125 
Q 13.671875 62.703125 7.8125 59.421875 
L 7.8125 69.390625 
Q 13.765625 71.78125 18.9375 73 
Q 24.125 74.21875 28.421875 74.21875 
Q 39.75 74.21875 46.484375 68.546875 
Q 53.21875 62.890625 53.21875 53.421875 
Q 53.21875 48.921875 51.53125 44.890625 
Q 49.859375 40.875 45.40625 35.40625 
Q 44.1875 33.984375 37.640625 27.21875 
Q 31.109375 20.453125 19.1875 8.296875 
" id="BitstreamVeraSans-Roman-32"/>
      </defs>
      <g transform="translate(159.7475 401.918125)scale(0.12 -0.12)">
       <use xlink:href="#BitstreamVeraSans-Roman-32"/>
       <use x="63.623046875" xlink:href="#BitstreamVeraSans-Roman-30"/>
       <use x="127.24609375" xlink:href="#BitstreamVeraSans-Roman-30"/>
      </g>
     </g>
    </g>
    <g id="xtick_4">
     <g id="line2d_8">
      <g>
       <use style="stroke:#000000;stroke-width:0.5;" x="220.8" xlink:href="#m5360eb515d" y="388.8"/>
      </g>
     </g>
     <g id="line2d_9">
      <g>
       <use style="stroke:#000000;stroke-width:0.5;" x="220.8" xlink:href="#m6d51fdc84c" y="43.2"/>
      </g>
     </g>
     <g id="text_4">
      <!-- 300 -->
      <defs>
       <path d="M 40.578125 39.3125 
Q 47.65625 37.796875 51.625 33 
Q 55.609375 28.21875 55.609375 21.1875 
Q 55.609375 10.40625 48.1875 4.484375 
Q 40.765625 -1.421875 27.09375 -1.421875 
Q 22.515625 -1.421875 17.65625 -0.515625 
Q 12.796875 0.390625 7.625 2.203125 
L 7.625 11.71875 
Q 11.71875 9.328125 16.59375 8.109375 
Q 21.484375 6.890625 26.8125 6.890625 
Q 36.078125 6.890625 40.9375 10.546875 
Q 45.796875 14.203125 45.796875 21.1875 
Q 45.796875 27.640625 41.28125 31.265625 
Q 36.765625 34.90625 28.71875 34.90625 
L 20.21875 34.90625 
L 20.21875 43.015625 
L 29.109375 43.015625 
Q 36.375 43.015625 40.234375 45.921875 
Q 44.09375 48.828125 44.09375 54.296875 
Q 44.09375 59.90625 40.109375 62.90625 
Q 36.140625 65.921875 28.71875 65.921875 
Q 24.65625 65.921875 20.015625 65.03125 
Q 15.375 64.15625 9.8125 62.3125 
L 9.8125 71.09375 
Q 15.4375 72.65625 20.34375 73.4375 
Q 25.25 74.21875 29.59375 74.21875 
Q 40.828125 74.21875 47.359375 69.109375 
Q 53.90625 64.015625 53.90625 55.328125 
Q 53.90625 49.265625 50.4375 45.09375 
Q 46.96875 40.921875 40.578125 39.3125 
" id="BitstreamVeraSans-Roman-33"/>
      </defs>
      <g transform="translate(209.3475 401.918125)scale(0.12 -0.12)">
       <use xlink:href="#BitstreamVeraSans-Roman-33"/>
       <use x="63.623046875" xlink:href="#BitstreamVeraSans-Roman-30"/>
       <use x="127.24609375" xlink:href="#BitstreamVeraSans-Roman-30"/>
      </g>
     </g>
    </g>
    <g id="xtick_5">
     <g id="line2d_10">
      <g>
       <use style="stroke:#000000;stroke-width:0.5;" x="270.4" xlink:href="#m5360eb515d" y="388.8"/>
      </g>
     </g>
     <g id="line2d_11">
      <g>
       <use style="stroke:#000000;stroke-width:0.5;" x="270.4" xlink:href="#m6d51fdc84c" y="43.2"/>
      </g>
     </g>
     <g id="text_5">
      <!-- 400 -->
      <defs>
       <path d="M 37.796875 64.3125 
L 12.890625 25.390625 
L 37.796875 25.390625 
z
M 35.203125 72.90625 
L 47.609375 72.90625 
L 47.609375 25.390625 
L 58.015625 25.390625 
L 58.015625 17.1875 
L 47.609375 17.1875 
L 47.609375 0 
L 37.796875 0 
L 37.796875 17.1875 
L 4.890625 17.1875 
L 4.890625 26.703125 
z
" id="BitstreamVeraSans-Roman-34"/>
      </defs>
      <g transform="translate(258.9475 401.918125)scale(0.12 -0.12)">
       <use xlink:href="#BitstreamVeraSans-Roman-34"/>
       <use x="63.623046875" xlink:href="#BitstreamVeraSans-Roman-30"/>
       <use x="127.24609375" xlink:href="#BitstreamVeraSans-Roman-30"/>
      </g>
     </g>
    </g>
    <g id="xtick_6">
     <g id="line2d_12">
      <g>
       <use style="stroke:#000000;stroke-width:0.5;" x="320.0" xlink:href="#m5360eb515d" y="388.8"/>
      </g>
     </g>
     <g id="line2d_13">
      <g>
       <use style="stroke:#000000;stroke-width:0.5;" x="320.0" xlink:href="#m6d51fdc84c" y="43.2"/>
      </g>
     </g>
     <g id="text_6">
      <!-- 500 -->
      <defs>
       <path d="M 10.796875 72.90625 
L 49.515625 72.90625 
L 49.515625 64.59375 
L 19.828125 64.59375 
L 19.828125 46.734375 
Q 21.96875 47.46875 24.109375 47.828125 
Q 26.265625 48.1875 28.421875 48.1875 
Q 40.625 48.1875 47.75 41.5 
Q 54.890625 34.8125 54.890625 23.390625 
Q 54.890625 11.625 47.5625 5.09375 
Q 40.234375 -1.421875 26.90625 -1.421875 
Q 22.3125 -1.421875 17.546875 -0.640625 
Q 12.796875 0.140625 7.71875 1.703125 
L 7.71875 11.625 
Q 12.109375 9.234375 16.796875 8.0625 
Q 21.484375 6.890625 26.703125 6.890625 
Q 35.15625 6.890625 40.078125 11.328125 
Q 45.015625 15.765625 45.015625 23.390625 
Q 45.015625 31 40.078125 35.4375 
Q 35.15625 39.890625 26.703125 39.890625 
Q 22.75 39.890625 18.8125 39.015625 
Q 14.890625 38.140625 10.796875 36.28125 
z
" id="BitstreamVeraSans-Roman-35"/>
      </defs>
      <g transform="translate(308.5475 401.918125)scale(0.12 -0.12)">
       <use xlink:href="#BitstreamVeraSans-Roman-35"/>
       <use x="63.623046875" xlink:href="#BitstreamVeraSans-Roman-30"/>
       <use x="127.24609375" xlink:href="#BitstreamVeraSans-Roman-30"/>
      </g>
     </g>
    </g>
    <g id="xtick_7">
     <g id="line2d_14">
      <g>
       <use style="stroke:#000000;stroke-width:0.5;" x="369.6" xlink:href="#m5360eb515d" y="388.8"/>
      </g>
     </g>
     <g id="line2d_15">
      <g>
       <use style="stroke:#000000;stroke-width:0.5;" x="369.6" xlink:href="#m6d51fdc84c" y="43.2"/>
      </g>
     </g>
     <g id="text_7">
      <!-- 600 -->
      <defs>
       <path d="M 33.015625 40.375 
Q 26.375 40.375 22.484375 35.828125 
Q 18.609375 31.296875 18.609375 23.390625 
Q 18.609375 15.53125 22.484375 10.953125 
Q 26.375 6.390625 33.015625 6.390625 
Q 39.65625 6.390625 43.53125 10.953125 
Q 47.40625 15.53125 47.40625 23.390625 
Q 47.40625 31.296875 43.53125 35.828125 
Q 39.65625 40.375 33.015625 40.375 
M 52.59375 71.296875 
L 52.59375 62.3125 
Q 48.875 64.0625 45.09375 64.984375 
Q 41.3125 65.921875 37.59375 65.921875 
Q 27.828125 65.921875 22.671875 59.328125 
Q 17.53125 52.734375 16.796875 39.40625 
Q 19.671875 43.65625 24.015625 45.921875 
Q 28.375 48.1875 33.59375 48.1875 
Q 44.578125 48.1875 50.953125 41.515625 
Q 57.328125 34.859375 57.328125 23.390625 
Q 57.328125 12.15625 50.6875 5.359375 
Q 44.046875 -1.421875 33.015625 -1.421875 
Q 20.359375 -1.421875 13.671875 8.265625 
Q 6.984375 17.96875 6.984375 36.375 
Q 6.984375 53.65625 15.1875 63.9375 
Q 23.390625 74.21875 37.203125 74.21875 
Q 40.921875 74.21875 44.703125 73.484375 
Q 48.484375 72.75 52.59375 71.296875 
" id="BitstreamVeraSans-Roman-36"/>
      </defs>
      <g transform="translate(358.1475 401.918125)scale(0.12 -0.12)">
       <use xlink:href="#BitstreamVeraSans-Roman-36"/>
       <use x="63.623046875" xlink:href="#BitstreamVeraSans-Roman-30"/>
       <use x="127.24609375" xlink:href="#BitstreamVeraSans-Roman-30"/>
      </g>
     </g>
    </g>
    <g id="xtick_8">
     <g id="line2d_16">
      <g>
       <use style="stroke:#000000;stroke-width:0.5;" x="419.2" xlink:href="#m5360eb515d" y="388.8"/>
      </g>
     </g>
     <g id="line2d_17">
      <g>
       <use style="stroke:#000000;stroke-width:0.5;" x="419.2" xlink:href="#m6d51fdc84c" y="43.2"/>
      </g>
     </g>
     <g id="text_8">
      <!-- 700 -->
      <defs>
       <path d="M 8.203125 72.90625 
L 55.078125 72.90625 
L 55.078125 68.703125 
L 28.609375 0 
L 18.3125 0 
L 43.21875 64.59375 
L 8.203125 64.59375 
z
" id="BitstreamVeraSans-Roman-37"/>
      </defs>
      <g transform="translate(407.7475 401.918125)scale(0.12 -0.12)">
       <use xlink:href="#BitstreamVeraSans-Roman-37"/>
       <use x="63.623046875" xlink:href="#BitstreamVeraSans-Roman-30"/>
       <use x="127.24609375" xlink:href="#BitstreamVeraSans-Roman-30"/>
      </g>
     </g>
    </g>
    <g id="xtick_9">
     <g id="line2d_18">
      <g>
       <use style="stroke:#000000;stroke-width:0.5;" x="468.8" xlink:href="#m5360eb515d" y="388.8"/>
      </g>
     </g>
     <g id="line2d_19">
      <g>
       <use style="stroke:#000000;stroke-width:0.5;" x="468.8" xlink:href="#m6d51fdc84c" y="43.2"/>
      </g>
     </g>
     <g id="text_9">
      <!-- 800 -->
      <defs>
       <path d="M 31.78125 34.625 
Q 24.75 34.625 20.71875 30.859375 
Q 16.703125 27.09375 16.703125 20.515625 
Q 16.703125 13.921875 20.71875 10.15625 
Q 24.75 6.390625 31.78125 6.390625 
Q 38.8125 6.390625 42.859375 10.171875 
Q 46.921875 13.96875 46.921875 20.515625 
Q 46.921875 27.09375 42.890625 30.859375 
Q 38.875 34.625 31.78125 34.625 
M 21.921875 38.8125 
Q 15.578125 40.375 12.03125 44.71875 
Q 8.5 49.078125 8.5 55.328125 
Q 8.5 64.0625 14.71875 69.140625 
Q 20.953125 74.21875 31.78125 74.21875 
Q 42.671875 74.21875 48.875 69.140625 
Q 55.078125 64.0625 55.078125 55.328125 
Q 55.078125 49.078125 51.53125 44.71875 
Q 48 40.375 41.703125 38.8125 
Q 48.828125 37.15625 52.796875 32.3125 
Q 56.78125 27.484375 56.78125 20.515625 
Q 56.78125 9.90625 50.3125 4.234375 
Q 43.84375 -1.421875 31.78125 -1.421875 
Q 19.734375 -1.421875 13.25 4.234375 
Q 6.78125 9.90625 6.78125 20.515625 
Q 6.78125 27.484375 10.78125 32.3125 
Q 14.796875 37.15625 21.921875 38.8125 
M 18.3125 54.390625 
Q 18.3125 48.734375 21.84375 45.5625 
Q 25.390625 42.390625 31.78125 42.390625 
Q 38.140625 42.390625 41.71875 45.5625 
Q 45.3125 48.734375 45.3125 54.390625 
Q 45.3125 60.0625 41.71875 63.234375 
Q 38.140625 66.40625 31.78125 66.40625 
Q 25.390625 66.40625 21.84375 63.234375 
Q 18.3125 60.0625 18.3125 54.390625 
" id="BitstreamVeraSans-Roman-38"/>
      </defs>
      <g transform="translate(457.3475 401.918125)scale(0.12 -0.12)">
       <use xlink:href="#BitstreamVeraSans-Roman-38"/>
       <use x="63.623046875" xlink:href="#BitstreamVeraSans-Roman-30"/>
       <use x="127.24609375" xlink:href="#BitstreamVeraSans-Roman-30"/>
      </g>
     </g>
    </g>
    <g id="xtick_10">
     <g id="line2d_20">
      <g>
       <use style="stroke:#000000;stroke-width:0.5;" x="518.4" xlink:href="#m5360eb515d" y="388.8"/>
      </g>
     </g>
     <g id="line2d_21">
      <g>
       <use style="stroke:#000000;stroke-width:0.5;" x="518.4" xlink:href="#m6d51fdc84c" y="43.2"/>
      </g>
     </g>
     <g id="text_10">
      <!-- 900 -->
      <defs>
       <path d="M 10.984375 1.515625 
L 10.984375 10.5 
Q 14.703125 8.734375 18.5 7.8125 
Q 22.3125 6.890625 25.984375 6.890625 
Q 35.75 6.890625 40.890625 13.453125 
Q 46.046875 20.015625 46.78125 33.40625 
Q 43.953125 29.203125 39.59375 26.953125 
Q 35.25 24.703125 29.984375 24.703125 
Q 19.046875 24.703125 12.671875 31.3125 
Q 6.296875 37.9375 6.296875 49.421875 
Q 6.296875 60.640625 12.9375 67.421875 
Q 19.578125 74.21875 30.609375 74.21875 
Q 43.265625 74.21875 49.921875 64.515625 
Q 56.59375 54.828125 56.59375 36.375 
Q 56.59375 19.140625 48.40625 8.859375 
Q 40.234375 -1.421875 26.421875 -1.421875 
Q 22.703125 -1.421875 18.890625 -0.6875 
Q 15.09375 0.046875 10.984375 1.515625 
M 30.609375 32.421875 
Q 37.25 32.421875 41.125 36.953125 
Q 45.015625 41.5 45.015625 49.421875 
Q 45.015625 57.28125 41.125 61.84375 
Q 37.25 66.40625 30.609375 66.40625 
Q 23.96875 66.40625 20.09375 61.84375 
Q 16.21875 57.28125 16.21875 49.421875 
Q 16.21875 41.5 20.09375 36.953125 
Q 23.96875 32.421875 30.609375 32.421875 
" id="BitstreamVeraSans-Roman-39"/>
      </defs>
      <g transform="translate(506.9475 401.918125)scale(0.12 -0.12)">
       <use xlink:href="#BitstreamVeraSans-Roman-39"/>
       <use x="63.623046875" xlink:href="#BitstreamVeraSans-Roman-30"/>
       <use x="127.24609375" xlink:href="#BitstreamVeraSans-Roman-30"/>
      </g>
     </g>
    </g>
   </g>
   <g id="matplotlib.axis_2">
    <g id="ytick_1">
     <g id="line2d_22">
      <defs>
       <path d="M 0 0 
L 4 0 
" id="m3168e04b66" style="stroke:#000000;stroke-width:0.5;"/>
      </defs>
      <g>
       <use style="stroke:#000000;stroke-width:0.5;" x="72.0" xlink:href="#m3168e04b66" y="354.24"/>
      </g>
     </g>
     <g id="line2d_23">
      <defs>
       <path d="M 0 0 
L -4 0 
" id="m2af913d100" style="stroke:#000000;stroke-width:0.5;"/>
      </defs>
      <g>
       <use style="stroke:#000000;stroke-width:0.5;" x="518.4" xlink:href="#m2af913d100" y="354.24"/>
      </g>
     </g>
     <g id="text_11">
      <!-- −4000 -->
      <defs>
       <path d="M 10.59375 35.5 
L 73.1875 35.5 
L 73.1875 27.203125 
L 10.59375 27.203125 
z
" id="BitstreamVeraSans-Roman-2212"/>
      </defs>
      <g transform="translate(27.404375 357.55125)scale(0.12 -0.12)">
       <use xlink:href="#BitstreamVeraSans-Roman-2212"/>
       <use x="83.7890625" xlink:href="#BitstreamVeraSans-Roman-34"/>
       <use x="147.412109375" xlink:href="#BitstreamVeraSans-Roman-30"/>
       <use x="211.03515625" xlink:href="#BitstreamVeraSans-Roman-30"/>
       <use x="274.658203125" xlink:href="#BitstreamVeraSans-Roman-30"/>
      </g>
     </g>
    </g>
    <g id="ytick_2">
     <g id="line2d_24">
      <g>
       <use style="stroke:#000000;stroke-width:0.5;" x="72.0" xlink:href="#m3168e04b66" y="285.12"/>
      </g>
     </g>
     <g id="line2d_25">
      <g>
       <use style="stroke:#000000;stroke-width:0.5;" x="518.4" xlink:href="#m2af913d100" y="285.12"/>
      </g>
     </g>
     <g id="text_12">
      <!-- −2000 -->
      <g transform="translate(27.404375 288.43125)scale(0.12 -0.12)">
       <use xlink:href="#BitstreamVeraSans-Roman-2212"/>
       <use x="83.7890625" xlink:href="#BitstreamVeraSans-Roman-32"/>
       <use x="147.412109375" xlink:href="#BitstreamVeraSans-Roman-30"/>
       <use x="211.03515625" xlink:href="#BitstreamVeraSans-Roman-30"/>
       <use x="274.658203125" xlink:href="#BitstreamVeraSans-Roman-30"/>
      </g>
     </g>
    </g>
    <g id="ytick_3">
     <g id="line2d_26">
      <g>
       <use style="stroke:#000000;stroke-width:0.5;" x="72.0" xlink:href="#m3168e04b66" y="216.0"/>
      </g>
     </g>
     <g id="line2d_27">
      <g>
       <use style="stroke:#000000;stroke-width:0.5;" x="518.4" xlink:href="#m2af913d100" y="216.0"/>
      </g>
     </g>
     <g id="text_13">
      <!-- 0 -->
      <g transform="translate(60.365 219.31125)scale(0.12 -0.12)">
       <use xlink:href="#BitstreamVeraSans-Roman-30"/>
      </g>
     </g>
    </g>
    <g id="ytick_4">
     <g id="line2d_28">
      <g>
       <use style="stroke:#000000;stroke-width:0.5;" x="72.0" xlink:href="#m3168e04b66" y="146.88"/>
      </g>
     </g>
     <g id="line2d_29">
      <g>
       <use style="stroke:#000000;stroke-width:0.5;" x="518.4" xlink:href="#m2af913d100" y="146.88"/>
      </g>
     </g>
     <g id="text_14">
      <!-- 2000 -->
      <g transform="translate(37.46 150.19125)scale(0.12 -0.12)">
       <use xlink:href="#BitstreamVeraSans-Roman-32"/>
       <use x="63.623046875" xlink:href="#BitstreamVeraSans-Roman-30"/>
       <use x="127.24609375" xlink:href="#BitstreamVeraSans-Roman-30"/>
       <use x="190.869140625" xlink:href="#BitstreamVeraSans-Roman-30"/>
      </g>
     </g>
    </g>
    <g id="ytick_5">
     <g id="line2d_30">
      <g>
       <use style="stroke:#000000;stroke-width:0.5;" x="72.0" xlink:href="#m3168e04b66" y="77.76"/>
      </g>
     </g>
     <g id="line2d_31">
      <g>
       <use style="stroke:#000000;stroke-width:0.5;" x="518.4" xlink:href="#m2af913d100" y="77.76"/>
      </g>
     </g>
     <g id="text_15">
      <!-- 4000 -->
      <g transform="translate(37.46 81.07125)scale(0.12 -0.12)">
       <use xlink:href="#BitstreamVeraSans-Roman-34"/>
       <use x="63.623046875" xlink:href="#BitstreamVeraSans-Roman-30"/>
       <use x="127.24609375" xlink:href="#BitstreamVeraSans-Roman-30"/>
       <use x="190.869140625" xlink:href="#BitstreamVeraSans-Roman-30"/>
      </g>
     </g>
    </g>
   </g>
  </g>
 </g>
 <defs>
  <clipPath id="p37e521efc4">
   <rect height="345.6" width="446.4" x="72.0" y="43.2"/>
  </clipPath>
 </defs>
</svg>
