<?xml version="1.0" encoding="utf-8" standalone="no"?>
<!DOCTYPE svg PUBLIC "-//W3C//DTD SVG 1.1//EN"
  "http://www.w3.org/Graphics/SVG/1.1/DTD/svg11.dtd">
<!-- Created with matplotlib (http://matplotlib.org/) -->
<svg height="345.6pt" version="1.1" viewBox="0 0 460.8 345.6" width="460.8pt" xmlns="http://www.w3.org/2000/svg" xmlns:xlink="http://www.w3.org/1999/xlink">
 <defs>
  <style type="text/css">
*{stroke-linecap:butt;stroke-linejoin:round;}
  </style>
 </defs>
 <g id="figure_1">
  <g id="patch_1">
   <path d="M 0 345.6 
L 460.8 345.6 
L 460.8 0 
L 0 0 
z
" style="fill:#ffffff;"/>
  </g>
  <g id="axes_1">
   <g id="patch_2">
    <path d="M 57.6 119.740235 
L 414.72 119.740235 
L 414.72 41.472 
L 57.6 41.472 
z
" style="fill:#ffffff;"/>
   </g>
   <g id="matplotlib.axis_1">
    <g id="xtick_1">
     <g id="line2d_1">
      <defs>
       <path d="M 0 0 
L 0 3.5 
" id="mba32dcedf4" style="stroke:#000000;stroke-width:0.8;"/>
      </defs>
      <g>
       <use style="stroke:#000000;stroke-width:0.8;" x="73.832727" xlink:href="#mba32dcedf4" y="119.740235"/>
      </g>
     </g>
     <g id="text_1">
      <!-- 0 -->
      <defs>
       <path d="M 31.78125 66.40625 
Q 24.171875 66.40625 20.328125 58.90625 
Q 16.5 51.421875 16.5 36.375 
Q 16.5 21.390625 20.328125 13.890625 
Q 24.171875 6.390625 31.78125 6.390625 
Q 39.453125 6.390625 43.28125 13.890625 
Q 47.125 21.390625 47.125 36.375 
Q 47.125 51.421875 43.28125 58.90625 
Q 39.453125 66.40625 31.78125 66.40625 
z
M 31.78125 74.21875 
Q 44.046875 74.21875 50.515625 64.515625 
Q 56.984375 54.828125 56.984375 36.375 
Q 56.984375 17.96875 50.515625 8.265625 
Q 44.046875 -1.421875 31.78125 -1.421875 
Q 19.53125 -1.421875 13.0625 8.265625 
Q 6.59375 17.96875 6.59375 36.375 
Q 6.59375 54.828125 13.0625 64.515625 
Q 19.53125 74.21875 31.78125 74.21875 
z
" id="DejaVuSans-30"/>
      </defs>
      <g transform="translate(70.651477 134.338673)scale(0.1 -0.1)">
       <use xlink:href="#DejaVuSans-30"/>
      </g>
     </g>
    </g>
    <g id="xtick_2">
     <g id="line2d_2">
      <g>
       <use style="stroke:#000000;stroke-width:0.8;" x="122.056101" xlink:href="#mba32dcedf4" y="119.740235"/>
      </g>
     </g>
     <g id="text_2">
      <!-- 2 -->
      <defs>
       <path d="M 19.1875 8.296875 
L 53.609375 8.296875 
L 53.609375 0 
L 7.328125 0 
L 7.328125 8.296875 
Q 12.9375 14.109375 22.625 23.890625 
Q 32.328125 33.6875 34.8125 36.53125 
Q 39.546875 41.84375 41.421875 45.53125 
Q 43.3125 49.21875 43.3125 52.78125 
Q 43.3125 58.59375 39.234375 62.25 
Q 35.15625 65.921875 28.609375 65.921875 
Q 23.96875 65.921875 18.8125 64.3125 
Q 13.671875 62.703125 7.8125 59.421875 
L 7.8125 69.390625 
Q 13.765625 71.78125 18.9375 73 
Q 24.125 74.21875 28.421875 74.21875 
Q 39.75 74.21875 46.484375 68.546875 
Q 53.21875 62.890625 53.21875 53.421875 
Q 53.21875 48.921875 51.53125 44.890625 
Q 49.859375 40.875 45.40625 35.40625 
Q 44.1875 33.984375 37.640625 27.21875 
Q 31.109375 20.453125 19.1875 8.296875 
z
" id="DejaVuSans-32"/>
      </defs>
      <g transform="translate(118.874851 134.338673)scale(0.1 -0.1)">
       <use xlink:href="#DejaVuSans-32"/>
      </g>
     </g>
    </g>
    <g id="xtick_3">
     <g id="line2d_3">
      <g>
       <use style="stroke:#000000;stroke-width:0.8;" x="170.279476" xlink:href="#mba32dcedf4" y="119.740235"/>
      </g>
     </g>
     <g id="text_3">
      <!-- 4 -->
      <defs>
       <path d="M 37.796875 64.3125 
L 12.890625 25.390625 
L 37.796875 25.390625 
z
M 35.203125 72.90625 
L 47.609375 72.90625 
L 47.609375 25.390625 
L 58.015625 25.390625 
L 58.015625 17.1875 
L 47.609375 17.1875 
L 47.609375 0 
L 37.796875 0 
L 37.796875 17.1875 
L 4.890625 17.1875 
L 4.890625 26.703125 
z
" id="DejaVuSans-34"/>
      </defs>
      <g transform="translate(167.098226 134.338673)scale(0.1 -0.1)">
       <use xlink:href="#DejaVuSans-34"/>
      </g>
     </g>
    </g>
    <g id="xtick_4">
     <g id="line2d_4">
      <g>
       <use style="stroke:#000000;stroke-width:0.8;" x="218.50285" xlink:href="#mba32dcedf4" y="119.740235"/>
      </g>
     </g>
     <g id="text_4">
      <!-- 6 -->
      <defs>
       <path d="M 33.015625 40.375 
Q 26.375 40.375 22.484375 35.828125 
Q 18.609375 31.296875 18.609375 23.390625 
Q 18.609375 15.53125 22.484375 10.953125 
Q 26.375 6.390625 33.015625 6.390625 
Q 39.65625 6.390625 43.53125 10.953125 
Q 47.40625 15.53125 47.40625 23.390625 
Q 47.40625 31.296875 43.53125 35.828125 
Q 39.65625 40.375 33.015625 40.375 
z
M 52.59375 71.296875 
L 52.59375 62.3125 
Q 48.875 64.0625 45.09375 64.984375 
Q 41.3125 65.921875 37.59375 65.921875 
Q 27.828125 65.921875 22.671875 59.328125 
Q 17.53125 52.734375 16.796875 39.40625 
Q 19.671875 43.65625 24.015625 45.921875 
Q 28.375 48.1875 33.59375 48.1875 
Q 44.578125 48.1875 50.953125 41.515625 
Q 57.328125 34.859375 57.328125 23.390625 
Q 57.328125 12.15625 50.6875 5.359375 
Q 44.046875 -1.421875 33.015625 -1.421875 
Q 20.359375 -1.421875 13.671875 8.265625 
Q 6.984375 17.96875 6.984375 36.375 
Q 6.984375 53.65625 15.1875 63.9375 
Q 23.390625 74.21875 37.203125 74.21875 
Q 40.921875 74.21875 44.703125 73.484375 
Q 48.484375 72.75 52.59375 71.296875 
z
" id="DejaVuSans-36"/>
      </defs>
      <g transform="translate(215.3216 134.338673)scale(0.1 -0.1)">
       <use xlink:href="#DejaVuSans-36"/>
      </g>
     </g>
    </g>
    <g id="xtick_5">
     <g id="line2d_5">
      <g>
       <use style="stroke:#000000;stroke-width:0.8;" x="266.726224" xlink:href="#mba32dcedf4" y="119.740235"/>
      </g>
     </g>
     <g id="text_5">
      <!-- 8 -->
      <defs>
       <path d="M 31.78125 34.625 
Q 24.75 34.625 20.71875 30.859375 
Q 16.703125 27.09375 16.703125 20.515625 
Q 16.703125 13.921875 20.71875 10.15625 
Q 24.75 6.390625 31.78125 6.390625 
Q 38.8125 6.390625 42.859375 10.171875 
Q 46.921875 13.96875 46.921875 20.515625 
Q 46.921875 27.09375 42.890625 30.859375 
Q 38.875 34.625 31.78125 34.625 
z
M 21.921875 38.8125 
Q 15.578125 40.375 12.03125 44.71875 
Q 8.5 49.078125 8.5 55.328125 
Q 8.5 64.0625 14.71875 69.140625 
Q 20.953125 74.21875 31.78125 74.21875 
Q 42.671875 74.21875 48.875 69.140625 
Q 55.078125 64.0625 55.078125 55.328125 
Q 55.078125 49.078125 51.53125 44.71875 
Q 48 40.375 41.703125 38.8125 
Q 48.828125 37.15625 52.796875 32.3125 
Q 56.78125 27.484375 56.78125 20.515625 
Q 56.78125 9.90625 50.3125 4.234375 
Q 43.84375 -1.421875 31.78125 -1.421875 
Q 19.734375 -1.421875 13.25 4.234375 
Q 6.78125 9.90625 6.78125 20.515625 
Q 6.78125 27.484375 10.78125 32.3125 
Q 14.796875 37.15625 21.921875 38.8125 
z
M 18.3125 54.390625 
Q 18.3125 48.734375 21.84375 45.5625 
Q 25.390625 42.390625 31.78125 42.390625 
Q 38.140625 42.390625 41.71875 45.5625 
Q 45.3125 48.734375 45.3125 54.390625 
Q 45.3125 60.0625 41.71875 63.234375 
Q 38.140625 66.40625 31.78125 66.40625 
Q 25.390625 66.40625 21.84375 63.234375 
Q 18.3125 60.0625 18.3125 54.390625 
z
" id="DejaVuSans-38"/>
      </defs>
      <g transform="translate(263.544974 134.338673)scale(0.1 -0.1)">
       <use xlink:href="#DejaVuSans-38"/>
      </g>
     </g>
    </g>
    <g id="xtick_6">
     <g id="line2d_6">
      <g>
       <use style="stroke:#000000;stroke-width:0.8;" x="314.949598" xlink:href="#mba32dcedf4" y="119.740235"/>
      </g>
     </g>
     <g id="text_6">
      <!-- 10 -->
      <defs>
       <path d="M 12.40625 8.296875 
L 28.515625 8.296875 
L 28.515625 63.921875 
L 10.984375 60.40625 
L 10.984375 69.390625 
L 28.421875 72.90625 
L 38.28125 72.90625 
L 38.28125 8.296875 
L 54.390625 8.296875 
L 54.390625 0 
L 12.40625 0 
z
" id="DejaVuSans-31"/>
      </defs>
      <g transform="translate(308.587098 134.338673)scale(0.1 -0.1)">
       <use xlink:href="#DejaVuSans-31"/>
       <use x="63.623047" xlink:href="#DejaVuSans-30"/>
      </g>
     </g>
    </g>
    <g id="xtick_7">
     <g id="line2d_7">
      <g>
       <use style="stroke:#000000;stroke-width:0.8;" x="363.172972" xlink:href="#mba32dcedf4" y="119.740235"/>
      </g>
     </g>
     <g id="text_7">
      <!-- 12 -->
      <g transform="translate(356.810472 134.338673)scale(0.1 -0.1)">
       <use xlink:href="#DejaVuSans-31"/>
       <use x="63.623047" xlink:href="#DejaVuSans-32"/>
      </g>
     </g>
    </g>
    <g id="xtick_8">
     <g id="line2d_8">
      <g>
       <use style="stroke:#000000;stroke-width:0.8;" x="411.396346" xlink:href="#mba32dcedf4" y="119.740235"/>
      </g>
     </g>
     <g id="text_8">
      <!-- 14 -->
      <g transform="translate(405.033846 134.338673)scale(0.1 -0.1)">
       <use xlink:href="#DejaVuSans-31"/>
       <use x="63.623047" xlink:href="#DejaVuSans-34"/>
      </g>
     </g>
    </g>
   </g>
   <g id="matplotlib.axis_2">
    <g id="ytick_1">
     <g id="line2d_9">
      <defs>
       <path d="M 0 0 
L -3.5 0 
" id="m551a3884fa" style="stroke:#000000;stroke-width:0.8;"/>
      </defs>
      <g>
       <use style="stroke:#000000;stroke-width:0.8;" x="57.6" xlink:href="#m551a3884fa" y="118.516761"/>
      </g>
     </g>
     <g id="text_9">
      <!-- 0.00 -->
      <defs>
       <path d="M 10.6875 12.40625 
L 21 12.40625 
L 21 0 
L 10.6875 0 
z
" id="DejaVuSans-2e"/>
      </defs>
      <g transform="translate(28.334375 122.31598)scale(0.1 -0.1)">
       <use xlink:href="#DejaVuSans-30"/>
       <use x="63.623047" xlink:href="#DejaVuSans-2e"/>
       <use x="95.410156" xlink:href="#DejaVuSans-30"/>
       <use x="159.033203" xlink:href="#DejaVuSans-30"/>
      </g>
     </g>
    </g>
    <g id="ytick_2">
     <g id="line2d_10">
      <g>
       <use style="stroke:#000000;stroke-width:0.8;" x="57.6" xlink:href="#m551a3884fa" y="70.631212"/>
      </g>
     </g>
     <g id="text_10">
      <!-- 0.02 -->
      <g transform="translate(28.334375 74.43043)scale(0.1 -0.1)">
       <use xlink:href="#DejaVuSans-30"/>
       <use x="63.623047" xlink:href="#DejaVuSans-2e"/>
       <use x="95.410156" xlink:href="#DejaVuSans-30"/>
       <use x="159.033203" xlink:href="#DejaVuSans-32"/>
      </g>
     </g>
    </g>
    <g id="text_11">
     <!-- thegma_x -->
     <defs>
      <path d="M 18.3125 70.21875 
L 18.3125 54.6875 
L 36.8125 54.6875 
L 36.8125 47.703125 
L 18.3125 47.703125 
L 18.3125 18.015625 
Q 18.3125 11.328125 20.140625 9.421875 
Q 21.96875 7.515625 27.59375 7.515625 
L 36.8125 7.515625 
L 36.8125 0 
L 27.59375 0 
Q 17.1875 0 13.234375 3.875 
Q 9.28125 7.765625 9.28125 18.015625 
L 9.28125 47.703125 
L 2.6875 47.703125 
L 2.6875 54.6875 
L 9.28125 54.6875 
L 9.28125 70.21875 
z
" id="DejaVuSans-74"/>
      <path d="M 54.890625 33.015625 
L 54.890625 0 
L 45.90625 0 
L 45.90625 32.71875 
Q 45.90625 40.484375 42.875 44.328125 
Q 39.84375 48.1875 33.796875 48.1875 
Q 26.515625 48.1875 22.3125 43.546875 
Q 18.109375 38.921875 18.109375 30.90625 
L 18.109375 0 
L 9.078125 0 
L 9.078125 75.984375 
L 18.109375 75.984375 
L 18.109375 46.1875 
Q 21.34375 51.125 25.703125 53.5625 
Q 30.078125 56 35.796875 56 
Q 45.21875 56 50.046875 50.171875 
Q 54.890625 44.34375 54.890625 33.015625 
z
" id="DejaVuSans-68"/>
      <path d="M 56.203125 29.59375 
L 56.203125 25.203125 
L 14.890625 25.203125 
Q 15.484375 15.921875 20.484375 11.0625 
Q 25.484375 6.203125 34.421875 6.203125 
Q 39.59375 6.203125 44.453125 7.46875 
Q 49.3125 8.734375 54.109375 11.28125 
L 54.109375 2.78125 
Q 49.265625 0.734375 44.1875 -0.34375 
Q 39.109375 -1.421875 33.890625 -1.421875 
Q 20.796875 -1.421875 13.15625 6.1875 
Q 5.515625 13.8125 5.515625 26.8125 
Q 5.515625 40.234375 12.765625 48.109375 
Q 20.015625 56 32.328125 56 
Q 43.359375 56 49.78125 48.890625 
Q 56.203125 41.796875 56.203125 29.59375 
z
M 47.21875 32.234375 
Q 47.125 39.59375 43.09375 43.984375 
Q 39.0625 48.390625 32.421875 48.390625 
Q 24.90625 48.390625 20.390625 44.140625 
Q 15.875 39.890625 15.1875 32.171875 
z
" id="DejaVuSans-65"/>
      <path d="M 45.40625 27.984375 
Q 45.40625 37.75 41.375 43.109375 
Q 37.359375 48.484375 30.078125 48.484375 
Q 22.859375 48.484375 18.828125 43.109375 
Q 14.796875 37.75 14.796875 27.984375 
Q 14.796875 18.265625 18.828125 12.890625 
Q 22.859375 7.515625 30.078125 7.515625 
Q 37.359375 7.515625 41.375 12.890625 
Q 45.40625 18.265625 45.40625 27.984375 
z
M 54.390625 6.78125 
Q 54.390625 -7.171875 48.1875 -13.984375 
Q 42 -20.796875 29.203125 -20.796875 
Q 24.46875 -20.796875 20.265625 -20.09375 
Q 16.0625 -19.390625 12.109375 -17.921875 
L 12.109375 -9.1875 
Q 16.0625 -11.328125 19.921875 -12.34375 
Q 23.78125 -13.375 27.78125 -13.375 
Q 36.625 -13.375 41.015625 -8.765625 
Q 45.40625 -4.15625 45.40625 5.171875 
L 45.40625 9.625 
Q 42.625 4.78125 38.28125 2.390625 
Q 33.9375 0 27.875 0 
Q 17.828125 0 11.671875 7.65625 
Q 5.515625 15.328125 5.515625 27.984375 
Q 5.515625 40.671875 11.671875 48.328125 
Q 17.828125 56 27.875 56 
Q 33.9375 56 38.28125 53.609375 
Q 42.625 51.21875 45.40625 46.390625 
L 45.40625 54.6875 
L 54.390625 54.6875 
z
" id="DejaVuSans-67"/>
      <path d="M 52 44.1875 
Q 55.375 50.25 60.0625 53.125 
Q 64.75 56 71.09375 56 
Q 79.640625 56 84.28125 50.015625 
Q 88.921875 44.046875 88.921875 33.015625 
L 88.921875 0 
L 79.890625 0 
L 79.890625 32.71875 
Q 79.890625 40.578125 77.09375 44.375 
Q 74.3125 48.1875 68.609375 48.1875 
Q 61.625 48.1875 57.5625 43.546875 
Q 53.515625 38.921875 53.515625 30.90625 
L 53.515625 0 
L 44.484375 0 
L 44.484375 32.71875 
Q 44.484375 40.625 41.703125 44.40625 
Q 38.921875 48.1875 33.109375 48.1875 
Q 26.21875 48.1875 22.15625 43.53125 
Q 18.109375 38.875 18.109375 30.90625 
L 18.109375 0 
L 9.078125 0 
L 9.078125 54.6875 
L 18.109375 54.6875 
L 18.109375 46.1875 
Q 21.1875 51.21875 25.484375 53.609375 
Q 29.78125 56 35.6875 56 
Q 41.65625 56 45.828125 52.96875 
Q 50 49.953125 52 44.1875 
z
" id="DejaVuSans-6d"/>
      <path d="M 34.28125 27.484375 
Q 23.390625 27.484375 19.1875 25 
Q 14.984375 22.515625 14.984375 16.5 
Q 14.984375 11.71875 18.140625 8.90625 
Q 21.296875 6.109375 26.703125 6.109375 
Q 34.1875 6.109375 38.703125 11.40625 
Q 43.21875 16.703125 43.21875 25.484375 
L 43.21875 27.484375 
z
M 52.203125 31.203125 
L 52.203125 0 
L 43.21875 0 
L 43.21875 8.296875 
Q 40.140625 3.328125 35.546875 0.953125 
Q 30.953125 -1.421875 24.3125 -1.421875 
Q 15.921875 -1.421875 10.953125 3.296875 
Q 6 8.015625 6 15.921875 
Q 6 25.140625 12.171875 29.828125 
Q 18.359375 34.515625 30.609375 34.515625 
L 43.21875 34.515625 
L 43.21875 35.40625 
Q 43.21875 41.609375 39.140625 45 
Q 35.0625 48.390625 27.6875 48.390625 
Q 23 48.390625 18.546875 47.265625 
Q 14.109375 46.140625 10.015625 43.890625 
L 10.015625 52.203125 
Q 14.9375 54.109375 19.578125 55.046875 
Q 24.21875 56 28.609375 56 
Q 40.484375 56 46.34375 49.84375 
Q 52.203125 43.703125 52.203125 31.203125 
z
" id="DejaVuSans-61"/>
      <path d="M 50.984375 -16.609375 
L 50.984375 -23.578125 
L -0.984375 -23.578125 
L -0.984375 -16.609375 
z
" id="DejaVuSans-5f"/>
      <path d="M 54.890625 54.6875 
L 35.109375 28.078125 
L 55.90625 0 
L 45.3125 0 
L 29.390625 21.484375 
L 13.484375 0 
L 2.875 0 
L 24.125 28.609375 
L 4.6875 54.6875 
L 15.28125 54.6875 
L 29.78125 35.203125 
L 44.28125 54.6875 
z
" id="DejaVuSans-78"/>
     </defs>
     <g transform="translate(21.976562 105.379555)rotate(-90)scale(0.1 -0.1)">
      <use xlink:href="#DejaVuSans-74"/>
      <use x="39.208984" xlink:href="#DejaVuSans-68"/>
      <use x="102.587891" xlink:href="#DejaVuSans-65"/>
      <use x="164.111328" xlink:href="#DejaVuSans-67"/>
      <use x="227.587891" xlink:href="#DejaVuSans-6d"/>
      <use x="325" xlink:href="#DejaVuSans-61"/>
      <use x="386.279297" xlink:href="#DejaVuSans-5f"/>
      <use x="436.279297" xlink:href="#DejaVuSans-78"/>
     </g>
    </g>
   </g>
   <g id="line2d_11">
    <path clip-path="url(#p3175e09a3b)" d="M 73.832727 100.141559 
L 73.855349 116.182588 
L 74.219357 115.184449 
L 74.587477 110.283217 
L 76.024998 101.37414 
L 76.546331 99.805612 
L 77.151982 97.014949 
L 77.681541 95.754337 
L 77.905703 94.561265 
L 78.443488 93.430869 
L 78.755054 92.351742 
L 79.206464 91.320983 
L 79.51186 90.33111 
L 79.985893 89.379443 
L 80.290261 88.461349 
L 81.142696 86.717739 
L 81.45529 85.88762 
L 81.933436 114.150492 
L 82.644998 107.457957 
L 83.848074 101.959719 
L 84.09383 100.50309 
L 84.660407 99.726072 
L 86.201783 95.031902 
L 88.012566 91.215681 
L 88.334414 113.969016 
L 89.503557 105.872109 
L 90.002267 104.139757 
L 90.505091 114.396882 
L 90.84442 110.975461 
L 91.350329 108.736581 
L 91.604311 106.895852 
L 92.191453 105.362819 
L 92.442351 103.978515 
L 93.033606 102.737525 
L 93.383218 103.445185 
L 95.838726 96.810984 
L 96.446433 95.811755 
L 96.701444 114.286279 
L 97.043858 111.408459 
L 97.73177 109.2676 
L 97.992951 107.710746 
L 98.598602 106.195615 
L 99.204252 103.916486 
L 99.896278 102.707258 
L 100.241776 101.765637 
L 100.766194 114.941948 
L 101.810916 109.726779 
L 102.427878 108.590657 
L 102.784687 107.584142 
L 103.647406 105.820797 
L 104.269509 107.098849 
L 104.529661 106.208426 
L 106.035048 103.523296 
L 107.184653 101.203185 
L 108.699294 98.730807 
L 108.964588 114.900991 
L 109.588747 113.411753 
L 109.855069 112.395114 
L 110.476144 111.320301 
L 110.753777 110.549704 
L 112.181015 108.118032 
L 112.712631 107.740359 
L 112.983066 107.151372 
L 113.613395 106.47157 
L 113.888971 105.945197 
L 116.338309 102.287796 
L 117.518763 100.382848 
L 119.52903 97.157696 
L 121.254467 94.155108 
L 123.451879 90.112166 
L 125.3768 86.434156 
L 128.232304 80.716174 
L 128.601453 80.174003 
L 129.164945 115.021749 
L 129.89296 112.097064 
L 130.448225 110.910587 
L 131.198862 108.817432 
L 132.310422 106.732215 
L 132.681627 105.783841 
L 133.239978 104.766152 
L 133.524808 103.893098 
L 134.710403 101.839386 
L 135.078524 105.087619 
L 135.453842 103.91635 
L 136.017334 102.649102 
L 136.300108 101.628269 
L 136.947918 100.366622 
L 137.227607 99.394611 
L 139.830158 93.940558 
L 140.485165 92.119664 
L 141.13606 114.439348 
L 141.509322 111.271082 
L 142.441963 107.209367 
L 142.819337 105.578195 
L 143.378716 104.082096 
L 143.747865 102.692893 
L 144.404929 101.355119 
L 144.682562 101.139977 
L 145.338598 99.728635 
L 145.809546 98.437915 
L 146.093348 97.260849 
L 146.748356 96.030954 
L 147.119561 94.915198 
L 147.670714 93.790062 
L 147.958629 92.761618 
L 148.618778 91.681945 
L 148.896411 90.709726 
L 149.459903 114.11632 
L 150.392543 107.583061 
L 150.960148 105.452795 
L 151.243951 103.590324 
L 152.743168 99.780349 
L 153.121571 98.363161 
L 153.763211 97.012711 
L 154.065523 95.755581 
L 154.719502 94.541824 
L 155.098934 93.394278 
L 155.663454 92.286785 
L 156.050083 91.227856 
L 156.615631 114.006874 
L 156.926169 109.742826 
L 157.575007 106.944196 
L 157.857781 104.70735 
L 158.522043 102.782774 
L 158.80893 101.071796 
L 159.472164 99.518642 
L 159.852624 98.084111 
L 160.420229 96.75069 
L 161.165724 94.308227 
L 161.739499 93.186546 
L 162.116874 92.112521 
L 162.771882 91.095202 
L 163.052599 90.109467 
L 163.716861 89.174917 
L 164.001692 114.303975 
L 164.956955 107.451342 
L 165.622245 105.343032 
L 165.903991 103.517205 
L 166.566197 101.927461 
L 166.848971 100.47026 
L 167.414519 99.147066 
L 167.799092 97.91517 
L 168.459241 96.773618 
L 168.748185 95.692386 
L 169.400108 94.674084 
L 169.684938 93.709209 
L 170.336861 92.78295 
L 170.630946 114.019689 
L 171.662301 107.86555 
L 172.705995 104.180887 
L 173.002136 102.734894 
L 175.564584 96.68665 
L 175.6561 95.857543 
L 176.984625 93.758505 
L 178.208265 91.227962 
L 178.883839 114.140858 
L 179.166613 111.44133 
L 180.688452 106.26046 
L 181.259141 104.869444 
L 181.93163 102.72372 
L 182.495122 114.863406 
L 183.065811 112.763191 
L 183.731102 111.215426 
L 184.016961 109.932699 
L 186.59072 104.848119 
L 189.732083 99.474879 
L 191.651863 96.034414 
L 192.606097 94.271371 
L 193.191182 114.965088 
L 193.860586 113.776756 
L 194.147473 112.962157 
L 194.916619 111.755985 
L 195.202478 111.057801 
L 196.929971 108.00609 
L 198.93921 104.187305 
L 202.402422 97.355202 
L 206.44455 88.838086 
L 210.948371 79.078685 
L 211.51906 81.576574 
L 212.859924 78.826864 
L 213.140642 78.084454 
L 214.855795 74.806247 
L 214.855795 74.497814 
L 216.566836 71.327223 
L 216.566836 71.00195 
L 217.912841 68.798925 
L 218.284046 67.949309 
L 220.955491 63.169083 
L 222.568846 60.242754 
L 223.042878 59.371299 
L 224.772428 56.958642 
L 224.772428 56.57738 
L 226.016634 55.169091 
L 226.590409 54.334125 
L 228.21199 52.449416 
L 228.21199 52.056279 
L 229.560051 50.940545 
L 229.839741 50.402853 
L 230.605802 49.668987 
L 231.568262 48.927391 
L 232.037153 48.382343 
L 233.462335 47.273502 
L 234.886488 46.354279 
L 235.462319 45.953147 
L 237.536339 45.029647 
L 238.180036 56.660799 
L 238.943012 56.322531 
L 240.56665 55.726009 
L 242.660207 54.906175 
L 245.424195 54.023123 
L 246.2828 113.937837 
L 247.04989 110.796104 
L 247.718265 108.599575 
L 249.437532 105.342837 
L 250.105907 103.975675 
L 251.53623 101.539508 
L 252.50486 114.148674 
L 253.171179 111.057336 
L 255.375789 105.2808 
L 257.769601 100.636489 
L 258.531548 99.854453 
L 264.15207 91.866234 
L 265.004506 91.951414 
L 268.350495 87.008018 
L 271.686202 81.767766 
L 275.11034 76.038944 
L 279.610048 68.093011 
L 285.913341 56.68219 
L 286.871688 114.922073 
L 287.72618 112.824976 
L 290.409964 107.902833 
L 291.559569 106.30684 
L 292.323574 104.881233 
L 294.333841 101.928707 
L 295.198616 100.549243 
L 296.136397 101.059691 
L 298.150778 97.770114 
L 300.713226 93.598544 
L 301.867972 92.21385 
L 302.727606 90.990337 
L 304.926046 88.565496 
L 306.920889 86.42843 
L 308.744012 84.525136 
L 309.692076 83.64452 
L 310.940396 82.817486 
L 311.706456 82.038266 
L 312.94655 81.334318 
L 314.946534 80.050068 
L 316.885851 78.929602 
L 318.142396 78.486458 
L 320.067317 77.591793 
L 322.17527 76.849038 
L 323.421532 76.548858 
L 324.482707 76.978067 
L 326.402486 75.928057 
L 329.826624 74.409593 
L 332.884698 72.956818 
L 334.134046 72.411263 
L 335.089308 114.670329 
L 337.282607 110.020701 
L 348.763238 92.451694 
L 353.478882 84.295711 
L 365.613492 62.377225 
L 366.961554 114.978829 
L 368.314757 112.167363 
L 369.468475 110.032185 
L 370.811395 108.098173 
L 371.858174 106.350939 
L 374.436046 102.979018 
L 375.769712 103.082966 
L 376.915204 101.282472 
L 380.728028 96.469808 
L 382.054496 95.055225 
L 383.391246 114.636242 
L 384.739308 110.076084 
L 385.885828 107.210434 
L 388.662156 102.977486 
L 391.158795 99.715953 
L 393.83024 97.025924 
L 398.106813 93.718695 
L 398.487273 92.753294 
L 398.487273 86.860756 
L 398.487273 86.860756 
" style="fill:none;stroke:#1f77b4;stroke-linecap:square;stroke-width:1.5;"/>
   </g>
   <g id="patch_3">
    <path d="M 57.6 119.740235 
L 57.6 41.472 
" style="fill:none;stroke:#000000;stroke-linecap:square;stroke-linejoin:miter;stroke-width:0.8;"/>
   </g>
   <g id="patch_4">
    <path d="M 414.72 119.740235 
L 414.72 41.472 
" style="fill:none;stroke:#000000;stroke-linecap:square;stroke-linejoin:miter;stroke-width:0.8;"/>
   </g>
   <g id="patch_5">
    <path d="M 57.6 119.740235 
L 414.72 119.740235 
" style="fill:none;stroke:#000000;stroke-linecap:square;stroke-linejoin:miter;stroke-width:0.8;"/>
   </g>
   <g id="patch_6">
    <path d="M 57.6 41.472 
L 414.72 41.472 
" style="fill:none;stroke:#000000;stroke-linecap:square;stroke-linejoin:miter;stroke-width:0.8;"/>
   </g>
  </g>
  <g id="axes_2">
   <g id="patch_7">
    <path d="M 57.6 213.662118 
L 414.72 213.662118 
L 414.72 135.393882 
L 57.6 135.393882 
z
" style="fill:#ffffff;"/>
   </g>
   <g id="matplotlib.axis_3">
    <g id="xtick_9">
     <g id="line2d_12">
      <g>
       <use style="stroke:#000000;stroke-width:0.8;" x="73.832727" xlink:href="#mba32dcedf4" y="213.662118"/>
      </g>
     </g>
     <g id="text_12">
      <!-- 0 -->
      <g transform="translate(70.651477 228.260555)scale(0.1 -0.1)">
       <use xlink:href="#DejaVuSans-30"/>
      </g>
     </g>
    </g>
    <g id="xtick_10">
     <g id="line2d_13">
      <g>
       <use style="stroke:#000000;stroke-width:0.8;" x="122.056101" xlink:href="#mba32dcedf4" y="213.662118"/>
      </g>
     </g>
     <g id="text_13">
      <!-- 2 -->
      <g transform="translate(118.874851 228.260555)scale(0.1 -0.1)">
       <use xlink:href="#DejaVuSans-32"/>
      </g>
     </g>
    </g>
    <g id="xtick_11">
     <g id="line2d_14">
      <g>
       <use style="stroke:#000000;stroke-width:0.8;" x="170.279476" xlink:href="#mba32dcedf4" y="213.662118"/>
      </g>
     </g>
     <g id="text_14">
      <!-- 4 -->
      <g transform="translate(167.098226 228.260555)scale(0.1 -0.1)">
       <use xlink:href="#DejaVuSans-34"/>
      </g>
     </g>
    </g>
    <g id="xtick_12">
     <g id="line2d_15">
      <g>
       <use style="stroke:#000000;stroke-width:0.8;" x="218.50285" xlink:href="#mba32dcedf4" y="213.662118"/>
      </g>
     </g>
     <g id="text_15">
      <!-- 6 -->
      <g transform="translate(215.3216 228.260555)scale(0.1 -0.1)">
       <use xlink:href="#DejaVuSans-36"/>
      </g>
     </g>
    </g>
    <g id="xtick_13">
     <g id="line2d_16">
      <g>
       <use style="stroke:#000000;stroke-width:0.8;" x="266.726224" xlink:href="#mba32dcedf4" y="213.662118"/>
      </g>
     </g>
     <g id="text_16">
      <!-- 8 -->
      <g transform="translate(263.544974 228.260555)scale(0.1 -0.1)">
       <use xlink:href="#DejaVuSans-38"/>
      </g>
     </g>
    </g>
    <g id="xtick_14">
     <g id="line2d_17">
      <g>
       <use style="stroke:#000000;stroke-width:0.8;" x="314.949598" xlink:href="#mba32dcedf4" y="213.662118"/>
      </g>
     </g>
     <g id="text_17">
      <!-- 10 -->
      <g transform="translate(308.587098 228.260555)scale(0.1 -0.1)">
       <use xlink:href="#DejaVuSans-31"/>
       <use x="63.623047" xlink:href="#DejaVuSans-30"/>
      </g>
     </g>
    </g>
    <g id="xtick_15">
     <g id="line2d_18">
      <g>
       <use style="stroke:#000000;stroke-width:0.8;" x="363.172972" xlink:href="#mba32dcedf4" y="213.662118"/>
      </g>
     </g>
     <g id="text_18">
      <!-- 12 -->
      <g transform="translate(356.810472 228.260555)scale(0.1 -0.1)">
       <use xlink:href="#DejaVuSans-31"/>
       <use x="63.623047" xlink:href="#DejaVuSans-32"/>
      </g>
     </g>
    </g>
    <g id="xtick_16">
     <g id="line2d_19">
      <g>
       <use style="stroke:#000000;stroke-width:0.8;" x="411.396346" xlink:href="#mba32dcedf4" y="213.662118"/>
      </g>
     </g>
     <g id="text_19">
      <!-- 14 -->
      <g transform="translate(405.033846 228.260555)scale(0.1 -0.1)">
       <use xlink:href="#DejaVuSans-31"/>
       <use x="63.623047" xlink:href="#DejaVuSans-34"/>
      </g>
     </g>
    </g>
   </g>
   <g id="matplotlib.axis_4">
    <g id="ytick_3">
     <g id="line2d_20">
      <g>
       <use style="stroke:#000000;stroke-width:0.8;" x="57.6" xlink:href="#m551a3884fa" y="212.977861"/>
      </g>
     </g>
     <g id="text_20">
      <!-- 0.00 -->
      <g transform="translate(28.334375 216.77708)scale(0.1 -0.1)">
       <use xlink:href="#DejaVuSans-30"/>
       <use x="63.623047" xlink:href="#DejaVuSans-2e"/>
       <use x="95.410156" xlink:href="#DejaVuSans-30"/>
       <use x="159.033203" xlink:href="#DejaVuSans-30"/>
      </g>
     </g>
    </g>
    <g id="ytick_4">
     <g id="line2d_21">
      <g>
       <use style="stroke:#000000;stroke-width:0.8;" x="57.6" xlink:href="#m551a3884fa" y="162.48757"/>
      </g>
     </g>
     <g id="text_21">
      <!-- 0.02 -->
      <g transform="translate(28.334375 166.286788)scale(0.1 -0.1)">
       <use xlink:href="#DejaVuSans-30"/>
       <use x="63.623047" xlink:href="#DejaVuSans-2e"/>
       <use x="95.410156" xlink:href="#DejaVuSans-30"/>
       <use x="159.033203" xlink:href="#DejaVuSans-32"/>
      </g>
     </g>
    </g>
    <g id="text_22">
     <!-- thegma_y -->
     <defs>
      <path d="M 32.171875 -5.078125 
Q 28.375 -14.84375 24.75 -17.8125 
Q 21.140625 -20.796875 15.09375 -20.796875 
L 7.90625 -20.796875 
L 7.90625 -13.28125 
L 13.1875 -13.28125 
Q 16.890625 -13.28125 18.9375 -11.515625 
Q 21 -9.765625 23.484375 -3.21875 
L 25.09375 0.875 
L 2.984375 54.6875 
L 12.5 54.6875 
L 29.59375 11.921875 
L 46.6875 54.6875 
L 56.203125 54.6875 
z
" id="DejaVuSans-79"/>
     </defs>
     <g transform="translate(21.976562 199.301437)rotate(-90)scale(0.1 -0.1)">
      <use xlink:href="#DejaVuSans-74"/>
      <use x="39.208984" xlink:href="#DejaVuSans-68"/>
      <use x="102.587891" xlink:href="#DejaVuSans-65"/>
      <use x="164.111328" xlink:href="#DejaVuSans-67"/>
      <use x="227.587891" xlink:href="#DejaVuSans-6d"/>
      <use x="325" xlink:href="#DejaVuSans-61"/>
      <use x="386.279297" xlink:href="#DejaVuSans-5f"/>
      <use x="436.279297" xlink:href="#DejaVuSans-79"/>
     </g>
    </g>
   </g>
   <g id="line2d_22">
    <path clip-path="url(#p06c53f629f)" d="M 73.832727 195.144707 
L 73.855349 191.901561 
L 76.848642 190.659342 
L 79.985893 188.766358 
L 81.45529 187.505088 
L 81.933436 187.404327 
L 83.527253 185.701856 
L 84.09383 184.908008 
L 84.660407 209.259799 
L 85.061432 207.807845 
L 85.873765 205.43966 
L 86.201783 204.406806 
L 88.012566 200.345155 
L 88.334414 201.149712 
L 89.166284 198.986726 
L 89.503557 198.007719 
L 90.002267 196.910273 
L 90.505091 196.08782 
L 91.604311 193.070517 
L 92.191453 191.879508 
L 92.442351 191.032741 
L 93.033606 189.862417 
L 93.383218 208.698179 
L 94.650046 202.122113 
L 95.501453 199.12397 
L 95.838726 197.82242 
L 96.446433 196.440717 
L 96.701444 196.999704 
L 97.043858 195.6875 
L 97.73177 209.07256 
L 97.992951 205.766283 
L 98.598602 203.513821 
L 99.204252 199.983868 
L 99.896278 198.453683 
L 100.241776 197.043372 
L 100.766194 198.281674 
L 101.550764 195.225804 
L 101.810916 193.901326 
L 102.427878 192.506011 
L 102.784687 191.269675 
L 103.29985 190.019033 
L 103.647406 188.869615 
L 104.269509 208.336233 
L 104.529661 204.435038 
L 105.148679 201.684913 
L 105.502404 199.50807 
L 106.035048 208.69469 
L 106.390829 204.574938 
L 106.91319 201.86929 
L 107.184653 199.661037 
L 107.803671 197.754027 
L 108.071022 196.027824 
L 108.699294 194.444606 
L 108.964588 194.268952 
L 109.588747 192.713269 
L 109.855069 191.298252 
L 110.476144 189.920311 
L 110.753777 188.646133 
L 112.181015 185.075504 
L 112.712631 208.106733 
L 112.983066 203.721559 
L 113.613395 208.741293 
L 113.888971 204.060972 
L 114.797961 198.717646 
L 115.430347 196.677683 
L 115.701811 194.857374 
L 116.338309 193.201295 
L 116.612857 191.669085 
L 117.15784 190.238181 
L 117.518763 188.890767 
L 119.52903 184.122813 
L 119.80255 183.052861 
L 120.435964 207.778091 
L 120.706399 203.497328 
L 121.804591 198.272649 
L 122.261143 196.275619 
L 122.536719 194.512317 
L 123.084787 192.884178 
L 123.451879 191.398739 
L 124.092491 189.985829 
L 124.368067 188.697213 
L 125.009707 187.435136 
L 125.740807 185.158498 
L 126.388617 184.049714 
L 126.849282 183.01312 
L 127.127943 182.046032 
L 128.232304 180.102525 
L 128.601453 207.751246 
L 129.620468 202.116868 
L 129.89296 199.942741 
L 130.448225 198.117456 
L 131.198862 195.050938 
L 133.524808 189.283171 
L 134.710403 187.384919 
L 135.078524 208.452239 
L 135.453842 204.98062 
L 136.017334 202.566142 
L 136.300108 200.72122 
L 136.947918 199.001283 
L 137.227607 197.620046 
L 139.266666 192.720271 
L 140.201363 190.689553 
L 140.485165 189.849474 
L 141.13606 189.382437 
L 141.509322 188.438627 
L 142.441963 186.470116 
L 143.378716 184.595558 
L 143.747865 183.798253 
L 144.404929 182.696134 
L 144.682562 208.926439 
L 146.093348 203.773355 
L 146.748356 202.470307 
L 147.119561 201.462608 
L 147.670714 200.408674 
L 147.958629 199.608589 
L 148.618778 198.541814 
L 148.896411 197.841734 
L 149.459903 197.200895 
L 151.901015 192.672266 
L 152.182761 209.435546 
L 152.743168 210.104471 
L 153.121571 208.849144 
L 153.763211 207.824937 
L 154.065523 207.010358 
L 154.719502 206.111418 
L 155.098934 205.391183 
L 157.857781 201.212581 
L 159.472164 198.622303 
L 163.716861 190.87504 
L 164.001692 209.247902 
L 165.903991 204.645282 
L 166.566197 203.487601 
L 166.848971 202.646353 
L 168.459241 199.542619 
L 168.748185 198.733694 
L 169.400108 197.588868 
L 169.684938 196.786486 
L 170.336861 195.634119 
L 170.630946 197.919891 
L 171.288011 196.562162 
L 171.662301 195.53196 
L 172.705995 193.182388 
L 173.002136 192.274163 
L 174.611378 188.817683 
L 174.90135 187.939999 
L 175.564584 186.676816 
L 175.6561 186.019191 
L 176.984625 183.53752 
L 178.208265 180.641601 
L 178.883839 180.321284 
L 179.166613 179.441378 
L 181.259141 175.007841 
L 181.93163 173.247327 
L 182.495122 172.569809 
L 184.58765 168.7556 
L 184.971195 167.936698 
L 186.202034 166.022796 
L 186.59072 165.232382 
L 191.651863 157.40545 
L 192.606097 156.042787 
L 193.191182 156.11291 
L 193.860586 155.472923 
L 194.147473 154.896512 
L 194.916619 154.284355 
L 195.202478 153.728015 
L 195.875994 153.160099 
L 196.260567 152.619813 
L 196.929971 152.091659 
L 197.311459 151.577637 
L 199.512984 149.697793 
L 201.338163 148.495466 
L 201.726849 148.08877 
L 202.978253 147.416125 
L 203.457426 147.073959 
L 204.335569 146.850053 
L 205.389545 146.267028 
L 208.176156 145.080219 
L 208.176156 144.69295 
L 209.228076 144.659462 
L 209.896451 144.511085 
L 209.896451 144.150138 
L 210.948371 144.14162 
L 211.51906 207.670275 
L 213.140642 199.437654 
L 214.183307 197.22925 
L 214.855795 195.472958 
L 214.855795 194.399123 
L 215.901546 192.497109 
L 216.566836 190.998444 
L 216.566836 190.225325 
L 217.912841 188.034973 
L 218.284046 186.981136 
L 219.621825 184.17621 
L 219.901515 183.325469 
L 221.623866 179.913809 
L 224.772428 172.83555 
L 224.772428 172.630757 
L 226.590409 168.494261 
L 228.21199 164.460584 
L 230.605802 158.36163 
L 233.462335 150.621942 
L 237.536339 138.951529 
L 238.180036 209.291588 
L 241.232968 203.765877 
L 244.087445 198.237458 
L 245.424195 195.559981 
L 246.2828 195.065571 
L 251.53623 184.96331 
L 252.50486 184.826859 
L 254.6087 180.593707 
L 256.333108 177.584473 
L 257.769601 174.985664 
L 258.531548 208.810276 
L 260.249787 202.413934 
L 261.959799 198.275343 
L 262.628175 196.512172 
L 263.483695 194.862015 
L 264.15207 193.324907 
L 265.004506 208.200727 
L 266.631228 200.84268 
L 267.68212 198.442431 
L 268.350495 196.407677 
L 269.307814 194.570503 
L 269.975161 192.914277 
L 271.025025 191.376868 
L 271.686202 189.955171 
L 272.731952 188.62742 
L 273.39313 187.375577 
L 274.442993 186.207239 
L 275.11034 185.087862 
L 276.168429 184.046014 
L 276.837833 183.036005 
L 280.378165 179.473495 
L 282.381234 177.884379 
L 285.913341 174.848811 
L 286.871688 208.782327 
L 287.72618 204.811094 
L 288.67733 202.233594 
L 290.409964 198.477741 
L 291.559569 196.850641 
L 292.323574 195.489938 
L 295.198616 191.648007 
L 296.136397 208.872458 
L 297.099886 206.088062 
L 299.103984 202.266957 
L 302.727606 196.420078 
L 304.926046 193.123066 
L 308.744012 186.907603 
L 312.94655 179.502509 
L 318.142396 169.658309 
L 323.421532 159.393344 
L 324.482707 209.045011 
L 325.347481 206.584361 
L 326.402486 204.543504 
L 334.134046 192.460342 
L 336.426059 189.531568 
L 337.282607 188.132856 
L 342.923694 181.305611 
L 347.514918 176.934925 
L 351.062449 174.366257 
L 352.219252 173.640157 
L 354.729258 172.399952 
L 357.032582 171.349006 
L 358.47216 170.963657 
L 359.42845 170.506902 
L 365.613492 168.771095 
L 366.961554 208.960243 
L 368.314757 205.354515 
L 369.468475 203.003939 
L 371.858174 199.463567 
L 374.436046 196.480411 
L 375.769712 209.094204 
L 376.915204 206.668117 
L 379.39539 203.136458 
L 382.054496 199.825121 
L 383.391246 209.51669 
L 390.00302 203.249215 
L 393.83024 198.942823 
L 396.687801 195.458643 
L 398.106813 193.653525 
L 398.487273 192.889386 
L 398.487273 190.412347 
L 398.487273 190.412347 
" style="fill:none;stroke:#1f77b4;stroke-linecap:square;stroke-width:1.5;"/>
   </g>
   <g id="patch_8">
    <path d="M 57.6 213.662118 
L 57.6 135.393882 
" style="fill:none;stroke:#000000;stroke-linecap:square;stroke-linejoin:miter;stroke-width:0.8;"/>
   </g>
   <g id="patch_9">
    <path d="M 414.72 213.662118 
L 414.72 135.393882 
" style="fill:none;stroke:#000000;stroke-linecap:square;stroke-linejoin:miter;stroke-width:0.8;"/>
   </g>
   <g id="patch_10">
    <path d="M 57.6 213.662118 
L 414.72 213.662118 
" style="fill:none;stroke:#000000;stroke-linecap:square;stroke-linejoin:miter;stroke-width:0.8;"/>
   </g>
   <g id="patch_11">
    <path d="M 57.6 135.393882 
L 414.72 135.393882 
" style="fill:none;stroke:#000000;stroke-linecap:square;stroke-linejoin:miter;stroke-width:0.8;"/>
   </g>
  </g>
  <g id="axes_3">
   <g id="patch_12">
    <path d="M 57.6 307.584 
L 414.72 307.584 
L 414.72 229.315765 
L 57.6 229.315765 
z
" style="fill:#ffffff;"/>
   </g>
   <g id="matplotlib.axis_5">
    <g id="xtick_17">
     <g id="line2d_23">
      <g>
       <use style="stroke:#000000;stroke-width:0.8;" x="73.832727" xlink:href="#mba32dcedf4" y="307.584"/>
      </g>
     </g>
     <g id="text_23">
      <!-- 0 -->
      <g transform="translate(70.651477 322.182437)scale(0.1 -0.1)">
       <use xlink:href="#DejaVuSans-30"/>
      </g>
     </g>
    </g>
    <g id="xtick_18">
     <g id="line2d_24">
      <g>
       <use style="stroke:#000000;stroke-width:0.8;" x="122.056101" xlink:href="#mba32dcedf4" y="307.584"/>
      </g>
     </g>
     <g id="text_24">
      <!-- 2 -->
      <g transform="translate(118.874851 322.182437)scale(0.1 -0.1)">
       <use xlink:href="#DejaVuSans-32"/>
      </g>
     </g>
    </g>
    <g id="xtick_19">
     <g id="line2d_25">
      <g>
       <use style="stroke:#000000;stroke-width:0.8;" x="170.279476" xlink:href="#mba32dcedf4" y="307.584"/>
      </g>
     </g>
     <g id="text_25">
      <!-- 4 -->
      <g transform="translate(167.098226 322.182437)scale(0.1 -0.1)">
       <use xlink:href="#DejaVuSans-34"/>
      </g>
     </g>
    </g>
    <g id="xtick_20">
     <g id="line2d_26">
      <g>
       <use style="stroke:#000000;stroke-width:0.8;" x="218.50285" xlink:href="#mba32dcedf4" y="307.584"/>
      </g>
     </g>
     <g id="text_26">
      <!-- 6 -->
      <g transform="translate(215.3216 322.182437)scale(0.1 -0.1)">
       <use xlink:href="#DejaVuSans-36"/>
      </g>
     </g>
    </g>
    <g id="xtick_21">
     <g id="line2d_27">
      <g>
       <use style="stroke:#000000;stroke-width:0.8;" x="266.726224" xlink:href="#mba32dcedf4" y="307.584"/>
      </g>
     </g>
     <g id="text_27">
      <!-- 8 -->
      <g transform="translate(263.544974 322.182437)scale(0.1 -0.1)">
       <use xlink:href="#DejaVuSans-38"/>
      </g>
     </g>
    </g>
    <g id="xtick_22">
     <g id="line2d_28">
      <g>
       <use style="stroke:#000000;stroke-width:0.8;" x="314.949598" xlink:href="#mba32dcedf4" y="307.584"/>
      </g>
     </g>
     <g id="text_28">
      <!-- 10 -->
      <g transform="translate(308.587098 322.182437)scale(0.1 -0.1)">
       <use xlink:href="#DejaVuSans-31"/>
       <use x="63.623047" xlink:href="#DejaVuSans-30"/>
      </g>
     </g>
    </g>
    <g id="xtick_23">
     <g id="line2d_29">
      <g>
       <use style="stroke:#000000;stroke-width:0.8;" x="363.172972" xlink:href="#mba32dcedf4" y="307.584"/>
      </g>
     </g>
     <g id="text_29">
      <!-- 12 -->
      <g transform="translate(356.810472 322.182437)scale(0.1 -0.1)">
       <use xlink:href="#DejaVuSans-31"/>
       <use x="63.623047" xlink:href="#DejaVuSans-32"/>
      </g>
     </g>
    </g>
    <g id="xtick_24">
     <g id="line2d_30">
      <g>
       <use style="stroke:#000000;stroke-width:0.8;" x="411.396346" xlink:href="#mba32dcedf4" y="307.584"/>
      </g>
     </g>
     <g id="text_30">
      <!-- 14 -->
      <g transform="translate(405.033846 322.182437)scale(0.1 -0.1)">
       <use xlink:href="#DejaVuSans-31"/>
       <use x="63.623047" xlink:href="#DejaVuSans-34"/>
      </g>
     </g>
    </g>
    <g id="text_31">
     <!-- travel_distance -->
     <defs>
      <path d="M 41.109375 46.296875 
Q 39.59375 47.171875 37.8125 47.578125 
Q 36.03125 48 33.890625 48 
Q 26.265625 48 22.1875 43.046875 
Q 18.109375 38.09375 18.109375 28.8125 
L 18.109375 0 
L 9.078125 0 
L 9.078125 54.6875 
L 18.109375 54.6875 
L 18.109375 46.1875 
Q 20.953125 51.171875 25.484375 53.578125 
Q 30.03125 56 36.53125 56 
Q 37.453125 56 38.578125 55.875 
Q 39.703125 55.765625 41.0625 55.515625 
z
" id="DejaVuSans-72"/>
      <path d="M 2.984375 54.6875 
L 12.5 54.6875 
L 29.59375 8.796875 
L 46.6875 54.6875 
L 56.203125 54.6875 
L 35.6875 0 
L 23.484375 0 
z
" id="DejaVuSans-76"/>
      <path d="M 9.421875 75.984375 
L 18.40625 75.984375 
L 18.40625 0 
L 9.421875 0 
z
" id="DejaVuSans-6c"/>
      <path d="M 45.40625 46.390625 
L 45.40625 75.984375 
L 54.390625 75.984375 
L 54.390625 0 
L 45.40625 0 
L 45.40625 8.203125 
Q 42.578125 3.328125 38.25 0.953125 
Q 33.9375 -1.421875 27.875 -1.421875 
Q 17.96875 -1.421875 11.734375 6.484375 
Q 5.515625 14.40625 5.515625 27.296875 
Q 5.515625 40.1875 11.734375 48.09375 
Q 17.96875 56 27.875 56 
Q 33.9375 56 38.25 53.625 
Q 42.578125 51.265625 45.40625 46.390625 
z
M 14.796875 27.296875 
Q 14.796875 17.390625 18.875 11.75 
Q 22.953125 6.109375 30.078125 6.109375 
Q 37.203125 6.109375 41.296875 11.75 
Q 45.40625 17.390625 45.40625 27.296875 
Q 45.40625 37.203125 41.296875 42.84375 
Q 37.203125 48.484375 30.078125 48.484375 
Q 22.953125 48.484375 18.875 42.84375 
Q 14.796875 37.203125 14.796875 27.296875 
z
" id="DejaVuSans-64"/>
      <path d="M 9.421875 54.6875 
L 18.40625 54.6875 
L 18.40625 0 
L 9.421875 0 
z
M 9.421875 75.984375 
L 18.40625 75.984375 
L 18.40625 64.59375 
L 9.421875 64.59375 
z
" id="DejaVuSans-69"/>
      <path d="M 44.28125 53.078125 
L 44.28125 44.578125 
Q 40.484375 46.53125 36.375 47.5 
Q 32.28125 48.484375 27.875 48.484375 
Q 21.1875 48.484375 17.84375 46.4375 
Q 14.5 44.390625 14.5 40.28125 
Q 14.5 37.15625 16.890625 35.375 
Q 19.28125 33.59375 26.515625 31.984375 
L 29.59375 31.296875 
Q 39.15625 29.25 43.1875 25.515625 
Q 47.21875 21.78125 47.21875 15.09375 
Q 47.21875 7.46875 41.1875 3.015625 
Q 35.15625 -1.421875 24.609375 -1.421875 
Q 20.21875 -1.421875 15.453125 -0.5625 
Q 10.6875 0.296875 5.421875 2 
L 5.421875 11.28125 
Q 10.40625 8.6875 15.234375 7.390625 
Q 20.0625 6.109375 24.8125 6.109375 
Q 31.15625 6.109375 34.5625 8.28125 
Q 37.984375 10.453125 37.984375 14.40625 
Q 37.984375 18.0625 35.515625 20.015625 
Q 33.0625 21.96875 24.703125 23.78125 
L 21.578125 24.515625 
Q 13.234375 26.265625 9.515625 29.90625 
Q 5.8125 33.546875 5.8125 39.890625 
Q 5.8125 47.609375 11.28125 51.796875 
Q 16.75 56 26.8125 56 
Q 31.78125 56 36.171875 55.265625 
Q 40.578125 54.546875 44.28125 53.078125 
z
" id="DejaVuSans-73"/>
      <path d="M 54.890625 33.015625 
L 54.890625 0 
L 45.90625 0 
L 45.90625 32.71875 
Q 45.90625 40.484375 42.875 44.328125 
Q 39.84375 48.1875 33.796875 48.1875 
Q 26.515625 48.1875 22.3125 43.546875 
Q 18.109375 38.921875 18.109375 30.90625 
L 18.109375 0 
L 9.078125 0 
L 9.078125 54.6875 
L 18.109375 54.6875 
L 18.109375 46.1875 
Q 21.34375 51.125 25.703125 53.5625 
Q 30.078125 56 35.796875 56 
Q 45.21875 56 50.046875 50.171875 
Q 54.890625 44.34375 54.890625 33.015625 
z
" id="DejaVuSans-6e"/>
      <path d="M 48.78125 52.59375 
L 48.78125 44.1875 
Q 44.96875 46.296875 41.140625 47.34375 
Q 37.3125 48.390625 33.40625 48.390625 
Q 24.65625 48.390625 19.8125 42.84375 
Q 14.984375 37.3125 14.984375 27.296875 
Q 14.984375 17.28125 19.8125 11.734375 
Q 24.65625 6.203125 33.40625 6.203125 
Q 37.3125 6.203125 41.140625 7.25 
Q 44.96875 8.296875 48.78125 10.40625 
L 48.78125 2.09375 
Q 45.015625 0.34375 40.984375 -0.53125 
Q 36.96875 -1.421875 32.421875 -1.421875 
Q 20.0625 -1.421875 12.78125 6.34375 
Q 5.515625 14.109375 5.515625 27.296875 
Q 5.515625 40.671875 12.859375 48.328125 
Q 20.21875 56 33.015625 56 
Q 37.15625 56 41.109375 55.140625 
Q 45.0625 54.296875 48.78125 52.59375 
z
" id="DejaVuSans-63"/>
     </defs>
     <g transform="translate(197.968594 335.860562)scale(0.1 -0.1)">
      <use xlink:href="#DejaVuSans-74"/>
      <use x="39.208984" xlink:href="#DejaVuSans-72"/>
      <use x="80.322266" xlink:href="#DejaVuSans-61"/>
      <use x="141.601562" xlink:href="#DejaVuSans-76"/>
      <use x="200.78125" xlink:href="#DejaVuSans-65"/>
      <use x="262.304688" xlink:href="#DejaVuSans-6c"/>
      <use x="290.087891" xlink:href="#DejaVuSans-5f"/>
      <use x="340.087891" xlink:href="#DejaVuSans-64"/>
      <use x="403.564453" xlink:href="#DejaVuSans-69"/>
      <use x="431.347656" xlink:href="#DejaVuSans-73"/>
      <use x="483.447266" xlink:href="#DejaVuSans-74"/>
      <use x="522.65625" xlink:href="#DejaVuSans-61"/>
      <use x="583.935547" xlink:href="#DejaVuSans-6e"/>
      <use x="647.314453" xlink:href="#DejaVuSans-63"/>
      <use x="702.294922" xlink:href="#DejaVuSans-65"/>
     </g>
    </g>
   </g>
   <g id="matplotlib.axis_6">
    <g id="ytick_5">
     <g id="line2d_31">
      <g>
       <use style="stroke:#000000;stroke-width:0.8;" x="57.6" xlink:href="#m551a3884fa" y="278.860003"/>
      </g>
     </g>
     <g id="text_32">
      <!-- 2 -->
      <g transform="translate(44.2375 282.659222)scale(0.1 -0.1)">
       <use xlink:href="#DejaVuSans-32"/>
      </g>
     </g>
    </g>
    <g id="ytick_6">
     <g id="line2d_32">
      <g>
       <use style="stroke:#000000;stroke-width:0.8;" x="57.6" xlink:href="#m551a3884fa" y="248.236506"/>
      </g>
     </g>
     <g id="text_33">
      <!-- 4 -->
      <g transform="translate(44.2375 252.035725)scale(0.1 -0.1)">
       <use xlink:href="#DejaVuSans-34"/>
      </g>
     </g>
    </g>
    <g id="text_34">
     <!-- thegma_theta -->
     <g transform="translate(37.879687 303.493632)rotate(-90)scale(0.1 -0.1)">
      <use xlink:href="#DejaVuSans-74"/>
      <use x="39.208984" xlink:href="#DejaVuSans-68"/>
      <use x="102.587891" xlink:href="#DejaVuSans-65"/>
      <use x="164.111328" xlink:href="#DejaVuSans-67"/>
      <use x="227.587891" xlink:href="#DejaVuSans-6d"/>
      <use x="325" xlink:href="#DejaVuSans-61"/>
      <use x="386.279297" xlink:href="#DejaVuSans-5f"/>
      <use x="436.279297" xlink:href="#DejaVuSans-74"/>
      <use x="475.488281" xlink:href="#DejaVuSans-68"/>
      <use x="538.867188" xlink:href="#DejaVuSans-65"/>
      <use x="600.390625" xlink:href="#DejaVuSans-74"/>
      <use x="639.599609" xlink:href="#DejaVuSans-61"/>
     </g>
    </g>
   </g>
   <g id="line2d_33">
    <path clip-path="url(#pf270650b60)" d="M 73.832727 232.873412 
L 73.855349 304.026353 
L 74.587477 302.796044 
L 75.066651 302.231828 
L 75.358679 301.708449 
L 75.798779 301.218145 
L 76.024998 300.755341 
L 76.546331 300.31587 
L 77.151982 299.494767 
L 77.681541 299.108556 
L 77.905703 298.736215 
L 78.443488 298.376349 
L 78.755054 298.027782 
L 79.985893 297.04053 
L 80.290261 296.728416 
L 81.142696 296.126048 
L 81.45529 295.83483 
L 82.327263 295.346648 
L 82.644998 295.07117 
L 83.848074 294.274645 
L 84.09383 294.018251 
L 84.660407 295.226481 
L 87.503572 293.41131 
L 88.837238 292.695021 
L 90.002267 292.006457 
L 90.505091 293.711891 
L 91.604311 292.980843 
L 92.191453 292.744254 
L 92.442351 292.510963 
L 93.033606 292.280835 
L 93.383218 294.527897 
L 95.164181 293.510749 
L 95.838726 293.025733 
L 96.446433 292.788507 
L 96.701444 293.188937 
L 97.043858 292.949369 
L 97.73177 296.166572 
L 97.992951 295.874486 
L 98.943072 295.30836 
L 99.204252 295.033612 
L 99.896278 294.763991 
L 100.241776 294.499221 
L 100.766194 296.483309 
L 101.550764 295.8918 
L 101.810916 295.605496 
L 102.784687 295.049917 
L 103.647406 294.514944 
L 104.269509 294.763631 
L 104.529661 294.498867 
L 105.502404 293.982901 
L 106.035048 295.226594 
L 107.184653 294.421847 
L 107.803671 294.162989 
L 108.071022 293.908432 
L 108.699294 293.65797 
L 108.964588 296.42562 
L 109.588747 296.127868 
L 109.855069 295.836611 
L 110.476144 295.551442 
L 110.753777 295.271993 
L 112.712631 294.24842 
L 112.983066 293.99246 
L 113.613395 295.703349 
L 113.888971 295.420882 
L 115.430347 294.605622 
L 115.701811 294.343622 
L 116.338309 294.086078 
L 116.612857 293.832773 
L 118.617983 292.858099 
L 119.80255 292.16305 
L 120.435964 291.970279 
L 120.706399 291.747165 
L 122.261143 291.094057 
L 122.536719 290.88145 
L 124.092491 290.257728 
L 124.368067 290.05427 
L 125.3768 289.653615 
L 125.740807 289.456294 
L 126.849282 289.067371 
L 127.127943 288.875661 
L 128.232304 288.497496 
L 128.601453 289.599578 
L 129.164945 297.2424 
L 132.681627 294.897139 
L 133.239978 294.629995 
L 133.524808 294.367572 
L 135.078524 293.619809 
L 136.300108 292.892818 
L 136.947918 292.657467 
L 137.227607 292.425362 
L 139.830158 291.309248 
L 140.485165 290.881543 
L 141.13606 293.95606 
L 141.509322 293.704841 
L 142.441963 293.214037 
L 143.747865 292.504411 
L 144.404929 292.274371 
L 144.682562 295.600372 
L 145.809546 295.044989 
L 146.093348 294.77516 
L 147.119561 294.249833 
L 148.618778 293.494171 
L 148.896411 293.250099 
L 149.459903 294.300391 
L 150.960148 293.542333 
L 151.243951 293.297534 
L 151.901015 293.056383 
L 152.182761 297.620793 
L 152.743168 297.605419 
L 153.121571 297.27885 
L 153.763211 296.960794 
L 154.065523 296.650619 
L 155.098934 296.05174 
L 156.615631 295.217204 
L 156.926169 294.944178 
L 157.575007 294.676186 
L 157.857781 294.412958 
L 158.522043 294.15425 
L 158.80893 293.899836 
L 159.852624 293.403079 
L 160.798632 292.921215 
L 161.165724 292.685466 
L 162.771882 291.997278 
L 163.052599 291.773824 
L 163.716861 291.553154 
L 164.001692 297.000806 
L 165.622245 296.089036 
L 165.903991 295.798605 
L 166.566197 295.514212 
L 166.848971 295.235494 
L 168.459241 294.430271 
L 168.748185 294.17127 
L 169.400108 293.916578 
L 169.684938 293.665987 
L 171.288011 292.953858 
L 172.236075 292.484723 
L 176.319334 290.516674 
L 177.360971 290.106456 
L 177.655056 289.90457 
L 178.208265 289.704744 
L 178.883839 290.724043 
L 179.166613 290.515582 
L 181.259141 289.703697 
L 181.93163 289.310004 
L 182.495122 292.963407 
L 184.58765 292.037235 
L 184.971195 291.813276 
L 186.59072 291.157812 
L 189.732083 289.912632 
L 190.109458 289.712725 
L 191.063692 289.318855 
L 192.606097 288.74207 
L 193.191182 293.959801 
L 193.860586 293.708523 
L 194.147473 293.461185 
L 194.916619 293.217608 
L 195.202478 292.977625 
L 196.929971 292.277747 
L 197.879064 291.826567 
L 198.93921 291.386632 
L 203.457426 289.724603 
L 204.803431 289.330501 
L 208.176156 288.191919 
L 208.176156 288.008024 
L 209.896451 287.644878 
L 209.896451 287.46555 
L 210.948371 287.287672 
L 211.51906 287.887392 
L 212.859924 287.526241 
L 213.140642 287.347875 
L 214.855795 286.995387 
L 214.855795 286.821198 
L 216.566836 286.476778 
L 216.566836 286.306487 
L 217.912841 286.137438 
L 218.284046 285.969604 
L 224.772428 284.352841 
L 224.772428 284.19685 
L 226.590409 283.887718 
L 228.21199 283.582276 
L 228.21199 283.430898 
L 229.560051 283.280395 
L 229.839741 283.130751 
L 237.536339 281.537502 
L 238.180036 295.279048 
L 245.424195 292.737958 
L 246.2828 292.806888 
L 251.53623 291.230772 
L 252.50486 291.10924 
L 255.375789 290.27225 
L 257.769601 289.667694 
L 258.531548 296.250472 
L 261.959799 295.110897 
L 264.15207 294.312285 
L 275.11034 291.263333 
L 277.797208 290.626976 
L 284.865534 289.026572 
L 285.913341 288.835242 
L 286.871688 297.989758 
L 290.409964 296.694255 
L 293.375493 295.8029 
L 295.198616 295.239618 
L 296.136397 296.111095 
L 302.727606 294.190563 
L 305.875139 293.437692 
L 316.885851 290.93682 
L 320.067317 290.311297 
L 323.421532 289.705548 
L 324.482707 298.643767 
L 326.402486 297.941006 
L 332.020951 296.347575 
L 332.884698 296.051553 
L 334.134046 295.761915 
L 335.089308 295.700643 
L 339.77102 294.603115 
L 344.17407 293.581156 
L 359.42845 290.638731 
L 365.613492 289.622768 
L 366.961554 299.668028 
L 374.436046 297.503036 
L 375.769712 298.502751 
L 379.39539 297.476383 
L 382.054496 296.838334 
L 383.391246 301.660035 
L 388.662156 299.857218 
L 393.83024 298.342405 
L 398.106813 297.32957 
L 398.487273 297.010221 
L 398.487273 294.970216 
L 398.487273 294.970216 
" style="fill:none;stroke:#1f77b4;stroke-linecap:square;stroke-width:1.5;"/>
   </g>
   <g id="patch_13">
    <path d="M 57.6 307.584 
L 57.6 229.315765 
" style="fill:none;stroke:#000000;stroke-linecap:square;stroke-linejoin:miter;stroke-width:0.8;"/>
   </g>
   <g id="patch_14">
    <path d="M 414.72 307.584 
L 414.72 229.315765 
" style="fill:none;stroke:#000000;stroke-linecap:square;stroke-linejoin:miter;stroke-width:0.8;"/>
   </g>
   <g id="patch_15">
    <path d="M 57.6 307.584 
L 414.72 307.584 
" style="fill:none;stroke:#000000;stroke-linecap:square;stroke-linejoin:miter;stroke-width:0.8;"/>
   </g>
   <g id="patch_16">
    <path d="M 57.6 229.315765 
L 414.72 229.315765 
" style="fill:none;stroke:#000000;stroke-linecap:square;stroke-linejoin:miter;stroke-width:0.8;"/>
   </g>
  </g>
 </g>
 <defs>
  <clipPath id="p3175e09a3b">
   <rect height="78.268235" width="357.12" x="57.6" y="41.472"/>
  </clipPath>
  <clipPath id="p06c53f629f">
   <rect height="78.268235" width="357.12" x="57.6" y="135.393882"/>
  </clipPath>
  <clipPath id="pf270650b60">
   <rect height="78.268235" width="357.12" x="57.6" y="229.315765"/>
  </clipPath>
 </defs>
</svg>
