<?xml version="1.0" encoding="utf-8" standalone="no"?>
<!DOCTYPE svg PUBLIC "-//W3C//DTD SVG 1.1//EN"
  "http://www.w3.org/Graphics/SVG/1.1/DTD/svg11.dtd">
<!-- Created with matplotlib (http://matplotlib.org/) -->
<svg height="345.6pt" version="1.1" viewBox="0 0 460.8 345.6" width="460.8pt" xmlns="http://www.w3.org/2000/svg" xmlns:xlink="http://www.w3.org/1999/xlink">
 <defs>
  <style type="text/css">
*{stroke-linecap:butt;stroke-linejoin:round;}
  </style>
 </defs>
 <g id="figure_1">
  <g id="patch_1">
   <path d="M 0 345.6 
L 460.8 345.6 
L 460.8 0 
L 0 0 
z
" style="fill:#ffffff;"/>
  </g>
  <g id="axes_1">
   <g id="patch_2">
    <path d="M 57.6 119.740235 
L 414.72 119.740235 
L 414.72 41.472 
L 57.6 41.472 
z
" style="fill:#ffffff;"/>
   </g>
   <g id="matplotlib.axis_1">
    <g id="xtick_1">
     <g id="line2d_1">
      <defs>
       <path d="M 0 0 
L 0 3.5 
" id="mc19b5eff80" style="stroke:#000000;stroke-width:0.8;"/>
      </defs>
      <g>
       <use style="stroke:#000000;stroke-width:0.8;" x="73.832727" xlink:href="#mc19b5eff80" y="119.740235"/>
      </g>
     </g>
     <g id="text_1">
      <!-- 0 -->
      <defs>
       <path d="M 31.78125 66.40625 
Q 24.171875 66.40625 20.328125 58.90625 
Q 16.5 51.421875 16.5 36.375 
Q 16.5 21.390625 20.328125 13.890625 
Q 24.171875 6.390625 31.78125 6.390625 
Q 39.453125 6.390625 43.28125 13.890625 
Q 47.125 21.390625 47.125 36.375 
Q 47.125 51.421875 43.28125 58.90625 
Q 39.453125 66.40625 31.78125 66.40625 
z
M 31.78125 74.21875 
Q 44.046875 74.21875 50.515625 64.515625 
Q 56.984375 54.828125 56.984375 36.375 
Q 56.984375 17.96875 50.515625 8.265625 
Q 44.046875 -1.421875 31.78125 -1.421875 
Q 19.53125 -1.421875 13.0625 8.265625 
Q 6.59375 17.96875 6.59375 36.375 
Q 6.59375 54.828125 13.0625 64.515625 
Q 19.53125 74.21875 31.78125 74.21875 
z
" id="DejaVuSans-30"/>
      </defs>
      <g transform="translate(70.651477 134.338673)scale(0.1 -0.1)">
       <use xlink:href="#DejaVuSans-30"/>
      </g>
     </g>
    </g>
    <g id="xtick_2">
     <g id="line2d_2">
      <g>
       <use style="stroke:#000000;stroke-width:0.8;" x="122.056101" xlink:href="#mc19b5eff80" y="119.740235"/>
      </g>
     </g>
     <g id="text_2">
      <!-- 2 -->
      <defs>
       <path d="M 19.1875 8.296875 
L 53.609375 8.296875 
L 53.609375 0 
L 7.328125 0 
L 7.328125 8.296875 
Q 12.9375 14.109375 22.625 23.890625 
Q 32.328125 33.6875 34.8125 36.53125 
Q 39.546875 41.84375 41.421875 45.53125 
Q 43.3125 49.21875 43.3125 52.78125 
Q 43.3125 58.59375 39.234375 62.25 
Q 35.15625 65.921875 28.609375 65.921875 
Q 23.96875 65.921875 18.8125 64.3125 
Q 13.671875 62.703125 7.8125 59.421875 
L 7.8125 69.390625 
Q 13.765625 71.78125 18.9375 73 
Q 24.125 74.21875 28.421875 74.21875 
Q 39.75 74.21875 46.484375 68.546875 
Q 53.21875 62.890625 53.21875 53.421875 
Q 53.21875 48.921875 51.53125 44.890625 
Q 49.859375 40.875 45.40625 35.40625 
Q 44.1875 33.984375 37.640625 27.21875 
Q 31.109375 20.453125 19.1875 8.296875 
z
" id="DejaVuSans-32"/>
      </defs>
      <g transform="translate(118.874851 134.338673)scale(0.1 -0.1)">
       <use xlink:href="#DejaVuSans-32"/>
      </g>
     </g>
    </g>
    <g id="xtick_3">
     <g id="line2d_3">
      <g>
       <use style="stroke:#000000;stroke-width:0.8;" x="170.279476" xlink:href="#mc19b5eff80" y="119.740235"/>
      </g>
     </g>
     <g id="text_3">
      <!-- 4 -->
      <defs>
       <path d="M 37.796875 64.3125 
L 12.890625 25.390625 
L 37.796875 25.390625 
z
M 35.203125 72.90625 
L 47.609375 72.90625 
L 47.609375 25.390625 
L 58.015625 25.390625 
L 58.015625 17.1875 
L 47.609375 17.1875 
L 47.609375 0 
L 37.796875 0 
L 37.796875 17.1875 
L 4.890625 17.1875 
L 4.890625 26.703125 
z
" id="DejaVuSans-34"/>
      </defs>
      <g transform="translate(167.098226 134.338673)scale(0.1 -0.1)">
       <use xlink:href="#DejaVuSans-34"/>
      </g>
     </g>
    </g>
    <g id="xtick_4">
     <g id="line2d_4">
      <g>
       <use style="stroke:#000000;stroke-width:0.8;" x="218.50285" xlink:href="#mc19b5eff80" y="119.740235"/>
      </g>
     </g>
     <g id="text_4">
      <!-- 6 -->
      <defs>
       <path d="M 33.015625 40.375 
Q 26.375 40.375 22.484375 35.828125 
Q 18.609375 31.296875 18.609375 23.390625 
Q 18.609375 15.53125 22.484375 10.953125 
Q 26.375 6.390625 33.015625 6.390625 
Q 39.65625 6.390625 43.53125 10.953125 
Q 47.40625 15.53125 47.40625 23.390625 
Q 47.40625 31.296875 43.53125 35.828125 
Q 39.65625 40.375 33.015625 40.375 
z
M 52.59375 71.296875 
L 52.59375 62.3125 
Q 48.875 64.0625 45.09375 64.984375 
Q 41.3125 65.921875 37.59375 65.921875 
Q 27.828125 65.921875 22.671875 59.328125 
Q 17.53125 52.734375 16.796875 39.40625 
Q 19.671875 43.65625 24.015625 45.921875 
Q 28.375 48.1875 33.59375 48.1875 
Q 44.578125 48.1875 50.953125 41.515625 
Q 57.328125 34.859375 57.328125 23.390625 
Q 57.328125 12.15625 50.6875 5.359375 
Q 44.046875 -1.421875 33.015625 -1.421875 
Q 20.359375 -1.421875 13.671875 8.265625 
Q 6.984375 17.96875 6.984375 36.375 
Q 6.984375 53.65625 15.1875 63.9375 
Q 23.390625 74.21875 37.203125 74.21875 
Q 40.921875 74.21875 44.703125 73.484375 
Q 48.484375 72.75 52.59375 71.296875 
z
" id="DejaVuSans-36"/>
      </defs>
      <g transform="translate(215.3216 134.338673)scale(0.1 -0.1)">
       <use xlink:href="#DejaVuSans-36"/>
      </g>
     </g>
    </g>
    <g id="xtick_5">
     <g id="line2d_5">
      <g>
       <use style="stroke:#000000;stroke-width:0.8;" x="266.726224" xlink:href="#mc19b5eff80" y="119.740235"/>
      </g>
     </g>
     <g id="text_5">
      <!-- 8 -->
      <defs>
       <path d="M 31.78125 34.625 
Q 24.75 34.625 20.71875 30.859375 
Q 16.703125 27.09375 16.703125 20.515625 
Q 16.703125 13.921875 20.71875 10.15625 
Q 24.75 6.390625 31.78125 6.390625 
Q 38.8125 6.390625 42.859375 10.171875 
Q 46.921875 13.96875 46.921875 20.515625 
Q 46.921875 27.09375 42.890625 30.859375 
Q 38.875 34.625 31.78125 34.625 
z
M 21.921875 38.8125 
Q 15.578125 40.375 12.03125 44.71875 
Q 8.5 49.078125 8.5 55.328125 
Q 8.5 64.0625 14.71875 69.140625 
Q 20.953125 74.21875 31.78125 74.21875 
Q 42.671875 74.21875 48.875 69.140625 
Q 55.078125 64.0625 55.078125 55.328125 
Q 55.078125 49.078125 51.53125 44.71875 
Q 48 40.375 41.703125 38.8125 
Q 48.828125 37.15625 52.796875 32.3125 
Q 56.78125 27.484375 56.78125 20.515625 
Q 56.78125 9.90625 50.3125 4.234375 
Q 43.84375 -1.421875 31.78125 -1.421875 
Q 19.734375 -1.421875 13.25 4.234375 
Q 6.78125 9.90625 6.78125 20.515625 
Q 6.78125 27.484375 10.78125 32.3125 
Q 14.796875 37.15625 21.921875 38.8125 
z
M 18.3125 54.390625 
Q 18.3125 48.734375 21.84375 45.5625 
Q 25.390625 42.390625 31.78125 42.390625 
Q 38.140625 42.390625 41.71875 45.5625 
Q 45.3125 48.734375 45.3125 54.390625 
Q 45.3125 60.0625 41.71875 63.234375 
Q 38.140625 66.40625 31.78125 66.40625 
Q 25.390625 66.40625 21.84375 63.234375 
Q 18.3125 60.0625 18.3125 54.390625 
z
" id="DejaVuSans-38"/>
      </defs>
      <g transform="translate(263.544974 134.338673)scale(0.1 -0.1)">
       <use xlink:href="#DejaVuSans-38"/>
      </g>
     </g>
    </g>
    <g id="xtick_6">
     <g id="line2d_6">
      <g>
       <use style="stroke:#000000;stroke-width:0.8;" x="314.949598" xlink:href="#mc19b5eff80" y="119.740235"/>
      </g>
     </g>
     <g id="text_6">
      <!-- 10 -->
      <defs>
       <path d="M 12.40625 8.296875 
L 28.515625 8.296875 
L 28.515625 63.921875 
L 10.984375 60.40625 
L 10.984375 69.390625 
L 28.421875 72.90625 
L 38.28125 72.90625 
L 38.28125 8.296875 
L 54.390625 8.296875 
L 54.390625 0 
L 12.40625 0 
z
" id="DejaVuSans-31"/>
      </defs>
      <g transform="translate(308.587098 134.338673)scale(0.1 -0.1)">
       <use xlink:href="#DejaVuSans-31"/>
       <use x="63.623047" xlink:href="#DejaVuSans-30"/>
      </g>
     </g>
    </g>
    <g id="xtick_7">
     <g id="line2d_7">
      <g>
       <use style="stroke:#000000;stroke-width:0.8;" x="363.172972" xlink:href="#mc19b5eff80" y="119.740235"/>
      </g>
     </g>
     <g id="text_7">
      <!-- 12 -->
      <g transform="translate(356.810472 134.338673)scale(0.1 -0.1)">
       <use xlink:href="#DejaVuSans-31"/>
       <use x="63.623047" xlink:href="#DejaVuSans-32"/>
      </g>
     </g>
    </g>
    <g id="xtick_8">
     <g id="line2d_8">
      <g>
       <use style="stroke:#000000;stroke-width:0.8;" x="411.396346" xlink:href="#mc19b5eff80" y="119.740235"/>
      </g>
     </g>
     <g id="text_8">
      <!-- 14 -->
      <g transform="translate(405.033846 134.338673)scale(0.1 -0.1)">
       <use xlink:href="#DejaVuSans-31"/>
       <use x="63.623047" xlink:href="#DejaVuSans-34"/>
      </g>
     </g>
    </g>
   </g>
   <g id="matplotlib.axis_2">
    <g id="ytick_1">
     <g id="line2d_9">
      <defs>
       <path d="M 0 0 
L -3.5 0 
" id="ma2979c9105" style="stroke:#000000;stroke-width:0.8;"/>
      </defs>
      <g>
       <use style="stroke:#000000;stroke-width:0.8;" x="57.6" xlink:href="#ma2979c9105" y="119.193266"/>
      </g>
     </g>
     <g id="text_9">
      <!-- 0.00 -->
      <defs>
       <path d="M 10.6875 12.40625 
L 21 12.40625 
L 21 0 
L 10.6875 0 
z
" id="DejaVuSans-2e"/>
      </defs>
      <g transform="translate(28.334375 122.992484)scale(0.1 -0.1)">
       <use xlink:href="#DejaVuSans-30"/>
       <use x="63.623047" xlink:href="#DejaVuSans-2e"/>
       <use x="95.410156" xlink:href="#DejaVuSans-30"/>
       <use x="159.033203" xlink:href="#DejaVuSans-30"/>
      </g>
     </g>
    </g>
    <g id="ytick_2">
     <g id="line2d_10">
      <g>
       <use style="stroke:#000000;stroke-width:0.8;" x="57.6" xlink:href="#ma2979c9105" y="87.14785"/>
      </g>
     </g>
     <g id="text_10">
      <!-- 0.01 -->
      <g transform="translate(28.334375 90.947069)scale(0.1 -0.1)">
       <use xlink:href="#DejaVuSans-30"/>
       <use x="63.623047" xlink:href="#DejaVuSans-2e"/>
       <use x="95.410156" xlink:href="#DejaVuSans-30"/>
       <use x="159.033203" xlink:href="#DejaVuSans-31"/>
      </g>
     </g>
    </g>
    <g id="ytick_3">
     <g id="line2d_11">
      <g>
       <use style="stroke:#000000;stroke-width:0.8;" x="57.6" xlink:href="#ma2979c9105" y="55.102434"/>
      </g>
     </g>
     <g id="text_11">
      <!-- 0.02 -->
      <g transform="translate(28.334375 58.901653)scale(0.1 -0.1)">
       <use xlink:href="#DejaVuSans-30"/>
       <use x="63.623047" xlink:href="#DejaVuSans-2e"/>
       <use x="95.410156" xlink:href="#DejaVuSans-30"/>
       <use x="159.033203" xlink:href="#DejaVuSans-32"/>
      </g>
     </g>
    </g>
    <g id="text_12">
     <!-- thegma_x -->
     <defs>
      <path d="M 18.3125 70.21875 
L 18.3125 54.6875 
L 36.8125 54.6875 
L 36.8125 47.703125 
L 18.3125 47.703125 
L 18.3125 18.015625 
Q 18.3125 11.328125 20.140625 9.421875 
Q 21.96875 7.515625 27.59375 7.515625 
L 36.8125 7.515625 
L 36.8125 0 
L 27.59375 0 
Q 17.1875 0 13.234375 3.875 
Q 9.28125 7.765625 9.28125 18.015625 
L 9.28125 47.703125 
L 2.6875 47.703125 
L 2.6875 54.6875 
L 9.28125 54.6875 
L 9.28125 70.21875 
z
" id="DejaVuSans-74"/>
      <path d="M 54.890625 33.015625 
L 54.890625 0 
L 45.90625 0 
L 45.90625 32.71875 
Q 45.90625 40.484375 42.875 44.328125 
Q 39.84375 48.1875 33.796875 48.1875 
Q 26.515625 48.1875 22.3125 43.546875 
Q 18.109375 38.921875 18.109375 30.90625 
L 18.109375 0 
L 9.078125 0 
L 9.078125 75.984375 
L 18.109375 75.984375 
L 18.109375 46.1875 
Q 21.34375 51.125 25.703125 53.5625 
Q 30.078125 56 35.796875 56 
Q 45.21875 56 50.046875 50.171875 
Q 54.890625 44.34375 54.890625 33.015625 
z
" id="DejaVuSans-68"/>
      <path d="M 56.203125 29.59375 
L 56.203125 25.203125 
L 14.890625 25.203125 
Q 15.484375 15.921875 20.484375 11.0625 
Q 25.484375 6.203125 34.421875 6.203125 
Q 39.59375 6.203125 44.453125 7.46875 
Q 49.3125 8.734375 54.109375 11.28125 
L 54.109375 2.78125 
Q 49.265625 0.734375 44.1875 -0.34375 
Q 39.109375 -1.421875 33.890625 -1.421875 
Q 20.796875 -1.421875 13.15625 6.1875 
Q 5.515625 13.8125 5.515625 26.8125 
Q 5.515625 40.234375 12.765625 48.109375 
Q 20.015625 56 32.328125 56 
Q 43.359375 56 49.78125 48.890625 
Q 56.203125 41.796875 56.203125 29.59375 
z
M 47.21875 32.234375 
Q 47.125 39.59375 43.09375 43.984375 
Q 39.0625 48.390625 32.421875 48.390625 
Q 24.90625 48.390625 20.390625 44.140625 
Q 15.875 39.890625 15.1875 32.171875 
z
" id="DejaVuSans-65"/>
      <path d="M 45.40625 27.984375 
Q 45.40625 37.75 41.375 43.109375 
Q 37.359375 48.484375 30.078125 48.484375 
Q 22.859375 48.484375 18.828125 43.109375 
Q 14.796875 37.75 14.796875 27.984375 
Q 14.796875 18.265625 18.828125 12.890625 
Q 22.859375 7.515625 30.078125 7.515625 
Q 37.359375 7.515625 41.375 12.890625 
Q 45.40625 18.265625 45.40625 27.984375 
z
M 54.390625 6.78125 
Q 54.390625 -7.171875 48.1875 -13.984375 
Q 42 -20.796875 29.203125 -20.796875 
Q 24.46875 -20.796875 20.265625 -20.09375 
Q 16.0625 -19.390625 12.109375 -17.921875 
L 12.109375 -9.1875 
Q 16.0625 -11.328125 19.921875 -12.34375 
Q 23.78125 -13.375 27.78125 -13.375 
Q 36.625 -13.375 41.015625 -8.765625 
Q 45.40625 -4.15625 45.40625 5.171875 
L 45.40625 9.625 
Q 42.625 4.78125 38.28125 2.390625 
Q 33.9375 0 27.875 0 
Q 17.828125 0 11.671875 7.65625 
Q 5.515625 15.328125 5.515625 27.984375 
Q 5.515625 40.671875 11.671875 48.328125 
Q 17.828125 56 27.875 56 
Q 33.9375 56 38.28125 53.609375 
Q 42.625 51.21875 45.40625 46.390625 
L 45.40625 54.6875 
L 54.390625 54.6875 
z
" id="DejaVuSans-67"/>
      <path d="M 52 44.1875 
Q 55.375 50.25 60.0625 53.125 
Q 64.75 56 71.09375 56 
Q 79.640625 56 84.28125 50.015625 
Q 88.921875 44.046875 88.921875 33.015625 
L 88.921875 0 
L 79.890625 0 
L 79.890625 32.71875 
Q 79.890625 40.578125 77.09375 44.375 
Q 74.3125 48.1875 68.609375 48.1875 
Q 61.625 48.1875 57.5625 43.546875 
Q 53.515625 38.921875 53.515625 30.90625 
L 53.515625 0 
L 44.484375 0 
L 44.484375 32.71875 
Q 44.484375 40.625 41.703125 44.40625 
Q 38.921875 48.1875 33.109375 48.1875 
Q 26.21875 48.1875 22.15625 43.53125 
Q 18.109375 38.875 18.109375 30.90625 
L 18.109375 0 
L 9.078125 0 
L 9.078125 54.6875 
L 18.109375 54.6875 
L 18.109375 46.1875 
Q 21.1875 51.21875 25.484375 53.609375 
Q 29.78125 56 35.6875 56 
Q 41.65625 56 45.828125 52.96875 
Q 50 49.953125 52 44.1875 
z
" id="DejaVuSans-6d"/>
      <path d="M 34.28125 27.484375 
Q 23.390625 27.484375 19.1875 25 
Q 14.984375 22.515625 14.984375 16.5 
Q 14.984375 11.71875 18.140625 8.90625 
Q 21.296875 6.109375 26.703125 6.109375 
Q 34.1875 6.109375 38.703125 11.40625 
Q 43.21875 16.703125 43.21875 25.484375 
L 43.21875 27.484375 
z
M 52.203125 31.203125 
L 52.203125 0 
L 43.21875 0 
L 43.21875 8.296875 
Q 40.140625 3.328125 35.546875 0.953125 
Q 30.953125 -1.421875 24.3125 -1.421875 
Q 15.921875 -1.421875 10.953125 3.296875 
Q 6 8.015625 6 15.921875 
Q 6 25.140625 12.171875 29.828125 
Q 18.359375 34.515625 30.609375 34.515625 
L 43.21875 34.515625 
L 43.21875 35.40625 
Q 43.21875 41.609375 39.140625 45 
Q 35.0625 48.390625 27.6875 48.390625 
Q 23 48.390625 18.546875 47.265625 
Q 14.109375 46.140625 10.015625 43.890625 
L 10.015625 52.203125 
Q 14.9375 54.109375 19.578125 55.046875 
Q 24.21875 56 28.609375 56 
Q 40.484375 56 46.34375 49.84375 
Q 52.203125 43.703125 52.203125 31.203125 
z
" id="DejaVuSans-61"/>
      <path d="M 50.984375 -16.609375 
L 50.984375 -23.578125 
L -0.984375 -23.578125 
L -0.984375 -16.609375 
z
" id="DejaVuSans-5f"/>
      <path d="M 54.890625 54.6875 
L 35.109375 28.078125 
L 55.90625 0 
L 45.3125 0 
L 29.390625 21.484375 
L 13.484375 0 
L 2.875 0 
L 24.125 28.609375 
L 4.6875 54.6875 
L 15.28125 54.6875 
L 29.78125 35.203125 
L 44.28125 54.6875 
z
" id="DejaVuSans-78"/>
     </defs>
     <g transform="translate(21.976562 105.379555)rotate(-90)scale(0.1 -0.1)">
      <use xlink:href="#DejaVuSans-74"/>
      <use x="39.208984" xlink:href="#DejaVuSans-68"/>
      <use x="102.587891" xlink:href="#DejaVuSans-65"/>
      <use x="164.111328" xlink:href="#DejaVuSans-67"/>
      <use x="227.587891" xlink:href="#DejaVuSans-6d"/>
      <use x="325" xlink:href="#DejaVuSans-61"/>
      <use x="386.279297" xlink:href="#DejaVuSans-5f"/>
      <use x="436.279297" xlink:href="#DejaVuSans-78"/>
     </g>
    </g>
   </g>
   <g id="line2d_12">
    <path clip-path="url(#p62d0d4f320)" d="M 73.832727 95.666605 
L 73.855349 116.182588 
L 74.357145 115.100171 
L 74.587477 111.006588 
L 75.798779 104.446363 
L 76.621395 101.379202 
L 76.848642 100.031024 
L 77.377173 98.776535 
L 77.681541 97.596616 
L 78.138092 96.482009 
L 78.755054 94.409424 
L 79.206464 93.44154 
L 79.51186 92.511327 
L 80.061985 91.616799 
L 80.290261 90.752851 
L 80.835244 89.918134 
L 81.223929 89.110642 
L 81.45529 88.327969 
L 82.015697 113.920021 
L 82.644998 108.234755 
L 83.210546 106.339199 
L 83.848074 103.197186 
L 84.332389 102.07575 
L 85.061432 99.634517 
L 85.550888 98.53302 
L 86.201783 96.5071 
L 86.677872 95.566276 
L 87.261929 94.660647 
L 87.503572 93.805817 
L 88.012566 92.969995 
L 88.334414 113.748497 
L 88.920528 110.621294 
L 89.166284 108.461224 
L 89.750341 106.580467 
L 90.002267 105.041781 
L 90.505091 114.30953 
L 90.84442 111.409087 
L 92.191453 106.230054 
L 92.695306 104.928698 
L 93.033606 103.740393 
L 93.383218 103.622431 
L 95.501453 98.405992 
L 96.111217 97.43963 
L 96.446433 96.615941 
L 96.960568 113.971669 
L 97.043858 111.637899 
L 98.68292 106.674112 
L 99.204252 104.483785 
L 99.896278 103.286158 
L 100.241776 102.342933 
L 100.852569 114.641334 
L 101.550764 111.098107 
L 102.427878 108.706928 
L 102.784687 107.692017 
L 103.91784 105.799635 
L 104.269509 106.247507 
L 104.529661 105.397353 
L 105.148679 104.384291 
L 105.502404 103.573599 
L 106.91319 101.080497 
L 107.184653 100.439275 
L 108.699294 98.006101 
L 109.232966 114.478235 
L 109.855069 112.028847 
L 110.476144 110.899008 
L 110.753777 110.042553 
L 112.181015 107.392333 
L 112.712631 106.816495 
L 113.613395 105.170252 
L 113.888971 104.539727 
L 116.338309 100.275174 
L 117.15784 98.737426 
L 118.977878 95.349595 
L 123.451879 86.933163 
L 125.3768 83.051771 
L 128.232304 77.122488 
L 128.601453 76.982382 
L 129.164945 114.589748 
L 130.448225 110.593406 
L 130.821487 109.51477 
L 131.474439 108.394984 
L 131.754128 107.432798 
L 132.310422 106.397306 
L 132.681627 105.457194 
L 133.789073 103.449465 
L 134.156166 102.546724 
L 134.710403 101.557607 
L 135.078524 103.167194 
L 135.453842 102.15421 
L 137.510381 97.91495 
L 137.791099 97.055645 
L 138.441994 95.956343 
L 138.715513 95.123932 
L 140.76177 91.258095 
L 141.13606 114.196037 
L 141.509322 111.56614 
L 142.076927 109.594741 
L 142.441963 107.893562 
L 143.095942 106.369303 
L 143.378716 104.97524 
L 144.031667 103.649532 
L 144.404929 102.412151 
L 144.971506 101.761155 
L 147.119561 96.141976 
L 147.670714 113.719283 
L 148.618778 108.106932 
L 149.177129 106.125064 
L 149.459903 104.440084 
L 150.114911 102.851275 
L 150.392543 101.448403 
L 152.465535 96.553064 
L 152.743168 95.500554 
L 153.404345 94.422945 
L 153.763211 93.419447 
L 154.341099 92.432581 
L 155.098934 90.590032 
L 155.663454 89.701148 
L 156.050083 113.606239 
L 156.615631 114.905789 
L 157.575007 108.303506 
L 159.852624 99.955122 
L 160.513801 98.689443 
L 160.798632 97.501142 
L 161.454668 96.374543 
L 161.739499 95.306363 
L 162.394507 94.282994 
L 162.771882 93.306879 
L 163.340515 92.366743 
L 163.716861 91.465807 
L 164.297834 114.027797 
L 164.57958 110.59851 
L 165.242814 108.250686 
L 165.622245 106.315334 
L 166.18985 104.661787 
L 166.566197 103.176721 
L 167.138943 101.837152 
L 167.414519 100.592076 
L 168.082894 99.447968 
L 168.748185 97.34983 
L 169.965656 95.468925 
L 170.336861 94.59585 
L 170.906523 113.808829 
L 171.662301 108.570426 
L 172.329648 106.685092 
L 172.705995 105.133693 
L 173.273599 103.684482 
L 173.566656 102.448595 
L 174.230918 101.170502 
L 174.611378 100.07558 
L 175.6561 97.939741 
L 175.6561 97.176402 
L 176.984625 95.114266 
L 177.360971 94.276749 
L 177.924463 93.349644 
L 178.208265 92.617501 
L 178.883839 113.840177 
L 179.166613 111.508325 
L 180.688452 106.585143 
L 181.836001 103.926643 
L 181.93163 103.103183 
L 182.495122 114.635241 
L 183.065811 112.726365 
L 183.731102 111.214361 
L 184.016961 109.951157 
L 186.59072 104.732667 
L 189.732083 99.14649 
L 191.063692 96.623483 
L 192.895041 93.343797 
L 193.191182 114.507569 
L 193.860586 113.160959 
L 194.147473 112.191756 
L 195.49245 109.784662 
L 197.603487 105.633173 
L 200.268762 100.364026 
L 201.338163 98.205102 
L 203.073882 94.691132 
L 203.457426 93.824743 
L 205.389545 89.893861 
L 208.176156 83.982828 
L 208.176156 83.74688 
L 209.896451 80.365754 
L 210.184366 79.635615 
L 211.23423 77.643463 
L 211.51906 79.718544 
L 213.140642 76.640345 
L 213.140642 76.360869 
L 214.855795 73.212422 
L 214.855795 72.923889 
L 216.566836 69.886164 
L 216.661437 69.45268 
L 218.007442 67.336532 
L 218.284046 66.657772 
L 219.901515 63.985178 
L 219.901515 63.666804 
L 221.24135 61.796559 
L 221.623866 61.036233 
L 223.042878 58.870776 
L 223.042878 58.538874 
L 227.545671 52.746518 
L 229.839741 50.043405 
L 231.178548 49.172534 
L 232.319927 48.116213 
L 234.411427 46.722028 
L 237.158964 45.47459 
L 239.325528 45.033188 
L 242.373319 45.11472 
L 243.799529 45.34187 
L 244.660191 45.609615 
L 245.424195 112.986009 
L 246.001055 110.633315 
L 246.763002 108.28765 
L 249.0581 103.225025 
L 249.821076 101.8591 
L 251.53623 99.320824 
L 252.887376 97.140014 
L 254.6087 94.910193 
L 263.483695 82.716663 
L 267.68212 76.040348 
L 271.686202 68.906322 
L 274.442993 63.665122 
L 275.11034 65.604234 
L 279.610048 58.055093 
L 285.913341 47.21807 
L 286.968345 114.493255 
L 287.72618 112.693502 
L 289.641846 109.530481 
L 292.610461 105.041136 
L 293.375493 103.700776 
L 297.385745 98.173593 
L 298.150778 96.967463 
L 299.389843 95.594076 
L 303.01655 90.988183 
L 305.213962 88.817376 
L 306.16614 87.838475 
L 307.208805 87.141757 
L 310.076649 84.657143 
L 311.033968 83.909566 
L 312.281259 83.210195 
L 313.039094 82.538985 
L 315.336248 81.364675 
L 316.204108 80.806859 
L 318.529025 79.877754 
L 319.394828 79.416599 
L 325.925369 77.342536 
L 331.355661 75.577877 
L 334.515534 74.180631 
L 336.994692 72.839288 
L 339.196217 71.269409 
L 340.154564 70.460087 
L 341.497484 114.427326 
L 342.542206 113.243039 
L 344.746816 109.867016 
L 347.228031 105.386959 
L 350.679932 98.388969 
L 351.931336 100.028441 
L 355.596089 94.176463 
L 365.232004 78.310595 
L 370.14302 70.687193 
L 372.722949 67.011955 
L 375.199022 63.752125 
L 377.970209 60.597861 
L 380.351681 58.155595 
L 383.010786 56.010272 
L 385.599969 54.389345 
L 388.374241 53.268159 
L 389.717161 52.917409 
L 392.495546 52.639764 
L 395.070333 52.824822 
L 396.401942 53.116026 
L 397.825067 53.584814 
L 398.487273 53.643752 
L 398.487273 47.153972 
L 398.487273 47.153972 
" style="fill:none;stroke:#1f77b4;stroke-linecap:square;stroke-width:1.5;"/>
   </g>
   <g id="patch_3">
    <path d="M 57.6 119.740235 
L 57.6 41.472 
" style="fill:none;stroke:#000000;stroke-linecap:square;stroke-linejoin:miter;stroke-width:0.8;"/>
   </g>
   <g id="patch_4">
    <path d="M 414.72 119.740235 
L 414.72 41.472 
" style="fill:none;stroke:#000000;stroke-linecap:square;stroke-linejoin:miter;stroke-width:0.8;"/>
   </g>
   <g id="patch_5">
    <path d="M 57.6 119.740235 
L 414.72 119.740235 
" style="fill:none;stroke:#000000;stroke-linecap:square;stroke-linejoin:miter;stroke-width:0.8;"/>
   </g>
   <g id="patch_6">
    <path d="M 57.6 41.472 
L 414.72 41.472 
" style="fill:none;stroke:#000000;stroke-linecap:square;stroke-linejoin:miter;stroke-width:0.8;"/>
   </g>
  </g>
  <g id="axes_2">
   <g id="patch_7">
    <path d="M 57.6 213.662118 
L 414.72 213.662118 
L 414.72 135.393882 
L 57.6 135.393882 
z
" style="fill:#ffffff;"/>
   </g>
   <g id="matplotlib.axis_3">
    <g id="xtick_9">
     <g id="line2d_13">
      <g>
       <use style="stroke:#000000;stroke-width:0.8;" x="73.832727" xlink:href="#mc19b5eff80" y="213.662118"/>
      </g>
     </g>
     <g id="text_13">
      <!-- 0 -->
      <g transform="translate(70.651477 228.260555)scale(0.1 -0.1)">
       <use xlink:href="#DejaVuSans-30"/>
      </g>
     </g>
    </g>
    <g id="xtick_10">
     <g id="line2d_14">
      <g>
       <use style="stroke:#000000;stroke-width:0.8;" x="122.056101" xlink:href="#mc19b5eff80" y="213.662118"/>
      </g>
     </g>
     <g id="text_14">
      <!-- 2 -->
      <g transform="translate(118.874851 228.260555)scale(0.1 -0.1)">
       <use xlink:href="#DejaVuSans-32"/>
      </g>
     </g>
    </g>
    <g id="xtick_11">
     <g id="line2d_15">
      <g>
       <use style="stroke:#000000;stroke-width:0.8;" x="170.279476" xlink:href="#mc19b5eff80" y="213.662118"/>
      </g>
     </g>
     <g id="text_15">
      <!-- 4 -->
      <g transform="translate(167.098226 228.260555)scale(0.1 -0.1)">
       <use xlink:href="#DejaVuSans-34"/>
      </g>
     </g>
    </g>
    <g id="xtick_12">
     <g id="line2d_16">
      <g>
       <use style="stroke:#000000;stroke-width:0.8;" x="218.50285" xlink:href="#mc19b5eff80" y="213.662118"/>
      </g>
     </g>
     <g id="text_16">
      <!-- 6 -->
      <g transform="translate(215.3216 228.260555)scale(0.1 -0.1)">
       <use xlink:href="#DejaVuSans-36"/>
      </g>
     </g>
    </g>
    <g id="xtick_13">
     <g id="line2d_17">
      <g>
       <use style="stroke:#000000;stroke-width:0.8;" x="266.726224" xlink:href="#mc19b5eff80" y="213.662118"/>
      </g>
     </g>
     <g id="text_17">
      <!-- 8 -->
      <g transform="translate(263.544974 228.260555)scale(0.1 -0.1)">
       <use xlink:href="#DejaVuSans-38"/>
      </g>
     </g>
    </g>
    <g id="xtick_14">
     <g id="line2d_18">
      <g>
       <use style="stroke:#000000;stroke-width:0.8;" x="314.949598" xlink:href="#mc19b5eff80" y="213.662118"/>
      </g>
     </g>
     <g id="text_18">
      <!-- 10 -->
      <g transform="translate(308.587098 228.260555)scale(0.1 -0.1)">
       <use xlink:href="#DejaVuSans-31"/>
       <use x="63.623047" xlink:href="#DejaVuSans-30"/>
      </g>
     </g>
    </g>
    <g id="xtick_15">
     <g id="line2d_19">
      <g>
       <use style="stroke:#000000;stroke-width:0.8;" x="363.172972" xlink:href="#mc19b5eff80" y="213.662118"/>
      </g>
     </g>
     <g id="text_19">
      <!-- 12 -->
      <g transform="translate(356.810472 228.260555)scale(0.1 -0.1)">
       <use xlink:href="#DejaVuSans-31"/>
       <use x="63.623047" xlink:href="#DejaVuSans-32"/>
      </g>
     </g>
    </g>
    <g id="xtick_16">
     <g id="line2d_20">
      <g>
       <use style="stroke:#000000;stroke-width:0.8;" x="411.396346" xlink:href="#mc19b5eff80" y="213.662118"/>
      </g>
     </g>
     <g id="text_20">
      <!-- 14 -->
      <g transform="translate(405.033846 228.260555)scale(0.1 -0.1)">
       <use xlink:href="#DejaVuSans-31"/>
       <use x="63.623047" xlink:href="#DejaVuSans-34"/>
      </g>
     </g>
    </g>
   </g>
   <g id="matplotlib.axis_4">
    <g id="ytick_4">
     <g id="line2d_21">
      <g>
       <use style="stroke:#000000;stroke-width:0.8;" x="57.6" xlink:href="#ma2979c9105" y="213.068922"/>
      </g>
     </g>
     <g id="text_21">
      <!-- 0.00 -->
      <g transform="translate(28.334375 216.868141)scale(0.1 -0.1)">
       <use xlink:href="#DejaVuSans-30"/>
       <use x="63.623047" xlink:href="#DejaVuSans-2e"/>
       <use x="95.410156" xlink:href="#DejaVuSans-30"/>
       <use x="159.033203" xlink:href="#DejaVuSans-30"/>
      </g>
     </g>
    </g>
    <g id="ytick_5">
     <g id="line2d_22">
      <g>
       <use style="stroke:#000000;stroke-width:0.8;" x="57.6" xlink:href="#ma2979c9105" y="186.457741"/>
      </g>
     </g>
     <g id="text_22">
      <!-- 0.01 -->
      <g transform="translate(28.334375 190.25696)scale(0.1 -0.1)">
       <use xlink:href="#DejaVuSans-30"/>
       <use x="63.623047" xlink:href="#DejaVuSans-2e"/>
       <use x="95.410156" xlink:href="#DejaVuSans-30"/>
       <use x="159.033203" xlink:href="#DejaVuSans-31"/>
      </g>
     </g>
    </g>
    <g id="ytick_6">
     <g id="line2d_23">
      <g>
       <use style="stroke:#000000;stroke-width:0.8;" x="57.6" xlink:href="#ma2979c9105" y="159.846561"/>
      </g>
     </g>
     <g id="text_23">
      <!-- 0.02 -->
      <g transform="translate(28.334375 163.64578)scale(0.1 -0.1)">
       <use xlink:href="#DejaVuSans-30"/>
       <use x="63.623047" xlink:href="#DejaVuSans-2e"/>
       <use x="95.410156" xlink:href="#DejaVuSans-30"/>
       <use x="159.033203" xlink:href="#DejaVuSans-32"/>
      </g>
     </g>
    </g>
    <g id="text_24">
     <!-- thegma_y -->
     <defs>
      <path d="M 32.171875 -5.078125 
Q 28.375 -14.84375 24.75 -17.8125 
Q 21.140625 -20.796875 15.09375 -20.796875 
L 7.90625 -20.796875 
L 7.90625 -13.28125 
L 13.1875 -13.28125 
Q 16.890625 -13.28125 18.9375 -11.515625 
Q 21 -9.765625 23.484375 -3.21875 
L 25.09375 0.875 
L 2.984375 54.6875 
L 12.5 54.6875 
L 29.59375 11.921875 
L 46.6875 54.6875 
L 56.203125 54.6875 
z
" id="DejaVuSans-79"/>
     </defs>
     <g transform="translate(21.976562 199.301437)rotate(-90)scale(0.1 -0.1)">
      <use xlink:href="#DejaVuSans-74"/>
      <use x="39.208984" xlink:href="#DejaVuSans-68"/>
      <use x="102.587891" xlink:href="#DejaVuSans-65"/>
      <use x="164.111328" xlink:href="#DejaVuSans-67"/>
      <use x="227.587891" xlink:href="#DejaVuSans-6d"/>
      <use x="325" xlink:href="#DejaVuSans-61"/>
      <use x="386.279297" xlink:href="#DejaVuSans-5f"/>
      <use x="436.279297" xlink:href="#DejaVuSans-79"/>
     </g>
    </g>
   </g>
   <g id="line2d_24">
    <path clip-path="url(#p8f42d46225)" d="M 73.832727 194.270802 
L 73.855349 190.852168 
L 75.066651 190.411154 
L 75.798779 190.104403 
L 77.377173 189.432886 
L 82.644998 186.346179 
L 83.527253 185.696368 
L 83.848074 185.402435 
L 84.332389 209.209499 
L 84.660407 208.115455 
L 86.201783 204.680393 
L 88.012566 201.576974 
L 88.334414 201.884072 
L 88.920528 200.997582 
L 89.166284 200.316021 
L 89.750341 199.445269 
L 90.002267 198.783499 
L 90.505091 198.027902 
L 91.350329 196.493444 
L 92.695306 194.196333 
L 93.033606 193.520593 
L 93.383218 208.819405 
L 94.650046 204.137141 
L 96.446433 199.833902 
L 96.960568 199.599795 
L 97.043858 198.800683 
L 97.73177 209.20046 
L 99.204252 202.820586 
L 99.896278 201.685193 
L 100.241776 200.639348 
L 100.852569 200.738593 
L 101.550764 198.649229 
L 102.077238 197.637405 
L 102.784687 195.836459 
L 103.91784 194.045475 
L 104.269509 208.590904 
L 104.529661 206.058648 
L 105.148679 204.11622 
L 105.502404 202.552021 
L 106.035048 209.058143 
L 106.390829 206.321343 
L 106.91319 204.395269 
L 107.184653 202.795807 
L 108.3394 200.1367 
L 108.699294 198.968704 
L 109.232966 198.40221 
L 109.855069 196.309675 
L 110.476144 195.326254 
L 110.753777 194.408902 
L 112.181015 191.833563 
L 112.712631 208.464253 
L 113.888971 201.891149 
L 114.432926 200.42716 
L 114.797961 199.120349 
L 115.430347 197.919036 
L 115.701811 196.812648 
L 116.338309 195.773435 
L 116.612857 194.796616 
L 117.15784 193.870421 
L 117.518763 192.988371 
L 119.52903 189.819647 
L 119.80255 189.094596 
L 120.435964 208.215912 
L 120.706399 205.441812 
L 121.804591 201.750032 
L 122.261143 200.307318 
L 122.536719 199.02879 
L 123.084787 197.83571 
L 123.451879 196.747076 
L 124.092491 195.700229 
L 124.368067 194.752259 
L 125.009707 193.809966 
L 125.740807 192.118542 
L 126.388617 191.281002 
L 126.849282 190.501351 
L 127.127943 189.77901 
L 128.232304 188.297171 
L 128.601453 208.298015 
L 129.620468 204.503215 
L 129.89296 202.95022 
L 130.448225 201.630444 
L 130.821487 200.451617 
L 131.474439 199.389806 
L 131.754128 198.41229 
L 132.310422 197.501016 
L 132.681627 196.651059 
L 134.710403 193.646759 
L 135.078524 208.703049 
L 135.453842 206.408489 
L 136.947918 202.044544 
L 137.510381 200.900636 
L 137.791099 199.954159 
L 138.441994 198.92558 
L 138.715513 198.116282 
L 143.378716 190.599862 
L 144.404929 189.146979 
L 144.971506 208.956439 
L 145.809546 206.187157 
L 146.748356 204.172529 
L 147.119561 203.343992 
L 147.670714 202.837072 
L 149.177129 200.363322 
L 149.459903 199.76257 
L 150.392543 198.320568 
L 151.901015 196.111949 
L 152.465535 209.367569 
L 152.743168 210.104471 
L 153.404345 208.968422 
L 153.763211 208.068049 
L 154.719502 206.464601 
L 155.098934 205.774658 
L 156.050083 204.378052 
L 156.615631 203.927518 
L 158.144668 202.020373 
L 159.852624 199.722318 
L 161.454668 197.700904 
L 161.739499 197.232088 
L 163.340515 195.111544 
L 163.716861 194.539176 
L 164.297834 209.196375 
L 164.57958 208.167813 
L 165.242814 207.114585 
L 165.622245 206.252984 
L 167.138943 203.706814 
L 167.414519 203.032559 
L 168.082894 202.132146 
L 168.748185 200.770767 
L 169.965656 199.056886 
L 170.336861 198.36383 
L 170.906523 199.036797 
L 175.182068 191.755194 
L 175.6561 190.968957 
L 175.6561 190.558835 
L 177.360971 188.039582 
L 177.924463 187.212084 
L 178.208265 186.596997 
L 178.883839 185.967819 
L 179.166613 185.342877 
L 181.836001 181.372054 
L 181.93163 180.912851 
L 182.495122 180.605958 
L 188.113587 173.551076 
L 190.785031 170.727858 
L 191.063692 170.267706 
L 192.895041 168.700876 
L 193.191182 169.055122 
L 193.860586 168.59851 
L 194.147473 168.187472 
L 195.49245 167.340676 
L 196.929971 166.183992 
L 198.174177 165.475167 
L 198.560806 165.128755 
L 200.268762 164.190029 
L 200.668759 163.880971 
L 203.073882 162.858377 
L 203.457426 162.595773 
L 204.335569 162.43446 
L 205.389545 162.011455 
L 206.061005 161.845 
L 206.44455 161.623909 
L 208.176156 161.137853 
L 208.176156 160.853863 
L 209.513935 160.892308 
L 210.184366 160.509365 
L 211.23423 160.489302 
L 211.51906 208.209845 
L 212.564811 205.479071 
L 213.140642 203.660036 
L 213.140642 202.431999 
L 214.183307 200.764016 
L 214.855795 199.429365 
L 214.855795 198.620555 
L 216.186376 196.930192 
L 216.566836 195.997652 
L 216.661437 195.330584 
L 218.007442 193.610068 
L 218.284046 192.874565 
L 219.901515 190.370617 
L 219.901515 190.004356 
L 221.24135 188.09035 
L 222.280931 186.189958 
L 223.042878 184.903545 
L 223.042878 184.666943 
L 225.728719 180.03282 
L 229.560051 172.538103 
L 229.839741 171.913156 
L 232.319927 166.788723 
L 236.496758 157.600221 
L 244.660191 138.951529 
L 245.424195 151.521873 
L 246.001055 209.005806 
L 246.763002 207.424825 
L 249.821076 202.303602 
L 251.53623 199.860496 
L 252.887376 197.737414 
L 254.6087 195.447021 
L 257.769601 191.26234 
L 259.478585 189.210278 
L 261.674969 186.487225 
L 266.631228 181.499532 
L 267.68212 180.725428 
L 268.350495 180.06818 
L 271.686202 177.632906 
L 272.731952 177.107643 
L 273.39313 176.622065 
L 274.442993 176.181234 
L 275.11034 208.331954 
L 276.168429 205.456484 
L 278.659927 200.248722 
L 279.610048 198.908675 
L 280.659911 197.657927 
L 281.428029 196.531805 
L 285.913341 191.449369 
L 286.968345 191.391174 
L 287.72618 190.644461 
L 290.701992 188.371348 
L 297.385745 183.200957 
L 304.254586 177.016709 
L 306.16614 175.015338 
L 307.208805 209.256234 
L 309.032955 207.323827 
L 311.033968 205.089623 
L 313.039094 202.650983 
L 315.336248 199.754277 
L 330.206055 179.373952 
L 334.515534 174.031673 
L 337.950982 170.330189 
L 340.154564 168.219105 
L 341.497484 167.877073 
L 343.598239 166.319166 
L 345.976627 164.934131 
L 348.187407 163.869874 
L 350.679932 163.102059 
L 351.931336 208.300567 
L 354.151371 203.641267 
L 355.596089 202.091142 
L 356.654179 200.733659 
L 359.142591 198.45371 
L 363.975459 194.644841 
L 369.089044 190.824412 
L 374.058671 186.353126 
L 376.628317 183.63837 
L 379.298733 180.477491 
L 383.010786 175.450708 
L 385.599969 171.592609 
L 389.717161 164.987251 
L 395.070333 155.867602 
L 398.487273 149.790968 
L 398.487273 148.344648 
L 398.487273 148.344648 
" style="fill:none;stroke:#1f77b4;stroke-linecap:square;stroke-width:1.5;"/>
   </g>
   <g id="patch_8">
    <path d="M 57.6 213.662118 
L 57.6 135.393882 
" style="fill:none;stroke:#000000;stroke-linecap:square;stroke-linejoin:miter;stroke-width:0.8;"/>
   </g>
   <g id="patch_9">
    <path d="M 414.72 213.662118 
L 414.72 135.393882 
" style="fill:none;stroke:#000000;stroke-linecap:square;stroke-linejoin:miter;stroke-width:0.8;"/>
   </g>
   <g id="patch_10">
    <path d="M 57.6 213.662118 
L 414.72 213.662118 
" style="fill:none;stroke:#000000;stroke-linecap:square;stroke-linejoin:miter;stroke-width:0.8;"/>
   </g>
   <g id="patch_11">
    <path d="M 57.6 135.393882 
L 414.72 135.393882 
" style="fill:none;stroke:#000000;stroke-linecap:square;stroke-linejoin:miter;stroke-width:0.8;"/>
   </g>
  </g>
  <g id="axes_3">
   <g id="patch_12">
    <path d="M 57.6 307.584 
L 414.72 307.584 
L 414.72 229.315765 
L 57.6 229.315765 
z
" style="fill:#ffffff;"/>
   </g>
   <g id="matplotlib.axis_5">
    <g id="xtick_17">
     <g id="line2d_25">
      <g>
       <use style="stroke:#000000;stroke-width:0.8;" x="73.832727" xlink:href="#mc19b5eff80" y="307.584"/>
      </g>
     </g>
     <g id="text_25">
      <!-- 0 -->
      <g transform="translate(70.651477 322.182437)scale(0.1 -0.1)">
       <use xlink:href="#DejaVuSans-30"/>
      </g>
     </g>
    </g>
    <g id="xtick_18">
     <g id="line2d_26">
      <g>
       <use style="stroke:#000000;stroke-width:0.8;" x="122.056101" xlink:href="#mc19b5eff80" y="307.584"/>
      </g>
     </g>
     <g id="text_26">
      <!-- 2 -->
      <g transform="translate(118.874851 322.182437)scale(0.1 -0.1)">
       <use xlink:href="#DejaVuSans-32"/>
      </g>
     </g>
    </g>
    <g id="xtick_19">
     <g id="line2d_27">
      <g>
       <use style="stroke:#000000;stroke-width:0.8;" x="170.279476" xlink:href="#mc19b5eff80" y="307.584"/>
      </g>
     </g>
     <g id="text_27">
      <!-- 4 -->
      <g transform="translate(167.098226 322.182437)scale(0.1 -0.1)">
       <use xlink:href="#DejaVuSans-34"/>
      </g>
     </g>
    </g>
    <g id="xtick_20">
     <g id="line2d_28">
      <g>
       <use style="stroke:#000000;stroke-width:0.8;" x="218.50285" xlink:href="#mc19b5eff80" y="307.584"/>
      </g>
     </g>
     <g id="text_28">
      <!-- 6 -->
      <g transform="translate(215.3216 322.182437)scale(0.1 -0.1)">
       <use xlink:href="#DejaVuSans-36"/>
      </g>
     </g>
    </g>
    <g id="xtick_21">
     <g id="line2d_29">
      <g>
       <use style="stroke:#000000;stroke-width:0.8;" x="266.726224" xlink:href="#mc19b5eff80" y="307.584"/>
      </g>
     </g>
     <g id="text_29">
      <!-- 8 -->
      <g transform="translate(263.544974 322.182437)scale(0.1 -0.1)">
       <use xlink:href="#DejaVuSans-38"/>
      </g>
     </g>
    </g>
    <g id="xtick_22">
     <g id="line2d_30">
      <g>
       <use style="stroke:#000000;stroke-width:0.8;" x="314.949598" xlink:href="#mc19b5eff80" y="307.584"/>
      </g>
     </g>
     <g id="text_30">
      <!-- 10 -->
      <g transform="translate(308.587098 322.182437)scale(0.1 -0.1)">
       <use xlink:href="#DejaVuSans-31"/>
       <use x="63.623047" xlink:href="#DejaVuSans-30"/>
      </g>
     </g>
    </g>
    <g id="xtick_23">
     <g id="line2d_31">
      <g>
       <use style="stroke:#000000;stroke-width:0.8;" x="363.172972" xlink:href="#mc19b5eff80" y="307.584"/>
      </g>
     </g>
     <g id="text_31">
      <!-- 12 -->
      <g transform="translate(356.810472 322.182437)scale(0.1 -0.1)">
       <use xlink:href="#DejaVuSans-31"/>
       <use x="63.623047" xlink:href="#DejaVuSans-32"/>
      </g>
     </g>
    </g>
    <g id="xtick_24">
     <g id="line2d_32">
      <g>
       <use style="stroke:#000000;stroke-width:0.8;" x="411.396346" xlink:href="#mc19b5eff80" y="307.584"/>
      </g>
     </g>
     <g id="text_32">
      <!-- 14 -->
      <g transform="translate(405.033846 322.182437)scale(0.1 -0.1)">
       <use xlink:href="#DejaVuSans-31"/>
       <use x="63.623047" xlink:href="#DejaVuSans-34"/>
      </g>
     </g>
    </g>
    <g id="text_33">
     <!-- travel_distance -->
     <defs>
      <path d="M 41.109375 46.296875 
Q 39.59375 47.171875 37.8125 47.578125 
Q 36.03125 48 33.890625 48 
Q 26.265625 48 22.1875 43.046875 
Q 18.109375 38.09375 18.109375 28.8125 
L 18.109375 0 
L 9.078125 0 
L 9.078125 54.6875 
L 18.109375 54.6875 
L 18.109375 46.1875 
Q 20.953125 51.171875 25.484375 53.578125 
Q 30.03125 56 36.53125 56 
Q 37.453125 56 38.578125 55.875 
Q 39.703125 55.765625 41.0625 55.515625 
z
" id="DejaVuSans-72"/>
      <path d="M 2.984375 54.6875 
L 12.5 54.6875 
L 29.59375 8.796875 
L 46.6875 54.6875 
L 56.203125 54.6875 
L 35.6875 0 
L 23.484375 0 
z
" id="DejaVuSans-76"/>
      <path d="M 9.421875 75.984375 
L 18.40625 75.984375 
L 18.40625 0 
L 9.421875 0 
z
" id="DejaVuSans-6c"/>
      <path d="M 45.40625 46.390625 
L 45.40625 75.984375 
L 54.390625 75.984375 
L 54.390625 0 
L 45.40625 0 
L 45.40625 8.203125 
Q 42.578125 3.328125 38.25 0.953125 
Q 33.9375 -1.421875 27.875 -1.421875 
Q 17.96875 -1.421875 11.734375 6.484375 
Q 5.515625 14.40625 5.515625 27.296875 
Q 5.515625 40.1875 11.734375 48.09375 
Q 17.96875 56 27.875 56 
Q 33.9375 56 38.25 53.625 
Q 42.578125 51.265625 45.40625 46.390625 
z
M 14.796875 27.296875 
Q 14.796875 17.390625 18.875 11.75 
Q 22.953125 6.109375 30.078125 6.109375 
Q 37.203125 6.109375 41.296875 11.75 
Q 45.40625 17.390625 45.40625 27.296875 
Q 45.40625 37.203125 41.296875 42.84375 
Q 37.203125 48.484375 30.078125 48.484375 
Q 22.953125 48.484375 18.875 42.84375 
Q 14.796875 37.203125 14.796875 27.296875 
z
" id="DejaVuSans-64"/>
      <path d="M 9.421875 54.6875 
L 18.40625 54.6875 
L 18.40625 0 
L 9.421875 0 
z
M 9.421875 75.984375 
L 18.40625 75.984375 
L 18.40625 64.59375 
L 9.421875 64.59375 
z
" id="DejaVuSans-69"/>
      <path d="M 44.28125 53.078125 
L 44.28125 44.578125 
Q 40.484375 46.53125 36.375 47.5 
Q 32.28125 48.484375 27.875 48.484375 
Q 21.1875 48.484375 17.84375 46.4375 
Q 14.5 44.390625 14.5 40.28125 
Q 14.5 37.15625 16.890625 35.375 
Q 19.28125 33.59375 26.515625 31.984375 
L 29.59375 31.296875 
Q 39.15625 29.25 43.1875 25.515625 
Q 47.21875 21.78125 47.21875 15.09375 
Q 47.21875 7.46875 41.1875 3.015625 
Q 35.15625 -1.421875 24.609375 -1.421875 
Q 20.21875 -1.421875 15.453125 -0.5625 
Q 10.6875 0.296875 5.421875 2 
L 5.421875 11.28125 
Q 10.40625 8.6875 15.234375 7.390625 
Q 20.0625 6.109375 24.8125 6.109375 
Q 31.15625 6.109375 34.5625 8.28125 
Q 37.984375 10.453125 37.984375 14.40625 
Q 37.984375 18.0625 35.515625 20.015625 
Q 33.0625 21.96875 24.703125 23.78125 
L 21.578125 24.515625 
Q 13.234375 26.265625 9.515625 29.90625 
Q 5.8125 33.546875 5.8125 39.890625 
Q 5.8125 47.609375 11.28125 51.796875 
Q 16.75 56 26.8125 56 
Q 31.78125 56 36.171875 55.265625 
Q 40.578125 54.546875 44.28125 53.078125 
z
" id="DejaVuSans-73"/>
      <path d="M 54.890625 33.015625 
L 54.890625 0 
L 45.90625 0 
L 45.90625 32.71875 
Q 45.90625 40.484375 42.875 44.328125 
Q 39.84375 48.1875 33.796875 48.1875 
Q 26.515625 48.1875 22.3125 43.546875 
Q 18.109375 38.921875 18.109375 30.90625 
L 18.109375 0 
L 9.078125 0 
L 9.078125 54.6875 
L 18.109375 54.6875 
L 18.109375 46.1875 
Q 21.34375 51.125 25.703125 53.5625 
Q 30.078125 56 35.796875 56 
Q 45.21875 56 50.046875 50.171875 
Q 54.890625 44.34375 54.890625 33.015625 
z
" id="DejaVuSans-6e"/>
      <path d="M 48.78125 52.59375 
L 48.78125 44.1875 
Q 44.96875 46.296875 41.140625 47.34375 
Q 37.3125 48.390625 33.40625 48.390625 
Q 24.65625 48.390625 19.8125 42.84375 
Q 14.984375 37.3125 14.984375 27.296875 
Q 14.984375 17.28125 19.8125 11.734375 
Q 24.65625 6.203125 33.40625 6.203125 
Q 37.3125 6.203125 41.140625 7.25 
Q 44.96875 8.296875 48.78125 10.40625 
L 48.78125 2.09375 
Q 45.015625 0.34375 40.984375 -0.53125 
Q 36.96875 -1.421875 32.421875 -1.421875 
Q 20.0625 -1.421875 12.78125 6.34375 
Q 5.515625 14.109375 5.515625 27.296875 
Q 5.515625 40.671875 12.859375 48.328125 
Q 20.21875 56 33.015625 56 
Q 37.15625 56 41.109375 55.140625 
Q 45.0625 54.296875 48.78125 52.59375 
z
" id="DejaVuSans-63"/>
     </defs>
     <g transform="translate(197.968594 335.860562)scale(0.1 -0.1)">
      <use xlink:href="#DejaVuSans-74"/>
      <use x="39.208984" xlink:href="#DejaVuSans-72"/>
      <use x="80.322266" xlink:href="#DejaVuSans-61"/>
      <use x="141.601562" xlink:href="#DejaVuSans-76"/>
      <use x="200.78125" xlink:href="#DejaVuSans-65"/>
      <use x="262.304688" xlink:href="#DejaVuSans-6c"/>
      <use x="290.087891" xlink:href="#DejaVuSans-5f"/>
      <use x="340.087891" xlink:href="#DejaVuSans-64"/>
      <use x="403.564453" xlink:href="#DejaVuSans-69"/>
      <use x="431.347656" xlink:href="#DejaVuSans-73"/>
      <use x="483.447266" xlink:href="#DejaVuSans-74"/>
      <use x="522.65625" xlink:href="#DejaVuSans-61"/>
      <use x="583.935547" xlink:href="#DejaVuSans-6e"/>
      <use x="647.314453" xlink:href="#DejaVuSans-63"/>
      <use x="702.294922" xlink:href="#DejaVuSans-65"/>
     </g>
    </g>
   </g>
   <g id="matplotlib.axis_6">
    <g id="ytick_7">
     <g id="line2d_33">
      <g>
       <use style="stroke:#000000;stroke-width:0.8;" x="57.6" xlink:href="#ma2979c9105" y="278.362915"/>
      </g>
     </g>
     <g id="text_34">
      <!-- 2 -->
      <g transform="translate(44.2375 282.162134)scale(0.1 -0.1)">
       <use xlink:href="#DejaVuSans-32"/>
      </g>
     </g>
    </g>
    <g id="ytick_8">
     <g id="line2d_34">
      <g>
       <use style="stroke:#000000;stroke-width:0.8;" x="57.6" xlink:href="#ma2979c9105" y="248.053884"/>
      </g>
     </g>
     <g id="text_35">
      <!-- 4 -->
      <g transform="translate(44.2375 251.853103)scale(0.1 -0.1)">
       <use xlink:href="#DejaVuSans-34"/>
      </g>
     </g>
    </g>
    <g id="text_36">
     <!-- thegma_theta -->
     <g transform="translate(37.879687 303.493632)rotate(-90)scale(0.1 -0.1)">
      <use xlink:href="#DejaVuSans-74"/>
      <use x="39.208984" xlink:href="#DejaVuSans-68"/>
      <use x="102.587891" xlink:href="#DejaVuSans-65"/>
      <use x="164.111328" xlink:href="#DejaVuSans-67"/>
      <use x="227.587891" xlink:href="#DejaVuSans-6d"/>
      <use x="325" xlink:href="#DejaVuSans-61"/>
      <use x="386.279297" xlink:href="#DejaVuSans-5f"/>
      <use x="436.279297" xlink:href="#DejaVuSans-74"/>
      <use x="475.488281" xlink:href="#DejaVuSans-68"/>
      <use x="538.867188" xlink:href="#DejaVuSans-65"/>
      <use x="600.390625" xlink:href="#DejaVuSans-74"/>
      <use x="639.599609" xlink:href="#DejaVuSans-61"/>
     </g>
    </g>
   </g>
   <g id="line2d_35">
    <path clip-path="url(#p22756779ee)" d="M 73.832727 232.873412 
L 73.855349 304.026353 
L 74.357145 303.681233 
L 74.587477 303.301512 
L 76.621395 301.706798 
L 76.848642 301.429872 
L 78.138092 300.656294 
L 79.206464 299.951068 
L 79.51186 299.728342 
L 80.061985 299.511029 
L 80.290261 299.298753 
L 81.223929 298.888008 
L 81.45529 298.688971 
L 82.407468 298.362881 
L 82.644998 298.173796 
L 83.527253 297.805491 
L 83.848074 297.625942 
L 84.332389 298.082068 
L 85.061432 297.716846 
L 87.261929 296.853065 
L 87.503572 296.687778 
L 89.750341 295.895802 
L 90.002267 295.742747 
L 90.505091 297.023963 
L 91.350329 296.690952 
L 93.033606 296.051265 
L 93.383218 297.3645 
L 96.446433 296.206043 
L 96.960568 296.40012 
L 97.043858 296.240853 
L 97.73177 298.29601 
L 98.943072 297.742029 
L 99.204252 297.563506 
L 100.241776 297.214803 
L 100.852569 298.637467 
L 102.427878 297.881758 
L 103.29985 297.523097 
L 103.91784 297.348025 
L 104.269509 297.452252 
L 104.529661 297.278269 
L 105.502404 296.93804 
L 106.035048 297.976679 
L 107.184653 297.438434 
L 108.699294 296.924826 
L 109.232966 298.597471 
L 110.753777 297.844553 
L 113.613395 296.809019 
L 113.888971 296.644337 
L 116.338309 295.852621 
L 116.612857 295.700075 
L 119.52903 294.820032 
L 119.80255 294.678738 
L 120.435964 294.866397 
L 120.706399 294.724634 
L 123.084787 294.036398 
L 124.368067 293.638573 
L 126.388617 293.123966 
L 128.232304 292.625854 
L 128.601453 293.70072 
L 129.164945 299.07101 
L 133.239978 297.3765 
L 135.078524 296.711015 
L 136.017334 296.386484 
L 137.510381 295.915159 
L 137.791099 295.761874 
L 139.266666 295.312568 
L 140.76177 294.877888 
L 141.13606 297.073408 
L 142.441963 296.575289 
L 144.031667 296.096885 
L 144.404929 295.941412 
L 144.971506 298.027138 
L 147.119561 297.140091 
L 147.670714 297.123693 
L 149.177129 296.623495 
L 149.459903 296.461315 
L 150.960148 295.987209 
L 151.901015 295.680747 
L 152.465535 298.601736 
L 153.404345 298.360209 
L 154.341099 297.985477 
L 155.663454 297.446811 
L 156.050083 297.446602 
L 156.615631 299.176194 
L 159.090676 298.191438 
L 159.852624 297.822534 
L 161.454668 297.291578 
L 161.739499 297.120015 
L 163.340515 296.619969 
L 163.716861 296.457835 
L 164.297834 299.17979 
L 164.57958 298.974762 
L 166.18985 298.384167 
L 167.414519 297.825682 
L 168.459241 297.468815 
L 168.748185 297.294579 
L 170.906523 296.632925 
L 177.360971 294.529143 
L 178.208265 294.253639 
L 178.883839 294.988363 
L 179.166613 294.845349 
L 181.836001 294.151391 
L 181.93163 294.016542 
L 182.495122 296.500981 
L 192.895041 293.611425 
L 193.191182 296.996914 
L 195.49245 296.341344 
L 198.560806 295.418651 
L 202.017849 294.556143 
L 203.457426 294.144078 
L 205.389545 293.743384 
L 208.176156 293.098452 
L 208.176156 292.972645 
L 209.896451 292.724007 
L 210.184366 292.601131 
L 211.23423 292.479187 
L 211.51906 292.8331 
L 213.140642 292.586619 
L 213.140642 292.464785 
L 214.855795 292.223822 
L 214.855795 292.104655 
L 216.566836 291.868857 
L 216.661437 291.75219 
L 218.284046 291.521236 
L 219.901515 291.293352 
L 219.901515 291.180523 
L 221.623866 290.957021 
L 229.839741 289.567887 
L 231.747181 289.363042 
L 235.169262 288.860195 
L 241.613428 287.985849 
L 244.660191 287.608898 
L 245.424195 291.536685 
L 246.001055 298.428707 
L 250.780452 297.334838 
L 256.718709 296.022646 
L 260.249787 295.415168 
L 262.628175 294.977231 
L 274.442993 293.095488 
L 275.11034 295.401761 
L 280.659911 294.540283 
L 284.199215 293.994028 
L 285.913341 293.728387 
L 286.968345 299.60081 
L 288.67733 299.17699 
L 295.46905 297.823231 
L 304.254586 296.298437 
L 306.16614 295.984455 
L 307.208805 298.820849 
L 313.039094 297.687858 
L 318.529025 296.826191 
L 321.504838 296.338051 
L 328.02818 295.415588 
L 332.315037 294.834735 
L 340.154564 293.872999 
L 341.497484 295.056862 
L 348.187407 294.215924 
L 350.679932 293.946279 
L 351.931336 297.378722 
L 367.736869 295.304695 
L 391.158795 292.876326 
L 398.487273 292.145976 
L 398.487273 289.915757 
L 398.487273 289.915757 
" style="fill:none;stroke:#1f77b4;stroke-linecap:square;stroke-width:1.5;"/>
   </g>
   <g id="patch_13">
    <path d="M 57.6 307.584 
L 57.6 229.315765 
" style="fill:none;stroke:#000000;stroke-linecap:square;stroke-linejoin:miter;stroke-width:0.8;"/>
   </g>
   <g id="patch_14">
    <path d="M 414.72 307.584 
L 414.72 229.315765 
" style="fill:none;stroke:#000000;stroke-linecap:square;stroke-linejoin:miter;stroke-width:0.8;"/>
   </g>
   <g id="patch_15">
    <path d="M 57.6 307.584 
L 414.72 307.584 
" style="fill:none;stroke:#000000;stroke-linecap:square;stroke-linejoin:miter;stroke-width:0.8;"/>
   </g>
   <g id="patch_16">
    <path d="M 57.6 229.315765 
L 414.72 229.315765 
" style="fill:none;stroke:#000000;stroke-linecap:square;stroke-linejoin:miter;stroke-width:0.8;"/>
   </g>
  </g>
 </g>
 <defs>
  <clipPath id="p62d0d4f320">
   <rect height="78.268235" width="357.12" x="57.6" y="41.472"/>
  </clipPath>
  <clipPath id="p8f42d46225">
   <rect height="78.268235" width="357.12" x="57.6" y="135.393882"/>
  </clipPath>
  <clipPath id="p22756779ee">
   <rect height="78.268235" width="357.12" x="57.6" y="229.315765"/>
  </clipPath>
 </defs>
</svg>
