<?xml version="1.0" encoding="utf-8" standalone="no"?>
<!DOCTYPE svg PUBLIC "-//W3C//DTD SVG 1.1//EN"
  "http://www.w3.org/Graphics/SVG/1.1/DTD/svg11.dtd">
<!-- Created with matplotlib (http://matplotlib.org/) -->
<svg height="345.6pt" version="1.1" viewBox="0 0 460.8 345.6" width="460.8pt" xmlns="http://www.w3.org/2000/svg" xmlns:xlink="http://www.w3.org/1999/xlink">
 <defs>
  <style type="text/css">
*{stroke-linecap:butt;stroke-linejoin:round;}
  </style>
 </defs>
 <g id="figure_1">
  <g id="patch_1">
   <path d="M 0 345.6 
L 460.8 345.6 
L 460.8 0 
L 0 0 
z
" style="fill:#ffffff;"/>
  </g>
  <g id="axes_1">
   <g id="patch_2">
    <path d="M 57.6 307.584 
L 414.72 307.584 
L 414.72 41.472 
L 57.6 41.472 
z
" style="fill:#ffffff;"/>
   </g>
   <g id="matplotlib.axis_1">
    <g id="xtick_1">
     <g id="line2d_1">
      <defs>
       <path d="M 0 0 
L 0 3.5 
" id="m872a3185c9" style="stroke:#000000;stroke-width:0.8;"/>
      </defs>
      <g>
       <use style="stroke:#000000;stroke-width:0.8;" x="73.832727" xlink:href="#m872a3185c9" y="307.584"/>
      </g>
     </g>
     <g id="text_1">
      <!-- 0 -->
      <defs>
       <path d="M 31.78125 66.40625 
Q 24.171875 66.40625 20.328125 58.90625 
Q 16.5 51.421875 16.5 36.375 
Q 16.5 21.390625 20.328125 13.890625 
Q 24.171875 6.390625 31.78125 6.390625 
Q 39.453125 6.390625 43.28125 13.890625 
Q 47.125 21.390625 47.125 36.375 
Q 47.125 51.421875 43.28125 58.90625 
Q 39.453125 66.40625 31.78125 66.40625 
z
M 31.78125 74.21875 
Q 44.046875 74.21875 50.515625 64.515625 
Q 56.984375 54.828125 56.984375 36.375 
Q 56.984375 17.96875 50.515625 8.265625 
Q 44.046875 -1.421875 31.78125 -1.421875 
Q 19.53125 -1.421875 13.0625 8.265625 
Q 6.59375 17.96875 6.59375 36.375 
Q 6.59375 54.828125 13.0625 64.515625 
Q 19.53125 74.21875 31.78125 74.21875 
z
" id="DejaVuSans-30"/>
      </defs>
      <g transform="translate(70.651477 322.182437)scale(0.1 -0.1)">
       <use xlink:href="#DejaVuSans-30"/>
      </g>
     </g>
    </g>
    <g id="xtick_2">
     <g id="line2d_2">
      <g>
       <use style="stroke:#000000;stroke-width:0.8;" x="147.617851" xlink:href="#m872a3185c9" y="307.584"/>
      </g>
     </g>
     <g id="text_2">
      <!-- 10 -->
      <defs>
       <path d="M 12.40625 8.296875 
L 28.515625 8.296875 
L 28.515625 63.921875 
L 10.984375 60.40625 
L 10.984375 69.390625 
L 28.421875 72.90625 
L 38.28125 72.90625 
L 38.28125 8.296875 
L 54.390625 8.296875 
L 54.390625 0 
L 12.40625 0 
z
" id="DejaVuSans-31"/>
      </defs>
      <g transform="translate(141.255351 322.182437)scale(0.1 -0.1)">
       <use xlink:href="#DejaVuSans-31"/>
       <use x="63.623047" xlink:href="#DejaVuSans-30"/>
      </g>
     </g>
    </g>
    <g id="xtick_3">
     <g id="line2d_3">
      <g>
       <use style="stroke:#000000;stroke-width:0.8;" x="221.402975" xlink:href="#m872a3185c9" y="307.584"/>
      </g>
     </g>
     <g id="text_3">
      <!-- 20 -->
      <defs>
       <path d="M 19.1875 8.296875 
L 53.609375 8.296875 
L 53.609375 0 
L 7.328125 0 
L 7.328125 8.296875 
Q 12.9375 14.109375 22.625 23.890625 
Q 32.328125 33.6875 34.8125 36.53125 
Q 39.546875 41.84375 41.421875 45.53125 
Q 43.3125 49.21875 43.3125 52.78125 
Q 43.3125 58.59375 39.234375 62.25 
Q 35.15625 65.921875 28.609375 65.921875 
Q 23.96875 65.921875 18.8125 64.3125 
Q 13.671875 62.703125 7.8125 59.421875 
L 7.8125 69.390625 
Q 13.765625 71.78125 18.9375 73 
Q 24.125 74.21875 28.421875 74.21875 
Q 39.75 74.21875 46.484375 68.546875 
Q 53.21875 62.890625 53.21875 53.421875 
Q 53.21875 48.921875 51.53125 44.890625 
Q 49.859375 40.875 45.40625 35.40625 
Q 44.1875 33.984375 37.640625 27.21875 
Q 31.109375 20.453125 19.1875 8.296875 
z
" id="DejaVuSans-32"/>
      </defs>
      <g transform="translate(215.040475 322.182437)scale(0.1 -0.1)">
       <use xlink:href="#DejaVuSans-32"/>
       <use x="63.623047" xlink:href="#DejaVuSans-30"/>
      </g>
     </g>
    </g>
    <g id="xtick_4">
     <g id="line2d_4">
      <g>
       <use style="stroke:#000000;stroke-width:0.8;" x="295.188099" xlink:href="#m872a3185c9" y="307.584"/>
      </g>
     </g>
     <g id="text_4">
      <!-- 30 -->
      <defs>
       <path d="M 40.578125 39.3125 
Q 47.65625 37.796875 51.625 33 
Q 55.609375 28.21875 55.609375 21.1875 
Q 55.609375 10.40625 48.1875 4.484375 
Q 40.765625 -1.421875 27.09375 -1.421875 
Q 22.515625 -1.421875 17.65625 -0.515625 
Q 12.796875 0.390625 7.625 2.203125 
L 7.625 11.71875 
Q 11.71875 9.328125 16.59375 8.109375 
Q 21.484375 6.890625 26.8125 6.890625 
Q 36.078125 6.890625 40.9375 10.546875 
Q 45.796875 14.203125 45.796875 21.1875 
Q 45.796875 27.640625 41.28125 31.265625 
Q 36.765625 34.90625 28.71875 34.90625 
L 20.21875 34.90625 
L 20.21875 43.015625 
L 29.109375 43.015625 
Q 36.375 43.015625 40.234375 45.921875 
Q 44.09375 48.828125 44.09375 54.296875 
Q 44.09375 59.90625 40.109375 62.90625 
Q 36.140625 65.921875 28.71875 65.921875 
Q 24.65625 65.921875 20.015625 65.03125 
Q 15.375 64.15625 9.8125 62.3125 
L 9.8125 71.09375 
Q 15.4375 72.65625 20.34375 73.4375 
Q 25.25 74.21875 29.59375 74.21875 
Q 40.828125 74.21875 47.359375 69.109375 
Q 53.90625 64.015625 53.90625 55.328125 
Q 53.90625 49.265625 50.4375 45.09375 
Q 46.96875 40.921875 40.578125 39.3125 
z
" id="DejaVuSans-33"/>
      </defs>
      <g transform="translate(288.825599 322.182437)scale(0.1 -0.1)">
       <use xlink:href="#DejaVuSans-33"/>
       <use x="63.623047" xlink:href="#DejaVuSans-30"/>
      </g>
     </g>
    </g>
    <g id="xtick_5">
     <g id="line2d_5">
      <g>
       <use style="stroke:#000000;stroke-width:0.8;" x="368.973223" xlink:href="#m872a3185c9" y="307.584"/>
      </g>
     </g>
     <g id="text_5">
      <!-- 40 -->
      <defs>
       <path d="M 37.796875 64.3125 
L 12.890625 25.390625 
L 37.796875 25.390625 
z
M 35.203125 72.90625 
L 47.609375 72.90625 
L 47.609375 25.390625 
L 58.015625 25.390625 
L 58.015625 17.1875 
L 47.609375 17.1875 
L 47.609375 0 
L 37.796875 0 
L 37.796875 17.1875 
L 4.890625 17.1875 
L 4.890625 26.703125 
z
" id="DejaVuSans-34"/>
      </defs>
      <g transform="translate(362.610723 322.182437)scale(0.1 -0.1)">
       <use xlink:href="#DejaVuSans-34"/>
       <use x="63.623047" xlink:href="#DejaVuSans-30"/>
      </g>
     </g>
    </g>
   </g>
   <g id="matplotlib.axis_2">
    <g id="ytick_1">
     <g id="line2d_6">
      <defs>
       <path d="M 0 0 
L -3.5 0 
" id="mf95644e7a4" style="stroke:#000000;stroke-width:0.8;"/>
      </defs>
      <g>
       <use style="stroke:#000000;stroke-width:0.8;" x="57.6" xlink:href="#mf95644e7a4" y="299.52"/>
      </g>
     </g>
     <g id="text_6">
      <!-- 0 -->
      <g transform="translate(44.2375 303.319219)scale(0.1 -0.1)">
       <use xlink:href="#DejaVuSans-30"/>
      </g>
     </g>
    </g>
    <g id="ytick_2">
     <g id="line2d_7">
      <g>
       <use style="stroke:#000000;stroke-width:0.8;" x="57.6" xlink:href="#mf95644e7a4" y="267.264"/>
      </g>
     </g>
     <g id="text_7">
      <!-- 20 -->
      <g transform="translate(37.875 271.063219)scale(0.1 -0.1)">
       <use xlink:href="#DejaVuSans-32"/>
       <use x="63.623047" xlink:href="#DejaVuSans-30"/>
      </g>
     </g>
    </g>
    <g id="ytick_3">
     <g id="line2d_8">
      <g>
       <use style="stroke:#000000;stroke-width:0.8;" x="57.6" xlink:href="#mf95644e7a4" y="235.008"/>
      </g>
     </g>
     <g id="text_8">
      <!-- 40 -->
      <g transform="translate(37.875 238.807219)scale(0.1 -0.1)">
       <use xlink:href="#DejaVuSans-34"/>
       <use x="63.623047" xlink:href="#DejaVuSans-30"/>
      </g>
     </g>
    </g>
    <g id="ytick_4">
     <g id="line2d_9">
      <g>
       <use style="stroke:#000000;stroke-width:0.8;" x="57.6" xlink:href="#mf95644e7a4" y="202.752"/>
      </g>
     </g>
     <g id="text_9">
      <!-- 60 -->
      <defs>
       <path d="M 33.015625 40.375 
Q 26.375 40.375 22.484375 35.828125 
Q 18.609375 31.296875 18.609375 23.390625 
Q 18.609375 15.53125 22.484375 10.953125 
Q 26.375 6.390625 33.015625 6.390625 
Q 39.65625 6.390625 43.53125 10.953125 
Q 47.40625 15.53125 47.40625 23.390625 
Q 47.40625 31.296875 43.53125 35.828125 
Q 39.65625 40.375 33.015625 40.375 
z
M 52.59375 71.296875 
L 52.59375 62.3125 
Q 48.875 64.0625 45.09375 64.984375 
Q 41.3125 65.921875 37.59375 65.921875 
Q 27.828125 65.921875 22.671875 59.328125 
Q 17.53125 52.734375 16.796875 39.40625 
Q 19.671875 43.65625 24.015625 45.921875 
Q 28.375 48.1875 33.59375 48.1875 
Q 44.578125 48.1875 50.953125 41.515625 
Q 57.328125 34.859375 57.328125 23.390625 
Q 57.328125 12.15625 50.6875 5.359375 
Q 44.046875 -1.421875 33.015625 -1.421875 
Q 20.359375 -1.421875 13.671875 8.265625 
Q 6.984375 17.96875 6.984375 36.375 
Q 6.984375 53.65625 15.1875 63.9375 
Q 23.390625 74.21875 37.203125 74.21875 
Q 40.921875 74.21875 44.703125 73.484375 
Q 48.484375 72.75 52.59375 71.296875 
z
" id="DejaVuSans-36"/>
      </defs>
      <g transform="translate(37.875 206.551219)scale(0.1 -0.1)">
       <use xlink:href="#DejaVuSans-36"/>
       <use x="63.623047" xlink:href="#DejaVuSans-30"/>
      </g>
     </g>
    </g>
    <g id="ytick_5">
     <g id="line2d_10">
      <g>
       <use style="stroke:#000000;stroke-width:0.8;" x="57.6" xlink:href="#mf95644e7a4" y="170.496"/>
      </g>
     </g>
     <g id="text_10">
      <!-- 80 -->
      <defs>
       <path d="M 31.78125 34.625 
Q 24.75 34.625 20.71875 30.859375 
Q 16.703125 27.09375 16.703125 20.515625 
Q 16.703125 13.921875 20.71875 10.15625 
Q 24.75 6.390625 31.78125 6.390625 
Q 38.8125 6.390625 42.859375 10.171875 
Q 46.921875 13.96875 46.921875 20.515625 
Q 46.921875 27.09375 42.890625 30.859375 
Q 38.875 34.625 31.78125 34.625 
z
M 21.921875 38.8125 
Q 15.578125 40.375 12.03125 44.71875 
Q 8.5 49.078125 8.5 55.328125 
Q 8.5 64.0625 14.71875 69.140625 
Q 20.953125 74.21875 31.78125 74.21875 
Q 42.671875 74.21875 48.875 69.140625 
Q 55.078125 64.0625 55.078125 55.328125 
Q 55.078125 49.078125 51.53125 44.71875 
Q 48 40.375 41.703125 38.8125 
Q 48.828125 37.15625 52.796875 32.3125 
Q 56.78125 27.484375 56.78125 20.515625 
Q 56.78125 9.90625 50.3125 4.234375 
Q 43.84375 -1.421875 31.78125 -1.421875 
Q 19.734375 -1.421875 13.25 4.234375 
Q 6.78125 9.90625 6.78125 20.515625 
Q 6.78125 27.484375 10.78125 32.3125 
Q 14.796875 37.15625 21.921875 38.8125 
z
M 18.3125 54.390625 
Q 18.3125 48.734375 21.84375 45.5625 
Q 25.390625 42.390625 31.78125 42.390625 
Q 38.140625 42.390625 41.71875 45.5625 
Q 45.3125 48.734375 45.3125 54.390625 
Q 45.3125 60.0625 41.71875 63.234375 
Q 38.140625 66.40625 31.78125 66.40625 
Q 25.390625 66.40625 21.84375 63.234375 
Q 18.3125 60.0625 18.3125 54.390625 
z
" id="DejaVuSans-38"/>
      </defs>
      <g transform="translate(37.875 174.295219)scale(0.1 -0.1)">
       <use xlink:href="#DejaVuSans-38"/>
       <use x="63.623047" xlink:href="#DejaVuSans-30"/>
      </g>
     </g>
    </g>
    <g id="ytick_6">
     <g id="line2d_11">
      <g>
       <use style="stroke:#000000;stroke-width:0.8;" x="57.6" xlink:href="#mf95644e7a4" y="138.24"/>
      </g>
     </g>
     <g id="text_11">
      <!-- 100 -->
      <g transform="translate(31.5125 142.039219)scale(0.1 -0.1)">
       <use xlink:href="#DejaVuSans-31"/>
       <use x="63.623047" xlink:href="#DejaVuSans-30"/>
       <use x="127.246094" xlink:href="#DejaVuSans-30"/>
      </g>
     </g>
    </g>
    <g id="ytick_7">
     <g id="line2d_12">
      <g>
       <use style="stroke:#000000;stroke-width:0.8;" x="57.6" xlink:href="#mf95644e7a4" y="105.984"/>
      </g>
     </g>
     <g id="text_12">
      <!-- 120 -->
      <g transform="translate(31.5125 109.783219)scale(0.1 -0.1)">
       <use xlink:href="#DejaVuSans-31"/>
       <use x="63.623047" xlink:href="#DejaVuSans-32"/>
       <use x="127.246094" xlink:href="#DejaVuSans-30"/>
      </g>
     </g>
    </g>
    <g id="ytick_8">
     <g id="line2d_13">
      <g>
       <use style="stroke:#000000;stroke-width:0.8;" x="57.6" xlink:href="#mf95644e7a4" y="73.728"/>
      </g>
     </g>
     <g id="text_13">
      <!-- 140 -->
      <g transform="translate(31.5125 77.527219)scale(0.1 -0.1)">
       <use xlink:href="#DejaVuSans-31"/>
       <use x="63.623047" xlink:href="#DejaVuSans-34"/>
       <use x="127.246094" xlink:href="#DejaVuSans-30"/>
      </g>
     </g>
    </g>
    <g id="ytick_9">
     <g id="line2d_14">
      <g>
       <use style="stroke:#000000;stroke-width:0.8;" x="57.6" xlink:href="#mf95644e7a4" y="41.472"/>
      </g>
     </g>
     <g id="text_14">
      <!-- 160 -->
      <g transform="translate(31.5125 45.271219)scale(0.1 -0.1)">
       <use xlink:href="#DejaVuSans-31"/>
       <use x="63.623047" xlink:href="#DejaVuSans-36"/>
       <use x="127.246094" xlink:href="#DejaVuSans-30"/>
      </g>
     </g>
    </g>
   </g>
   <g id="line2d_15">
    <defs>
     <path d="M 0 1.5 
C 0.397805 1.5 0.77937 1.341951 1.06066 1.06066 
C 1.341951 0.77937 1.5 0.397805 1.5 0 
C 1.5 -0.397805 1.341951 -0.77937 1.06066 -1.06066 
C 0.77937 -1.341951 0.397805 -1.5 0 -1.5 
C -0.397805 -1.5 -0.77937 -1.341951 -1.06066 -1.06066 
C -1.341951 -0.77937 -1.5 -0.397805 -1.5 0 
C -1.5 0.397805 -1.341951 0.77937 -1.06066 1.06066 
C -0.77937 1.341951 -0.397805 1.5 0 1.5 
z
" id="mc15ec20fe8" style="stroke:#008000;"/>
    </defs>
    <g clip-path="url(#p183062f506)">
     <use style="fill:#008000;stroke:#008000;" x="73.832727" xlink:href="#mc15ec20fe8" y="299.52"/>
     <use style="fill:#008000;stroke:#008000;" x="81.21124" xlink:href="#mc15ec20fe8" y="299.52"/>
     <use style="fill:#008000;stroke:#008000;" x="88.589752" xlink:href="#mc15ec20fe8" y="299.52"/>
     <use style="fill:#008000;stroke:#008000;" x="95.968264" xlink:href="#mc15ec20fe8" y="299.52"/>
     <use style="fill:#008000;stroke:#008000;" x="103.346777" xlink:href="#mc15ec20fe8" y="299.52"/>
     <use style="fill:#008000;stroke:#008000;" x="110.725289" xlink:href="#mc15ec20fe8" y="299.52"/>
     <use style="fill:#008000;stroke:#008000;" x="118.103802" xlink:href="#mc15ec20fe8" y="299.52"/>
     <use style="fill:#008000;stroke:#008000;" x="125.482314" xlink:href="#mc15ec20fe8" y="299.52"/>
     <use style="fill:#008000;stroke:#008000;" x="132.860826" xlink:href="#mc15ec20fe8" y="299.52"/>
     <use style="fill:#008000;stroke:#008000;" x="140.239339" xlink:href="#mc15ec20fe8" y="299.52"/>
     <use style="fill:#008000;stroke:#008000;" x="147.617851" xlink:href="#mc15ec20fe8" y="299.52"/>
     <use style="fill:#008000;stroke:#008000;" x="154.996364" xlink:href="#mc15ec20fe8" y="299.52"/>
     <use style="fill:#008000;stroke:#008000;" x="162.374876" xlink:href="#mc15ec20fe8" y="299.52"/>
     <use style="fill:#008000;stroke:#008000;" x="169.753388" xlink:href="#mc15ec20fe8" y="299.52"/>
     <use style="fill:#008000;stroke:#008000;" x="177.131901" xlink:href="#mc15ec20fe8" y="299.52"/>
     <use style="fill:#008000;stroke:#008000;" x="184.510413" xlink:href="#mc15ec20fe8" y="299.52"/>
     <use style="fill:#008000;stroke:#008000;" x="191.888926" xlink:href="#mc15ec20fe8" y="299.52"/>
     <use style="fill:#008000;stroke:#008000;" x="199.267438" xlink:href="#mc15ec20fe8" y="299.52"/>
     <use style="fill:#008000;stroke:#008000;" x="206.64595" xlink:href="#mc15ec20fe8" y="299.52"/>
     <use style="fill:#008000;stroke:#008000;" x="214.024463" xlink:href="#mc15ec20fe8" y="299.52"/>
     <use style="fill:#008000;stroke:#008000;" x="221.402975" xlink:href="#mc15ec20fe8" y="299.52"/>
     <use style="fill:#008000;stroke:#008000;" x="228.781488" xlink:href="#mc15ec20fe8" y="299.52"/>
     <use style="fill:#008000;stroke:#008000;" x="236.16" xlink:href="#mc15ec20fe8" y="299.52"/>
     <use style="fill:#008000;stroke:#008000;" x="243.538512" xlink:href="#mc15ec20fe8" y="299.52"/>
     <use style="fill:#008000;stroke:#008000;" x="250.917025" xlink:href="#mc15ec20fe8" y="299.52"/>
     <use style="fill:#008000;stroke:#008000;" x="258.295537" xlink:href="#mc15ec20fe8" y="299.52"/>
     <use style="fill:#008000;stroke:#008000;" x="265.67405" xlink:href="#mc15ec20fe8" y="299.52"/>
     <use style="fill:#008000;stroke:#008000;" x="273.052562" xlink:href="#mc15ec20fe8" y="299.52"/>
     <use style="fill:#008000;stroke:#008000;" x="280.431074" xlink:href="#mc15ec20fe8" y="299.52"/>
     <use style="fill:#008000;stroke:#008000;" x="287.809587" xlink:href="#mc15ec20fe8" y="299.52"/>
     <use style="fill:#008000;stroke:#008000;" x="295.188099" xlink:href="#mc15ec20fe8" y="299.52"/>
     <use style="fill:#008000;stroke:#008000;" x="302.566612" xlink:href="#mc15ec20fe8" y="299.52"/>
     <use style="fill:#008000;stroke:#008000;" x="309.945124" xlink:href="#mc15ec20fe8" y="299.52"/>
     <use style="fill:#008000;stroke:#008000;" x="317.323636" xlink:href="#mc15ec20fe8" y="299.52"/>
     <use style="fill:#008000;stroke:#008000;" x="324.702149" xlink:href="#mc15ec20fe8" y="299.52"/>
     <use style="fill:#008000;stroke:#008000;" x="332.080661" xlink:href="#mc15ec20fe8" y="299.52"/>
     <use style="fill:#008000;stroke:#008000;" x="339.459174" xlink:href="#mc15ec20fe8" y="299.52"/>
     <use style="fill:#008000;stroke:#008000;" x="346.837686" xlink:href="#mc15ec20fe8" y="299.52"/>
     <use style="fill:#008000;stroke:#008000;" x="354.216198" xlink:href="#mc15ec20fe8" y="299.52"/>
     <use style="fill:#008000;stroke:#008000;" x="361.594711" xlink:href="#mc15ec20fe8" y="299.52"/>
     <use style="fill:#008000;stroke:#008000;" x="368.973223" xlink:href="#mc15ec20fe8" y="299.52"/>
     <use style="fill:#008000;stroke:#008000;" x="376.351736" xlink:href="#mc15ec20fe8" y="299.52"/>
     <use style="fill:#008000;stroke:#008000;" x="383.730248" xlink:href="#mc15ec20fe8" y="299.52"/>
     <use style="fill:#008000;stroke:#008000;" x="391.10876" xlink:href="#mc15ec20fe8" y="299.52"/>
     <use style="fill:#008000;stroke:#008000;" x="398.487273" xlink:href="#mc15ec20fe8" y="298.69678"/>
    </g>
   </g>
   <g id="line2d_16">
    <defs>
     <path d="M 0 1.5 
C 0.397805 1.5 0.77937 1.341951 1.06066 1.06066 
C 1.341951 0.77937 1.5 0.397805 1.5 0 
C 1.5 -0.397805 1.341951 -0.77937 1.06066 -1.06066 
C 0.77937 -1.341951 0.397805 -1.5 0 -1.5 
C -0.397805 -1.5 -0.77937 -1.341951 -1.06066 -1.06066 
C -1.341951 -0.77937 -1.5 -0.397805 -1.5 0 
C -1.5 0.397805 -1.341951 0.77937 -1.06066 1.06066 
C -0.77937 1.341951 -0.397805 1.5 0 1.5 
z
" id="mc666b7f68c" style="stroke:#ff0000;"/>
    </defs>
    <g clip-path="url(#p183062f506)">
     <use style="fill:#ff0000;stroke:#ff0000;" x="73.832727" xlink:href="#mc666b7f68c" y="282.655354"/>
     <use style="fill:#ff0000;stroke:#ff0000;" x="81.21124" xlink:href="#mc666b7f68c" y="282.655354"/>
     <use style="fill:#ff0000;stroke:#ff0000;" x="88.589752" xlink:href="#mc666b7f68c" y="282.684782"/>
     <use style="fill:#ff0000;stroke:#ff0000;" x="95.968264" xlink:href="#mc666b7f68c" y="282.684782"/>
     <use style="fill:#ff0000;stroke:#ff0000;" x="103.346777" xlink:href="#mc666b7f68c" y="282.743177"/>
     <use style="fill:#ff0000;stroke:#ff0000;" x="110.725289" xlink:href="#mc666b7f68c" y="282.743177"/>
     <use style="fill:#ff0000;stroke:#ff0000;" x="118.103802" xlink:href="#mc666b7f68c" y="282.772148"/>
     <use style="fill:#ff0000;stroke:#ff0000;" x="125.482314" xlink:href="#mc666b7f68c" y="282.772148"/>
     <use style="fill:#ff0000;stroke:#ff0000;" x="132.860826" xlink:href="#mc666b7f68c" y="282.829643"/>
     <use style="fill:#ff0000;stroke:#ff0000;" x="140.239339" xlink:href="#mc666b7f68c" y="282.829643"/>
     <use style="fill:#ff0000;stroke:#ff0000;" x="147.617851" xlink:href="#mc666b7f68c" y="282.886549"/>
     <use style="fill:#ff0000;stroke:#ff0000;" x="154.996364" xlink:href="#mc666b7f68c" y="282.886549"/>
     <use style="fill:#ff0000;stroke:#ff0000;" x="162.374876" xlink:href="#mc666b7f68c" y="282.914785"/>
     <use style="fill:#ff0000;stroke:#ff0000;" x="169.753388" xlink:href="#mc666b7f68c" y="282.914785"/>
     <use style="fill:#ff0000;stroke:#ff0000;" x="177.131901" xlink:href="#mc666b7f68c" y="282.970827"/>
     <use style="fill:#ff0000;stroke:#ff0000;" x="184.510413" xlink:href="#mc666b7f68c" y="282.970827"/>
     <use style="fill:#ff0000;stroke:#ff0000;" x="191.888926" xlink:href="#mc666b7f68c" y="282.998637"/>
     <use style="fill:#ff0000;stroke:#ff0000;" x="199.267438" xlink:href="#mc666b7f68c" y="282.998637"/>
     <use style="fill:#ff0000;stroke:#ff0000;" x="206.64595" xlink:href="#mc666b7f68c" y="283.026306"/>
     <use style="fill:#ff0000;stroke:#ff0000;" x="214.024463" xlink:href="#mc666b7f68c" y="283.026306"/>
     <use style="fill:#ff0000;stroke:#ff0000;" x="221.402975" xlink:href="#mc666b7f68c" y="283.081231"/>
     <use style="fill:#ff0000;stroke:#ff0000;" x="228.781488" xlink:href="#mc666b7f68c" y="283.081231"/>
     <use style="fill:#ff0000;stroke:#ff0000;" x="236.16" xlink:href="#mc666b7f68c" y="283.108489"/>
     <use style="fill:#ff0000;stroke:#ff0000;" x="243.538512" xlink:href="#mc666b7f68c" y="283.108489"/>
     <use style="fill:#ff0000;stroke:#ff0000;" x="250.917025" xlink:href="#mc666b7f68c" y="283.162599"/>
     <use style="fill:#ff0000;stroke:#ff0000;" x="258.295537" xlink:href="#mc666b7f68c" y="283.162599"/>
     <use style="fill:#ff0000;stroke:#ff0000;" x="265.67405" xlink:href="#mc666b7f68c" y="283.189455"/>
     <use style="fill:#ff0000;stroke:#ff0000;" x="273.052562" xlink:href="#mc666b7f68c" y="283.189455"/>
     <use style="fill:#ff0000;stroke:#ff0000;" x="280.431074" xlink:href="#mc666b7f68c" y="283.216178"/>
     <use style="fill:#ff0000;stroke:#ff0000;" x="287.809587" xlink:href="#mc666b7f68c" y="283.216178"/>
     <use style="fill:#ff0000;stroke:#ff0000;" x="295.188099" xlink:href="#mc666b7f68c" y="283.242771"/>
     <use style="fill:#ff0000;stroke:#ff0000;" x="302.566612" xlink:href="#mc666b7f68c" y="283.242771"/>
     <use style="fill:#ff0000;stroke:#ff0000;" x="309.945124" xlink:href="#mc666b7f68c" y="283.295569"/>
     <use style="fill:#ff0000;stroke:#ff0000;" x="317.323636" xlink:href="#mc666b7f68c" y="283.295569"/>
     <use style="fill:#ff0000;stroke:#ff0000;" x="324.702149" xlink:href="#mc666b7f68c" y="283.321775"/>
     <use style="fill:#ff0000;stroke:#ff0000;" x="332.080661" xlink:href="#mc666b7f68c" y="283.321775"/>
     <use style="fill:#ff0000;stroke:#ff0000;" x="339.459174" xlink:href="#mc666b7f68c" y="283.347856"/>
     <use style="fill:#ff0000;stroke:#ff0000;" x="346.837686" xlink:href="#mc666b7f68c" y="283.347856"/>
     <use style="fill:#ff0000;stroke:#ff0000;" x="354.216198" xlink:href="#mc666b7f68c" y="283.37381"/>
     <use style="fill:#ff0000;stroke:#ff0000;" x="361.594711" xlink:href="#mc666b7f68c" y="283.37381"/>
     <use style="fill:#ff0000;stroke:#ff0000;" x="368.973223" xlink:href="#mc666b7f68c" y="283.39964"/>
     <use style="fill:#ff0000;stroke:#ff0000;" x="376.351736" xlink:href="#mc666b7f68c" y="283.39964"/>
     <use style="fill:#ff0000;stroke:#ff0000;" x="383.730248" xlink:href="#mc666b7f68c" y="283.425348"/>
     <use style="fill:#ff0000;stroke:#ff0000;" x="391.10876" xlink:href="#mc666b7f68c" y="283.425349"/>
     <use style="fill:#ff0000;stroke:#ff0000;" x="398.487273" xlink:href="#mc666b7f68c" y="283.451269"/>
    </g>
   </g>
   <g id="line2d_17">
    <g clip-path="url(#p183062f506)">
     <use style="fill:#ff0000;stroke:#ff0000;" x="73.832727" xlink:href="#mc666b7f68c" y="315.648"/>
     <use style="fill:#ff0000;stroke:#ff0000;" x="81.21124" xlink:href="#mc666b7f68c" y="315.648"/>
     <use style="fill:#ff0000;stroke:#ff0000;" x="88.589752" xlink:href="#mc666b7f68c" y="315.648"/>
     <use style="fill:#ff0000;stroke:#ff0000;" x="95.968264" xlink:href="#mc666b7f68c" y="315.648"/>
     <use style="fill:#ff0000;stroke:#ff0000;" x="103.346777" xlink:href="#mc666b7f68c" y="315.648"/>
     <use style="fill:#ff0000;stroke:#ff0000;" x="110.725289" xlink:href="#mc666b7f68c" y="315.648"/>
     <use style="fill:#ff0000;stroke:#ff0000;" x="118.103802" xlink:href="#mc666b7f68c" y="315.648"/>
     <use style="fill:#ff0000;stroke:#ff0000;" x="125.482314" xlink:href="#mc666b7f68c" y="315.648"/>
     <use style="fill:#ff0000;stroke:#ff0000;" x="132.860826" xlink:href="#mc666b7f68c" y="315.648"/>
     <use style="fill:#ff0000;stroke:#ff0000;" x="140.239339" xlink:href="#mc666b7f68c" y="315.648"/>
     <use style="fill:#ff0000;stroke:#ff0000;" x="147.617851" xlink:href="#mc666b7f68c" y="315.648"/>
     <use style="fill:#ff0000;stroke:#ff0000;" x="154.996364" xlink:href="#mc666b7f68c" y="315.648"/>
     <use style="fill:#ff0000;stroke:#ff0000;" x="162.374876" xlink:href="#mc666b7f68c" y="315.648"/>
     <use style="fill:#ff0000;stroke:#ff0000;" x="169.753388" xlink:href="#mc666b7f68c" y="315.648"/>
     <use style="fill:#ff0000;stroke:#ff0000;" x="177.131901" xlink:href="#mc666b7f68c" y="315.648"/>
     <use style="fill:#ff0000;stroke:#ff0000;" x="184.510413" xlink:href="#mc666b7f68c" y="315.648"/>
     <use style="fill:#ff0000;stroke:#ff0000;" x="191.888926" xlink:href="#mc666b7f68c" y="315.648"/>
     <use style="fill:#ff0000;stroke:#ff0000;" x="199.267438" xlink:href="#mc666b7f68c" y="315.648"/>
     <use style="fill:#ff0000;stroke:#ff0000;" x="206.64595" xlink:href="#mc666b7f68c" y="315.648"/>
     <use style="fill:#ff0000;stroke:#ff0000;" x="214.024463" xlink:href="#mc666b7f68c" y="315.648"/>
     <use style="fill:#ff0000;stroke:#ff0000;" x="221.402975" xlink:href="#mc666b7f68c" y="315.648"/>
     <use style="fill:#ff0000;stroke:#ff0000;" x="228.781488" xlink:href="#mc666b7f68c" y="315.648"/>
     <use style="fill:#ff0000;stroke:#ff0000;" x="236.16" xlink:href="#mc666b7f68c" y="315.648"/>
     <use style="fill:#ff0000;stroke:#ff0000;" x="243.538512" xlink:href="#mc666b7f68c" y="315.648"/>
     <use style="fill:#ff0000;stroke:#ff0000;" x="250.917025" xlink:href="#mc666b7f68c" y="315.648"/>
     <use style="fill:#ff0000;stroke:#ff0000;" x="258.295537" xlink:href="#mc666b7f68c" y="315.648"/>
     <use style="fill:#ff0000;stroke:#ff0000;" x="265.67405" xlink:href="#mc666b7f68c" y="315.648"/>
     <use style="fill:#ff0000;stroke:#ff0000;" x="273.052562" xlink:href="#mc666b7f68c" y="315.648"/>
     <use style="fill:#ff0000;stroke:#ff0000;" x="280.431074" xlink:href="#mc666b7f68c" y="315.648"/>
     <use style="fill:#ff0000;stroke:#ff0000;" x="287.809587" xlink:href="#mc666b7f68c" y="315.648"/>
     <use style="fill:#ff0000;stroke:#ff0000;" x="295.188099" xlink:href="#mc666b7f68c" y="315.648"/>
     <use style="fill:#ff0000;stroke:#ff0000;" x="302.566612" xlink:href="#mc666b7f68c" y="315.648"/>
     <use style="fill:#ff0000;stroke:#ff0000;" x="309.945124" xlink:href="#mc666b7f68c" y="315.648"/>
     <use style="fill:#ff0000;stroke:#ff0000;" x="317.323636" xlink:href="#mc666b7f68c" y="315.648"/>
     <use style="fill:#ff0000;stroke:#ff0000;" x="324.702149" xlink:href="#mc666b7f68c" y="315.648"/>
     <use style="fill:#ff0000;stroke:#ff0000;" x="332.080661" xlink:href="#mc666b7f68c" y="315.648"/>
     <use style="fill:#ff0000;stroke:#ff0000;" x="339.459174" xlink:href="#mc666b7f68c" y="315.648"/>
     <use style="fill:#ff0000;stroke:#ff0000;" x="346.837686" xlink:href="#mc666b7f68c" y="315.648"/>
     <use style="fill:#ff0000;stroke:#ff0000;" x="354.216198" xlink:href="#mc666b7f68c" y="315.648"/>
     <use style="fill:#ff0000;stroke:#ff0000;" x="361.594711" xlink:href="#mc666b7f68c" y="315.648"/>
     <use style="fill:#ff0000;stroke:#ff0000;" x="368.973223" xlink:href="#mc666b7f68c" y="315.648"/>
     <use style="fill:#ff0000;stroke:#ff0000;" x="376.351736" xlink:href="#mc666b7f68c" y="315.648"/>
     <use style="fill:#ff0000;stroke:#ff0000;" x="383.730248" xlink:href="#mc666b7f68c" y="315.648"/>
     <use style="fill:#ff0000;stroke:#ff0000;" x="391.10876" xlink:href="#mc666b7f68c" y="315.648"/>
     <use style="fill:#ff0000;stroke:#ff0000;" x="398.487273" xlink:href="#mc666b7f68c" y="315.648"/>
    </g>
   </g>
   <g id="line2d_18">
    <path clip-path="url(#p183062f506)" d="M 73.832727 295.16544 
L 81.21124 295.16544 
L 88.589752 295.16544 
L 95.968264 295.16544 
L 103.346777 295.16544 
L 110.725289 295.16544 
L 118.103802 295.16544 
L 125.482314 295.16544 
L 132.860826 295.16544 
L 140.239339 295.16544 
L 147.617851 295.16544 
L 154.996364 295.16544 
L 162.374876 295.16544 
L 169.753388 295.16544 
L 177.131901 295.16544 
L 184.510413 295.16544 
L 191.888926 295.16544 
L 199.267438 295.16544 
L 206.64595 295.16544 
L 214.024463 295.16544 
L 221.402975 295.16544 
L 228.781488 295.16544 
L 236.16 295.16544 
L 243.538512 295.16544 
L 250.917025 295.16544 
L 258.295537 295.16544 
L 265.67405 295.16544 
L 273.052562 295.16544 
L 280.431074 295.16544 
L 287.809587 295.16544 
L 295.188099 295.16544 
L 302.566612 295.16544 
L 309.945124 295.16544 
L 317.323636 295.16544 
L 324.702149 295.16544 
L 332.080661 295.16544 
L 339.459174 295.16544 
L 346.837686 295.16544 
L 354.216198 295.16544 
L 361.594711 295.16544 
L 368.973223 295.16544 
L 376.351736 295.16544 
L 383.730248 295.16544 
L 391.10876 295.16544 
L 398.487273 295.16544 
" style="fill:none;stroke:#ff0000;stroke-linecap:square;stroke-width:1.5;"/>
   </g>
   <g id="line2d_19">
    <g clip-path="url(#p183062f506)">
     <use style="fill:#ff0000;stroke:#ff0000;" x="73.832727" xlink:href="#mc666b7f68c" y="249.692554"/>
     <use style="fill:#ff0000;stroke:#ff0000;" x="81.21124" xlink:href="#mc666b7f68c" y="249.572721"/>
     <use style="fill:#ff0000;stroke:#ff0000;" x="88.589752" xlink:href="#mc666b7f68c" y="66.338137"/>
     <use style="fill:#ff0000;stroke:#ff0000;" x="95.968264" xlink:href="#mc666b7f68c" y="66.12161"/>
     <use style="fill:#ff0000;stroke:#ff0000;" x="103.346777" xlink:href="#mc666b7f68c" y="41.876615"/>
     <use style="fill:#ff0000;stroke:#ff0000;" x="110.725289" xlink:href="#mc666b7f68c" y="40.135708"/>
     <use style="fill:#ff0000;stroke:#ff0000;" x="118.103802" xlink:href="#mc666b7f68c" y="24.906426"/>
     <use style="fill:#ff0000;stroke:#ff0000;" x="125.482314" xlink:href="#mc666b7f68c" y="23.374887"/>
     <use style="fill:#ff0000;stroke:#ff0000;" x="132.860826" xlink:href="#mc666b7f68c" y="25.724402"/>
     <use style="fill:#ff0000;stroke:#ff0000;" x="140.239339" xlink:href="#mc666b7f68c" y="21.951935"/>
     <use style="fill:#ff0000;stroke:#ff0000;" x="147.617851" xlink:href="#mc666b7f68c" y="25.08177"/>
     <use style="fill:#ff0000;stroke:#ff0000;" x="154.996364" xlink:href="#mc666b7f68c" y="19.837018"/>
     <use style="fill:#ff0000;stroke:#ff0000;" x="162.374876" xlink:href="#mc666b7f68c" y="15.467779"/>
     <use style="fill:#ff0000;stroke:#ff0000;" x="169.753388" xlink:href="#mc666b7f68c" y="11.800753"/>
     <use style="fill:#ff0000;stroke:#ff0000;" x="177.131901" xlink:href="#mc666b7f68c" y="20.260874"/>
     <use style="fill:#ff0000;stroke:#ff0000;" x="184.510413" xlink:href="#mc666b7f68c" y="14.336737"/>
     <use style="fill:#ff0000;stroke:#ff0000;" x="191.888926" xlink:href="#mc666b7f68c" y="12.60537"/>
     <use style="fill:#ff0000;stroke:#ff0000;" x="199.267438" xlink:href="#mc666b7f68c" y="8.286133"/>
     <use style="fill:#ff0000;stroke:#ff0000;" x="206.64595" xlink:href="#mc666b7f68c" y="9.286741"/>
     <use style="fill:#ff0000;stroke:#ff0000;" x="214.024463" xlink:href="#mc666b7f68c" y="5.369676"/>
     <use style="fill:#ff0000;stroke:#ff0000;" x="221.402975" xlink:href="#mc666b7f68c" y="16.97674"/>
     <use style="fill:#ff0000;stroke:#ff0000;" x="228.781488" xlink:href="#mc666b7f68c" y="10.32475"/>
     <use style="fill:#ff0000;stroke:#ff0000;" x="236.16" xlink:href="#mc666b7f68c" y="10.425534"/>
     <use style="fill:#ff0000;stroke:#ff0000;" x="243.538512" xlink:href="#mc666b7f68c" y="5.454312"/>
     <use style="fill:#ff0000;stroke:#ff0000;" x="250.917025" xlink:href="#mc666b7f68c" y="17.021195"/>
     <use style="fill:#ff0000;stroke:#ff0000;" x="258.295537" xlink:href="#mc666b7f68c" y="9.634756"/>
     <use style="fill:#ff0000;stroke:#ff0000;" x="265.67405" xlink:href="#mc666b7f68c" y="10.042492"/>
     <use style="fill:#ff0000;stroke:#ff0000;" x="273.052562" xlink:href="#mc666b7f68c" y="4.653311"/>
     <use style="fill:#ff0000;stroke:#ff0000;" x="280.431074" xlink:href="#mc666b7f68c" y="7.203232"/>
     <use style="fill:#ff0000;stroke:#ff0000;" x="287.809587" xlink:href="#mc666b7f68c" y="2.432647"/>
     <use style="fill:#ff0000;stroke:#ff0000;" x="295.188099" xlink:href="#mc666b7f68c" y="5.894286"/>
     <use style="fill:#ff0000;stroke:#ff0000;" x="302.566612" xlink:href="#mc666b7f68c" y="1.309859"/>
     <use style="fill:#ff0000;stroke:#ff0000;" x="309.945124" xlink:href="#mc666b7f68c" y="14.803963"/>
     <use style="fill:#ff0000;stroke:#ff0000;" x="317.323636" xlink:href="#mc666b7f68c" y="7.248022"/>
     <use style="fill:#ff0000;stroke:#ff0000;" x="324.702149" xlink:href="#mc666b7f68c" y="8.698534"/>
     <use style="fill:#ff0000;stroke:#ff0000;" x="332.080661" xlink:href="#mc666b7f68c" y="3.000816"/>
     <use style="fill:#ff0000;stroke:#ff0000;" x="339.459174" xlink:href="#mc666b7f68c" y="6.231798"/>
     <use style="fill:#ff0000;stroke:#ff0000;" x="346.837686" xlink:href="#mc666b7f68c" y="1.148306"/>
     <use style="fill:#ff0000;stroke:#ff0000;" x="354.216198" xlink:href="#mc666b7f68c" y="5.124624"/>
     <use style="fill:#ff0000;stroke:#ff0000;" x="361.594711" xlink:href="#mc666b7f68c" y="0.248846"/>
     <use style="fill:#ff0000;stroke:#ff0000;" x="368.973223" xlink:href="#mc666b7f68c" y="4.579995"/>
     <use style="fill:#ff0000;stroke:#ff0000;" x="376.351736" xlink:href="#mc666b7f68c" y="-0.241472"/>
     <use style="fill:#ff0000;stroke:#ff0000;" x="383.730248" xlink:href="#mc666b7f68c" y="4.281239"/>
     <use style="fill:#ff0000;stroke:#ff0000;" x="391.10876" xlink:href="#mc666b7f68c" y="-0.546392"/>
     <use style="fill:#ff0000;stroke:#ff0000;" x="398.487273" xlink:href="#mc666b7f68c" y="4.936413"/>
    </g>
   </g>
   <g id="line2d_20">
    <g clip-path="url(#p183062f506)">
     <use style="fill:#ff0000;stroke:#ff0000;" x="73.832727" xlink:href="#mc666b7f68c" y="249.692554"/>
     <use style="fill:#ff0000;stroke:#ff0000;" x="81.21124" xlink:href="#mc666b7f68c" y="249.572721"/>
     <use style="fill:#ff0000;stroke:#ff0000;" x="88.589752" xlink:href="#mc666b7f68c" y="66.338137"/>
     <use style="fill:#ff0000;stroke:#ff0000;" x="95.968264" xlink:href="#mc666b7f68c" y="66.12161"/>
     <use style="fill:#ff0000;stroke:#ff0000;" x="103.346777" xlink:href="#mc666b7f68c" y="41.876615"/>
     <use style="fill:#ff0000;stroke:#ff0000;" x="110.725289" xlink:href="#mc666b7f68c" y="40.135708"/>
     <use style="fill:#ff0000;stroke:#ff0000;" x="118.103802" xlink:href="#mc666b7f68c" y="24.906426"/>
     <use style="fill:#ff0000;stroke:#ff0000;" x="125.482314" xlink:href="#mc666b7f68c" y="23.374887"/>
     <use style="fill:#ff0000;stroke:#ff0000;" x="132.860826" xlink:href="#mc666b7f68c" y="25.724402"/>
     <use style="fill:#ff0000;stroke:#ff0000;" x="140.239339" xlink:href="#mc666b7f68c" y="21.951935"/>
     <use style="fill:#ff0000;stroke:#ff0000;" x="147.617851" xlink:href="#mc666b7f68c" y="25.08177"/>
     <use style="fill:#ff0000;stroke:#ff0000;" x="154.996364" xlink:href="#mc666b7f68c" y="19.837018"/>
     <use style="fill:#ff0000;stroke:#ff0000;" x="162.374876" xlink:href="#mc666b7f68c" y="15.467779"/>
     <use style="fill:#ff0000;stroke:#ff0000;" x="169.753388" xlink:href="#mc666b7f68c" y="11.800753"/>
     <use style="fill:#ff0000;stroke:#ff0000;" x="177.131901" xlink:href="#mc666b7f68c" y="20.260874"/>
     <use style="fill:#ff0000;stroke:#ff0000;" x="184.510413" xlink:href="#mc666b7f68c" y="14.336737"/>
     <use style="fill:#ff0000;stroke:#ff0000;" x="191.888926" xlink:href="#mc666b7f68c" y="12.60537"/>
     <use style="fill:#ff0000;stroke:#ff0000;" x="199.267438" xlink:href="#mc666b7f68c" y="8.286133"/>
     <use style="fill:#ff0000;stroke:#ff0000;" x="206.64595" xlink:href="#mc666b7f68c" y="9.286741"/>
     <use style="fill:#ff0000;stroke:#ff0000;" x="214.024463" xlink:href="#mc666b7f68c" y="5.369676"/>
     <use style="fill:#ff0000;stroke:#ff0000;" x="221.402975" xlink:href="#mc666b7f68c" y="16.97674"/>
     <use style="fill:#ff0000;stroke:#ff0000;" x="228.781488" xlink:href="#mc666b7f68c" y="10.32475"/>
     <use style="fill:#ff0000;stroke:#ff0000;" x="236.16" xlink:href="#mc666b7f68c" y="10.425534"/>
     <use style="fill:#ff0000;stroke:#ff0000;" x="243.538512" xlink:href="#mc666b7f68c" y="5.454312"/>
     <use style="fill:#ff0000;stroke:#ff0000;" x="250.917025" xlink:href="#mc666b7f68c" y="17.021195"/>
     <use style="fill:#ff0000;stroke:#ff0000;" x="258.295537" xlink:href="#mc666b7f68c" y="9.634756"/>
     <use style="fill:#ff0000;stroke:#ff0000;" x="265.67405" xlink:href="#mc666b7f68c" y="10.042492"/>
     <use style="fill:#ff0000;stroke:#ff0000;" x="273.052562" xlink:href="#mc666b7f68c" y="4.653311"/>
     <use style="fill:#ff0000;stroke:#ff0000;" x="280.431074" xlink:href="#mc666b7f68c" y="7.203232"/>
     <use style="fill:#ff0000;stroke:#ff0000;" x="287.809587" xlink:href="#mc666b7f68c" y="2.432647"/>
     <use style="fill:#ff0000;stroke:#ff0000;" x="295.188099" xlink:href="#mc666b7f68c" y="5.894286"/>
     <use style="fill:#ff0000;stroke:#ff0000;" x="302.566612" xlink:href="#mc666b7f68c" y="1.309859"/>
     <use style="fill:#ff0000;stroke:#ff0000;" x="309.945124" xlink:href="#mc666b7f68c" y="14.803963"/>
     <use style="fill:#ff0000;stroke:#ff0000;" x="317.323636" xlink:href="#mc666b7f68c" y="7.248022"/>
     <use style="fill:#ff0000;stroke:#ff0000;" x="324.702149" xlink:href="#mc666b7f68c" y="8.698534"/>
     <use style="fill:#ff0000;stroke:#ff0000;" x="332.080661" xlink:href="#mc666b7f68c" y="3.000816"/>
     <use style="fill:#ff0000;stroke:#ff0000;" x="339.459174" xlink:href="#mc666b7f68c" y="6.231798"/>
     <use style="fill:#ff0000;stroke:#ff0000;" x="346.837686" xlink:href="#mc666b7f68c" y="1.148306"/>
     <use style="fill:#ff0000;stroke:#ff0000;" x="354.216198" xlink:href="#mc666b7f68c" y="5.124624"/>
     <use style="fill:#ff0000;stroke:#ff0000;" x="361.594711" xlink:href="#mc666b7f68c" y="0.248846"/>
     <use style="fill:#ff0000;stroke:#ff0000;" x="368.973223" xlink:href="#mc666b7f68c" y="4.579995"/>
     <use style="fill:#ff0000;stroke:#ff0000;" x="376.351736" xlink:href="#mc666b7f68c" y="-0.241472"/>
     <use style="fill:#ff0000;stroke:#ff0000;" x="383.730248" xlink:href="#mc666b7f68c" y="4.281239"/>
     <use style="fill:#ff0000;stroke:#ff0000;" x="391.10876" xlink:href="#mc666b7f68c" y="-0.546392"/>
     <use style="fill:#ff0000;stroke:#ff0000;" x="398.487273" xlink:href="#mc666b7f68c" y="4.936413"/>
    </g>
   </g>
   <g id="line2d_21">
    <g clip-path="url(#p183062f506)">
     <use style="fill:#ff0000;stroke:#ff0000;" x="73.832727" xlink:href="#mc666b7f68c" y="249.692554"/>
     <use style="fill:#ff0000;stroke:#ff0000;" x="81.21124" xlink:href="#mc666b7f68c" y="249.572721"/>
     <use style="fill:#ff0000;stroke:#ff0000;" x="88.589752" xlink:href="#mc666b7f68c" y="66.338137"/>
     <use style="fill:#ff0000;stroke:#ff0000;" x="95.968264" xlink:href="#mc666b7f68c" y="66.12161"/>
     <use style="fill:#ff0000;stroke:#ff0000;" x="103.346777" xlink:href="#mc666b7f68c" y="41.876615"/>
     <use style="fill:#ff0000;stroke:#ff0000;" x="110.725289" xlink:href="#mc666b7f68c" y="40.135708"/>
     <use style="fill:#ff0000;stroke:#ff0000;" x="118.103802" xlink:href="#mc666b7f68c" y="24.906426"/>
     <use style="fill:#ff0000;stroke:#ff0000;" x="125.482314" xlink:href="#mc666b7f68c" y="23.374887"/>
     <use style="fill:#ff0000;stroke:#ff0000;" x="132.860826" xlink:href="#mc666b7f68c" y="25.724402"/>
     <use style="fill:#ff0000;stroke:#ff0000;" x="140.239339" xlink:href="#mc666b7f68c" y="21.951935"/>
     <use style="fill:#ff0000;stroke:#ff0000;" x="147.617851" xlink:href="#mc666b7f68c" y="25.08177"/>
     <use style="fill:#ff0000;stroke:#ff0000;" x="154.996364" xlink:href="#mc666b7f68c" y="19.837018"/>
     <use style="fill:#ff0000;stroke:#ff0000;" x="162.374876" xlink:href="#mc666b7f68c" y="15.467779"/>
     <use style="fill:#ff0000;stroke:#ff0000;" x="169.753388" xlink:href="#mc666b7f68c" y="11.800753"/>
     <use style="fill:#ff0000;stroke:#ff0000;" x="177.131901" xlink:href="#mc666b7f68c" y="20.260874"/>
     <use style="fill:#ff0000;stroke:#ff0000;" x="184.510413" xlink:href="#mc666b7f68c" y="14.336737"/>
     <use style="fill:#ff0000;stroke:#ff0000;" x="191.888926" xlink:href="#mc666b7f68c" y="12.60537"/>
     <use style="fill:#ff0000;stroke:#ff0000;" x="199.267438" xlink:href="#mc666b7f68c" y="8.286133"/>
     <use style="fill:#ff0000;stroke:#ff0000;" x="206.64595" xlink:href="#mc666b7f68c" y="9.286741"/>
     <use style="fill:#ff0000;stroke:#ff0000;" x="214.024463" xlink:href="#mc666b7f68c" y="5.369676"/>
     <use style="fill:#ff0000;stroke:#ff0000;" x="221.402975" xlink:href="#mc666b7f68c" y="16.97674"/>
     <use style="fill:#ff0000;stroke:#ff0000;" x="228.781488" xlink:href="#mc666b7f68c" y="10.32475"/>
     <use style="fill:#ff0000;stroke:#ff0000;" x="236.16" xlink:href="#mc666b7f68c" y="10.425534"/>
     <use style="fill:#ff0000;stroke:#ff0000;" x="243.538512" xlink:href="#mc666b7f68c" y="5.454312"/>
     <use style="fill:#ff0000;stroke:#ff0000;" x="250.917025" xlink:href="#mc666b7f68c" y="17.021195"/>
     <use style="fill:#ff0000;stroke:#ff0000;" x="258.295537" xlink:href="#mc666b7f68c" y="9.634756"/>
     <use style="fill:#ff0000;stroke:#ff0000;" x="265.67405" xlink:href="#mc666b7f68c" y="10.042492"/>
     <use style="fill:#ff0000;stroke:#ff0000;" x="273.052562" xlink:href="#mc666b7f68c" y="4.653311"/>
     <use style="fill:#ff0000;stroke:#ff0000;" x="280.431074" xlink:href="#mc666b7f68c" y="7.203232"/>
     <use style="fill:#ff0000;stroke:#ff0000;" x="287.809587" xlink:href="#mc666b7f68c" y="2.432647"/>
     <use style="fill:#ff0000;stroke:#ff0000;" x="295.188099" xlink:href="#mc666b7f68c" y="5.894286"/>
     <use style="fill:#ff0000;stroke:#ff0000;" x="302.566612" xlink:href="#mc666b7f68c" y="1.309859"/>
     <use style="fill:#ff0000;stroke:#ff0000;" x="309.945124" xlink:href="#mc666b7f68c" y="14.803963"/>
     <use style="fill:#ff0000;stroke:#ff0000;" x="317.323636" xlink:href="#mc666b7f68c" y="7.248022"/>
     <use style="fill:#ff0000;stroke:#ff0000;" x="324.702149" xlink:href="#mc666b7f68c" y="8.698534"/>
     <use style="fill:#ff0000;stroke:#ff0000;" x="332.080661" xlink:href="#mc666b7f68c" y="3.000816"/>
     <use style="fill:#ff0000;stroke:#ff0000;" x="339.459174" xlink:href="#mc666b7f68c" y="6.231798"/>
     <use style="fill:#ff0000;stroke:#ff0000;" x="346.837686" xlink:href="#mc666b7f68c" y="1.148306"/>
     <use style="fill:#ff0000;stroke:#ff0000;" x="354.216198" xlink:href="#mc666b7f68c" y="5.124624"/>
     <use style="fill:#ff0000;stroke:#ff0000;" x="361.594711" xlink:href="#mc666b7f68c" y="0.248846"/>
     <use style="fill:#ff0000;stroke:#ff0000;" x="368.973223" xlink:href="#mc666b7f68c" y="4.579995"/>
     <use style="fill:#ff0000;stroke:#ff0000;" x="376.351736" xlink:href="#mc666b7f68c" y="-0.241472"/>
     <use style="fill:#ff0000;stroke:#ff0000;" x="383.730248" xlink:href="#mc666b7f68c" y="4.281239"/>
     <use style="fill:#ff0000;stroke:#ff0000;" x="391.10876" xlink:href="#mc666b7f68c" y="-0.546392"/>
     <use style="fill:#ff0000;stroke:#ff0000;" x="398.487273" xlink:href="#mc666b7f68c" y="4.936413"/>
    </g>
   </g>
   <g id="line2d_22">
    <g clip-path="url(#p183062f506)">
     <use style="fill:#ff0000;stroke:#ff0000;" x="73.832727" xlink:href="#mc666b7f68c" y="249.692554"/>
     <use style="fill:#ff0000;stroke:#ff0000;" x="81.21124" xlink:href="#mc666b7f68c" y="249.572721"/>
     <use style="fill:#ff0000;stroke:#ff0000;" x="88.589752" xlink:href="#mc666b7f68c" y="66.338137"/>
     <use style="fill:#ff0000;stroke:#ff0000;" x="95.968264" xlink:href="#mc666b7f68c" y="66.12161"/>
     <use style="fill:#ff0000;stroke:#ff0000;" x="103.346777" xlink:href="#mc666b7f68c" y="41.876615"/>
     <use style="fill:#ff0000;stroke:#ff0000;" x="110.725289" xlink:href="#mc666b7f68c" y="40.135708"/>
     <use style="fill:#ff0000;stroke:#ff0000;" x="118.103802" xlink:href="#mc666b7f68c" y="24.906426"/>
     <use style="fill:#ff0000;stroke:#ff0000;" x="125.482314" xlink:href="#mc666b7f68c" y="23.374887"/>
     <use style="fill:#ff0000;stroke:#ff0000;" x="132.860826" xlink:href="#mc666b7f68c" y="25.724402"/>
     <use style="fill:#ff0000;stroke:#ff0000;" x="140.239339" xlink:href="#mc666b7f68c" y="21.951935"/>
     <use style="fill:#ff0000;stroke:#ff0000;" x="147.617851" xlink:href="#mc666b7f68c" y="25.08177"/>
     <use style="fill:#ff0000;stroke:#ff0000;" x="154.996364" xlink:href="#mc666b7f68c" y="19.837018"/>
     <use style="fill:#ff0000;stroke:#ff0000;" x="162.374876" xlink:href="#mc666b7f68c" y="15.467779"/>
     <use style="fill:#ff0000;stroke:#ff0000;" x="169.753388" xlink:href="#mc666b7f68c" y="11.800753"/>
     <use style="fill:#ff0000;stroke:#ff0000;" x="177.131901" xlink:href="#mc666b7f68c" y="20.260874"/>
     <use style="fill:#ff0000;stroke:#ff0000;" x="184.510413" xlink:href="#mc666b7f68c" y="14.336737"/>
     <use style="fill:#ff0000;stroke:#ff0000;" x="191.888926" xlink:href="#mc666b7f68c" y="12.60537"/>
     <use style="fill:#ff0000;stroke:#ff0000;" x="199.267438" xlink:href="#mc666b7f68c" y="8.286133"/>
     <use style="fill:#ff0000;stroke:#ff0000;" x="206.64595" xlink:href="#mc666b7f68c" y="9.286741"/>
     <use style="fill:#ff0000;stroke:#ff0000;" x="214.024463" xlink:href="#mc666b7f68c" y="5.369676"/>
     <use style="fill:#ff0000;stroke:#ff0000;" x="221.402975" xlink:href="#mc666b7f68c" y="16.97674"/>
     <use style="fill:#ff0000;stroke:#ff0000;" x="228.781488" xlink:href="#mc666b7f68c" y="10.32475"/>
     <use style="fill:#ff0000;stroke:#ff0000;" x="236.16" xlink:href="#mc666b7f68c" y="10.425534"/>
     <use style="fill:#ff0000;stroke:#ff0000;" x="243.538512" xlink:href="#mc666b7f68c" y="5.454312"/>
     <use style="fill:#ff0000;stroke:#ff0000;" x="250.917025" xlink:href="#mc666b7f68c" y="17.021195"/>
     <use style="fill:#ff0000;stroke:#ff0000;" x="258.295537" xlink:href="#mc666b7f68c" y="9.634756"/>
     <use style="fill:#ff0000;stroke:#ff0000;" x="265.67405" xlink:href="#mc666b7f68c" y="10.042492"/>
     <use style="fill:#ff0000;stroke:#ff0000;" x="273.052562" xlink:href="#mc666b7f68c" y="4.653311"/>
     <use style="fill:#ff0000;stroke:#ff0000;" x="280.431074" xlink:href="#mc666b7f68c" y="7.203232"/>
     <use style="fill:#ff0000;stroke:#ff0000;" x="287.809587" xlink:href="#mc666b7f68c" y="2.432647"/>
     <use style="fill:#ff0000;stroke:#ff0000;" x="295.188099" xlink:href="#mc666b7f68c" y="5.894286"/>
     <use style="fill:#ff0000;stroke:#ff0000;" x="302.566612" xlink:href="#mc666b7f68c" y="1.309859"/>
     <use style="fill:#ff0000;stroke:#ff0000;" x="309.945124" xlink:href="#mc666b7f68c" y="14.803963"/>
     <use style="fill:#ff0000;stroke:#ff0000;" x="317.323636" xlink:href="#mc666b7f68c" y="7.248022"/>
     <use style="fill:#ff0000;stroke:#ff0000;" x="324.702149" xlink:href="#mc666b7f68c" y="8.698534"/>
     <use style="fill:#ff0000;stroke:#ff0000;" x="332.080661" xlink:href="#mc666b7f68c" y="3.000816"/>
     <use style="fill:#ff0000;stroke:#ff0000;" x="339.459174" xlink:href="#mc666b7f68c" y="6.231798"/>
     <use style="fill:#ff0000;stroke:#ff0000;" x="346.837686" xlink:href="#mc666b7f68c" y="1.148306"/>
     <use style="fill:#ff0000;stroke:#ff0000;" x="354.216198" xlink:href="#mc666b7f68c" y="5.124624"/>
     <use style="fill:#ff0000;stroke:#ff0000;" x="361.594711" xlink:href="#mc666b7f68c" y="0.248846"/>
     <use style="fill:#ff0000;stroke:#ff0000;" x="368.973223" xlink:href="#mc666b7f68c" y="4.579995"/>
     <use style="fill:#ff0000;stroke:#ff0000;" x="376.351736" xlink:href="#mc666b7f68c" y="-0.241472"/>
     <use style="fill:#ff0000;stroke:#ff0000;" x="383.730248" xlink:href="#mc666b7f68c" y="4.281239"/>
     <use style="fill:#ff0000;stroke:#ff0000;" x="391.10876" xlink:href="#mc666b7f68c" y="-0.546392"/>
     <use style="fill:#ff0000;stroke:#ff0000;" x="398.487273" xlink:href="#mc666b7f68c" y="3.289974"/>
    </g>
   </g>
   <g id="patch_3">
    <path d="M 57.6 307.584 
L 57.6 41.472 
" style="fill:none;stroke:#000000;stroke-linecap:square;stroke-linejoin:miter;stroke-width:0.8;"/>
   </g>
   <g id="patch_4">
    <path d="M 414.72 307.584 
L 414.72 41.472 
" style="fill:none;stroke:#000000;stroke-linecap:square;stroke-linejoin:miter;stroke-width:0.8;"/>
   </g>
   <g id="patch_5">
    <path d="M 57.6 307.584 
L 414.72 307.584 
" style="fill:none;stroke:#000000;stroke-linecap:square;stroke-linejoin:miter;stroke-width:0.8;"/>
   </g>
   <g id="patch_6">
    <path d="M 57.6 41.472 
L 414.72 41.472 
" style="fill:none;stroke:#000000;stroke-linecap:square;stroke-linejoin:miter;stroke-width:0.8;"/>
   </g>
  </g>
 </g>
 <defs>
  <clipPath id="p183062f506">
   <rect height="266.112" width="357.12" x="57.6" y="41.472"/>
  </clipPath>
 </defs>
</svg>
