<?xml version="1.0" encoding="utf-8" standalone="no"?>
<!DOCTYPE svg PUBLIC "-//W3C//DTD SVG 1.1//EN"
  "http://www.w3.org/Graphics/SVG/1.1/DTD/svg11.dtd">
<!-- Created with matplotlib (http://matplotlib.org/) -->
<svg height="345.6pt" version="1.1" viewBox="0 0 460.8 345.6" width="460.8pt" xmlns="http://www.w3.org/2000/svg" xmlns:xlink="http://www.w3.org/1999/xlink">
 <defs>
  <style type="text/css">
*{stroke-linecap:butt;stroke-linejoin:round;}
  </style>
 </defs>
 <g id="figure_1">
  <g id="patch_1">
   <path d="M 0 345.6 
L 460.8 345.6 
L 460.8 0 
L 0 0 
z
" style="fill:#ffffff;"/>
  </g>
  <g id="axes_1">
   <g id="patch_2">
    <path d="M 57.6 119.740235 
L 414.72 119.740235 
L 414.72 41.472 
L 57.6 41.472 
z
" style="fill:#ffffff;"/>
   </g>
   <g id="matplotlib.axis_1">
    <g id="xtick_1">
     <g id="line2d_1">
      <defs>
       <path d="M 0 0 
L 0 3.5 
" id="m1479ad5029" style="stroke:#000000;stroke-width:0.8;"/>
      </defs>
      <g>
       <use style="stroke:#000000;stroke-width:0.8;" x="73.832727" xlink:href="#m1479ad5029" y="119.740235"/>
      </g>
     </g>
     <g id="text_1">
      <!-- 0 -->
      <defs>
       <path d="M 31.78125 66.40625 
Q 24.171875 66.40625 20.328125 58.90625 
Q 16.5 51.421875 16.5 36.375 
Q 16.5 21.390625 20.328125 13.890625 
Q 24.171875 6.390625 31.78125 6.390625 
Q 39.453125 6.390625 43.28125 13.890625 
Q 47.125 21.390625 47.125 36.375 
Q 47.125 51.421875 43.28125 58.90625 
Q 39.453125 66.40625 31.78125 66.40625 
z
M 31.78125 74.21875 
Q 44.046875 74.21875 50.515625 64.515625 
Q 56.984375 54.828125 56.984375 36.375 
Q 56.984375 17.96875 50.515625 8.265625 
Q 44.046875 -1.421875 31.78125 -1.421875 
Q 19.53125 -1.421875 13.0625 8.265625 
Q 6.59375 17.96875 6.59375 36.375 
Q 6.59375 54.828125 13.0625 64.515625 
Q 19.53125 74.21875 31.78125 74.21875 
z
" id="DejaVuSans-30"/>
      </defs>
      <g transform="translate(70.651477 134.338673)scale(0.1 -0.1)">
       <use xlink:href="#DejaVuSans-30"/>
      </g>
     </g>
    </g>
    <g id="xtick_2">
     <g id="line2d_2">
      <g>
       <use style="stroke:#000000;stroke-width:0.8;" x="122.056101" xlink:href="#m1479ad5029" y="119.740235"/>
      </g>
     </g>
     <g id="text_2">
      <!-- 2 -->
      <defs>
       <path d="M 19.1875 8.296875 
L 53.609375 8.296875 
L 53.609375 0 
L 7.328125 0 
L 7.328125 8.296875 
Q 12.9375 14.109375 22.625 23.890625 
Q 32.328125 33.6875 34.8125 36.53125 
Q 39.546875 41.84375 41.421875 45.53125 
Q 43.3125 49.21875 43.3125 52.78125 
Q 43.3125 58.59375 39.234375 62.25 
Q 35.15625 65.921875 28.609375 65.921875 
Q 23.96875 65.921875 18.8125 64.3125 
Q 13.671875 62.703125 7.8125 59.421875 
L 7.8125 69.390625 
Q 13.765625 71.78125 18.9375 73 
Q 24.125 74.21875 28.421875 74.21875 
Q 39.75 74.21875 46.484375 68.546875 
Q 53.21875 62.890625 53.21875 53.421875 
Q 53.21875 48.921875 51.53125 44.890625 
Q 49.859375 40.875 45.40625 35.40625 
Q 44.1875 33.984375 37.640625 27.21875 
Q 31.109375 20.453125 19.1875 8.296875 
z
" id="DejaVuSans-32"/>
      </defs>
      <g transform="translate(118.874851 134.338673)scale(0.1 -0.1)">
       <use xlink:href="#DejaVuSans-32"/>
      </g>
     </g>
    </g>
    <g id="xtick_3">
     <g id="line2d_3">
      <g>
       <use style="stroke:#000000;stroke-width:0.8;" x="170.279476" xlink:href="#m1479ad5029" y="119.740235"/>
      </g>
     </g>
     <g id="text_3">
      <!-- 4 -->
      <defs>
       <path d="M 37.796875 64.3125 
L 12.890625 25.390625 
L 37.796875 25.390625 
z
M 35.203125 72.90625 
L 47.609375 72.90625 
L 47.609375 25.390625 
L 58.015625 25.390625 
L 58.015625 17.1875 
L 47.609375 17.1875 
L 47.609375 0 
L 37.796875 0 
L 37.796875 17.1875 
L 4.890625 17.1875 
L 4.890625 26.703125 
z
" id="DejaVuSans-34"/>
      </defs>
      <g transform="translate(167.098226 134.338673)scale(0.1 -0.1)">
       <use xlink:href="#DejaVuSans-34"/>
      </g>
     </g>
    </g>
    <g id="xtick_4">
     <g id="line2d_4">
      <g>
       <use style="stroke:#000000;stroke-width:0.8;" x="218.50285" xlink:href="#m1479ad5029" y="119.740235"/>
      </g>
     </g>
     <g id="text_4">
      <!-- 6 -->
      <defs>
       <path d="M 33.015625 40.375 
Q 26.375 40.375 22.484375 35.828125 
Q 18.609375 31.296875 18.609375 23.390625 
Q 18.609375 15.53125 22.484375 10.953125 
Q 26.375 6.390625 33.015625 6.390625 
Q 39.65625 6.390625 43.53125 10.953125 
Q 47.40625 15.53125 47.40625 23.390625 
Q 47.40625 31.296875 43.53125 35.828125 
Q 39.65625 40.375 33.015625 40.375 
z
M 52.59375 71.296875 
L 52.59375 62.3125 
Q 48.875 64.0625 45.09375 64.984375 
Q 41.3125 65.921875 37.59375 65.921875 
Q 27.828125 65.921875 22.671875 59.328125 
Q 17.53125 52.734375 16.796875 39.40625 
Q 19.671875 43.65625 24.015625 45.921875 
Q 28.375 48.1875 33.59375 48.1875 
Q 44.578125 48.1875 50.953125 41.515625 
Q 57.328125 34.859375 57.328125 23.390625 
Q 57.328125 12.15625 50.6875 5.359375 
Q 44.046875 -1.421875 33.015625 -1.421875 
Q 20.359375 -1.421875 13.671875 8.265625 
Q 6.984375 17.96875 6.984375 36.375 
Q 6.984375 53.65625 15.1875 63.9375 
Q 23.390625 74.21875 37.203125 74.21875 
Q 40.921875 74.21875 44.703125 73.484375 
Q 48.484375 72.75 52.59375 71.296875 
z
" id="DejaVuSans-36"/>
      </defs>
      <g transform="translate(215.3216 134.338673)scale(0.1 -0.1)">
       <use xlink:href="#DejaVuSans-36"/>
      </g>
     </g>
    </g>
    <g id="xtick_5">
     <g id="line2d_5">
      <g>
       <use style="stroke:#000000;stroke-width:0.8;" x="266.726224" xlink:href="#m1479ad5029" y="119.740235"/>
      </g>
     </g>
     <g id="text_5">
      <!-- 8 -->
      <defs>
       <path d="M 31.78125 34.625 
Q 24.75 34.625 20.71875 30.859375 
Q 16.703125 27.09375 16.703125 20.515625 
Q 16.703125 13.921875 20.71875 10.15625 
Q 24.75 6.390625 31.78125 6.390625 
Q 38.8125 6.390625 42.859375 10.171875 
Q 46.921875 13.96875 46.921875 20.515625 
Q 46.921875 27.09375 42.890625 30.859375 
Q 38.875 34.625 31.78125 34.625 
z
M 21.921875 38.8125 
Q 15.578125 40.375 12.03125 44.71875 
Q 8.5 49.078125 8.5 55.328125 
Q 8.5 64.0625 14.71875 69.140625 
Q 20.953125 74.21875 31.78125 74.21875 
Q 42.671875 74.21875 48.875 69.140625 
Q 55.078125 64.0625 55.078125 55.328125 
Q 55.078125 49.078125 51.53125 44.71875 
Q 48 40.375 41.703125 38.8125 
Q 48.828125 37.15625 52.796875 32.3125 
Q 56.78125 27.484375 56.78125 20.515625 
Q 56.78125 9.90625 50.3125 4.234375 
Q 43.84375 -1.421875 31.78125 -1.421875 
Q 19.734375 -1.421875 13.25 4.234375 
Q 6.78125 9.90625 6.78125 20.515625 
Q 6.78125 27.484375 10.78125 32.3125 
Q 14.796875 37.15625 21.921875 38.8125 
z
M 18.3125 54.390625 
Q 18.3125 48.734375 21.84375 45.5625 
Q 25.390625 42.390625 31.78125 42.390625 
Q 38.140625 42.390625 41.71875 45.5625 
Q 45.3125 48.734375 45.3125 54.390625 
Q 45.3125 60.0625 41.71875 63.234375 
Q 38.140625 66.40625 31.78125 66.40625 
Q 25.390625 66.40625 21.84375 63.234375 
Q 18.3125 60.0625 18.3125 54.390625 
z
" id="DejaVuSans-38"/>
      </defs>
      <g transform="translate(263.544974 134.338673)scale(0.1 -0.1)">
       <use xlink:href="#DejaVuSans-38"/>
      </g>
     </g>
    </g>
    <g id="xtick_6">
     <g id="line2d_6">
      <g>
       <use style="stroke:#000000;stroke-width:0.8;" x="314.949598" xlink:href="#m1479ad5029" y="119.740235"/>
      </g>
     </g>
     <g id="text_6">
      <!-- 10 -->
      <defs>
       <path d="M 12.40625 8.296875 
L 28.515625 8.296875 
L 28.515625 63.921875 
L 10.984375 60.40625 
L 10.984375 69.390625 
L 28.421875 72.90625 
L 38.28125 72.90625 
L 38.28125 8.296875 
L 54.390625 8.296875 
L 54.390625 0 
L 12.40625 0 
z
" id="DejaVuSans-31"/>
      </defs>
      <g transform="translate(308.587098 134.338673)scale(0.1 -0.1)">
       <use xlink:href="#DejaVuSans-31"/>
       <use x="63.623047" xlink:href="#DejaVuSans-30"/>
      </g>
     </g>
    </g>
    <g id="xtick_7">
     <g id="line2d_7">
      <g>
       <use style="stroke:#000000;stroke-width:0.8;" x="363.172972" xlink:href="#m1479ad5029" y="119.740235"/>
      </g>
     </g>
     <g id="text_7">
      <!-- 12 -->
      <g transform="translate(356.810472 134.338673)scale(0.1 -0.1)">
       <use xlink:href="#DejaVuSans-31"/>
       <use x="63.623047" xlink:href="#DejaVuSans-32"/>
      </g>
     </g>
    </g>
    <g id="xtick_8">
     <g id="line2d_8">
      <g>
       <use style="stroke:#000000;stroke-width:0.8;" x="411.396346" xlink:href="#m1479ad5029" y="119.740235"/>
      </g>
     </g>
     <g id="text_8">
      <!-- 14 -->
      <g transform="translate(405.033846 134.338673)scale(0.1 -0.1)">
       <use xlink:href="#DejaVuSans-31"/>
       <use x="63.623047" xlink:href="#DejaVuSans-34"/>
      </g>
     </g>
    </g>
   </g>
   <g id="matplotlib.axis_2">
    <g id="ytick_1">
     <g id="line2d_9">
      <defs>
       <path d="M 0 0 
L -3.5 0 
" id="m37742db445" style="stroke:#000000;stroke-width:0.8;"/>
      </defs>
      <g>
       <use style="stroke:#000000;stroke-width:0.8;" x="57.6" xlink:href="#m37742db445" y="119.014655"/>
      </g>
     </g>
     <g id="text_9">
      <!-- 0.00 -->
      <defs>
       <path d="M 10.6875 12.40625 
L 21 12.40625 
L 21 0 
L 10.6875 0 
z
" id="DejaVuSans-2e"/>
      </defs>
      <g transform="translate(28.334375 122.813874)scale(0.1 -0.1)">
       <use xlink:href="#DejaVuSans-30"/>
       <use x="63.623047" xlink:href="#DejaVuSans-2e"/>
       <use x="95.410156" xlink:href="#DejaVuSans-30"/>
       <use x="159.033203" xlink:href="#DejaVuSans-30"/>
      </g>
     </g>
    </g>
    <g id="ytick_2">
     <g id="line2d_10">
      <g>
       <use style="stroke:#000000;stroke-width:0.8;" x="57.6" xlink:href="#m37742db445" y="83.108675"/>
      </g>
     </g>
     <g id="text_10">
      <!-- 0.01 -->
      <g transform="translate(28.334375 86.907893)scale(0.1 -0.1)">
       <use xlink:href="#DejaVuSans-30"/>
       <use x="63.623047" xlink:href="#DejaVuSans-2e"/>
       <use x="95.410156" xlink:href="#DejaVuSans-30"/>
       <use x="159.033203" xlink:href="#DejaVuSans-31"/>
      </g>
     </g>
    </g>
    <g id="ytick_3">
     <g id="line2d_11">
      <g>
       <use style="stroke:#000000;stroke-width:0.8;" x="57.6" xlink:href="#m37742db445" y="47.202694"/>
      </g>
     </g>
     <g id="text_11">
      <!-- 0.02 -->
      <g transform="translate(28.334375 51.001913)scale(0.1 -0.1)">
       <use xlink:href="#DejaVuSans-30"/>
       <use x="63.623047" xlink:href="#DejaVuSans-2e"/>
       <use x="95.410156" xlink:href="#DejaVuSans-30"/>
       <use x="159.033203" xlink:href="#DejaVuSans-32"/>
      </g>
     </g>
    </g>
    <g id="text_12">
     <!-- thegma_x -->
     <defs>
      <path d="M 18.3125 70.21875 
L 18.3125 54.6875 
L 36.8125 54.6875 
L 36.8125 47.703125 
L 18.3125 47.703125 
L 18.3125 18.015625 
Q 18.3125 11.328125 20.140625 9.421875 
Q 21.96875 7.515625 27.59375 7.515625 
L 36.8125 7.515625 
L 36.8125 0 
L 27.59375 0 
Q 17.1875 0 13.234375 3.875 
Q 9.28125 7.765625 9.28125 18.015625 
L 9.28125 47.703125 
L 2.6875 47.703125 
L 2.6875 54.6875 
L 9.28125 54.6875 
L 9.28125 70.21875 
z
" id="DejaVuSans-74"/>
      <path d="M 54.890625 33.015625 
L 54.890625 0 
L 45.90625 0 
L 45.90625 32.71875 
Q 45.90625 40.484375 42.875 44.328125 
Q 39.84375 48.1875 33.796875 48.1875 
Q 26.515625 48.1875 22.3125 43.546875 
Q 18.109375 38.921875 18.109375 30.90625 
L 18.109375 0 
L 9.078125 0 
L 9.078125 75.984375 
L 18.109375 75.984375 
L 18.109375 46.1875 
Q 21.34375 51.125 25.703125 53.5625 
Q 30.078125 56 35.796875 56 
Q 45.21875 56 50.046875 50.171875 
Q 54.890625 44.34375 54.890625 33.015625 
z
" id="DejaVuSans-68"/>
      <path d="M 56.203125 29.59375 
L 56.203125 25.203125 
L 14.890625 25.203125 
Q 15.484375 15.921875 20.484375 11.0625 
Q 25.484375 6.203125 34.421875 6.203125 
Q 39.59375 6.203125 44.453125 7.46875 
Q 49.3125 8.734375 54.109375 11.28125 
L 54.109375 2.78125 
Q 49.265625 0.734375 44.1875 -0.34375 
Q 39.109375 -1.421875 33.890625 -1.421875 
Q 20.796875 -1.421875 13.15625 6.1875 
Q 5.515625 13.8125 5.515625 26.8125 
Q 5.515625 40.234375 12.765625 48.109375 
Q 20.015625 56 32.328125 56 
Q 43.359375 56 49.78125 48.890625 
Q 56.203125 41.796875 56.203125 29.59375 
z
M 47.21875 32.234375 
Q 47.125 39.59375 43.09375 43.984375 
Q 39.0625 48.390625 32.421875 48.390625 
Q 24.90625 48.390625 20.390625 44.140625 
Q 15.875 39.890625 15.1875 32.171875 
z
" id="DejaVuSans-65"/>
      <path d="M 45.40625 27.984375 
Q 45.40625 37.75 41.375 43.109375 
Q 37.359375 48.484375 30.078125 48.484375 
Q 22.859375 48.484375 18.828125 43.109375 
Q 14.796875 37.75 14.796875 27.984375 
Q 14.796875 18.265625 18.828125 12.890625 
Q 22.859375 7.515625 30.078125 7.515625 
Q 37.359375 7.515625 41.375 12.890625 
Q 45.40625 18.265625 45.40625 27.984375 
z
M 54.390625 6.78125 
Q 54.390625 -7.171875 48.1875 -13.984375 
Q 42 -20.796875 29.203125 -20.796875 
Q 24.46875 -20.796875 20.265625 -20.09375 
Q 16.0625 -19.390625 12.109375 -17.921875 
L 12.109375 -9.1875 
Q 16.0625 -11.328125 19.921875 -12.34375 
Q 23.78125 -13.375 27.78125 -13.375 
Q 36.625 -13.375 41.015625 -8.765625 
Q 45.40625 -4.15625 45.40625 5.171875 
L 45.40625 9.625 
Q 42.625 4.78125 38.28125 2.390625 
Q 33.9375 0 27.875 0 
Q 17.828125 0 11.671875 7.65625 
Q 5.515625 15.328125 5.515625 27.984375 
Q 5.515625 40.671875 11.671875 48.328125 
Q 17.828125 56 27.875 56 
Q 33.9375 56 38.28125 53.609375 
Q 42.625 51.21875 45.40625 46.390625 
L 45.40625 54.6875 
L 54.390625 54.6875 
z
" id="DejaVuSans-67"/>
      <path d="M 52 44.1875 
Q 55.375 50.25 60.0625 53.125 
Q 64.75 56 71.09375 56 
Q 79.640625 56 84.28125 50.015625 
Q 88.921875 44.046875 88.921875 33.015625 
L 88.921875 0 
L 79.890625 0 
L 79.890625 32.71875 
Q 79.890625 40.578125 77.09375 44.375 
Q 74.3125 48.1875 68.609375 48.1875 
Q 61.625 48.1875 57.5625 43.546875 
Q 53.515625 38.921875 53.515625 30.90625 
L 53.515625 0 
L 44.484375 0 
L 44.484375 32.71875 
Q 44.484375 40.625 41.703125 44.40625 
Q 38.921875 48.1875 33.109375 48.1875 
Q 26.21875 48.1875 22.15625 43.53125 
Q 18.109375 38.875 18.109375 30.90625 
L 18.109375 0 
L 9.078125 0 
L 9.078125 54.6875 
L 18.109375 54.6875 
L 18.109375 46.1875 
Q 21.1875 51.21875 25.484375 53.609375 
Q 29.78125 56 35.6875 56 
Q 41.65625 56 45.828125 52.96875 
Q 50 49.953125 52 44.1875 
z
" id="DejaVuSans-6d"/>
      <path d="M 34.28125 27.484375 
Q 23.390625 27.484375 19.1875 25 
Q 14.984375 22.515625 14.984375 16.5 
Q 14.984375 11.71875 18.140625 8.90625 
Q 21.296875 6.109375 26.703125 6.109375 
Q 34.1875 6.109375 38.703125 11.40625 
Q 43.21875 16.703125 43.21875 25.484375 
L 43.21875 27.484375 
z
M 52.203125 31.203125 
L 52.203125 0 
L 43.21875 0 
L 43.21875 8.296875 
Q 40.140625 3.328125 35.546875 0.953125 
Q 30.953125 -1.421875 24.3125 -1.421875 
Q 15.921875 -1.421875 10.953125 3.296875 
Q 6 8.015625 6 15.921875 
Q 6 25.140625 12.171875 29.828125 
Q 18.359375 34.515625 30.609375 34.515625 
L 43.21875 34.515625 
L 43.21875 35.40625 
Q 43.21875 41.609375 39.140625 45 
Q 35.0625 48.390625 27.6875 48.390625 
Q 23 48.390625 18.546875 47.265625 
Q 14.109375 46.140625 10.015625 43.890625 
L 10.015625 52.203125 
Q 14.9375 54.109375 19.578125 55.046875 
Q 24.21875 56 28.609375 56 
Q 40.484375 56 46.34375 49.84375 
Q 52.203125 43.703125 52.203125 31.203125 
z
" id="DejaVuSans-61"/>
      <path d="M 50.984375 -16.609375 
L 50.984375 -23.578125 
L -0.984375 -23.578125 
L -0.984375 -16.609375 
z
" id="DejaVuSans-5f"/>
      <path d="M 54.890625 54.6875 
L 35.109375 28.078125 
L 55.90625 0 
L 45.3125 0 
L 29.390625 21.484375 
L 13.484375 0 
L 2.875 0 
L 24.125 28.609375 
L 4.6875 54.6875 
L 15.28125 54.6875 
L 29.78125 35.203125 
L 44.28125 54.6875 
z
" id="DejaVuSans-78"/>
     </defs>
     <g transform="translate(21.976562 105.379555)rotate(-90)scale(0.1 -0.1)">
      <use xlink:href="#DejaVuSans-74"/>
      <use x="39.208984" xlink:href="#DejaVuSans-68"/>
      <use x="102.587891" xlink:href="#DejaVuSans-65"/>
      <use x="164.111328" xlink:href="#DejaVuSans-67"/>
      <use x="227.587891" xlink:href="#DejaVuSans-6d"/>
      <use x="325" xlink:href="#DejaVuSans-61"/>
      <use x="386.279297" xlink:href="#DejaVuSans-5f"/>
      <use x="436.279297" xlink:href="#DejaVuSans-78"/>
     </g>
    </g>
   </g>
   <g id="line2d_12">
    <path clip-path="url(#p80384a14f4)" d="M 73.832727 93.644977 
L 73.832727 116.182587 
L 73.832727 116.182587 
L 74.176169 116.182588 
L 74.357145 114.552176 
L 76.322168 110.105113 
L 76.848642 109.460739 
L 77.151982 108.857245 
L 78.755054 106.734609 
L 79.43474 106.257068 
L 80.061985 105.353979 
L 81.933436 103.695583 
L 85.061432 101.121738 
L 85.79356 100.764509 
L 86.677872 100.084192 
L 90.002267 98.040566 
L 90.505091 113.807076 
L 91.095318 112.843588 
L 92.442351 111.221662 
L 92.952373 110.495373 
L 94.227427 109.147963 
L 94.650046 108.531541 
L 95.501453 107.884433 
L 96.701444 106.68044 
L 97.043858 106.145658 
L 97.992951 105.625511 
L 103.029415 101.140684 
L 104.529661 99.874294 
L 105.148679 99.285427 
L 106.035048 98.983688 
L 109.588747 95.843581 
L 111.906467 93.71924 
L 115.974302 89.777709 
L 120.349589 85.299186 
L 121.895079 83.625763 
L 125.740807 79.574828 
L 127.680124 77.535789 
L 128.871888 76.988338 
L 133.789073 72.224725 
L 137.791099 68.699589 
L 140.76177 66.371739 
L 142.819337 64.937783 
L 144.031667 64.185724 
L 145.063022 71.414187 
L 147.958629 70.237614 
L 152.182761 69.014043 
L 155.663454 68.461683 
L 157.857781 68.285795 
L 160.13437 68.265015 
L 162.394507 68.390764 
L 164.57958 68.633933 
L 169.400108 69.583623 
L 174.325519 70.884269 
L 179.449387 72.219024 
L 181.93163 72.698416 
L 184.875566 73.076397 
L 187.443155 73.098044 
L 190.109458 72.812171 
L 192.606097 72.210625 
L 195.202478 71.264008 
L 197.879064 69.959636 
L 200.668759 68.288845 
L 203.073882 66.600413 
L 205.962291 64.428522 
L 207.309325 113.782837 
L 208.176156 112.829785 
L 209.896451 111.604778 
L 216.566836 105.028906 
L 219.901515 102.286491 
L 222.568846 100.230818 
L 224.003282 99.284337 
L 227.258784 97.587194 
L 229.839741 96.467025 
L 233.462335 95.71023 
L 235.169262 95.551688 
L 238.56975 95.632973 
L 241.899287 96.10962 
L 245.123941 96.796723 
L 250.105907 97.869922 
L 251.835457 98.096264 
L 253.554723 98.159207 
L 255.287358 98.015162 
L 256.718709 97.662312 
L 258.531548 97.018219 
L 260.249787 96.101093 
L 261.959799 94.905572 
L 263.769554 93.362361 
L 265.387022 91.730961 
L 267.017858 89.89913 
L 268.928383 87.577426 
L 272.443008 82.831994 
L 277.797208 75.003237 
L 284.865534 64.697367 
L 288.67733 59.621406 
L 292.323574 55.266162 
L 296.136397 51.407238 
L 298.150778 49.702336 
L 300.339964 48.153804 
L 302.156916 47.069093 
L 303.969756 46.200916 
L 306.16614 45.495579 
L 307.890548 45.133538 
L 310.076649 45.029647 
L 311.989231 45.184872 
L 314.000526 45.6252 
L 315.913107 113.363668 
L 322.17527 111.14039 
L 324.394275 110.318357 
L 326.402486 109.406209 
L 330.492943 107.185109 
L 332.598839 105.814719 
L 334.803449 104.218753 
L 336.994692 102.456026 
L 339.196217 100.52741 
L 343.598239 96.27294 
L 350.111299 89.348655 
L 359.142591 79.57719 
L 363.975459 74.729621 
L 368.412442 70.667257 
L 370.811395 68.69028 
L 373.489009 66.754229 
L 375.769712 113.931503 
L 380.728028 111.892444 
L 383.010786 111.048632 
L 387.991725 109.634268 
L 392.876005 108.498877 
L 397.825067 107.465085 
L 398.487273 106.956272 
L 398.487273 101.711598 
L 398.487273 101.711598 
" style="fill:none;stroke:#1f77b4;stroke-linecap:square;stroke-width:1.5;"/>
   </g>
   <g id="patch_3">
    <path d="M 57.6 119.740235 
L 57.6 41.472 
" style="fill:none;stroke:#000000;stroke-linecap:square;stroke-linejoin:miter;stroke-width:0.8;"/>
   </g>
   <g id="patch_4">
    <path d="M 414.72 119.740235 
L 414.72 41.472 
" style="fill:none;stroke:#000000;stroke-linecap:square;stroke-linejoin:miter;stroke-width:0.8;"/>
   </g>
   <g id="patch_5">
    <path d="M 57.6 119.740235 
L 414.72 119.740235 
" style="fill:none;stroke:#000000;stroke-linecap:square;stroke-linejoin:miter;stroke-width:0.8;"/>
   </g>
   <g id="patch_6">
    <path d="M 57.6 41.472 
L 414.72 41.472 
" style="fill:none;stroke:#000000;stroke-linecap:square;stroke-linejoin:miter;stroke-width:0.8;"/>
   </g>
  </g>
  <g id="axes_2">
   <g id="patch_7">
    <path d="M 57.6 213.662118 
L 414.72 213.662118 
L 414.72 135.393882 
L 57.6 135.393882 
z
" style="fill:#ffffff;"/>
   </g>
   <g id="matplotlib.axis_3">
    <g id="xtick_9">
     <g id="line2d_13">
      <g>
       <use style="stroke:#000000;stroke-width:0.8;" x="73.832727" xlink:href="#m1479ad5029" y="213.662118"/>
      </g>
     </g>
     <g id="text_13">
      <!-- 0 -->
      <g transform="translate(70.651477 228.260555)scale(0.1 -0.1)">
       <use xlink:href="#DejaVuSans-30"/>
      </g>
     </g>
    </g>
    <g id="xtick_10">
     <g id="line2d_14">
      <g>
       <use style="stroke:#000000;stroke-width:0.8;" x="122.056101" xlink:href="#m1479ad5029" y="213.662118"/>
      </g>
     </g>
     <g id="text_14">
      <!-- 2 -->
      <g transform="translate(118.874851 228.260555)scale(0.1 -0.1)">
       <use xlink:href="#DejaVuSans-32"/>
      </g>
     </g>
    </g>
    <g id="xtick_11">
     <g id="line2d_15">
      <g>
       <use style="stroke:#000000;stroke-width:0.8;" x="170.279476" xlink:href="#m1479ad5029" y="213.662118"/>
      </g>
     </g>
     <g id="text_15">
      <!-- 4 -->
      <g transform="translate(167.098226 228.260555)scale(0.1 -0.1)">
       <use xlink:href="#DejaVuSans-34"/>
      </g>
     </g>
    </g>
    <g id="xtick_12">
     <g id="line2d_16">
      <g>
       <use style="stroke:#000000;stroke-width:0.8;" x="218.50285" xlink:href="#m1479ad5029" y="213.662118"/>
      </g>
     </g>
     <g id="text_16">
      <!-- 6 -->
      <g transform="translate(215.3216 228.260555)scale(0.1 -0.1)">
       <use xlink:href="#DejaVuSans-36"/>
      </g>
     </g>
    </g>
    <g id="xtick_13">
     <g id="line2d_17">
      <g>
       <use style="stroke:#000000;stroke-width:0.8;" x="266.726224" xlink:href="#m1479ad5029" y="213.662118"/>
      </g>
     </g>
     <g id="text_17">
      <!-- 8 -->
      <g transform="translate(263.544974 228.260555)scale(0.1 -0.1)">
       <use xlink:href="#DejaVuSans-38"/>
      </g>
     </g>
    </g>
    <g id="xtick_14">
     <g id="line2d_18">
      <g>
       <use style="stroke:#000000;stroke-width:0.8;" x="314.949598" xlink:href="#m1479ad5029" y="213.662118"/>
      </g>
     </g>
     <g id="text_18">
      <!-- 10 -->
      <g transform="translate(308.587098 228.260555)scale(0.1 -0.1)">
       <use xlink:href="#DejaVuSans-31"/>
       <use x="63.623047" xlink:href="#DejaVuSans-30"/>
      </g>
     </g>
    </g>
    <g id="xtick_15">
     <g id="line2d_19">
      <g>
       <use style="stroke:#000000;stroke-width:0.8;" x="363.172972" xlink:href="#m1479ad5029" y="213.662118"/>
      </g>
     </g>
     <g id="text_19">
      <!-- 12 -->
      <g transform="translate(356.810472 228.260555)scale(0.1 -0.1)">
       <use xlink:href="#DejaVuSans-31"/>
       <use x="63.623047" xlink:href="#DejaVuSans-32"/>
      </g>
     </g>
    </g>
    <g id="xtick_16">
     <g id="line2d_20">
      <g>
       <use style="stroke:#000000;stroke-width:0.8;" x="411.396346" xlink:href="#m1479ad5029" y="213.662118"/>
      </g>
     </g>
     <g id="text_20">
      <!-- 14 -->
      <g transform="translate(405.033846 228.260555)scale(0.1 -0.1)">
       <use xlink:href="#DejaVuSans-31"/>
       <use x="63.623047" xlink:href="#DejaVuSans-34"/>
      </g>
     </g>
    </g>
   </g>
   <g id="matplotlib.axis_4">
    <g id="ytick_4">
     <g id="line2d_21">
      <g>
       <use style="stroke:#000000;stroke-width:0.8;" x="57.6" xlink:href="#m37742db445" y="192.780608"/>
      </g>
     </g>
     <g id="text_21">
      <!-- 0.005 -->
      <defs>
       <path d="M 10.796875 72.90625 
L 49.515625 72.90625 
L 49.515625 64.59375 
L 19.828125 64.59375 
L 19.828125 46.734375 
Q 21.96875 47.46875 24.109375 47.828125 
Q 26.265625 48.1875 28.421875 48.1875 
Q 40.625 48.1875 47.75 41.5 
Q 54.890625 34.8125 54.890625 23.390625 
Q 54.890625 11.625 47.5625 5.09375 
Q 40.234375 -1.421875 26.90625 -1.421875 
Q 22.3125 -1.421875 17.546875 -0.640625 
Q 12.796875 0.140625 7.71875 1.703125 
L 7.71875 11.625 
Q 12.109375 9.234375 16.796875 8.0625 
Q 21.484375 6.890625 26.703125 6.890625 
Q 35.15625 6.890625 40.078125 11.328125 
Q 45.015625 15.765625 45.015625 23.390625 
Q 45.015625 31 40.078125 35.4375 
Q 35.15625 39.890625 26.703125 39.890625 
Q 22.75 39.890625 18.8125 39.015625 
Q 14.890625 38.140625 10.796875 36.28125 
z
" id="DejaVuSans-35"/>
      </defs>
      <g transform="translate(21.971875 196.579827)scale(0.1 -0.1)">
       <use xlink:href="#DejaVuSans-30"/>
       <use x="63.623047" xlink:href="#DejaVuSans-2e"/>
       <use x="95.410156" xlink:href="#DejaVuSans-30"/>
       <use x="159.033203" xlink:href="#DejaVuSans-30"/>
       <use x="222.65625" xlink:href="#DejaVuSans-35"/>
      </g>
     </g>
    </g>
    <g id="ytick_5">
     <g id="line2d_22">
      <g>
       <use style="stroke:#000000;stroke-width:0.8;" x="57.6" xlink:href="#m37742db445" y="169.410155"/>
      </g>
     </g>
     <g id="text_22">
      <!-- 0.010 -->
      <g transform="translate(21.971875 173.209374)scale(0.1 -0.1)">
       <use xlink:href="#DejaVuSans-30"/>
       <use x="63.623047" xlink:href="#DejaVuSans-2e"/>
       <use x="95.410156" xlink:href="#DejaVuSans-30"/>
       <use x="159.033203" xlink:href="#DejaVuSans-31"/>
       <use x="222.65625" xlink:href="#DejaVuSans-30"/>
      </g>
     </g>
    </g>
    <g id="ytick_6">
     <g id="line2d_23">
      <g>
       <use style="stroke:#000000;stroke-width:0.8;" x="57.6" xlink:href="#m37742db445" y="146.039702"/>
      </g>
     </g>
     <g id="text_23">
      <!-- 0.015 -->
      <g transform="translate(21.971875 149.838921)scale(0.1 -0.1)">
       <use xlink:href="#DejaVuSans-30"/>
       <use x="63.623047" xlink:href="#DejaVuSans-2e"/>
       <use x="95.410156" xlink:href="#DejaVuSans-30"/>
       <use x="159.033203" xlink:href="#DejaVuSans-31"/>
       <use x="222.65625" xlink:href="#DejaVuSans-35"/>
      </g>
     </g>
    </g>
    <g id="text_24">
     <!-- thegma_y -->
     <defs>
      <path d="M 32.171875 -5.078125 
Q 28.375 -14.84375 24.75 -17.8125 
Q 21.140625 -20.796875 15.09375 -20.796875 
L 7.90625 -20.796875 
L 7.90625 -13.28125 
L 13.1875 -13.28125 
Q 16.890625 -13.28125 18.9375 -11.515625 
Q 21 -9.765625 23.484375 -3.21875 
L 25.09375 0.875 
L 2.984375 54.6875 
L 12.5 54.6875 
L 29.59375 11.921875 
L 46.6875 54.6875 
L 56.203125 54.6875 
z
" id="DejaVuSans-79"/>
     </defs>
     <g transform="translate(15.614062 199.301437)rotate(-90)scale(0.1 -0.1)">
      <use xlink:href="#DejaVuSans-74"/>
      <use x="39.208984" xlink:href="#DejaVuSans-68"/>
      <use x="102.587891" xlink:href="#DejaVuSans-65"/>
      <use x="164.111328" xlink:href="#DejaVuSans-67"/>
      <use x="227.587891" xlink:href="#DejaVuSans-6d"/>
      <use x="325" xlink:href="#DejaVuSans-61"/>
      <use x="386.279297" xlink:href="#DejaVuSans-5f"/>
      <use x="436.279297" xlink:href="#DejaVuSans-79"/>
     </g>
    </g>
   </g>
   <g id="line2d_24">
    <path clip-path="url(#pb17a1176ff)" d="M 73.832727 183.133317 
L 73.832727 177.381459 
L 76.322168 175.597431 
L 77.151982 175.074368 
L 79.748363 173.438349 
L 80.521621 172.881946 
L 81.933436 171.987309 
L 83.848074 170.728162 
L 84.332389 209.453195 
L 84.660407 208.133804 
L 85.061432 206.983402 
L 85.79356 205.901673 
L 86.677872 203.980142 
L 90.002267 198.82343 
L 91.095318 197.339726 
L 92.442351 195.713735 
L 92.952373 194.99088 
L 93.62589 209.339367 
L 94.650046 206.52996 
L 96.111217 204.102344 
L 96.701444 203.059377 
L 97.043858 202.177299 
L 97.992951 210.104471 
L 99.204252 207.380215 
L 101.20218 204.240302 
L 103.029415 201.653364 
L 103.91784 200.817235 
L 105.148679 199.334349 
L 106.035048 209.765911 
L 106.648925 208.397997 
L 108.964588 205.216016 
L 109.588747 204.325196 
L 111.286421 202.698235 
L 111.906467 201.955271 
L 113.613395 200.567449 
L 115.974302 198.712723 
L 116.884321 198.144482 
L 117.518763 197.595925 
L 118.617983 197.070436 
L 119.251397 196.556712 
L 120.349589 196.064292 
L 120.979919 195.577755 
L 121.895079 195.106226 
L 123.084787 194.644068 
L 124.737216 193.722642 
L 127.680124 192.29751 
L 128.871888 209.236406 
L 131.754128 206.032115 
L 132.960288 204.988705 
L 133.789073 203.98064 
L 136.85743 200.660623 
L 140.76177 195.70249 
L 144.031667 191.109713 
L 145.063022 209.272665 
L 147.958629 204.146197 
L 150.114911 200.785986 
L 155.663454 192.081315 
L 158.80893 186.976937 
L 170.630946 168.670456 
L 174.325519 163.610399 
L 176.984625 160.329176 
L 179.449387 157.55033 
L 181.93163 155.073491 
L 184.875566 152.676452 
L 185.919259 151.890046 
L 188.686333 150.261669 
L 191.354693 149.161834 
L 193.860586 148.52009 
L 195.202478 148.364438 
L 196.546426 148.326762 
L 197.879064 148.408901 
L 199.226097 148.607418 
L 202.017849 149.379863 
L 203.073882 149.746048 
L 204.431198 150.361795 
L 205.962291 151.194393 
L 207.309325 155.050016 
L 208.176156 155.399206 
L 212.859924 158.103381 
L 221.336979 163.226283 
L 224.003282 164.451053 
L 225.728719 165.107734 
L 227.258784 165.510455 
L 228.505047 165.680028 
L 229.839741 165.745527 
L 232.037153 165.669191 
L 233.462335 165.339409 
L 235.169262 164.765141 
L 237.065391 163.882171 
L 238.56975 162.958141 
L 240.279762 161.757735 
L 243.41907 159.122775 
L 246.763002 155.948056 
L 253.554723 149.208014 
L 256.718709 146.276058 
L 260.249787 143.482426 
L 261.959799 142.330095 
L 263.769554 141.295101 
L 265.387022 140.508649 
L 267.017858 139.861822 
L 268.928383 139.34156 
L 270.640452 139.046956 
L 272.443008 138.951529 
L 274.160219 139.035886 
L 275.881542 139.298714 
L 277.797208 139.827543 
L 279.610048 140.50718 
L 281.428029 141.356074 
L 284.865534 143.328166 
L 290.409964 147.188263 
L 294.42947 150.034718 
L 296.136397 151.091897 
L 298.150778 152.204803 
L 300.339964 153.157776 
L 302.156916 153.654168 
L 303.969756 153.87266 
L 306.16614 153.765625 
L 307.890548 153.322011 
L 310.076649 152.38841 
L 311.989231 151.189641 
L 314.000526 149.603648 
L 315.913107 209.401484 
L 318.142396 207.369773 
L 326.402486 198.427923 
L 328.305813 196.40958 
L 332.598839 192.397965 
L 334.803449 190.605463 
L 336.994692 189.015385 
L 341.111883 186.562464 
L 343.598239 185.576866 
L 345.701051 184.908191 
L 347.803862 184.452994 
L 350.111299 184.246079 
L 352.507167 184.299759 
L 354.729258 184.530062 
L 359.142591 185.481665 
L 366.287009 187.792197 
L 368.412442 188.357874 
L 370.811395 188.859693 
L 373.489009 189.123216 
L 375.769712 189.000935 
L 378.251954 188.212525 
L 380.728028 187.299949 
L 385.503312 185.14834 
L 390.385536 182.502113 
L 395.353107 179.470395 
L 397.825067 177.890857 
L 398.487273 177.272444 
L 398.487273 174.100968 
L 398.487273 174.100968 
" style="fill:none;stroke:#1f77b4;stroke-linecap:square;stroke-width:1.5;"/>
   </g>
   <g id="patch_8">
    <path d="M 57.6 213.662118 
L 57.6 135.393882 
" style="fill:none;stroke:#000000;stroke-linecap:square;stroke-linejoin:miter;stroke-width:0.8;"/>
   </g>
   <g id="patch_9">
    <path d="M 414.72 213.662118 
L 414.72 135.393882 
" style="fill:none;stroke:#000000;stroke-linecap:square;stroke-linejoin:miter;stroke-width:0.8;"/>
   </g>
   <g id="patch_10">
    <path d="M 57.6 213.662118 
L 414.72 213.662118 
" style="fill:none;stroke:#000000;stroke-linecap:square;stroke-linejoin:miter;stroke-width:0.8;"/>
   </g>
   <g id="patch_11">
    <path d="M 57.6 135.393882 
L 414.72 135.393882 
" style="fill:none;stroke:#000000;stroke-linecap:square;stroke-linejoin:miter;stroke-width:0.8;"/>
   </g>
  </g>
  <g id="axes_3">
   <g id="patch_12">
    <path d="M 57.6 307.584 
L 414.72 307.584 
L 414.72 229.315765 
L 57.6 229.315765 
z
" style="fill:#ffffff;"/>
   </g>
   <g id="matplotlib.axis_5">
    <g id="xtick_17">
     <g id="line2d_25">
      <g>
       <use style="stroke:#000000;stroke-width:0.8;" x="73.832727" xlink:href="#m1479ad5029" y="307.584"/>
      </g>
     </g>
     <g id="text_25">
      <!-- 0 -->
      <g transform="translate(70.651477 322.182437)scale(0.1 -0.1)">
       <use xlink:href="#DejaVuSans-30"/>
      </g>
     </g>
    </g>
    <g id="xtick_18">
     <g id="line2d_26">
      <g>
       <use style="stroke:#000000;stroke-width:0.8;" x="122.056101" xlink:href="#m1479ad5029" y="307.584"/>
      </g>
     </g>
     <g id="text_26">
      <!-- 2 -->
      <g transform="translate(118.874851 322.182437)scale(0.1 -0.1)">
       <use xlink:href="#DejaVuSans-32"/>
      </g>
     </g>
    </g>
    <g id="xtick_19">
     <g id="line2d_27">
      <g>
       <use style="stroke:#000000;stroke-width:0.8;" x="170.279476" xlink:href="#m1479ad5029" y="307.584"/>
      </g>
     </g>
     <g id="text_27">
      <!-- 4 -->
      <g transform="translate(167.098226 322.182437)scale(0.1 -0.1)">
       <use xlink:href="#DejaVuSans-34"/>
      </g>
     </g>
    </g>
    <g id="xtick_20">
     <g id="line2d_28">
      <g>
       <use style="stroke:#000000;stroke-width:0.8;" x="218.50285" xlink:href="#m1479ad5029" y="307.584"/>
      </g>
     </g>
     <g id="text_28">
      <!-- 6 -->
      <g transform="translate(215.3216 322.182437)scale(0.1 -0.1)">
       <use xlink:href="#DejaVuSans-36"/>
      </g>
     </g>
    </g>
    <g id="xtick_21">
     <g id="line2d_29">
      <g>
       <use style="stroke:#000000;stroke-width:0.8;" x="266.726224" xlink:href="#m1479ad5029" y="307.584"/>
      </g>
     </g>
     <g id="text_29">
      <!-- 8 -->
      <g transform="translate(263.544974 322.182437)scale(0.1 -0.1)">
       <use xlink:href="#DejaVuSans-38"/>
      </g>
     </g>
    </g>
    <g id="xtick_22">
     <g id="line2d_30">
      <g>
       <use style="stroke:#000000;stroke-width:0.8;" x="314.949598" xlink:href="#m1479ad5029" y="307.584"/>
      </g>
     </g>
     <g id="text_30">
      <!-- 10 -->
      <g transform="translate(308.587098 322.182437)scale(0.1 -0.1)">
       <use xlink:href="#DejaVuSans-31"/>
       <use x="63.623047" xlink:href="#DejaVuSans-30"/>
      </g>
     </g>
    </g>
    <g id="xtick_23">
     <g id="line2d_31">
      <g>
       <use style="stroke:#000000;stroke-width:0.8;" x="363.172972" xlink:href="#m1479ad5029" y="307.584"/>
      </g>
     </g>
     <g id="text_31">
      <!-- 12 -->
      <g transform="translate(356.810472 322.182437)scale(0.1 -0.1)">
       <use xlink:href="#DejaVuSans-31"/>
       <use x="63.623047" xlink:href="#DejaVuSans-32"/>
      </g>
     </g>
    </g>
    <g id="xtick_24">
     <g id="line2d_32">
      <g>
       <use style="stroke:#000000;stroke-width:0.8;" x="411.396346" xlink:href="#m1479ad5029" y="307.584"/>
      </g>
     </g>
     <g id="text_32">
      <!-- 14 -->
      <g transform="translate(405.033846 322.182437)scale(0.1 -0.1)">
       <use xlink:href="#DejaVuSans-31"/>
       <use x="63.623047" xlink:href="#DejaVuSans-34"/>
      </g>
     </g>
    </g>
    <g id="text_33">
     <!-- travel_distance -->
     <defs>
      <path d="M 41.109375 46.296875 
Q 39.59375 47.171875 37.8125 47.578125 
Q 36.03125 48 33.890625 48 
Q 26.265625 48 22.1875 43.046875 
Q 18.109375 38.09375 18.109375 28.8125 
L 18.109375 0 
L 9.078125 0 
L 9.078125 54.6875 
L 18.109375 54.6875 
L 18.109375 46.1875 
Q 20.953125 51.171875 25.484375 53.578125 
Q 30.03125 56 36.53125 56 
Q 37.453125 56 38.578125 55.875 
Q 39.703125 55.765625 41.0625 55.515625 
z
" id="DejaVuSans-72"/>
      <path d="M 2.984375 54.6875 
L 12.5 54.6875 
L 29.59375 8.796875 
L 46.6875 54.6875 
L 56.203125 54.6875 
L 35.6875 0 
L 23.484375 0 
z
" id="DejaVuSans-76"/>
      <path d="M 9.421875 75.984375 
L 18.40625 75.984375 
L 18.40625 0 
L 9.421875 0 
z
" id="DejaVuSans-6c"/>
      <path d="M 45.40625 46.390625 
L 45.40625 75.984375 
L 54.390625 75.984375 
L 54.390625 0 
L 45.40625 0 
L 45.40625 8.203125 
Q 42.578125 3.328125 38.25 0.953125 
Q 33.9375 -1.421875 27.875 -1.421875 
Q 17.96875 -1.421875 11.734375 6.484375 
Q 5.515625 14.40625 5.515625 27.296875 
Q 5.515625 40.1875 11.734375 48.09375 
Q 17.96875 56 27.875 56 
Q 33.9375 56 38.25 53.625 
Q 42.578125 51.265625 45.40625 46.390625 
z
M 14.796875 27.296875 
Q 14.796875 17.390625 18.875 11.75 
Q 22.953125 6.109375 30.078125 6.109375 
Q 37.203125 6.109375 41.296875 11.75 
Q 45.40625 17.390625 45.40625 27.296875 
Q 45.40625 37.203125 41.296875 42.84375 
Q 37.203125 48.484375 30.078125 48.484375 
Q 22.953125 48.484375 18.875 42.84375 
Q 14.796875 37.203125 14.796875 27.296875 
z
" id="DejaVuSans-64"/>
      <path d="M 9.421875 54.6875 
L 18.40625 54.6875 
L 18.40625 0 
L 9.421875 0 
z
M 9.421875 75.984375 
L 18.40625 75.984375 
L 18.40625 64.59375 
L 9.421875 64.59375 
z
" id="DejaVuSans-69"/>
      <path d="M 44.28125 53.078125 
L 44.28125 44.578125 
Q 40.484375 46.53125 36.375 47.5 
Q 32.28125 48.484375 27.875 48.484375 
Q 21.1875 48.484375 17.84375 46.4375 
Q 14.5 44.390625 14.5 40.28125 
Q 14.5 37.15625 16.890625 35.375 
Q 19.28125 33.59375 26.515625 31.984375 
L 29.59375 31.296875 
Q 39.15625 29.25 43.1875 25.515625 
Q 47.21875 21.78125 47.21875 15.09375 
Q 47.21875 7.46875 41.1875 3.015625 
Q 35.15625 -1.421875 24.609375 -1.421875 
Q 20.21875 -1.421875 15.453125 -0.5625 
Q 10.6875 0.296875 5.421875 2 
L 5.421875 11.28125 
Q 10.40625 8.6875 15.234375 7.390625 
Q 20.0625 6.109375 24.8125 6.109375 
Q 31.15625 6.109375 34.5625 8.28125 
Q 37.984375 10.453125 37.984375 14.40625 
Q 37.984375 18.0625 35.515625 20.015625 
Q 33.0625 21.96875 24.703125 23.78125 
L 21.578125 24.515625 
Q 13.234375 26.265625 9.515625 29.90625 
Q 5.8125 33.546875 5.8125 39.890625 
Q 5.8125 47.609375 11.28125 51.796875 
Q 16.75 56 26.8125 56 
Q 31.78125 56 36.171875 55.265625 
Q 40.578125 54.546875 44.28125 53.078125 
z
" id="DejaVuSans-73"/>
      <path d="M 54.890625 33.015625 
L 54.890625 0 
L 45.90625 0 
L 45.90625 32.71875 
Q 45.90625 40.484375 42.875 44.328125 
Q 39.84375 48.1875 33.796875 48.1875 
Q 26.515625 48.1875 22.3125 43.546875 
Q 18.109375 38.921875 18.109375 30.90625 
L 18.109375 0 
L 9.078125 0 
L 9.078125 54.6875 
L 18.109375 54.6875 
L 18.109375 46.1875 
Q 21.34375 51.125 25.703125 53.5625 
Q 30.078125 56 35.796875 56 
Q 45.21875 56 50.046875 50.171875 
Q 54.890625 44.34375 54.890625 33.015625 
z
" id="DejaVuSans-6e"/>
      <path d="M 48.78125 52.59375 
L 48.78125 44.1875 
Q 44.96875 46.296875 41.140625 47.34375 
Q 37.3125 48.390625 33.40625 48.390625 
Q 24.65625 48.390625 19.8125 42.84375 
Q 14.984375 37.3125 14.984375 27.296875 
Q 14.984375 17.28125 19.8125 11.734375 
Q 24.65625 6.203125 33.40625 6.203125 
Q 37.3125 6.203125 41.140625 7.25 
Q 44.96875 8.296875 48.78125 10.40625 
L 48.78125 2.09375 
Q 45.015625 0.34375 40.984375 -0.53125 
Q 36.96875 -1.421875 32.421875 -1.421875 
Q 20.0625 -1.421875 12.78125 6.34375 
Q 5.515625 14.109375 5.515625 27.296875 
Q 5.515625 40.671875 12.859375 48.328125 
Q 20.21875 56 33.015625 56 
Q 37.15625 56 41.109375 55.140625 
Q 45.0625 54.296875 48.78125 52.59375 
z
" id="DejaVuSans-63"/>
     </defs>
     <g transform="translate(197.968594 335.860562)scale(0.1 -0.1)">
      <use xlink:href="#DejaVuSans-74"/>
      <use x="39.208984" xlink:href="#DejaVuSans-72"/>
      <use x="80.322266" xlink:href="#DejaVuSans-61"/>
      <use x="141.601562" xlink:href="#DejaVuSans-76"/>
      <use x="200.78125" xlink:href="#DejaVuSans-65"/>
      <use x="262.304688" xlink:href="#DejaVuSans-6c"/>
      <use x="290.087891" xlink:href="#DejaVuSans-5f"/>
      <use x="340.087891" xlink:href="#DejaVuSans-64"/>
      <use x="403.564453" xlink:href="#DejaVuSans-69"/>
      <use x="431.347656" xlink:href="#DejaVuSans-73"/>
      <use x="483.447266" xlink:href="#DejaVuSans-74"/>
      <use x="522.65625" xlink:href="#DejaVuSans-61"/>
      <use x="583.935547" xlink:href="#DejaVuSans-6e"/>
      <use x="647.314453" xlink:href="#DejaVuSans-63"/>
      <use x="702.294922" xlink:href="#DejaVuSans-65"/>
     </g>
    </g>
   </g>
   <g id="matplotlib.axis_6">
    <g id="ytick_7">
     <g id="line2d_33">
      <g>
       <use style="stroke:#000000;stroke-width:0.8;" x="57.6" xlink:href="#m37742db445" y="307.376405"/>
      </g>
     </g>
     <g id="text_34">
      <!-- 0 -->
      <g transform="translate(44.2375 311.175624)scale(0.1 -0.1)">
       <use xlink:href="#DejaVuSans-30"/>
      </g>
     </g>
    </g>
    <g id="ytick_8">
     <g id="line2d_34">
      <g>
       <use style="stroke:#000000;stroke-width:0.8;" x="57.6" xlink:href="#m37742db445" y="277.577635"/>
      </g>
     </g>
     <g id="text_35">
      <!-- 2 -->
      <g transform="translate(44.2375 281.376854)scale(0.1 -0.1)">
       <use xlink:href="#DejaVuSans-32"/>
      </g>
     </g>
    </g>
    <g id="ytick_9">
     <g id="line2d_35">
      <g>
       <use style="stroke:#000000;stroke-width:0.8;" x="57.6" xlink:href="#m37742db445" y="247.778866"/>
      </g>
     </g>
     <g id="text_36">
      <!-- 4 -->
      <g transform="translate(44.2375 251.578085)scale(0.1 -0.1)">
       <use xlink:href="#DejaVuSans-34"/>
      </g>
     </g>
    </g>
    <g id="text_37">
     <!-- thegma_theta -->
     <g transform="translate(37.879687 303.493632)rotate(-90)scale(0.1 -0.1)">
      <use xlink:href="#DejaVuSans-74"/>
      <use x="39.208984" xlink:href="#DejaVuSans-68"/>
      <use x="102.587891" xlink:href="#DejaVuSans-65"/>
      <use x="164.111328" xlink:href="#DejaVuSans-67"/>
      <use x="227.587891" xlink:href="#DejaVuSans-6d"/>
      <use x="325" xlink:href="#DejaVuSans-61"/>
      <use x="386.279297" xlink:href="#DejaVuSans-5f"/>
      <use x="436.279297" xlink:href="#DejaVuSans-74"/>
      <use x="475.488281" xlink:href="#DejaVuSans-68"/>
      <use x="538.867188" xlink:href="#DejaVuSans-65"/>
      <use x="600.390625" xlink:href="#DejaVuSans-74"/>
      <use x="639.599609" xlink:href="#DejaVuSans-61"/>
     </g>
    </g>
   </g>
   <g id="line2d_36">
    <path clip-path="url(#p36b17e2021)" d="M 73.832727 232.873412 
L 73.832727 304.009468 
L 74.176169 304.026353 
L 74.357145 303.89399 
L 81.933436 302.0467 
L 83.848074 301.717499 
L 84.660407 301.683656 
L 86.677872 301.374335 
L 90.002267 300.938158 
L 90.505091 301.089996 
L 92.952373 300.808575 
L 93.62589 301.152617 
L 97.043858 300.730977 
L 97.992951 301.545495 
L 105.148679 300.747113 
L 106.035048 301.242582 
L 110.476144 300.815157 
L 123.821028 299.792225 
L 127.680124 299.557374 
L 128.871888 299.732453 
L 144.031667 298.891391 
L 145.063022 300.730976 
L 161.165724 299.778564 
L 187.443155 298.617477 
L 205.962291 297.92231 
L 207.309325 299.238876 
L 211.23423 299.073847 
L 261.959799 297.483372 
L 314.000526 296.277113 
L 315.913107 301.614094 
L 357.032582 300.278015 
L 373.489009 299.845291 
L 375.769712 303.771147 
L 398.487273 302.586218 
L 398.487273 301.562779 
L 398.487273 301.562779 
" style="fill:none;stroke:#1f77b4;stroke-linecap:square;stroke-width:1.5;"/>
   </g>
   <g id="patch_13">
    <path d="M 57.6 307.584 
L 57.6 229.315765 
" style="fill:none;stroke:#000000;stroke-linecap:square;stroke-linejoin:miter;stroke-width:0.8;"/>
   </g>
   <g id="patch_14">
    <path d="M 414.72 307.584 
L 414.72 229.315765 
" style="fill:none;stroke:#000000;stroke-linecap:square;stroke-linejoin:miter;stroke-width:0.8;"/>
   </g>
   <g id="patch_15">
    <path d="M 57.6 307.584 
L 414.72 307.584 
" style="fill:none;stroke:#000000;stroke-linecap:square;stroke-linejoin:miter;stroke-width:0.8;"/>
   </g>
   <g id="patch_16">
    <path d="M 57.6 229.315765 
L 414.72 229.315765 
" style="fill:none;stroke:#000000;stroke-linecap:square;stroke-linejoin:miter;stroke-width:0.8;"/>
   </g>
  </g>
 </g>
 <defs>
  <clipPath id="p80384a14f4">
   <rect height="78.268235" width="357.12" x="57.6" y="41.472"/>
  </clipPath>
  <clipPath id="pb17a1176ff">
   <rect height="78.268235" width="357.12" x="57.6" y="135.393882"/>
  </clipPath>
  <clipPath id="p36b17e2021">
   <rect height="78.268235" width="357.12" x="57.6" y="229.315765"/>
  </clipPath>
 </defs>
</svg>
