<?xml version="1.0" encoding="utf-8" standalone="no"?>
<!DOCTYPE svg PUBLIC "-//W3C//DTD SVG 1.1//EN"
  "http://www.w3.org/Graphics/SVG/1.1/DTD/svg11.dtd">
<!-- Created with matplotlib (http://matplotlib.org/) -->
<svg height="345.6pt" version="1.1" viewBox="0 0 460.8 345.6" width="460.8pt" xmlns="http://www.w3.org/2000/svg" xmlns:xlink="http://www.w3.org/1999/xlink">
 <defs>
  <style type="text/css">
*{stroke-linecap:butt;stroke-linejoin:round;}
  </style>
 </defs>
 <g id="figure_1">
  <g id="patch_1">
   <path d="M 0 345.6 
L 460.8 345.6 
L 460.8 0 
L 0 0 
z
" style="fill:#ffffff;"/>
  </g>
  <g id="axes_1">
   <g id="patch_2">
    <path d="M 57.6 119.740235 
L 414.72 119.740235 
L 414.72 41.472 
L 57.6 41.472 
z
" style="fill:#ffffff;"/>
   </g>
   <g id="matplotlib.axis_1">
    <g id="xtick_1">
     <g id="line2d_1">
      <defs>
       <path d="M 0 0 
L 0 3.5 
" id="m1acc55c019" style="stroke:#000000;stroke-width:0.8;"/>
      </defs>
      <g>
       <use style="stroke:#000000;stroke-width:0.8;" x="73.832727" xlink:href="#m1acc55c019" y="119.740235"/>
      </g>
     </g>
     <g id="text_1">
      <!-- 0 -->
      <defs>
       <path d="M 31.78125 66.40625 
Q 24.171875 66.40625 20.328125 58.90625 
Q 16.5 51.421875 16.5 36.375 
Q 16.5 21.390625 20.328125 13.890625 
Q 24.171875 6.390625 31.78125 6.390625 
Q 39.453125 6.390625 43.28125 13.890625 
Q 47.125 21.390625 47.125 36.375 
Q 47.125 51.421875 43.28125 58.90625 
Q 39.453125 66.40625 31.78125 66.40625 
z
M 31.78125 74.21875 
Q 44.046875 74.21875 50.515625 64.515625 
Q 56.984375 54.828125 56.984375 36.375 
Q 56.984375 17.96875 50.515625 8.265625 
Q 44.046875 -1.421875 31.78125 -1.421875 
Q 19.53125 -1.421875 13.0625 8.265625 
Q 6.59375 17.96875 6.59375 36.375 
Q 6.59375 54.828125 13.0625 64.515625 
Q 19.53125 74.21875 31.78125 74.21875 
z
" id="DejaVuSans-30"/>
      </defs>
      <g transform="translate(70.651477 134.338673)scale(0.1 -0.1)">
       <use xlink:href="#DejaVuSans-30"/>
      </g>
     </g>
    </g>
    <g id="xtick_2">
     <g id="line2d_2">
      <g>
       <use style="stroke:#000000;stroke-width:0.8;" x="122.056101" xlink:href="#m1acc55c019" y="119.740235"/>
      </g>
     </g>
     <g id="text_2">
      <!-- 2 -->
      <defs>
       <path d="M 19.1875 8.296875 
L 53.609375 8.296875 
L 53.609375 0 
L 7.328125 0 
L 7.328125 8.296875 
Q 12.9375 14.109375 22.625 23.890625 
Q 32.328125 33.6875 34.8125 36.53125 
Q 39.546875 41.84375 41.421875 45.53125 
Q 43.3125 49.21875 43.3125 52.78125 
Q 43.3125 58.59375 39.234375 62.25 
Q 35.15625 65.921875 28.609375 65.921875 
Q 23.96875 65.921875 18.8125 64.3125 
Q 13.671875 62.703125 7.8125 59.421875 
L 7.8125 69.390625 
Q 13.765625 71.78125 18.9375 73 
Q 24.125 74.21875 28.421875 74.21875 
Q 39.75 74.21875 46.484375 68.546875 
Q 53.21875 62.890625 53.21875 53.421875 
Q 53.21875 48.921875 51.53125 44.890625 
Q 49.859375 40.875 45.40625 35.40625 
Q 44.1875 33.984375 37.640625 27.21875 
Q 31.109375 20.453125 19.1875 8.296875 
z
" id="DejaVuSans-32"/>
      </defs>
      <g transform="translate(118.874851 134.338673)scale(0.1 -0.1)">
       <use xlink:href="#DejaVuSans-32"/>
      </g>
     </g>
    </g>
    <g id="xtick_3">
     <g id="line2d_3">
      <g>
       <use style="stroke:#000000;stroke-width:0.8;" x="170.279476" xlink:href="#m1acc55c019" y="119.740235"/>
      </g>
     </g>
     <g id="text_3">
      <!-- 4 -->
      <defs>
       <path d="M 37.796875 64.3125 
L 12.890625 25.390625 
L 37.796875 25.390625 
z
M 35.203125 72.90625 
L 47.609375 72.90625 
L 47.609375 25.390625 
L 58.015625 25.390625 
L 58.015625 17.1875 
L 47.609375 17.1875 
L 47.609375 0 
L 37.796875 0 
L 37.796875 17.1875 
L 4.890625 17.1875 
L 4.890625 26.703125 
z
" id="DejaVuSans-34"/>
      </defs>
      <g transform="translate(167.098226 134.338673)scale(0.1 -0.1)">
       <use xlink:href="#DejaVuSans-34"/>
      </g>
     </g>
    </g>
    <g id="xtick_4">
     <g id="line2d_4">
      <g>
       <use style="stroke:#000000;stroke-width:0.8;" x="218.50285" xlink:href="#m1acc55c019" y="119.740235"/>
      </g>
     </g>
     <g id="text_4">
      <!-- 6 -->
      <defs>
       <path d="M 33.015625 40.375 
Q 26.375 40.375 22.484375 35.828125 
Q 18.609375 31.296875 18.609375 23.390625 
Q 18.609375 15.53125 22.484375 10.953125 
Q 26.375 6.390625 33.015625 6.390625 
Q 39.65625 6.390625 43.53125 10.953125 
Q 47.40625 15.53125 47.40625 23.390625 
Q 47.40625 31.296875 43.53125 35.828125 
Q 39.65625 40.375 33.015625 40.375 
z
M 52.59375 71.296875 
L 52.59375 62.3125 
Q 48.875 64.0625 45.09375 64.984375 
Q 41.3125 65.921875 37.59375 65.921875 
Q 27.828125 65.921875 22.671875 59.328125 
Q 17.53125 52.734375 16.796875 39.40625 
Q 19.671875 43.65625 24.015625 45.921875 
Q 28.375 48.1875 33.59375 48.1875 
Q 44.578125 48.1875 50.953125 41.515625 
Q 57.328125 34.859375 57.328125 23.390625 
Q 57.328125 12.15625 50.6875 5.359375 
Q 44.046875 -1.421875 33.015625 -1.421875 
Q 20.359375 -1.421875 13.671875 8.265625 
Q 6.984375 17.96875 6.984375 36.375 
Q 6.984375 53.65625 15.1875 63.9375 
Q 23.390625 74.21875 37.203125 74.21875 
Q 40.921875 74.21875 44.703125 73.484375 
Q 48.484375 72.75 52.59375 71.296875 
z
" id="DejaVuSans-36"/>
      </defs>
      <g transform="translate(215.3216 134.338673)scale(0.1 -0.1)">
       <use xlink:href="#DejaVuSans-36"/>
      </g>
     </g>
    </g>
    <g id="xtick_5">
     <g id="line2d_5">
      <g>
       <use style="stroke:#000000;stroke-width:0.8;" x="266.726224" xlink:href="#m1acc55c019" y="119.740235"/>
      </g>
     </g>
     <g id="text_5">
      <!-- 8 -->
      <defs>
       <path d="M 31.78125 34.625 
Q 24.75 34.625 20.71875 30.859375 
Q 16.703125 27.09375 16.703125 20.515625 
Q 16.703125 13.921875 20.71875 10.15625 
Q 24.75 6.390625 31.78125 6.390625 
Q 38.8125 6.390625 42.859375 10.171875 
Q 46.921875 13.96875 46.921875 20.515625 
Q 46.921875 27.09375 42.890625 30.859375 
Q 38.875 34.625 31.78125 34.625 
z
M 21.921875 38.8125 
Q 15.578125 40.375 12.03125 44.71875 
Q 8.5 49.078125 8.5 55.328125 
Q 8.5 64.0625 14.71875 69.140625 
Q 20.953125 74.21875 31.78125 74.21875 
Q 42.671875 74.21875 48.875 69.140625 
Q 55.078125 64.0625 55.078125 55.328125 
Q 55.078125 49.078125 51.53125 44.71875 
Q 48 40.375 41.703125 38.8125 
Q 48.828125 37.15625 52.796875 32.3125 
Q 56.78125 27.484375 56.78125 20.515625 
Q 56.78125 9.90625 50.3125 4.234375 
Q 43.84375 -1.421875 31.78125 -1.421875 
Q 19.734375 -1.421875 13.25 4.234375 
Q 6.78125 9.90625 6.78125 20.515625 
Q 6.78125 27.484375 10.78125 32.3125 
Q 14.796875 37.15625 21.921875 38.8125 
z
M 18.3125 54.390625 
Q 18.3125 48.734375 21.84375 45.5625 
Q 25.390625 42.390625 31.78125 42.390625 
Q 38.140625 42.390625 41.71875 45.5625 
Q 45.3125 48.734375 45.3125 54.390625 
Q 45.3125 60.0625 41.71875 63.234375 
Q 38.140625 66.40625 31.78125 66.40625 
Q 25.390625 66.40625 21.84375 63.234375 
Q 18.3125 60.0625 18.3125 54.390625 
z
" id="DejaVuSans-38"/>
      </defs>
      <g transform="translate(263.544974 134.338673)scale(0.1 -0.1)">
       <use xlink:href="#DejaVuSans-38"/>
      </g>
     </g>
    </g>
    <g id="xtick_6">
     <g id="line2d_6">
      <g>
       <use style="stroke:#000000;stroke-width:0.8;" x="314.949598" xlink:href="#m1acc55c019" y="119.740235"/>
      </g>
     </g>
     <g id="text_6">
      <!-- 10 -->
      <defs>
       <path d="M 12.40625 8.296875 
L 28.515625 8.296875 
L 28.515625 63.921875 
L 10.984375 60.40625 
L 10.984375 69.390625 
L 28.421875 72.90625 
L 38.28125 72.90625 
L 38.28125 8.296875 
L 54.390625 8.296875 
L 54.390625 0 
L 12.40625 0 
z
" id="DejaVuSans-31"/>
      </defs>
      <g transform="translate(308.587098 134.338673)scale(0.1 -0.1)">
       <use xlink:href="#DejaVuSans-31"/>
       <use x="63.623047" xlink:href="#DejaVuSans-30"/>
      </g>
     </g>
    </g>
    <g id="xtick_7">
     <g id="line2d_7">
      <g>
       <use style="stroke:#000000;stroke-width:0.8;" x="363.172972" xlink:href="#m1acc55c019" y="119.740235"/>
      </g>
     </g>
     <g id="text_7">
      <!-- 12 -->
      <g transform="translate(356.810472 134.338673)scale(0.1 -0.1)">
       <use xlink:href="#DejaVuSans-31"/>
       <use x="63.623047" xlink:href="#DejaVuSans-32"/>
      </g>
     </g>
    </g>
    <g id="xtick_8">
     <g id="line2d_8">
      <g>
       <use style="stroke:#000000;stroke-width:0.8;" x="411.396346" xlink:href="#m1acc55c019" y="119.740235"/>
      </g>
     </g>
     <g id="text_8">
      <!-- 14 -->
      <g transform="translate(405.033846 134.338673)scale(0.1 -0.1)">
       <use xlink:href="#DejaVuSans-31"/>
       <use x="63.623047" xlink:href="#DejaVuSans-34"/>
      </g>
     </g>
    </g>
   </g>
   <g id="matplotlib.axis_2">
    <g id="ytick_1">
     <g id="line2d_9">
      <defs>
       <path d="M 0 0 
L -3.5 0 
" id="m7c81334b43" style="stroke:#000000;stroke-width:0.8;"/>
      </defs>
      <g>
       <use style="stroke:#000000;stroke-width:0.8;" x="57.6" xlink:href="#m7c81334b43" y="119.51346"/>
      </g>
     </g>
     <g id="text_9">
      <!-- 0.00 -->
      <defs>
       <path d="M 10.6875 12.40625 
L 21 12.40625 
L 21 0 
L 10.6875 0 
z
" id="DejaVuSans-2e"/>
      </defs>
      <g transform="translate(28.334375 123.312679)scale(0.1 -0.1)">
       <use xlink:href="#DejaVuSans-30"/>
       <use x="63.623047" xlink:href="#DejaVuSans-2e"/>
       <use x="95.410156" xlink:href="#DejaVuSans-30"/>
       <use x="159.033203" xlink:href="#DejaVuSans-30"/>
      </g>
     </g>
    </g>
    <g id="ytick_2">
     <g id="line2d_10">
      <g>
       <use style="stroke:#000000;stroke-width:0.8;" x="57.6" xlink:href="#m7c81334b43" y="77.133609"/>
      </g>
     </g>
     <g id="text_10">
      <!-- 0.01 -->
      <g transform="translate(28.334375 80.932828)scale(0.1 -0.1)">
       <use xlink:href="#DejaVuSans-30"/>
       <use x="63.623047" xlink:href="#DejaVuSans-2e"/>
       <use x="95.410156" xlink:href="#DejaVuSans-30"/>
       <use x="159.033203" xlink:href="#DejaVuSans-31"/>
      </g>
     </g>
    </g>
    <g id="text_11">
     <!-- thegma_x -->
     <defs>
      <path d="M 18.3125 70.21875 
L 18.3125 54.6875 
L 36.8125 54.6875 
L 36.8125 47.703125 
L 18.3125 47.703125 
L 18.3125 18.015625 
Q 18.3125 11.328125 20.140625 9.421875 
Q 21.96875 7.515625 27.59375 7.515625 
L 36.8125 7.515625 
L 36.8125 0 
L 27.59375 0 
Q 17.1875 0 13.234375 3.875 
Q 9.28125 7.765625 9.28125 18.015625 
L 9.28125 47.703125 
L 2.6875 47.703125 
L 2.6875 54.6875 
L 9.28125 54.6875 
L 9.28125 70.21875 
z
" id="DejaVuSans-74"/>
      <path d="M 54.890625 33.015625 
L 54.890625 0 
L 45.90625 0 
L 45.90625 32.71875 
Q 45.90625 40.484375 42.875 44.328125 
Q 39.84375 48.1875 33.796875 48.1875 
Q 26.515625 48.1875 22.3125 43.546875 
Q 18.109375 38.921875 18.109375 30.90625 
L 18.109375 0 
L 9.078125 0 
L 9.078125 75.984375 
L 18.109375 75.984375 
L 18.109375 46.1875 
Q 21.34375 51.125 25.703125 53.5625 
Q 30.078125 56 35.796875 56 
Q 45.21875 56 50.046875 50.171875 
Q 54.890625 44.34375 54.890625 33.015625 
z
" id="DejaVuSans-68"/>
      <path d="M 56.203125 29.59375 
L 56.203125 25.203125 
L 14.890625 25.203125 
Q 15.484375 15.921875 20.484375 11.0625 
Q 25.484375 6.203125 34.421875 6.203125 
Q 39.59375 6.203125 44.453125 7.46875 
Q 49.3125 8.734375 54.109375 11.28125 
L 54.109375 2.78125 
Q 49.265625 0.734375 44.1875 -0.34375 
Q 39.109375 -1.421875 33.890625 -1.421875 
Q 20.796875 -1.421875 13.15625 6.1875 
Q 5.515625 13.8125 5.515625 26.8125 
Q 5.515625 40.234375 12.765625 48.109375 
Q 20.015625 56 32.328125 56 
Q 43.359375 56 49.78125 48.890625 
Q 56.203125 41.796875 56.203125 29.59375 
z
M 47.21875 32.234375 
Q 47.125 39.59375 43.09375 43.984375 
Q 39.0625 48.390625 32.421875 48.390625 
Q 24.90625 48.390625 20.390625 44.140625 
Q 15.875 39.890625 15.1875 32.171875 
z
" id="DejaVuSans-65"/>
      <path d="M 45.40625 27.984375 
Q 45.40625 37.75 41.375 43.109375 
Q 37.359375 48.484375 30.078125 48.484375 
Q 22.859375 48.484375 18.828125 43.109375 
Q 14.796875 37.75 14.796875 27.984375 
Q 14.796875 18.265625 18.828125 12.890625 
Q 22.859375 7.515625 30.078125 7.515625 
Q 37.359375 7.515625 41.375 12.890625 
Q 45.40625 18.265625 45.40625 27.984375 
z
M 54.390625 6.78125 
Q 54.390625 -7.171875 48.1875 -13.984375 
Q 42 -20.796875 29.203125 -20.796875 
Q 24.46875 -20.796875 20.265625 -20.09375 
Q 16.0625 -19.390625 12.109375 -17.921875 
L 12.109375 -9.1875 
Q 16.0625 -11.328125 19.921875 -12.34375 
Q 23.78125 -13.375 27.78125 -13.375 
Q 36.625 -13.375 41.015625 -8.765625 
Q 45.40625 -4.15625 45.40625 5.171875 
L 45.40625 9.625 
Q 42.625 4.78125 38.28125 2.390625 
Q 33.9375 0 27.875 0 
Q 17.828125 0 11.671875 7.65625 
Q 5.515625 15.328125 5.515625 27.984375 
Q 5.515625 40.671875 11.671875 48.328125 
Q 17.828125 56 27.875 56 
Q 33.9375 56 38.28125 53.609375 
Q 42.625 51.21875 45.40625 46.390625 
L 45.40625 54.6875 
L 54.390625 54.6875 
z
" id="DejaVuSans-67"/>
      <path d="M 52 44.1875 
Q 55.375 50.25 60.0625 53.125 
Q 64.75 56 71.09375 56 
Q 79.640625 56 84.28125 50.015625 
Q 88.921875 44.046875 88.921875 33.015625 
L 88.921875 0 
L 79.890625 0 
L 79.890625 32.71875 
Q 79.890625 40.578125 77.09375 44.375 
Q 74.3125 48.1875 68.609375 48.1875 
Q 61.625 48.1875 57.5625 43.546875 
Q 53.515625 38.921875 53.515625 30.90625 
L 53.515625 0 
L 44.484375 0 
L 44.484375 32.71875 
Q 44.484375 40.625 41.703125 44.40625 
Q 38.921875 48.1875 33.109375 48.1875 
Q 26.21875 48.1875 22.15625 43.53125 
Q 18.109375 38.875 18.109375 30.90625 
L 18.109375 0 
L 9.078125 0 
L 9.078125 54.6875 
L 18.109375 54.6875 
L 18.109375 46.1875 
Q 21.1875 51.21875 25.484375 53.609375 
Q 29.78125 56 35.6875 56 
Q 41.65625 56 45.828125 52.96875 
Q 50 49.953125 52 44.1875 
z
" id="DejaVuSans-6d"/>
      <path d="M 34.28125 27.484375 
Q 23.390625 27.484375 19.1875 25 
Q 14.984375 22.515625 14.984375 16.5 
Q 14.984375 11.71875 18.140625 8.90625 
Q 21.296875 6.109375 26.703125 6.109375 
Q 34.1875 6.109375 38.703125 11.40625 
Q 43.21875 16.703125 43.21875 25.484375 
L 43.21875 27.484375 
z
M 52.203125 31.203125 
L 52.203125 0 
L 43.21875 0 
L 43.21875 8.296875 
Q 40.140625 3.328125 35.546875 0.953125 
Q 30.953125 -1.421875 24.3125 -1.421875 
Q 15.921875 -1.421875 10.953125 3.296875 
Q 6 8.015625 6 15.921875 
Q 6 25.140625 12.171875 29.828125 
Q 18.359375 34.515625 30.609375 34.515625 
L 43.21875 34.515625 
L 43.21875 35.40625 
Q 43.21875 41.609375 39.140625 45 
Q 35.0625 48.390625 27.6875 48.390625 
Q 23 48.390625 18.546875 47.265625 
Q 14.109375 46.140625 10.015625 43.890625 
L 10.015625 52.203125 
Q 14.9375 54.109375 19.578125 55.046875 
Q 24.21875 56 28.609375 56 
Q 40.484375 56 46.34375 49.84375 
Q 52.203125 43.703125 52.203125 31.203125 
z
" id="DejaVuSans-61"/>
      <path d="M 50.984375 -16.609375 
L 50.984375 -23.578125 
L -0.984375 -23.578125 
L -0.984375 -16.609375 
z
" id="DejaVuSans-5f"/>
      <path d="M 54.890625 54.6875 
L 35.109375 28.078125 
L 55.90625 0 
L 45.3125 0 
L 29.390625 21.484375 
L 13.484375 0 
L 2.875 0 
L 24.125 28.609375 
L 4.6875 54.6875 
L 15.28125 54.6875 
L 29.78125 35.203125 
L 44.28125 54.6875 
z
" id="DejaVuSans-78"/>
     </defs>
     <g transform="translate(21.976562 105.379555)rotate(-90)scale(0.1 -0.1)">
      <use xlink:href="#DejaVuSans-74"/>
      <use x="39.208984" xlink:href="#DejaVuSans-68"/>
      <use x="102.587891" xlink:href="#DejaVuSans-65"/>
      <use x="164.111328" xlink:href="#DejaVuSans-67"/>
      <use x="227.587891" xlink:href="#DejaVuSans-6d"/>
      <use x="325" xlink:href="#DejaVuSans-61"/>
      <use x="386.279297" xlink:href="#DejaVuSans-5f"/>
      <use x="436.279297" xlink:href="#DejaVuSans-78"/>
     </g>
    </g>
   </g>
   <g id="line2d_11">
    <path clip-path="url(#p4d557fc218)" d="M 73.832727 89.576332 
L 73.832727 116.182588 
L 73.832727 116.182588 
L 74.114473 116.182588 
L 74.357145 114.292255 
L 74.849686 112.923504 
L 75.066651 111.79374 
L 75.574616 110.809321 
L 75.798779 109.925468 
L 76.322168 109.116282 
L 76.621395 108.365703 
L 77.905703 106.367316 
L 78.138092 105.765617 
L 78.673821 105.187958 
L 78.969962 104.633207 
L 79.985893 103.577768 
L 80.290261 103.075914 
L 81.142696 102.111441 
L 81.45529 101.648899 
L 82.015697 113.493112 
L 82.407468 112.300194 
L 82.886641 111.282189 
L 84.332389 108.783532 
L 85.061432 107.383229 
L 85.79356 106.739192 
L 86.677872 105.524196 
L 89.421295 102.764132 
L 89.750341 102.261201 
L 90.505091 113.550967 
L 92.191453 110.460935 
L 92.695306 109.607949 
L 93.383218 108.796409 
L 93.883985 108.029326 
L 95.754408 105.818575 
L 96.189366 105.147637 
L 96.960568 113.485723 
L 97.474703 112.09159 
L 98.253103 110.771022 
L 99.204252 108.684262 
L 100.155402 107.483779 
L 101.810916 104.685468 
L 103.29985 102.633163 
L 105.411916 99.612531 
L 106.035048 100.36937 
L 108.071022 97.860055 
L 110.476144 95.015347 
L 113.34296 91.384022 
L 117.429304 86.129742 
L 119.80255 82.947794 
L 127.680124 72.408792 
L 128.871888 71.585412 
L 131.474439 68.321137 
L 136.575684 62.493819 
L 139.546355 59.457137 
L 141.509322 57.63431 
L 144.682562 55.072131 
L 146.748356 53.663539 
L 148.896411 52.453868 
L 150.960148 51.507197 
L 152.182761 51.088008 
L 153.121571 68.252822 
L 157.575007 67.509688 
L 159.852624 67.306463 
L 163.340515 67.218916 
L 164.297834 69.75282 
L 181.259141 69.174546 
L 182.495122 113.332482 
L 184.016961 112.210528 
L 186.59072 109.617746 
L 189.258051 106.691896 
L 191.931552 103.526662 
L 193.191182 113.677571 
L 194.147473 112.096483 
L 203.753568 101.087627 
L 209.896451 94.31144 
L 211.51906 93.479052 
L 214.855795 90.544904 
L 217.912841 88.056121 
L 220.859862 85.92907 
L 223.042878 84.422867 
L 224.772428 83.519986 
L 228.21199 82.090635 
L 231.275205 81.181837 
L 232.702443 80.880923 
L 235.823242 80.591554 
L 238.943012 80.721664 
L 242.089517 81.221634 
L 245.424195 82.105214 
L 250.105907 83.608415 
L 253.554723 84.770264 
L 255.375789 85.307441 
L 258.819464 85.960313 
L 260.249787 86.012782 
L 261.959799 85.955015 
L 263.86724 85.675979 
L 265.387022 85.210039 
L 267.30166 84.430782 
L 268.928383 83.516334 
L 270.640452 82.359875 
L 272.443008 80.944093 
L 275.881542 77.724368 
L 279.610048 73.742112 
L 290.701992 61.286019 
L 294.42947 57.654955 
L 296.53331 113.376739 
L 302.156916 110.121578 
L 306.16614 108.295923 
L 310.076649 106.852597 
L 314.000526 105.725441 
L 318.142396 104.772776 
L 324.482707 103.055209 
L 326.698628 102.223288 
L 328.687301 101.264061 
L 330.789084 100.072306 
L 332.884698 98.654473 
L 335.089308 96.933121 
L 337.282607 94.969507 
L 341.497484 90.55812 
L 345.976627 85.190116 
L 350.38996 79.440972 
L 359.42845 67.384183 
L 364.264403 61.334559 
L 369.184673 55.788321 
L 371.76563 53.206634 
L 374.058671 51.14213 
L 376.628317 49.176795 
L 378.92033 47.700739 
L 381.377894 46.481695 
L 383.872476 45.629789 
L 386.173744 45.155801 
L 388.662156 45.029647 
L 391.158795 45.273361 
L 393.736667 45.926683 
L 396.119168 46.860133 
L 398.487273 48.091148 
L 398.487273 47.978066 
L 398.487273 47.639886 
L 398.487273 47.639886 
" style="fill:none;stroke:#1f77b4;stroke-linecap:square;stroke-width:1.5;"/>
   </g>
   <g id="patch_3">
    <path d="M 57.6 119.740235 
L 57.6 41.472 
" style="fill:none;stroke:#000000;stroke-linecap:square;stroke-linejoin:miter;stroke-width:0.8;"/>
   </g>
   <g id="patch_4">
    <path d="M 414.72 119.740235 
L 414.72 41.472 
" style="fill:none;stroke:#000000;stroke-linecap:square;stroke-linejoin:miter;stroke-width:0.8;"/>
   </g>
   <g id="patch_5">
    <path d="M 57.6 119.740235 
L 414.72 119.740235 
" style="fill:none;stroke:#000000;stroke-linecap:square;stroke-linejoin:miter;stroke-width:0.8;"/>
   </g>
   <g id="patch_6">
    <path d="M 57.6 41.472 
L 414.72 41.472 
" style="fill:none;stroke:#000000;stroke-linecap:square;stroke-linejoin:miter;stroke-width:0.8;"/>
   </g>
  </g>
  <g id="axes_2">
   <g id="patch_7">
    <path d="M 57.6 213.662118 
L 414.72 213.662118 
L 414.72 135.393882 
L 57.6 135.393882 
z
" style="fill:#ffffff;"/>
   </g>
   <g id="matplotlib.axis_3">
    <g id="xtick_9">
     <g id="line2d_12">
      <g>
       <use style="stroke:#000000;stroke-width:0.8;" x="73.832727" xlink:href="#m1acc55c019" y="213.662118"/>
      </g>
     </g>
     <g id="text_12">
      <!-- 0 -->
      <g transform="translate(70.651477 228.260555)scale(0.1 -0.1)">
       <use xlink:href="#DejaVuSans-30"/>
      </g>
     </g>
    </g>
    <g id="xtick_10">
     <g id="line2d_13">
      <g>
       <use style="stroke:#000000;stroke-width:0.8;" x="122.056101" xlink:href="#m1acc55c019" y="213.662118"/>
      </g>
     </g>
     <g id="text_13">
      <!-- 2 -->
      <g transform="translate(118.874851 228.260555)scale(0.1 -0.1)">
       <use xlink:href="#DejaVuSans-32"/>
      </g>
     </g>
    </g>
    <g id="xtick_11">
     <g id="line2d_14">
      <g>
       <use style="stroke:#000000;stroke-width:0.8;" x="170.279476" xlink:href="#m1acc55c019" y="213.662118"/>
      </g>
     </g>
     <g id="text_14">
      <!-- 4 -->
      <g transform="translate(167.098226 228.260555)scale(0.1 -0.1)">
       <use xlink:href="#DejaVuSans-34"/>
      </g>
     </g>
    </g>
    <g id="xtick_12">
     <g id="line2d_15">
      <g>
       <use style="stroke:#000000;stroke-width:0.8;" x="218.50285" xlink:href="#m1acc55c019" y="213.662118"/>
      </g>
     </g>
     <g id="text_15">
      <!-- 6 -->
      <g transform="translate(215.3216 228.260555)scale(0.1 -0.1)">
       <use xlink:href="#DejaVuSans-36"/>
      </g>
     </g>
    </g>
    <g id="xtick_13">
     <g id="line2d_16">
      <g>
       <use style="stroke:#000000;stroke-width:0.8;" x="266.726224" xlink:href="#m1acc55c019" y="213.662118"/>
      </g>
     </g>
     <g id="text_16">
      <!-- 8 -->
      <g transform="translate(263.544974 228.260555)scale(0.1 -0.1)">
       <use xlink:href="#DejaVuSans-38"/>
      </g>
     </g>
    </g>
    <g id="xtick_14">
     <g id="line2d_17">
      <g>
       <use style="stroke:#000000;stroke-width:0.8;" x="314.949598" xlink:href="#m1acc55c019" y="213.662118"/>
      </g>
     </g>
     <g id="text_17">
      <!-- 10 -->
      <g transform="translate(308.587098 228.260555)scale(0.1 -0.1)">
       <use xlink:href="#DejaVuSans-31"/>
       <use x="63.623047" xlink:href="#DejaVuSans-30"/>
      </g>
     </g>
    </g>
    <g id="xtick_15">
     <g id="line2d_18">
      <g>
       <use style="stroke:#000000;stroke-width:0.8;" x="363.172972" xlink:href="#m1acc55c019" y="213.662118"/>
      </g>
     </g>
     <g id="text_18">
      <!-- 12 -->
      <g transform="translate(356.810472 228.260555)scale(0.1 -0.1)">
       <use xlink:href="#DejaVuSans-31"/>
       <use x="63.623047" xlink:href="#DejaVuSans-32"/>
      </g>
     </g>
    </g>
    <g id="xtick_16">
     <g id="line2d_19">
      <g>
       <use style="stroke:#000000;stroke-width:0.8;" x="411.396346" xlink:href="#m1acc55c019" y="213.662118"/>
      </g>
     </g>
     <g id="text_19">
      <!-- 14 -->
      <g transform="translate(405.033846 228.260555)scale(0.1 -0.1)">
       <use xlink:href="#DejaVuSans-31"/>
       <use x="63.623047" xlink:href="#DejaVuSans-34"/>
      </g>
     </g>
    </g>
   </g>
   <g id="matplotlib.axis_4">
    <g id="ytick_3">
     <g id="line2d_20">
      <g>
       <use style="stroke:#000000;stroke-width:0.8;" x="57.6" xlink:href="#m7c81334b43" y="192.470538"/>
      </g>
     </g>
     <g id="text_20">
      <!-- 0.005 -->
      <defs>
       <path d="M 10.796875 72.90625 
L 49.515625 72.90625 
L 49.515625 64.59375 
L 19.828125 64.59375 
L 19.828125 46.734375 
Q 21.96875 47.46875 24.109375 47.828125 
Q 26.265625 48.1875 28.421875 48.1875 
Q 40.625 48.1875 47.75 41.5 
Q 54.890625 34.8125 54.890625 23.390625 
Q 54.890625 11.625 47.5625 5.09375 
Q 40.234375 -1.421875 26.90625 -1.421875 
Q 22.3125 -1.421875 17.546875 -0.640625 
Q 12.796875 0.140625 7.71875 1.703125 
L 7.71875 11.625 
Q 12.109375 9.234375 16.796875 8.0625 
Q 21.484375 6.890625 26.703125 6.890625 
Q 35.15625 6.890625 40.078125 11.328125 
Q 45.015625 15.765625 45.015625 23.390625 
Q 45.015625 31 40.078125 35.4375 
Q 35.15625 39.890625 26.703125 39.890625 
Q 22.75 39.890625 18.8125 39.015625 
Q 14.890625 38.140625 10.796875 36.28125 
z
" id="DejaVuSans-35"/>
      </defs>
      <g transform="translate(21.971875 196.269757)scale(0.1 -0.1)">
       <use xlink:href="#DejaVuSans-30"/>
       <use x="63.623047" xlink:href="#DejaVuSans-2e"/>
       <use x="95.410156" xlink:href="#DejaVuSans-30"/>
       <use x="159.033203" xlink:href="#DejaVuSans-30"/>
       <use x="222.65625" xlink:href="#DejaVuSans-35"/>
      </g>
     </g>
    </g>
    <g id="ytick_4">
     <g id="line2d_21">
      <g>
       <use style="stroke:#000000;stroke-width:0.8;" x="57.6" xlink:href="#m7c81334b43" y="167.899324"/>
      </g>
     </g>
     <g id="text_21">
      <!-- 0.010 -->
      <g transform="translate(21.971875 171.698542)scale(0.1 -0.1)">
       <use xlink:href="#DejaVuSans-30"/>
       <use x="63.623047" xlink:href="#DejaVuSans-2e"/>
       <use x="95.410156" xlink:href="#DejaVuSans-30"/>
       <use x="159.033203" xlink:href="#DejaVuSans-31"/>
       <use x="222.65625" xlink:href="#DejaVuSans-30"/>
      </g>
     </g>
    </g>
    <g id="ytick_5">
     <g id="line2d_22">
      <g>
       <use style="stroke:#000000;stroke-width:0.8;" x="57.6" xlink:href="#m7c81334b43" y="143.328109"/>
      </g>
     </g>
     <g id="text_22">
      <!-- 0.015 -->
      <g transform="translate(21.971875 147.127327)scale(0.1 -0.1)">
       <use xlink:href="#DejaVuSans-30"/>
       <use x="63.623047" xlink:href="#DejaVuSans-2e"/>
       <use x="95.410156" xlink:href="#DejaVuSans-30"/>
       <use x="159.033203" xlink:href="#DejaVuSans-31"/>
       <use x="222.65625" xlink:href="#DejaVuSans-35"/>
      </g>
     </g>
    </g>
    <g id="text_23">
     <!-- thegma_y -->
     <defs>
      <path d="M 32.171875 -5.078125 
Q 28.375 -14.84375 24.75 -17.8125 
Q 21.140625 -20.796875 15.09375 -20.796875 
L 7.90625 -20.796875 
L 7.90625 -13.28125 
L 13.1875 -13.28125 
Q 16.890625 -13.28125 18.9375 -11.515625 
Q 21 -9.765625 23.484375 -3.21875 
L 25.09375 0.875 
L 2.984375 54.6875 
L 12.5 54.6875 
L 29.59375 11.921875 
L 46.6875 54.6875 
L 56.203125 54.6875 
z
" id="DejaVuSans-79"/>
     </defs>
     <g transform="translate(15.614062 199.301437)rotate(-90)scale(0.1 -0.1)">
      <use xlink:href="#DejaVuSans-74"/>
      <use x="39.208984" xlink:href="#DejaVuSans-68"/>
      <use x="102.587891" xlink:href="#DejaVuSans-65"/>
      <use x="164.111328" xlink:href="#DejaVuSans-67"/>
      <use x="227.587891" xlink:href="#DejaVuSans-6d"/>
      <use x="325" xlink:href="#DejaVuSans-61"/>
      <use x="386.279297" xlink:href="#DejaVuSans-5f"/>
      <use x="436.279297" xlink:href="#DejaVuSans-79"/>
     </g>
    </g>
   </g>
   <g id="line2d_23">
    <path clip-path="url(#p16b4bb1d84)" d="M 73.832727 182.327574 
L 73.832727 176.280189 
L 74.357145 175.748416 
L 74.849686 175.480284 
L 75.066651 175.215801 
L 75.574616 174.944532 
L 75.798779 174.680252 
L 76.621395 174.136423 
L 77.905703 173.301635 
L 78.138092 173.035033 
L 79.51186 172.162684 
L 80.761208 171.275178 
L 82.886641 169.742623 
L 83.848074 169.0777 
L 84.332389 209.999145 
L 84.660407 208.616102 
L 85.061432 207.410076 
L 85.79356 206.276348 
L 86.677872 204.262702 
L 89.750341 198.972105 
L 90.505091 198.130413 
L 94.561615 192.592079 
L 97.474703 189.001967 
L 98.253103 188.197512 
L 99.204252 186.944548 
L 100.766194 185.417261 
L 101.810916 184.205895 
L 104.004215 182.186615 
L 104.529661 181.639169 
L 105.411916 180.955948 
L 106.035048 209.960036 
L 106.648925 208.62221 
L 109.588747 204.526268 
L 111.286421 202.862973 
L 111.906467 202.100634 
L 112.712631 210.055215 
L 113.34296 208.592977 
L 114.160434 207.345582 
L 115.067368 206.249597 
L 115.701811 205.270468 
L 117.429304 203.548098 
L 118.069915 202.774417 
L 121.527986 200.104024 
L 123.451879 198.940576 
L 124.092491 198.36951 
L 126.110984 197.264959 
L 127.680124 196.154535 
L 128.871888 209.861387 
L 129.620468 208.646828 
L 130.731 207.583116 
L 131.474439 206.525739 
L 132.681627 205.469819 
L 133.524808 204.433792 
L 134.710403 203.288776 
L 135.453842 202.255595 
L 137.510381 199.847041 
L 141.509322 194.416152 
L 143.747865 191.083503 
L 147.958629 183.978387 
L 152.182761 176.088601 
L 153.121571 210.104468 
L 155.380679 206.681741 
L 156.325659 205.166596 
L 161.076265 198.638234 
L 163.340515 195.48632 
L 164.297834 210.104471 
L 165.622245 208.17155 
L 166.566197 206.591677 
L 169.017591 203.449524 
L 173.947116 197.789182 
L 178.883839 192.840392 
L 181.259141 190.710667 
L 182.495122 189.706252 
L 186.59072 186.906347 
L 187.731071 186.181115 
L 190.689402 184.783753 
L 191.931552 184.247393 
L 193.191182 186.795866 
L 194.147473 186.400197 
L 198.174177 185.463697 
L 205.108828 184.765791 
L 208.849672 184.506112 
L 209.896451 184.374612 
L 211.51906 209.891664 
L 217.912841 202.628111 
L 222.280931 197.014152 
L 223.042878 195.740826 
L 226.590409 190.924302 
L 229.839741 186.119563 
L 237.536339 174.000637 
L 242.089517 166.804661 
L 247.04989 159.400515 
L 250.105907 155.143452 
L 253.554723 150.82603 
L 256.718709 147.305616 
L 260.249787 144.069832 
L 261.959799 142.761052 
L 265.387022 140.716626 
L 267.30166 139.928082 
L 268.928383 139.408601 
L 270.640452 139.072084 
L 272.443008 138.951529 
L 274.160219 139.027988 
L 275.881542 139.300424 
L 277.797208 139.865974 
L 279.610048 140.606186 
L 281.428029 141.546288 
L 283.243953 142.673985 
L 286.968345 145.485444 
L 288.67733 146.93587 
L 292.610461 150.634253 
L 294.42947 152.398854 
L 296.53331 160.767515 
L 300.339964 162.003512 
L 304.254586 162.975305 
L 306.16614 163.281214 
L 308.170237 163.474048 
L 310.076649 163.505301 
L 311.989231 163.391615 
L 314.000526 163.123553 
L 316.204108 162.667292 
L 318.142396 162.094291 
L 322.17527 160.541608 
L 326.698628 158.409469 
L 335.089308 154.101184 
L 339.196217 152.315391 
L 341.497484 151.528327 
L 343.598239 150.934728 
L 345.976627 150.464614 
L 348.187407 150.184931 
L 350.38996 150.081634 
L 352.602797 150.138293 
L 355.01923 150.39837 
L 359.42845 151.229077 
L 364.264403 152.570671 
L 369.184673 154.012592 
L 371.76563 154.662738 
L 374.058671 155.087322 
L 376.628317 155.37098 
L 378.92033 155.35852 
L 381.377894 155.054497 
L 383.872476 154.394817 
L 386.173744 153.44734 
L 388.662156 152.09298 
L 391.158795 150.40415 
L 393.736667 148.368267 
L 398.487273 144.027047 
L 398.487273 143.434091 
L 398.487273 143.434091 
" style="fill:none;stroke:#1f77b4;stroke-linecap:square;stroke-width:1.5;"/>
   </g>
   <g id="patch_8">
    <path d="M 57.6 213.662118 
L 57.6 135.393882 
" style="fill:none;stroke:#000000;stroke-linecap:square;stroke-linejoin:miter;stroke-width:0.8;"/>
   </g>
   <g id="patch_9">
    <path d="M 414.72 213.662118 
L 414.72 135.393882 
" style="fill:none;stroke:#000000;stroke-linecap:square;stroke-linejoin:miter;stroke-width:0.8;"/>
   </g>
   <g id="patch_10">
    <path d="M 57.6 213.662118 
L 414.72 213.662118 
" style="fill:none;stroke:#000000;stroke-linecap:square;stroke-linejoin:miter;stroke-width:0.8;"/>
   </g>
   <g id="patch_11">
    <path d="M 57.6 135.393882 
L 414.72 135.393882 
" style="fill:none;stroke:#000000;stroke-linecap:square;stroke-linejoin:miter;stroke-width:0.8;"/>
   </g>
  </g>
  <g id="axes_3">
   <g id="patch_12">
    <path d="M 57.6 307.584 
L 414.72 307.584 
L 414.72 229.315765 
L 57.6 229.315765 
z
" style="fill:#ffffff;"/>
   </g>
   <g id="matplotlib.axis_5">
    <g id="xtick_17">
     <g id="line2d_24">
      <g>
       <use style="stroke:#000000;stroke-width:0.8;" x="73.832727" xlink:href="#m1acc55c019" y="307.584"/>
      </g>
     </g>
     <g id="text_24">
      <!-- 0 -->
      <g transform="translate(70.651477 322.182437)scale(0.1 -0.1)">
       <use xlink:href="#DejaVuSans-30"/>
      </g>
     </g>
    </g>
    <g id="xtick_18">
     <g id="line2d_25">
      <g>
       <use style="stroke:#000000;stroke-width:0.8;" x="122.056101" xlink:href="#m1acc55c019" y="307.584"/>
      </g>
     </g>
     <g id="text_25">
      <!-- 2 -->
      <g transform="translate(118.874851 322.182437)scale(0.1 -0.1)">
       <use xlink:href="#DejaVuSans-32"/>
      </g>
     </g>
    </g>
    <g id="xtick_19">
     <g id="line2d_26">
      <g>
       <use style="stroke:#000000;stroke-width:0.8;" x="170.279476" xlink:href="#m1acc55c019" y="307.584"/>
      </g>
     </g>
     <g id="text_26">
      <!-- 4 -->
      <g transform="translate(167.098226 322.182437)scale(0.1 -0.1)">
       <use xlink:href="#DejaVuSans-34"/>
      </g>
     </g>
    </g>
    <g id="xtick_20">
     <g id="line2d_27">
      <g>
       <use style="stroke:#000000;stroke-width:0.8;" x="218.50285" xlink:href="#m1acc55c019" y="307.584"/>
      </g>
     </g>
     <g id="text_27">
      <!-- 6 -->
      <g transform="translate(215.3216 322.182437)scale(0.1 -0.1)">
       <use xlink:href="#DejaVuSans-36"/>
      </g>
     </g>
    </g>
    <g id="xtick_21">
     <g id="line2d_28">
      <g>
       <use style="stroke:#000000;stroke-width:0.8;" x="266.726224" xlink:href="#m1acc55c019" y="307.584"/>
      </g>
     </g>
     <g id="text_28">
      <!-- 8 -->
      <g transform="translate(263.544974 322.182437)scale(0.1 -0.1)">
       <use xlink:href="#DejaVuSans-38"/>
      </g>
     </g>
    </g>
    <g id="xtick_22">
     <g id="line2d_29">
      <g>
       <use style="stroke:#000000;stroke-width:0.8;" x="314.949598" xlink:href="#m1acc55c019" y="307.584"/>
      </g>
     </g>
     <g id="text_29">
      <!-- 10 -->
      <g transform="translate(308.587098 322.182437)scale(0.1 -0.1)">
       <use xlink:href="#DejaVuSans-31"/>
       <use x="63.623047" xlink:href="#DejaVuSans-30"/>
      </g>
     </g>
    </g>
    <g id="xtick_23">
     <g id="line2d_30">
      <g>
       <use style="stroke:#000000;stroke-width:0.8;" x="363.172972" xlink:href="#m1acc55c019" y="307.584"/>
      </g>
     </g>
     <g id="text_30">
      <!-- 12 -->
      <g transform="translate(356.810472 322.182437)scale(0.1 -0.1)">
       <use xlink:href="#DejaVuSans-31"/>
       <use x="63.623047" xlink:href="#DejaVuSans-32"/>
      </g>
     </g>
    </g>
    <g id="xtick_24">
     <g id="line2d_31">
      <g>
       <use style="stroke:#000000;stroke-width:0.8;" x="411.396346" xlink:href="#m1acc55c019" y="307.584"/>
      </g>
     </g>
     <g id="text_31">
      <!-- 14 -->
      <g transform="translate(405.033846 322.182437)scale(0.1 -0.1)">
       <use xlink:href="#DejaVuSans-31"/>
       <use x="63.623047" xlink:href="#DejaVuSans-34"/>
      </g>
     </g>
    </g>
    <g id="text_32">
     <!-- travel_distance -->
     <defs>
      <path d="M 41.109375 46.296875 
Q 39.59375 47.171875 37.8125 47.578125 
Q 36.03125 48 33.890625 48 
Q 26.265625 48 22.1875 43.046875 
Q 18.109375 38.09375 18.109375 28.8125 
L 18.109375 0 
L 9.078125 0 
L 9.078125 54.6875 
L 18.109375 54.6875 
L 18.109375 46.1875 
Q 20.953125 51.171875 25.484375 53.578125 
Q 30.03125 56 36.53125 56 
Q 37.453125 56 38.578125 55.875 
Q 39.703125 55.765625 41.0625 55.515625 
z
" id="DejaVuSans-72"/>
      <path d="M 2.984375 54.6875 
L 12.5 54.6875 
L 29.59375 8.796875 
L 46.6875 54.6875 
L 56.203125 54.6875 
L 35.6875 0 
L 23.484375 0 
z
" id="DejaVuSans-76"/>
      <path d="M 9.421875 75.984375 
L 18.40625 75.984375 
L 18.40625 0 
L 9.421875 0 
z
" id="DejaVuSans-6c"/>
      <path d="M 45.40625 46.390625 
L 45.40625 75.984375 
L 54.390625 75.984375 
L 54.390625 0 
L 45.40625 0 
L 45.40625 8.203125 
Q 42.578125 3.328125 38.25 0.953125 
Q 33.9375 -1.421875 27.875 -1.421875 
Q 17.96875 -1.421875 11.734375 6.484375 
Q 5.515625 14.40625 5.515625 27.296875 
Q 5.515625 40.1875 11.734375 48.09375 
Q 17.96875 56 27.875 56 
Q 33.9375 56 38.25 53.625 
Q 42.578125 51.265625 45.40625 46.390625 
z
M 14.796875 27.296875 
Q 14.796875 17.390625 18.875 11.75 
Q 22.953125 6.109375 30.078125 6.109375 
Q 37.203125 6.109375 41.296875 11.75 
Q 45.40625 17.390625 45.40625 27.296875 
Q 45.40625 37.203125 41.296875 42.84375 
Q 37.203125 48.484375 30.078125 48.484375 
Q 22.953125 48.484375 18.875 42.84375 
Q 14.796875 37.203125 14.796875 27.296875 
z
" id="DejaVuSans-64"/>
      <path d="M 9.421875 54.6875 
L 18.40625 54.6875 
L 18.40625 0 
L 9.421875 0 
z
M 9.421875 75.984375 
L 18.40625 75.984375 
L 18.40625 64.59375 
L 9.421875 64.59375 
z
" id="DejaVuSans-69"/>
      <path d="M 44.28125 53.078125 
L 44.28125 44.578125 
Q 40.484375 46.53125 36.375 47.5 
Q 32.28125 48.484375 27.875 48.484375 
Q 21.1875 48.484375 17.84375 46.4375 
Q 14.5 44.390625 14.5 40.28125 
Q 14.5 37.15625 16.890625 35.375 
Q 19.28125 33.59375 26.515625 31.984375 
L 29.59375 31.296875 
Q 39.15625 29.25 43.1875 25.515625 
Q 47.21875 21.78125 47.21875 15.09375 
Q 47.21875 7.46875 41.1875 3.015625 
Q 35.15625 -1.421875 24.609375 -1.421875 
Q 20.21875 -1.421875 15.453125 -0.5625 
Q 10.6875 0.296875 5.421875 2 
L 5.421875 11.28125 
Q 10.40625 8.6875 15.234375 7.390625 
Q 20.0625 6.109375 24.8125 6.109375 
Q 31.15625 6.109375 34.5625 8.28125 
Q 37.984375 10.453125 37.984375 14.40625 
Q 37.984375 18.0625 35.515625 20.015625 
Q 33.0625 21.96875 24.703125 23.78125 
L 21.578125 24.515625 
Q 13.234375 26.265625 9.515625 29.90625 
Q 5.8125 33.546875 5.8125 39.890625 
Q 5.8125 47.609375 11.28125 51.796875 
Q 16.75 56 26.8125 56 
Q 31.78125 56 36.171875 55.265625 
Q 40.578125 54.546875 44.28125 53.078125 
z
" id="DejaVuSans-73"/>
      <path d="M 54.890625 33.015625 
L 54.890625 0 
L 45.90625 0 
L 45.90625 32.71875 
Q 45.90625 40.484375 42.875 44.328125 
Q 39.84375 48.1875 33.796875 48.1875 
Q 26.515625 48.1875 22.3125 43.546875 
Q 18.109375 38.921875 18.109375 30.90625 
L 18.109375 0 
L 9.078125 0 
L 9.078125 54.6875 
L 18.109375 54.6875 
L 18.109375 46.1875 
Q 21.34375 51.125 25.703125 53.5625 
Q 30.078125 56 35.796875 56 
Q 45.21875 56 50.046875 50.171875 
Q 54.890625 44.34375 54.890625 33.015625 
z
" id="DejaVuSans-6e"/>
      <path d="M 48.78125 52.59375 
L 48.78125 44.1875 
Q 44.96875 46.296875 41.140625 47.34375 
Q 37.3125 48.390625 33.40625 48.390625 
Q 24.65625 48.390625 19.8125 42.84375 
Q 14.984375 37.3125 14.984375 27.296875 
Q 14.984375 17.28125 19.8125 11.734375 
Q 24.65625 6.203125 33.40625 6.203125 
Q 37.3125 6.203125 41.140625 7.25 
Q 44.96875 8.296875 48.78125 10.40625 
L 48.78125 2.09375 
Q 45.015625 0.34375 40.984375 -0.53125 
Q 36.96875 -1.421875 32.421875 -1.421875 
Q 20.0625 -1.421875 12.78125 6.34375 
Q 5.515625 14.109375 5.515625 27.296875 
Q 5.515625 40.671875 12.859375 48.328125 
Q 20.21875 56 33.015625 56 
Q 37.15625 56 41.109375 55.140625 
Q 45.0625 54.296875 48.78125 52.59375 
z
" id="DejaVuSans-63"/>
     </defs>
     <g transform="translate(197.968594 335.860562)scale(0.1 -0.1)">
      <use xlink:href="#DejaVuSans-74"/>
      <use x="39.208984" xlink:href="#DejaVuSans-72"/>
      <use x="80.322266" xlink:href="#DejaVuSans-61"/>
      <use x="141.601562" xlink:href="#DejaVuSans-76"/>
      <use x="200.78125" xlink:href="#DejaVuSans-65"/>
      <use x="262.304688" xlink:href="#DejaVuSans-6c"/>
      <use x="290.087891" xlink:href="#DejaVuSans-5f"/>
      <use x="340.087891" xlink:href="#DejaVuSans-64"/>
      <use x="403.564453" xlink:href="#DejaVuSans-69"/>
      <use x="431.347656" xlink:href="#DejaVuSans-73"/>
      <use x="483.447266" xlink:href="#DejaVuSans-74"/>
      <use x="522.65625" xlink:href="#DejaVuSans-61"/>
      <use x="583.935547" xlink:href="#DejaVuSans-6e"/>
      <use x="647.314453" xlink:href="#DejaVuSans-63"/>
      <use x="702.294922" xlink:href="#DejaVuSans-65"/>
     </g>
    </g>
   </g>
   <g id="matplotlib.axis_6">
    <g id="ytick_6">
     <g id="line2d_32">
      <g>
       <use style="stroke:#000000;stroke-width:0.8;" x="57.6" xlink:href="#m7c81334b43" y="307.364361"/>
      </g>
     </g>
     <g id="text_33">
      <!-- 0 -->
      <g transform="translate(44.2375 311.16358)scale(0.1 -0.1)">
       <use xlink:href="#DejaVuSans-30"/>
      </g>
     </g>
    </g>
    <g id="ytick_7">
     <g id="line2d_33">
      <g>
       <use style="stroke:#000000;stroke-width:0.8;" x="57.6" xlink:href="#m7c81334b43" y="277.570365"/>
      </g>
     </g>
     <g id="text_34">
      <!-- 2 -->
      <g transform="translate(44.2375 281.369584)scale(0.1 -0.1)">
       <use xlink:href="#DejaVuSans-32"/>
      </g>
     </g>
    </g>
    <g id="ytick_8">
     <g id="line2d_34">
      <g>
       <use style="stroke:#000000;stroke-width:0.8;" x="57.6" xlink:href="#m7c81334b43" y="247.776369"/>
      </g>
     </g>
     <g id="text_35">
      <!-- 4 -->
      <g transform="translate(44.2375 251.575588)scale(0.1 -0.1)">
       <use xlink:href="#DejaVuSans-34"/>
      </g>
     </g>
    </g>
    <g id="text_36">
     <!-- thegma_theta -->
     <g transform="translate(37.879687 303.493632)rotate(-90)scale(0.1 -0.1)">
      <use xlink:href="#DejaVuSans-74"/>
      <use x="39.208984" xlink:href="#DejaVuSans-68"/>
      <use x="102.587891" xlink:href="#DejaVuSans-65"/>
      <use x="164.111328" xlink:href="#DejaVuSans-67"/>
      <use x="227.587891" xlink:href="#DejaVuSans-6d"/>
      <use x="325" xlink:href="#DejaVuSans-61"/>
      <use x="386.279297" xlink:href="#DejaVuSans-5f"/>
      <use x="436.279297" xlink:href="#DejaVuSans-74"/>
      <use x="475.488281" xlink:href="#DejaVuSans-68"/>
      <use x="538.867188" xlink:href="#DejaVuSans-65"/>
      <use x="600.390625" xlink:href="#DejaVuSans-74"/>
      <use x="639.599609" xlink:href="#DejaVuSans-61"/>
     </g>
    </g>
   </g>
   <g id="line2d_35">
    <path clip-path="url(#p02a92574e1)" d="M 73.832727 232.873412 
L 73.832727 304.009139 
L 74.114473 304.026353 
L 74.357145 303.895924 
L 76.322168 303.306181 
L 77.377173 302.990336 
L 80.761208 302.242434 
L 82.407468 301.967777 
L 83.848074 301.72642 
L 84.660407 301.690877 
L 86.677872 301.386114 
L 89.750341 300.956088 
L 90.505091 301.08648 
L 97.474703 300.356151 
L 105.411916 299.63338 
L 106.035048 301.063147 
L 110.476144 300.653786 
L 125.100195 299.576913 
L 127.680124 299.407753 
L 128.871888 299.572069 
L 135.453842 299.183035 
L 152.182761 298.356688 
L 153.121571 301.875931 
L 163.340515 301.190816 
L 164.297834 302.480886 
L 187.731071 300.98553 
L 191.931552 300.780081 
L 193.191182 302.109446 
L 198.174177 301.781785 
L 216.282005 301.008283 
L 256.718709 299.396842 
L 294.42947 298.30212 
L 296.53331 301.728702 
L 322.17527 300.783976 
L 374.058671 299.381891 
L 398.487273 298.792014 
L 398.487273 298.638056 
L 398.487273 298.638056 
" style="fill:none;stroke:#1f77b4;stroke-linecap:square;stroke-width:1.5;"/>
   </g>
   <g id="patch_13">
    <path d="M 57.6 307.584 
L 57.6 229.315765 
" style="fill:none;stroke:#000000;stroke-linecap:square;stroke-linejoin:miter;stroke-width:0.8;"/>
   </g>
   <g id="patch_14">
    <path d="M 414.72 307.584 
L 414.72 229.315765 
" style="fill:none;stroke:#000000;stroke-linecap:square;stroke-linejoin:miter;stroke-width:0.8;"/>
   </g>
   <g id="patch_15">
    <path d="M 57.6 307.584 
L 414.72 307.584 
" style="fill:none;stroke:#000000;stroke-linecap:square;stroke-linejoin:miter;stroke-width:0.8;"/>
   </g>
   <g id="patch_16">
    <path d="M 57.6 229.315765 
L 414.72 229.315765 
" style="fill:none;stroke:#000000;stroke-linecap:square;stroke-linejoin:miter;stroke-width:0.8;"/>
   </g>
  </g>
 </g>
 <defs>
  <clipPath id="p4d557fc218">
   <rect height="78.268235" width="357.12" x="57.6" y="41.472"/>
  </clipPath>
  <clipPath id="p16b4bb1d84">
   <rect height="78.268235" width="357.12" x="57.6" y="135.393882"/>
  </clipPath>
  <clipPath id="p02a92574e1">
   <rect height="78.268235" width="357.12" x="57.6" y="229.315765"/>
  </clipPath>
 </defs>
</svg>
