<?xml version="1.0" encoding="utf-8" standalone="no"?>
<!DOCTYPE svg PUBLIC "-//W3C//DTD SVG 1.1//EN"
  "http://www.w3.org/Graphics/SVG/1.1/DTD/svg11.dtd">
<!-- Created with matplotlib (http://matplotlib.org/) -->
<svg height="432pt" version="1.1" viewBox="0 0 576 432" width="576pt" xmlns="http://www.w3.org/2000/svg" xmlns:xlink="http://www.w3.org/1999/xlink">
 <defs>
  <style type="text/css">
*{stroke-linecap:butt;stroke-linejoin:round;stroke-miterlimit:100000;}
  </style>
 </defs>
 <g id="figure_1">
  <g id="patch_1">
   <path d="M 0 432 
L 576 432 
L 576 0 
L 0 0 
z
" style="fill:#ffffff;"/>
  </g>
  <g id="axes_1">
   <g id="patch_2">
    <path d="M 72 144.847059 
L 518.4 144.847059 
L 518.4 43.2 
L 72 43.2 
z
" style="fill:#ffffff;"/>
   </g>
   <g id="line2d_1">
    <path clip-path="url(#p4b548a24a8)" d="M 72 65.785331 
L 72 65.261426 
L 72.32744 65.211277 
L 72.898557 64.932918 
L 73.667661 64.166071 
L 74.280659 63.240245 
L 75.118297 61.539297 
L 76.245301 58.524625 
L 77.48272 54.338205 
L 77.48272 109.54789 
L 77.48272 109.540989 
L 78.107141 112.147164 
L 78.301321 133.386947 
L 78.301321 133.365761 
L 79.542548 133.090917 
L 80.757123 132.697906 
L 80.757123 132.677799 
L 82.234411 132.08366 
L 83.68124 131.36355 
L 83.68124 131.345442 
L 85.143299 130.485568 
L 87.062251 129.244357 
L 90.020635 127.004144 
L 90.020635 126.99049 
L 90.694553 126.464871 
L 90.694553 126.66202 
L 91.330396 126.184167 
L 91.330396 126.339328 
L 92.209916 125.651668 
L 92.209916 128.161344 
L 92.209916 128.146836 
L 94.600991 126.874723 
L 94.600991 126.861243 
L 97.197669 125.390658 
L 97.197669 125.378188 
L 100.05706 123.680068 
L 100.05706 123.657156 
L 102.912643 121.858233 
L 104.230019 121.023934 
L 104.230019 122.57317 
L 104.922974 122.187916 
L 105.15142 122.919833 
L 105.15142 122.897701 
L 108.521009 121.103413 
L 113.996114 117.972193 
L 117.944434 115.636185 
L 117.944434 119.623579 
L 117.944434 119.613933 
L 119.105705 119.090744 
L 119.105705 122.747233 
L 119.105705 122.736287 
L 122.121201 121.787548 
L 125.190002 120.769404 
L 128.727118 119.544812 
L 128.727118 119.52566 
L 131.788303 118.387714 
L 132.485065 118.129419 
L 132.485065 121.402681 
L 136.075486 120.504894 
L 136.075486 120.485015 
L 139.132864 119.641756 
L 142.270198 118.718057 
L 145.662631 117.655752 
L 145.662631 120.240702 
L 149.081717 119.488091 
L 149.081717 119.478633 
L 152.763516 118.593795 
L 157.701771 117.223276 
L 159.388469 116.738509 
L 159.388469 119.001321 
L 159.388469 118.99202 
L 162.624797 118.328464 
L 166.093379 117.550837 
L 166.093379 117.54204 
L 169.565769 116.680676 
L 169.565769 116.672169 
L 171.777894 116.088924 
L 171.777894 117.004906 
L 171.777894 116.996302 
L 173.270412 116.630095 
L 173.270412 117.906123 
L 176.746609 117.232338 
L 180.47029 116.442261 
L 180.47029 116.425316 
L 184.007406 115.575327 
L 186.48986 114.933057 
L 186.48986 116.613334 
L 190.065051 115.939505 
L 190.065051 115.931195 
L 193.784924 115.159091 
L 193.784924 115.150985 
L 197.006022 114.394665 
L 198.529 114.029204 
L 198.784099 114.759579 
L 198.784099 114.743636 
L 199.770227 114.532875 
L 199.770227 115.627304 
L 199.770227 115.619109 
L 200.531716 115.506627 
L 200.531716 130.016912 
L 200.531716 130.000748 
L 203.048437 129.4926 
L 207.861047 128.269918 
L 207.861047 128.25541 
L 210.381575 127.546253 
L 210.381575 127.532341 
L 212.14823 127.002801 
L 212.14823 133.401776 
L 212.924948 133.285154 
L 212.924948 135.548906 
L 215.460706 135.250733 
L 215.460706 135.200401 
L 216.995107 134.940804 
L 218.521892 134.64967 
L 220.277124 134.296404 
L 220.277124 134.273504 
L 221.807717 133.914347 
L 223.593408 133.478097 
L 223.593408 133.456819 
L 225.375292 132.960037 
L 227.682604 132.41466 
L 227.930088 132.723407 
L 227.930088 132.683254 
L 228.718229 132.708249 
L 228.718229 132.66799 
L 231.02554 132.14501 
L 231.02554 132.106478 
L 233.062523 131.575819 
L 235.655393 130.892724 
L 235.655393 130.857616 
L 237.452507 130.361837 
L 237.452507 133.333953 
L 237.452507 133.312726 
L 239.756011 132.610852 
L 240.022532 132.522692 
L 240.022532 132.599528 
L 241.061964 132.280657 
L 241.061964 132.736589 
L 241.834875 132.555479 
L 241.834875 132.792368 
L 241.834875 132.772046 
L 244.43536 132.1098 
L 249.41169 130.625729 
L 249.41169 130.608487 
L 251.715194 129.872032 
L 254.330909 129.02695 
L 254.330909 129.273812 
L 254.330909 129.257988 
L 256.150867 128.682018 
L 256.150867 129.558808 
L 256.150867 129.542593 
L 258.755159 128.821289 
L 258.755159 128.805809 
L 261.397526 128.034414 
L 267.439941 126.072528 
L 267.439941 126.059327 
L 268.228082 125.786963 
L 268.997185 126.253452 
L 268.997185 126.226776 
L 270.04804 125.912993 
L 270.04804 127.149512 
L 270.04804 127.121413 
L 273.219641 126.315352 
L 273.219641 126.301925 
L 275.820126 125.573924 
L 278.458685 124.784442 
L 281.824466 123.752301 
L 281.824466 123.740504 
L 282.886743 123.40508 
L 282.886743 124.254622 
L 282.886743 124.242493 
L 283.952828 123.938176 
L 284.718124 125.146863 
L 284.718124 125.134223 
L 284.718124 131.876669 
L 287.341454 131.327642 
L 292.610957 129.991879 
L 292.610957 129.958171 
L 295.253324 129.242229 
L 297.884268 128.477553 
L 297.884268 129.337793 
L 298.691446 129.156215 
L 298.950352 129.497762 
L 298.950352 129.465268 
L 301.878277 128.830476 
L 301.878277 128.814913 
L 304.783357 128.128896 
L 304.783357 128.114 
L 310.372686 126.569432 
L 310.372686 126.851409 
L 311.12656 126.665274 
L 311.393081 126.798219 
L 311.393081 126.784418 
L 312.219297 126.585447 
L 312.219297 127.248034 
L 312.470588 127.188719 
L 312.470588 127.520098 
L 312.470588 127.505752 
L 315.649804 126.841606 
L 321.486617 125.388592 
L 324.38789 124.625091 
L 324.658218 124.879823 
L 324.658218 124.8549 
L 325.74334 124.821168 
L 325.74334 124.796322 
L 326.546711 124.609128 
L 326.546711 125.333814 
L 326.546711 125.321043 
L 329.463214 124.662892 
L 332.966063 123.832797 
L 338.269833 122.378789 
L 338.269833 122.367708 
L 339.084626 122.153032 
L 339.084626 122.774012 
L 339.084626 122.7627 
L 340.938852 122.272467 
L 340.938852 123.442989 
L 343.6231 122.859793 
L 346.577677 122.194902 
L 350.308973 121.288264 
L 350.308973 121.267005 
L 353.743288 120.358243 
L 354.017424 121.148555 
L 354.017424 121.12732 
L 355.053049 120.890189 
L 355.053049 130.97676 
L 355.053049 130.958604 
L 355.867842 130.824435 
L 355.867842 131.03678 
L 355.867842 131.018489 
L 358.003819 130.600496 
L 360.695682 130.065285 
L 360.695682 130.031101 
L 362.877348 129.533953 
L 362.877348 129.517427 
L 365.542559 128.876435 
L 365.542559 128.860599 
L 368.20777 128.182444 
L 368.20777 128.416796 
L 369.80309 128.02441 
L 370.065803 128.617127 
L 370.065803 128.585996 
L 372.734822 127.99 
L 372.734822 127.97499 
L 375.700821 127.273616 
L 381.510982 125.664878 
L 381.510982 125.638584 
L 382.33339 125.407083 
L 382.592296 125.892471 
L 382.592296 125.879156 
L 383.662188 125.582784 
L 384.454136 126.421504 
L 384.454136 126.82707 
L 384.454136 126.813122 
L 387.180267 126.271487 
L 390.428017 125.597303 
L 396.009731 124.240035 
L 396.268637 124.519083 
L 396.268637 124.494465 
L 398.693979 123.904836 
L 398.952886 125.113026 
L 401.89604 124.565675 
L 405.063834 123.93553 
L 405.063834 123.923459 
L 408.509572 123.184507 
L 411.167168 122.536183 
L 411.448919 122.834701 
L 411.448919 122.823211 
L 413.573473 122.328902 
L 413.573473 131.210517 
L 413.573473 131.173252 
L 414.376844 134.016318 
L 414.376844 133.969358 
L 417.057285 133.44391 
L 423.191078 131.832677 
L 423.191078 131.793505 
L 428.243557 130.510739 
L 428.243557 131.128055 
L 428.243557 131.090694 
L 430.908768 130.438632 
L 430.908768 130.403007 
L 434.327854 129.52325 
L 434.327854 129.473059 
L 436.981643 128.705983 
L 439.894338 127.825067 
L 439.894338 127.794961 
L 440.678671 127.540264 
L 440.678671 128.089447 
L 442.540512 127.572938 
L 442.540512 128.61186 
L 442.540512 128.596076 
L 443.328653 128.403075 
L 443.328653 128.856598 
L 446.534521 128.190991 
L 446.534521 128.160116 
L 453.932386 126.313638 
L 453.932386 126.299752 
L 454.697683 126.101718 
L 454.964204 126.420991 
L 454.964204 126.407071 
L 457.11541 125.848029 
L 457.11541 126.733338 
L 457.11541 126.705104 
L 460.842898 125.910045 
L 466.455072 124.458656 
L 466.455072 124.44603 
L 469.394419 123.63002 
L 471.774072 122.954633 
L 471.774072 131.517061 
L 471.774072 131.478582 
L 474.412631 130.896316 
L 476.849395 130.302859 
L 476.849395 130.25003 
L 479.510799 129.566484 
L 481.924719 128.872205 
L 484.053081 128.241141 
L 484.053081 128.793536 
L 486.714484 128.040671 
L 486.714484 129.004439 
L 489.356851 128.389984 
L 489.356851 128.374359 
L 492.303813 127.656193 
L 498.16347 126.00792 
L 498.16347 125.980601 
L 498.993493 125.651241 
L 498.993493 123.626349 
L 498.993493 123.626349 
" style="fill:none;stroke:#0000ff;stroke-linecap:square;"/>
   </g>
   <g id="patch_3">
    <path d="M 72 43.2 
L 518.4 43.2 
" style="fill:none;stroke:#000000;stroke-linecap:square;stroke-linejoin:miter;"/>
   </g>
   <g id="patch_4">
    <path d="M 518.4 144.847059 
L 518.4 43.2 
" style="fill:none;stroke:#000000;stroke-linecap:square;stroke-linejoin:miter;"/>
   </g>
   <g id="patch_5">
    <path d="M 72 144.847059 
L 518.4 144.847059 
" style="fill:none;stroke:#000000;stroke-linecap:square;stroke-linejoin:miter;"/>
   </g>
   <g id="patch_6">
    <path d="M 72 144.847059 
L 72 43.2 
" style="fill:none;stroke:#000000;stroke-linecap:square;stroke-linejoin:miter;"/>
   </g>
   <g id="matplotlib.axis_1">
    <g id="xtick_1">
     <g id="line2d_2">
      <defs>
       <path d="M 0 0 
L 0 -4 
" id="m2a3dbc33e2" style="stroke:#000000;stroke-width:0.5;"/>
      </defs>
      <g>
       <use style="stroke:#000000;stroke-width:0.5;" x="72.0" xlink:href="#m2a3dbc33e2" y="144.847058824"/>
      </g>
     </g>
     <g id="line2d_3">
      <defs>
       <path d="M 0 0 
L 0 4 
" id="mbb2e9c619b" style="stroke:#000000;stroke-width:0.5;"/>
      </defs>
      <g>
       <use style="stroke:#000000;stroke-width:0.5;" x="72.0" xlink:href="#mbb2e9c619b" y="43.2"/>
      </g>
     </g>
     <g id="text_1">
      <!-- 0 -->
      <defs>
       <path d="M 31.78125 66.40625 
Q 24.171875 66.40625 20.328125 58.90625 
Q 16.5 51.421875 16.5 36.375 
Q 16.5 21.390625 20.328125 13.890625 
Q 24.171875 6.390625 31.78125 6.390625 
Q 39.453125 6.390625 43.28125 13.890625 
Q 47.125 21.390625 47.125 36.375 
Q 47.125 51.421875 43.28125 58.90625 
Q 39.453125 66.40625 31.78125 66.40625 
M 31.78125 74.21875 
Q 44.046875 74.21875 50.515625 64.515625 
Q 56.984375 54.828125 56.984375 36.375 
Q 56.984375 17.96875 50.515625 8.265625 
Q 44.046875 -1.421875 31.78125 -1.421875 
Q 19.53125 -1.421875 13.0625 8.265625 
Q 6.59375 17.96875 6.59375 36.375 
Q 6.59375 54.828125 13.0625 64.515625 
Q 19.53125 74.21875 31.78125 74.21875 
" id="BitstreamVeraSans-Roman-30"/>
      </defs>
      <g transform="translate(68.1825 157.965183824)scale(0.12 -0.12)">
       <use xlink:href="#BitstreamVeraSans-Roman-30"/>
      </g>
     </g>
    </g>
    <g id="xtick_2">
     <g id="line2d_4">
      <g>
       <use style="stroke:#000000;stroke-width:0.5;" x="161.28" xlink:href="#m2a3dbc33e2" y="144.847058824"/>
      </g>
     </g>
     <g id="line2d_5">
      <g>
       <use style="stroke:#000000;stroke-width:0.5;" x="161.28" xlink:href="#mbb2e9c619b" y="43.2"/>
      </g>
     </g>
     <g id="text_2">
      <!-- 1 -->
      <defs>
       <path d="M 12.40625 8.296875 
L 28.515625 8.296875 
L 28.515625 63.921875 
L 10.984375 60.40625 
L 10.984375 69.390625 
L 28.421875 72.90625 
L 38.28125 72.90625 
L 38.28125 8.296875 
L 54.390625 8.296875 
L 54.390625 0 
L 12.40625 0 
z
" id="BitstreamVeraSans-Roman-31"/>
      </defs>
      <g transform="translate(157.4625 157.965183824)scale(0.12 -0.12)">
       <use xlink:href="#BitstreamVeraSans-Roman-31"/>
      </g>
     </g>
    </g>
    <g id="xtick_3">
     <g id="line2d_6">
      <g>
       <use style="stroke:#000000;stroke-width:0.5;" x="250.56" xlink:href="#m2a3dbc33e2" y="144.847058824"/>
      </g>
     </g>
     <g id="line2d_7">
      <g>
       <use style="stroke:#000000;stroke-width:0.5;" x="250.56" xlink:href="#mbb2e9c619b" y="43.2"/>
      </g>
     </g>
     <g id="text_3">
      <!-- 2 -->
      <defs>
       <path d="M 19.1875 8.296875 
L 53.609375 8.296875 
L 53.609375 0 
L 7.328125 0 
L 7.328125 8.296875 
Q 12.9375 14.109375 22.625 23.890625 
Q 32.328125 33.6875 34.8125 36.53125 
Q 39.546875 41.84375 41.421875 45.53125 
Q 43.3125 49.21875 43.3125 52.78125 
Q 43.3125 58.59375 39.234375 62.25 
Q 35.15625 65.921875 28.609375 65.921875 
Q 23.96875 65.921875 18.8125 64.3125 
Q 13.671875 62.703125 7.8125 59.421875 
L 7.8125 69.390625 
Q 13.765625 71.78125 18.9375 73 
Q 24.125 74.21875 28.421875 74.21875 
Q 39.75 74.21875 46.484375 68.546875 
Q 53.21875 62.890625 53.21875 53.421875 
Q 53.21875 48.921875 51.53125 44.890625 
Q 49.859375 40.875 45.40625 35.40625 
Q 44.1875 33.984375 37.640625 27.21875 
Q 31.109375 20.453125 19.1875 8.296875 
" id="BitstreamVeraSans-Roman-32"/>
      </defs>
      <g transform="translate(246.7425 157.965183824)scale(0.12 -0.12)">
       <use xlink:href="#BitstreamVeraSans-Roman-32"/>
      </g>
     </g>
    </g>
    <g id="xtick_4">
     <g id="line2d_8">
      <g>
       <use style="stroke:#000000;stroke-width:0.5;" x="339.84" xlink:href="#m2a3dbc33e2" y="144.847058824"/>
      </g>
     </g>
     <g id="line2d_9">
      <g>
       <use style="stroke:#000000;stroke-width:0.5;" x="339.84" xlink:href="#mbb2e9c619b" y="43.2"/>
      </g>
     </g>
     <g id="text_4">
      <!-- 3 -->
      <defs>
       <path d="M 40.578125 39.3125 
Q 47.65625 37.796875 51.625 33 
Q 55.609375 28.21875 55.609375 21.1875 
Q 55.609375 10.40625 48.1875 4.484375 
Q 40.765625 -1.421875 27.09375 -1.421875 
Q 22.515625 -1.421875 17.65625 -0.515625 
Q 12.796875 0.390625 7.625 2.203125 
L 7.625 11.71875 
Q 11.71875 9.328125 16.59375 8.109375 
Q 21.484375 6.890625 26.8125 6.890625 
Q 36.078125 6.890625 40.9375 10.546875 
Q 45.796875 14.203125 45.796875 21.1875 
Q 45.796875 27.640625 41.28125 31.265625 
Q 36.765625 34.90625 28.71875 34.90625 
L 20.21875 34.90625 
L 20.21875 43.015625 
L 29.109375 43.015625 
Q 36.375 43.015625 40.234375 45.921875 
Q 44.09375 48.828125 44.09375 54.296875 
Q 44.09375 59.90625 40.109375 62.90625 
Q 36.140625 65.921875 28.71875 65.921875 
Q 24.65625 65.921875 20.015625 65.03125 
Q 15.375 64.15625 9.8125 62.3125 
L 9.8125 71.09375 
Q 15.4375 72.65625 20.34375 73.4375 
Q 25.25 74.21875 29.59375 74.21875 
Q 40.828125 74.21875 47.359375 69.109375 
Q 53.90625 64.015625 53.90625 55.328125 
Q 53.90625 49.265625 50.4375 45.09375 
Q 46.96875 40.921875 40.578125 39.3125 
" id="BitstreamVeraSans-Roman-33"/>
      </defs>
      <g transform="translate(336.0225 157.965183824)scale(0.12 -0.12)">
       <use xlink:href="#BitstreamVeraSans-Roman-33"/>
      </g>
     </g>
    </g>
    <g id="xtick_5">
     <g id="line2d_10">
      <g>
       <use style="stroke:#000000;stroke-width:0.5;" x="429.12" xlink:href="#m2a3dbc33e2" y="144.847058824"/>
      </g>
     </g>
     <g id="line2d_11">
      <g>
       <use style="stroke:#000000;stroke-width:0.5;" x="429.12" xlink:href="#mbb2e9c619b" y="43.2"/>
      </g>
     </g>
     <g id="text_5">
      <!-- 4 -->
      <defs>
       <path d="M 37.796875 64.3125 
L 12.890625 25.390625 
L 37.796875 25.390625 
z
M 35.203125 72.90625 
L 47.609375 72.90625 
L 47.609375 25.390625 
L 58.015625 25.390625 
L 58.015625 17.1875 
L 47.609375 17.1875 
L 47.609375 0 
L 37.796875 0 
L 37.796875 17.1875 
L 4.890625 17.1875 
L 4.890625 26.703125 
z
" id="BitstreamVeraSans-Roman-34"/>
      </defs>
      <g transform="translate(425.3025 157.965183824)scale(0.12 -0.12)">
       <use xlink:href="#BitstreamVeraSans-Roman-34"/>
      </g>
     </g>
    </g>
    <g id="xtick_6">
     <g id="line2d_12">
      <g>
       <use style="stroke:#000000;stroke-width:0.5;" x="518.4" xlink:href="#m2a3dbc33e2" y="144.847058824"/>
      </g>
     </g>
     <g id="line2d_13">
      <g>
       <use style="stroke:#000000;stroke-width:0.5;" x="518.4" xlink:href="#mbb2e9c619b" y="43.2"/>
      </g>
     </g>
     <g id="text_6">
      <!-- 5 -->
      <defs>
       <path d="M 10.796875 72.90625 
L 49.515625 72.90625 
L 49.515625 64.59375 
L 19.828125 64.59375 
L 19.828125 46.734375 
Q 21.96875 47.46875 24.109375 47.828125 
Q 26.265625 48.1875 28.421875 48.1875 
Q 40.625 48.1875 47.75 41.5 
Q 54.890625 34.8125 54.890625 23.390625 
Q 54.890625 11.625 47.5625 5.09375 
Q 40.234375 -1.421875 26.90625 -1.421875 
Q 22.3125 -1.421875 17.546875 -0.640625 
Q 12.796875 0.140625 7.71875 1.703125 
L 7.71875 11.625 
Q 12.109375 9.234375 16.796875 8.0625 
Q 21.484375 6.890625 26.703125 6.890625 
Q 35.15625 6.890625 40.078125 11.328125 
Q 45.015625 15.765625 45.015625 23.390625 
Q 45.015625 31 40.078125 35.4375 
Q 35.15625 39.890625 26.703125 39.890625 
Q 22.75 39.890625 18.8125 39.015625 
Q 14.890625 38.140625 10.796875 36.28125 
z
" id="BitstreamVeraSans-Roman-35"/>
      </defs>
      <g transform="translate(514.5825 157.965183824)scale(0.12 -0.12)">
       <use xlink:href="#BitstreamVeraSans-Roman-35"/>
      </g>
     </g>
    </g>
   </g>
   <g id="matplotlib.axis_2">
    <g id="ytick_1">
     <g id="line2d_14">
      <defs>
       <path d="M 0 0 
L 4 0 
" id="m2a9d966803" style="stroke:#000000;stroke-width:0.5;"/>
      </defs>
      <g>
       <use style="stroke:#000000;stroke-width:0.5;" x="72.0" xlink:href="#m2a9d966803" y="144.847058824"/>
      </g>
     </g>
     <g id="line2d_15">
      <defs>
       <path d="M 0 0 
L -4 0 
" id="mf9b4dc8095" style="stroke:#000000;stroke-width:0.5;"/>
      </defs>
      <g>
       <use style="stroke:#000000;stroke-width:0.5;" x="518.4" xlink:href="#mf9b4dc8095" y="144.847058824"/>
      </g>
     </g>
     <g id="text_7">
      <!-- 0.000 -->
      <defs>
       <path d="M 10.6875 12.40625 
L 21 12.40625 
L 21 0 
L 10.6875 0 
z
" id="BitstreamVeraSans-Roman-2e"/>
      </defs>
      <g transform="translate(33.64625 148.158308824)scale(0.12 -0.12)">
       <use xlink:href="#BitstreamVeraSans-Roman-30"/>
       <use x="63.623046875" xlink:href="#BitstreamVeraSans-Roman-2e"/>
       <use x="95.41015625" xlink:href="#BitstreamVeraSans-Roman-30"/>
       <use x="159.033203125" xlink:href="#BitstreamVeraSans-Roman-30"/>
       <use x="222.65625" xlink:href="#BitstreamVeraSans-Roman-30"/>
      </g>
     </g>
    </g>
    <g id="ytick_2">
     <g id="line2d_16">
      <g>
       <use style="stroke:#000000;stroke-width:0.5;" x="72.0" xlink:href="#m2a9d966803" y="133.552941176"/>
      </g>
     </g>
     <g id="line2d_17">
      <g>
       <use style="stroke:#000000;stroke-width:0.5;" x="518.4" xlink:href="#mf9b4dc8095" y="133.552941176"/>
      </g>
     </g>
     <g id="text_8">
      <!-- 0.001 -->
      <g transform="translate(33.64625 136.864191176)scale(0.12 -0.12)">
       <use xlink:href="#BitstreamVeraSans-Roman-30"/>
       <use x="63.623046875" xlink:href="#BitstreamVeraSans-Roman-2e"/>
       <use x="95.41015625" xlink:href="#BitstreamVeraSans-Roman-30"/>
       <use x="159.033203125" xlink:href="#BitstreamVeraSans-Roman-30"/>
       <use x="222.65625" xlink:href="#BitstreamVeraSans-Roman-31"/>
      </g>
     </g>
    </g>
    <g id="ytick_3">
     <g id="line2d_18">
      <g>
       <use style="stroke:#000000;stroke-width:0.5;" x="72.0" xlink:href="#m2a9d966803" y="122.258823529"/>
      </g>
     </g>
     <g id="line2d_19">
      <g>
       <use style="stroke:#000000;stroke-width:0.5;" x="518.4" xlink:href="#mf9b4dc8095" y="122.258823529"/>
      </g>
     </g>
     <g id="text_9">
      <!-- 0.002 -->
      <g transform="translate(33.64625 125.570073529)scale(0.12 -0.12)">
       <use xlink:href="#BitstreamVeraSans-Roman-30"/>
       <use x="63.623046875" xlink:href="#BitstreamVeraSans-Roman-2e"/>
       <use x="95.41015625" xlink:href="#BitstreamVeraSans-Roman-30"/>
       <use x="159.033203125" xlink:href="#BitstreamVeraSans-Roman-30"/>
       <use x="222.65625" xlink:href="#BitstreamVeraSans-Roman-32"/>
      </g>
     </g>
    </g>
    <g id="ytick_4">
     <g id="line2d_20">
      <g>
       <use style="stroke:#000000;stroke-width:0.5;" x="72.0" xlink:href="#m2a9d966803" y="110.964705882"/>
      </g>
     </g>
     <g id="line2d_21">
      <g>
       <use style="stroke:#000000;stroke-width:0.5;" x="518.4" xlink:href="#mf9b4dc8095" y="110.964705882"/>
      </g>
     </g>
     <g id="text_10">
      <!-- 0.003 -->
      <g transform="translate(33.64625 114.275955882)scale(0.12 -0.12)">
       <use xlink:href="#BitstreamVeraSans-Roman-30"/>
       <use x="63.623046875" xlink:href="#BitstreamVeraSans-Roman-2e"/>
       <use x="95.41015625" xlink:href="#BitstreamVeraSans-Roman-30"/>
       <use x="159.033203125" xlink:href="#BitstreamVeraSans-Roman-30"/>
       <use x="222.65625" xlink:href="#BitstreamVeraSans-Roman-33"/>
      </g>
     </g>
    </g>
    <g id="ytick_5">
     <g id="line2d_22">
      <g>
       <use style="stroke:#000000;stroke-width:0.5;" x="72.0" xlink:href="#m2a9d966803" y="99.6705882353"/>
      </g>
     </g>
     <g id="line2d_23">
      <g>
       <use style="stroke:#000000;stroke-width:0.5;" x="518.4" xlink:href="#mf9b4dc8095" y="99.6705882353"/>
      </g>
     </g>
     <g id="text_11">
      <!-- 0.004 -->
      <g transform="translate(33.64625 102.981838235)scale(0.12 -0.12)">
       <use xlink:href="#BitstreamVeraSans-Roman-30"/>
       <use x="63.623046875" xlink:href="#BitstreamVeraSans-Roman-2e"/>
       <use x="95.41015625" xlink:href="#BitstreamVeraSans-Roman-30"/>
       <use x="159.033203125" xlink:href="#BitstreamVeraSans-Roman-30"/>
       <use x="222.65625" xlink:href="#BitstreamVeraSans-Roman-34"/>
      </g>
     </g>
    </g>
    <g id="ytick_6">
     <g id="line2d_24">
      <g>
       <use style="stroke:#000000;stroke-width:0.5;" x="72.0" xlink:href="#m2a9d966803" y="88.3764705882"/>
      </g>
     </g>
     <g id="line2d_25">
      <g>
       <use style="stroke:#000000;stroke-width:0.5;" x="518.4" xlink:href="#mf9b4dc8095" y="88.3764705882"/>
      </g>
     </g>
     <g id="text_12">
      <!-- 0.005 -->
      <g transform="translate(33.64625 91.6877205882)scale(0.12 -0.12)">
       <use xlink:href="#BitstreamVeraSans-Roman-30"/>
       <use x="63.623046875" xlink:href="#BitstreamVeraSans-Roman-2e"/>
       <use x="95.41015625" xlink:href="#BitstreamVeraSans-Roman-30"/>
       <use x="159.033203125" xlink:href="#BitstreamVeraSans-Roman-30"/>
       <use x="222.65625" xlink:href="#BitstreamVeraSans-Roman-35"/>
      </g>
     </g>
    </g>
    <g id="ytick_7">
     <g id="line2d_26">
      <g>
       <use style="stroke:#000000;stroke-width:0.5;" x="72.0" xlink:href="#m2a9d966803" y="77.0823529412"/>
      </g>
     </g>
     <g id="line2d_27">
      <g>
       <use style="stroke:#000000;stroke-width:0.5;" x="518.4" xlink:href="#mf9b4dc8095" y="77.0823529412"/>
      </g>
     </g>
     <g id="text_13">
      <!-- 0.006 -->
      <defs>
       <path d="M 33.015625 40.375 
Q 26.375 40.375 22.484375 35.828125 
Q 18.609375 31.296875 18.609375 23.390625 
Q 18.609375 15.53125 22.484375 10.953125 
Q 26.375 6.390625 33.015625 6.390625 
Q 39.65625 6.390625 43.53125 10.953125 
Q 47.40625 15.53125 47.40625 23.390625 
Q 47.40625 31.296875 43.53125 35.828125 
Q 39.65625 40.375 33.015625 40.375 
M 52.59375 71.296875 
L 52.59375 62.3125 
Q 48.875 64.0625 45.09375 64.984375 
Q 41.3125 65.921875 37.59375 65.921875 
Q 27.828125 65.921875 22.671875 59.328125 
Q 17.53125 52.734375 16.796875 39.40625 
Q 19.671875 43.65625 24.015625 45.921875 
Q 28.375 48.1875 33.59375 48.1875 
Q 44.578125 48.1875 50.953125 41.515625 
Q 57.328125 34.859375 57.328125 23.390625 
Q 57.328125 12.15625 50.6875 5.359375 
Q 44.046875 -1.421875 33.015625 -1.421875 
Q 20.359375 -1.421875 13.671875 8.265625 
Q 6.984375 17.96875 6.984375 36.375 
Q 6.984375 53.65625 15.1875 63.9375 
Q 23.390625 74.21875 37.203125 74.21875 
Q 40.921875 74.21875 44.703125 73.484375 
Q 48.484375 72.75 52.59375 71.296875 
" id="BitstreamVeraSans-Roman-36"/>
      </defs>
      <g transform="translate(33.64625 80.3936029412)scale(0.12 -0.12)">
       <use xlink:href="#BitstreamVeraSans-Roman-30"/>
       <use x="63.623046875" xlink:href="#BitstreamVeraSans-Roman-2e"/>
       <use x="95.41015625" xlink:href="#BitstreamVeraSans-Roman-30"/>
       <use x="159.033203125" xlink:href="#BitstreamVeraSans-Roman-30"/>
       <use x="222.65625" xlink:href="#BitstreamVeraSans-Roman-36"/>
      </g>
     </g>
    </g>
    <g id="ytick_8">
     <g id="line2d_28">
      <g>
       <use style="stroke:#000000;stroke-width:0.5;" x="72.0" xlink:href="#m2a9d966803" y="65.7882352941"/>
      </g>
     </g>
     <g id="line2d_29">
      <g>
       <use style="stroke:#000000;stroke-width:0.5;" x="518.4" xlink:href="#mf9b4dc8095" y="65.7882352941"/>
      </g>
     </g>
     <g id="text_14">
      <!-- 0.007 -->
      <defs>
       <path d="M 8.203125 72.90625 
L 55.078125 72.90625 
L 55.078125 68.703125 
L 28.609375 0 
L 18.3125 0 
L 43.21875 64.59375 
L 8.203125 64.59375 
z
" id="BitstreamVeraSans-Roman-37"/>
      </defs>
      <g transform="translate(33.64625 69.0994852941)scale(0.12 -0.12)">
       <use xlink:href="#BitstreamVeraSans-Roman-30"/>
       <use x="63.623046875" xlink:href="#BitstreamVeraSans-Roman-2e"/>
       <use x="95.41015625" xlink:href="#BitstreamVeraSans-Roman-30"/>
       <use x="159.033203125" xlink:href="#BitstreamVeraSans-Roman-30"/>
       <use x="222.65625" xlink:href="#BitstreamVeraSans-Roman-37"/>
      </g>
     </g>
    </g>
    <g id="ytick_9">
     <g id="line2d_30">
      <g>
       <use style="stroke:#000000;stroke-width:0.5;" x="72.0" xlink:href="#m2a9d966803" y="54.4941176471"/>
      </g>
     </g>
     <g id="line2d_31">
      <g>
       <use style="stroke:#000000;stroke-width:0.5;" x="518.4" xlink:href="#mf9b4dc8095" y="54.4941176471"/>
      </g>
     </g>
     <g id="text_15">
      <!-- 0.008 -->
      <defs>
       <path d="M 31.78125 34.625 
Q 24.75 34.625 20.71875 30.859375 
Q 16.703125 27.09375 16.703125 20.515625 
Q 16.703125 13.921875 20.71875 10.15625 
Q 24.75 6.390625 31.78125 6.390625 
Q 38.8125 6.390625 42.859375 10.171875 
Q 46.921875 13.96875 46.921875 20.515625 
Q 46.921875 27.09375 42.890625 30.859375 
Q 38.875 34.625 31.78125 34.625 
M 21.921875 38.8125 
Q 15.578125 40.375 12.03125 44.71875 
Q 8.5 49.078125 8.5 55.328125 
Q 8.5 64.0625 14.71875 69.140625 
Q 20.953125 74.21875 31.78125 74.21875 
Q 42.671875 74.21875 48.875 69.140625 
Q 55.078125 64.0625 55.078125 55.328125 
Q 55.078125 49.078125 51.53125 44.71875 
Q 48 40.375 41.703125 38.8125 
Q 48.828125 37.15625 52.796875 32.3125 
Q 56.78125 27.484375 56.78125 20.515625 
Q 56.78125 9.90625 50.3125 4.234375 
Q 43.84375 -1.421875 31.78125 -1.421875 
Q 19.734375 -1.421875 13.25 4.234375 
Q 6.78125 9.90625 6.78125 20.515625 
Q 6.78125 27.484375 10.78125 32.3125 
Q 14.796875 37.15625 21.921875 38.8125 
M 18.3125 54.390625 
Q 18.3125 48.734375 21.84375 45.5625 
Q 25.390625 42.390625 31.78125 42.390625 
Q 38.140625 42.390625 41.71875 45.5625 
Q 45.3125 48.734375 45.3125 54.390625 
Q 45.3125 60.0625 41.71875 63.234375 
Q 38.140625 66.40625 31.78125 66.40625 
Q 25.390625 66.40625 21.84375 63.234375 
Q 18.3125 60.0625 18.3125 54.390625 
" id="BitstreamVeraSans-Roman-38"/>
      </defs>
      <g transform="translate(33.64625 57.8053676471)scale(0.12 -0.12)">
       <use xlink:href="#BitstreamVeraSans-Roman-30"/>
       <use x="63.623046875" xlink:href="#BitstreamVeraSans-Roman-2e"/>
       <use x="95.41015625" xlink:href="#BitstreamVeraSans-Roman-30"/>
       <use x="159.033203125" xlink:href="#BitstreamVeraSans-Roman-30"/>
       <use x="222.65625" xlink:href="#BitstreamVeraSans-Roman-38"/>
      </g>
     </g>
    </g>
    <g id="ytick_10">
     <g id="line2d_32">
      <g>
       <use style="stroke:#000000;stroke-width:0.5;" x="72.0" xlink:href="#m2a9d966803" y="43.2"/>
      </g>
     </g>
     <g id="line2d_33">
      <g>
       <use style="stroke:#000000;stroke-width:0.5;" x="518.4" xlink:href="#mf9b4dc8095" y="43.2"/>
      </g>
     </g>
     <g id="text_16">
      <!-- 0.009 -->
      <defs>
       <path d="M 10.984375 1.515625 
L 10.984375 10.5 
Q 14.703125 8.734375 18.5 7.8125 
Q 22.3125 6.890625 25.984375 6.890625 
Q 35.75 6.890625 40.890625 13.453125 
Q 46.046875 20.015625 46.78125 33.40625 
Q 43.953125 29.203125 39.59375 26.953125 
Q 35.25 24.703125 29.984375 24.703125 
Q 19.046875 24.703125 12.671875 31.3125 
Q 6.296875 37.9375 6.296875 49.421875 
Q 6.296875 60.640625 12.9375 67.421875 
Q 19.578125 74.21875 30.609375 74.21875 
Q 43.265625 74.21875 49.921875 64.515625 
Q 56.59375 54.828125 56.59375 36.375 
Q 56.59375 19.140625 48.40625 8.859375 
Q 40.234375 -1.421875 26.421875 -1.421875 
Q 22.703125 -1.421875 18.890625 -0.6875 
Q 15.09375 0.046875 10.984375 1.515625 
M 30.609375 32.421875 
Q 37.25 32.421875 41.125 36.953125 
Q 45.015625 41.5 45.015625 49.421875 
Q 45.015625 57.28125 41.125 61.84375 
Q 37.25 66.40625 30.609375 66.40625 
Q 23.96875 66.40625 20.09375 61.84375 
Q 16.21875 57.28125 16.21875 49.421875 
Q 16.21875 41.5 20.09375 36.953125 
Q 23.96875 32.421875 30.609375 32.421875 
" id="BitstreamVeraSans-Roman-39"/>
      </defs>
      <g transform="translate(33.64625 46.51125)scale(0.12 -0.12)">
       <use xlink:href="#BitstreamVeraSans-Roman-30"/>
       <use x="63.623046875" xlink:href="#BitstreamVeraSans-Roman-2e"/>
       <use x="95.41015625" xlink:href="#BitstreamVeraSans-Roman-30"/>
       <use x="159.033203125" xlink:href="#BitstreamVeraSans-Roman-30"/>
       <use x="222.65625" xlink:href="#BitstreamVeraSans-Roman-39"/>
      </g>
     </g>
    </g>
    <g id="text_17">
     <!-- thegma_x -->
     <defs>
      <path d="M 50.984375 -16.609375 
L 50.984375 -23.578125 
L -0.984375 -23.578125 
L -0.984375 -16.609375 
z
" id="BitstreamVeraSans-Roman-5f"/>
      <path d="M 52 44.1875 
Q 55.375 50.25 60.0625 53.125 
Q 64.75 56 71.09375 56 
Q 79.640625 56 84.28125 50.015625 
Q 88.921875 44.046875 88.921875 33.015625 
L 88.921875 0 
L 79.890625 0 
L 79.890625 32.71875 
Q 79.890625 40.578125 77.09375 44.375 
Q 74.3125 48.1875 68.609375 48.1875 
Q 61.625 48.1875 57.5625 43.546875 
Q 53.515625 38.921875 53.515625 30.90625 
L 53.515625 0 
L 44.484375 0 
L 44.484375 32.71875 
Q 44.484375 40.625 41.703125 44.40625 
Q 38.921875 48.1875 33.109375 48.1875 
Q 26.21875 48.1875 22.15625 43.53125 
Q 18.109375 38.875 18.109375 30.90625 
L 18.109375 0 
L 9.078125 0 
L 9.078125 54.6875 
L 18.109375 54.6875 
L 18.109375 46.1875 
Q 21.1875 51.21875 25.484375 53.609375 
Q 29.78125 56 35.6875 56 
Q 41.65625 56 45.828125 52.96875 
Q 50 49.953125 52 44.1875 
" id="BitstreamVeraSans-Roman-6d"/>
      <path d="M 54.890625 33.015625 
L 54.890625 0 
L 45.90625 0 
L 45.90625 32.71875 
Q 45.90625 40.484375 42.875 44.328125 
Q 39.84375 48.1875 33.796875 48.1875 
Q 26.515625 48.1875 22.3125 43.546875 
Q 18.109375 38.921875 18.109375 30.90625 
L 18.109375 0 
L 9.078125 0 
L 9.078125 75.984375 
L 18.109375 75.984375 
L 18.109375 46.1875 
Q 21.34375 51.125 25.703125 53.5625 
Q 30.078125 56 35.796875 56 
Q 45.21875 56 50.046875 50.171875 
Q 54.890625 44.34375 54.890625 33.015625 
" id="BitstreamVeraSans-Roman-68"/>
      <path d="M 54.890625 54.6875 
L 35.109375 28.078125 
L 55.90625 0 
L 45.3125 0 
L 29.390625 21.484375 
L 13.484375 0 
L 2.875 0 
L 24.125 28.609375 
L 4.6875 54.6875 
L 15.28125 54.6875 
L 29.78125 35.203125 
L 44.28125 54.6875 
z
" id="BitstreamVeraSans-Roman-78"/>
      <path d="M 56.203125 29.59375 
L 56.203125 25.203125 
L 14.890625 25.203125 
Q 15.484375 15.921875 20.484375 11.0625 
Q 25.484375 6.203125 34.421875 6.203125 
Q 39.59375 6.203125 44.453125 7.46875 
Q 49.3125 8.734375 54.109375 11.28125 
L 54.109375 2.78125 
Q 49.265625 0.734375 44.1875 -0.34375 
Q 39.109375 -1.421875 33.890625 -1.421875 
Q 20.796875 -1.421875 13.15625 6.1875 
Q 5.515625 13.8125 5.515625 26.8125 
Q 5.515625 40.234375 12.765625 48.109375 
Q 20.015625 56 32.328125 56 
Q 43.359375 56 49.78125 48.890625 
Q 56.203125 41.796875 56.203125 29.59375 
M 47.21875 32.234375 
Q 47.125 39.59375 43.09375 43.984375 
Q 39.0625 48.390625 32.421875 48.390625 
Q 24.90625 48.390625 20.390625 44.140625 
Q 15.875 39.890625 15.1875 32.171875 
z
" id="BitstreamVeraSans-Roman-65"/>
      <path d="M 18.3125 70.21875 
L 18.3125 54.6875 
L 36.8125 54.6875 
L 36.8125 47.703125 
L 18.3125 47.703125 
L 18.3125 18.015625 
Q 18.3125 11.328125 20.140625 9.421875 
Q 21.96875 7.515625 27.59375 7.515625 
L 36.8125 7.515625 
L 36.8125 0 
L 27.59375 0 
Q 17.1875 0 13.234375 3.875 
Q 9.28125 7.765625 9.28125 18.015625 
L 9.28125 47.703125 
L 2.6875 47.703125 
L 2.6875 54.6875 
L 9.28125 54.6875 
L 9.28125 70.21875 
z
" id="BitstreamVeraSans-Roman-74"/>
      <path d="M 34.28125 27.484375 
Q 23.390625 27.484375 19.1875 25 
Q 14.984375 22.515625 14.984375 16.5 
Q 14.984375 11.71875 18.140625 8.90625 
Q 21.296875 6.109375 26.703125 6.109375 
Q 34.1875 6.109375 38.703125 11.40625 
Q 43.21875 16.703125 43.21875 25.484375 
L 43.21875 27.484375 
z
M 52.203125 31.203125 
L 52.203125 0 
L 43.21875 0 
L 43.21875 8.296875 
Q 40.140625 3.328125 35.546875 0.953125 
Q 30.953125 -1.421875 24.3125 -1.421875 
Q 15.921875 -1.421875 10.953125 3.296875 
Q 6 8.015625 6 15.921875 
Q 6 25.140625 12.171875 29.828125 
Q 18.359375 34.515625 30.609375 34.515625 
L 43.21875 34.515625 
L 43.21875 35.40625 
Q 43.21875 41.609375 39.140625 45 
Q 35.0625 48.390625 27.6875 48.390625 
Q 23 48.390625 18.546875 47.265625 
Q 14.109375 46.140625 10.015625 43.890625 
L 10.015625 52.203125 
Q 14.9375 54.109375 19.578125 55.046875 
Q 24.21875 56 28.609375 56 
Q 40.484375 56 46.34375 49.84375 
Q 52.203125 43.703125 52.203125 31.203125 
" id="BitstreamVeraSans-Roman-61"/>
      <path d="M 45.40625 27.984375 
Q 45.40625 37.75 41.375 43.109375 
Q 37.359375 48.484375 30.078125 48.484375 
Q 22.859375 48.484375 18.828125 43.109375 
Q 14.796875 37.75 14.796875 27.984375 
Q 14.796875 18.265625 18.828125 12.890625 
Q 22.859375 7.515625 30.078125 7.515625 
Q 37.359375 7.515625 41.375 12.890625 
Q 45.40625 18.265625 45.40625 27.984375 
M 54.390625 6.78125 
Q 54.390625 -7.171875 48.1875 -13.984375 
Q 42 -20.796875 29.203125 -20.796875 
Q 24.46875 -20.796875 20.265625 -20.09375 
Q 16.0625 -19.390625 12.109375 -17.921875 
L 12.109375 -9.1875 
Q 16.0625 -11.328125 19.921875 -12.34375 
Q 23.78125 -13.375 27.78125 -13.375 
Q 36.625 -13.375 41.015625 -8.765625 
Q 45.40625 -4.15625 45.40625 5.171875 
L 45.40625 9.625 
Q 42.625 4.78125 38.28125 2.390625 
Q 33.9375 0 27.875 0 
Q 17.828125 0 11.671875 7.65625 
Q 5.515625 15.328125 5.515625 27.984375 
Q 5.515625 40.671875 11.671875 48.328125 
Q 17.828125 56 27.875 56 
Q 33.9375 56 38.28125 53.609375 
Q 42.625 51.21875 45.40625 46.390625 
L 45.40625 54.6875 
L 54.390625 54.6875 
z
" id="BitstreamVeraSans-Roman-67"/>
     </defs>
     <g transform="translate(25.816875 123.751654412)rotate(-90.0)scale(0.12 -0.12)">
      <use xlink:href="#BitstreamVeraSans-Roman-74"/>
      <use x="39.208984375" xlink:href="#BitstreamVeraSans-Roman-68"/>
      <use x="102.587890625" xlink:href="#BitstreamVeraSans-Roman-65"/>
      <use x="164.111328125" xlink:href="#BitstreamVeraSans-Roman-67"/>
      <use x="227.587890625" xlink:href="#BitstreamVeraSans-Roman-6d"/>
      <use x="325.0" xlink:href="#BitstreamVeraSans-Roman-61"/>
      <use x="386.279296875" xlink:href="#BitstreamVeraSans-Roman-5f"/>
      <use x="436.279296875" xlink:href="#BitstreamVeraSans-Roman-78"/>
     </g>
    </g>
   </g>
  </g>
  <g id="axes_2">
   <g id="patch_7">
    <path d="M 72 266.823529 
L 518.4 266.823529 
L 518.4 165.176471 
L 72 165.176471 
z
" style="fill:#ffffff;"/>
   </g>
   <g id="line2d_34">
    <path clip-path="url(#p39eca0679a)" d="M 72 187.761802 
L 72 187.237896 
L 72.32744 187.188192 
L 72.898557 186.911272 
L 73.667661 186.14846 
L 74.280659 185.228667 
L 75.118297 183.538994 
L 76.245301 180.526554 
L 77.48272 176.337446 
L 77.48272 229.549921 
L 77.48272 229.544138 
L 78.107141 226.482708 
L 78.301321 255.36443 
L 78.301321 255.34558 
L 78.937164 255.201418 
L 79.542548 257.381147 
L 79.542548 257.33576 
L 80.757123 257.260373 
L 80.757123 257.193252 
L 82.234411 256.856756 
L 82.234411 256.813763 
L 83.464216 256.317104 
L 84.522685 255.672037 
L 85.790564 254.860983 
L 87.256431 253.755647 
L 88.767986 252.4923 
L 90.694553 250.752826 
L 90.694553 253.27985 
L 91.330396 252.71024 
L 91.330396 254.314526 
L 92.209916 253.466003 
L 92.209916 257.885985 
L 92.209916 257.861736 
L 93.717664 256.961464 
L 95.19876 255.988573 
L 95.19876 255.96857 
L 97.197669 254.606582 
L 97.197669 254.588873 
L 99.421216 252.988041 
L 99.421216 252.972401 
L 101.621919 251.30351 
L 104.230019 249.28014 
L 104.230019 253.067881 
L 104.922974 252.595924 
L 105.15142 254.673806 
L 105.15142 254.638232 
L 107.843284 252.837206 
L 107.843284 252.821771 
L 110.127751 251.20572 
L 113.07852 249.09129 
L 113.07852 249.079137 
L 116.547102 246.527466 
L 116.547102 246.506293 
L 117.944434 245.469056 
L 117.944434 252.009801 
L 117.944434 251.995236 
L 119.105705 251.315377 
L 119.105705 256.590178 
L 119.105705 256.568971 
L 121.211222 255.731931 
L 126.13044 253.514894 
L 126.13044 253.482299 
L 128.727118 252.259853 
L 128.727118 252.230108 
L 131.057274 251.057378 
L 132.485065 250.332416 
L 132.485065 256.096122 
L 134.38498 255.452967 
L 134.38498 255.43387 
L 136.791285 254.575345 
L 136.791285 254.539937 
L 139.132864 253.638675 
L 139.132864 253.605867 
L 141.523939 252.614654 
L 141.523939 252.599386 
L 143.968318 251.53239 
L 143.968318 251.518201 
L 145.662631 250.749703 
L 145.662631 256.133133 
L 147.372174 255.593687 
L 149.081717 255.018487 
L 151.320494 254.233988 
L 151.320494 254.21658 
L 153.761066 253.30723 
L 153.761066 253.27488 
L 155.965577 252.370789 
L 158.421378 251.32149 
L 158.421378 251.307388 
L 159.388469 250.899502 
L 159.388469 256.163523 
L 159.388469 256.143019 
L 161.136086 255.607299 
L 163.371056 254.900023 
L 168.061828 253.138222 
L 168.061828 253.106161 
L 170.536667 252.098583 
L 170.536667 252.083675 
L 171.777894 251.577228 
L 171.777894 254.803138 
L 171.777894 254.78488 
L 173.270412 254.167805 
L 173.270412 257.413239 
L 175.014222 256.862313 
L 175.014222 256.840396 
L 176.746609 256.229949 
L 178.463767 255.586115 
L 180.47029 254.793759 
L 183.006048 253.763029 
L 183.006048 253.729746 
L 185.499925 252.632504 
L 185.499925 252.617146 
L 186.48986 252.173705 
L 186.48986 256.647129 
L 188.286974 256.057996 
L 190.065051 255.434621 
L 190.065051 255.415411 
L 192.048729 254.692272 
L 194.55022 253.729154 
L 194.55022 253.695804 
L 197.006022 252.669076 
L 197.006022 252.653621 
L 198.529 252.010993 
L 198.784099 254.932084 
L 198.784099 254.895258 
L 199.770227 254.504398 
L 199.770227 257.575938 
L 199.770227 257.55221 
L 200.531716 257.349024 
L 200.531716 257.504606 
L 200.531716 257.481096 
L 202.290755 256.915872 
L 202.290755 256.893755 
L 204.072639 256.262267 
L 205.820257 255.603824 
L 207.861047 254.795537 
L 210.381575 253.768938 
L 210.381575 253.735518 
L 212.14823 252.971771 
L 212.14823 256.142883 
L 212.924948 255.877549 
L 212.924948 256.070841 
L 213.663593 255.847134 
L 213.663593 258.111424 
L 213.663593 258.086543 
L 215.460706 257.579341 
L 215.460706 257.555889 
L 217.756595 256.868244 
L 217.756595 256.824713 
L 219.511827 256.225205 
L 221.030998 255.662688 
L 223.593408 254.733653 
L 223.593408 254.715711 
L 226.144396 253.723197 
L 226.144396 253.706651 
L 226.144396 253.706651 
L 226.144396 253.706651 
L 226.144396 255.911131 
L 227.682604 255.318019 
L 227.930088 257.892402 
L 227.930088 257.844296 
L 228.718229 259.101499 
L 228.718229 259.046154 
L 230.237399 258.628423 
L 230.237399 258.602307 
L 232.023091 258.065954 
L 232.023091 258.04152 
L 233.831627 257.456459 
L 233.831627 257.433638 
L 235.655393 256.781115 
L 238.975484 255.600185 
L 240.022532 255.219149 
L 240.022532 256.797844 
L 240.022532 256.77651 
L 241.061964 256.375106 
L 241.061964 258.461404 
L 241.834875 258.253718 
L 241.834875 259.48064 
L 241.834875 259.45155 
L 243.673871 258.953341 
L 243.673871 258.899118 
L 245.741314 258.270539 
L 245.741314 258.220639 
L 247.580309 257.598464 
L 247.580309 257.575284 
L 249.41169 256.892559 
L 251.715194 256.017252 
L 251.715194 255.977792 
L 254.330909 254.914521 
L 254.330909 256.57466 
L 254.330909 256.553933 
L 256.150867 255.805334 
L 256.150867 258.201469 
L 256.150867 258.177011 
L 257.974633 257.548827 
L 257.974633 257.526113 
L 259.813629 256.832532 
L 261.66024 256.100162 
L 264.0437 255.122863 
L 264.0437 255.10485 
L 266.667029 253.979404 
L 266.667029 253.946563 
L 268.228082 253.228131 
L 268.997185 255.424541 
L 268.997185 255.387576 
L 270.04804 254.95341 
L 270.04804 257.787552 
L 270.04804 257.741108 
L 272.427693 256.93445 
L 272.427693 256.913208 
L 274.255266 256.215219 
L 276.596845 255.288085 
L 276.596845 255.251727 
L 279.254441 254.152455 
L 279.254441 254.119373 
L 281.824466 252.989242 
L 281.824466 252.974049 
L 282.886743 252.494552 
L 282.886743 255.230496 
L 282.886743 255.21245 
L 283.952828 254.757317 
L 284.718124 257.55676 
L 284.718124 257.534113 
L 284.718124 259.154761 
L 286.55712 258.676355 
L 286.55712 258.625194 
L 288.399923 258.072926 
L 292.610957 256.59353 
L 292.610957 256.552838 
L 295.253324 255.581511 
L 295.253324 255.54444 
L 297.088512 254.76909 
L 297.884268 254.464908 
L 297.884268 257.512648 
L 298.691446 257.272771 
L 298.950352 258.824389 
L 298.950352 258.772163 
L 301.063484 258.206197 
L 301.063484 258.157676 
L 302.932939 257.587354 
L 305.049879 256.879582 
L 305.049879 256.83742 
L 307.448569 255.988242 
L 310.372686 254.79853 
L 310.372686 256.548962 
L 311.12656 256.276543 
L 311.393081 257.4023 
L 311.393081 257.380034 
L 312.219297 257.07927 
L 312.219297 258.863643 
L 312.470588 258.774772 
L 312.470588 259.828508 
L 312.470588 259.798475 
L 314.054485 259.330756 
L 314.054485 259.302711 
L 315.904903 258.706411 
L 317.755321 258.063616 
L 317.755321 258.015718 
L 319.628584 257.326044 
L 321.486617 256.579248 
L 321.486617 256.558783 
L 324.38789 255.360202 
L 324.658218 256.786124 
L 324.658218 256.744324 
L 325.476819 257.5571 
L 326.546711 257.089895 
L 326.546711 258.893541 
L 326.546711 258.867114 
L 328.408551 258.201175 
L 328.408551 258.176874 
L 330.293237 257.464939 
L 330.293237 257.442554 
L 332.155077 256.680544 
L 334.313898 255.777898 
L 334.313898 255.758941 
L 336.937227 254.61435 
L 339.084626 253.608741 
L 339.084626 255.787854 
L 339.084626 255.768892 
L 340.938852 254.939995 
L 340.938852 257.796294 
L 342.819729 257.112906 
L 342.819729 257.04852 
L 346.044635 255.894077 
L 346.044635 255.874954 
L 348.98779 254.656754 
L 353.743288 252.496684 
L 354.017424 255.181812 
L 354.017424 255.146225 
L 355.053049 254.719858 
L 355.053049 257.85782 
L 355.053049 257.834738 
L 355.867842 257.610693 
L 355.867842 259.066606 
L 355.867842 259.040039 
L 358.003819 258.453111 
L 358.003819 258.403952 
L 359.884696 257.817998 
L 359.884696 257.795132 
L 361.784611 257.15836 
L 361.784611 257.137043 
L 363.680719 256.437493 
L 365.542559 255.709382 
L 365.542559 255.690846 
L 368.20777 254.622126 
L 368.20777 256.449504 
L 369.80309 255.813347 
L 370.065803 258.122345 
L 370.065803 258.075046 
L 371.939066 257.442294 
L 371.939066 257.420361 
L 373.816136 256.723674 
L 375.963535 255.898496 
L 375.963535 255.879649 
L 378.316536 254.914458 
L 382.33339 253.122074 
L 382.592296 255.518892 
L 382.592296 255.500619 
L 383.662188 255.029734 
L 384.454136 257.666068 
L 384.454136 259.108676 
L 384.454136 259.081792 
L 386.357859 258.537925 
L 386.357859 258.512887 
L 387.987445 257.987676 
L 389.613224 257.430163 
L 391.490294 256.746091 
L 396.009731 254.97508 
L 396.268637 256.594073 
L 396.268637 256.553324 
L 398.693979 255.567452 
L 398.952886 258.014205 
L 398.952886 257.990681 
L 398.952886 259.305294 
L 401.054595 258.715972 
L 401.054595 258.665038 
L 402.958317 258.063933 
L 402.958317 258.040338 
L 405.063834 257.334154 
L 405.063834 257.290689 
L 407.43968 256.423359 
L 411.167168 254.860133 
L 411.448919 256.512405 
L 411.448919 256.492425 
L 413.573473 255.59481 
L 413.573473 258.211083 
L 413.573473 258.163661 
L 414.376844 259.308738 
L 414.376844 259.254548 
L 416.265336 258.737179 
L 418.085295 258.157873 
L 418.085295 258.134343 
L 419.707266 257.56723 
L 419.707266 257.545198 
L 422.380092 256.601138 
L 422.380092 256.561301 
L 424.790205 255.622974 
L 424.790205 255.586649 
L 425.582153 255.269992 
L 425.848675 256.784173 
L 425.848675 256.763917 
L 428.243557 255.776005 
L 428.243557 255.757618 
L 428.243557 255.757618 
L 428.243557 255.757618 
L 428.243557 258.141277 
L 428.243557 258.094737 
L 430.908768 257.218527 
L 430.908768 257.134669 
L 433.296036 256.241125 
L 435.923173 255.175436 
L 440.678671 252.99916 
L 440.678671 252.984514 
L 440.678671 252.984514 
L 440.678671 252.984514 
L 440.678671 255.51787 
L 442.540512 254.728762 
L 442.540512 257.656835 
L 442.540512 257.634735 
L 443.328653 257.35584 
L 443.328653 258.925225 
L 445.719728 258.245005 
L 445.719728 258.198075 
L 447.562531 257.586393 
L 447.562531 257.564567 
L 449.412949 256.886607 
L 449.412949 256.866331 
L 452.089583 255.875173 
L 452.089583 255.856745 
L 454.697683 254.755785 
L 454.964204 256.477205 
L 454.964204 256.457639 
L 457.11541 255.553299 
L 457.11541 258.03411 
L 457.11541 257.987973 
L 458.962021 257.357011 
L 461.113227 256.567556 
L 462.742813 255.901893 
L 462.742813 255.864729 
L 465.644086 254.691417 
L 468.282645 253.516332 
L 468.282645 253.501209 
L 470.985931 252.233177 
L 470.985931 252.219393 
L 471.774072 251.84612 
L 471.774072 256.740761 
L 471.774072 256.700698 
L 474.412631 255.861433 
L 474.412631 255.84298 
L 476.849395 254.965633 
L 476.849395 254.91448 
L 479.510799 253.896261 
L 481.924719 252.881512 
L 484.053081 251.954264 
L 484.053081 255.064509 
L 486.447963 254.053863 
L 486.714484 253.935949 
L 486.714484 257.269962 
L 488.564903 256.642972 
L 490.419128 255.972072 
L 492.581757 255.141813 
L 492.581757 255.107305 
L 495.505874 253.949441 
L 495.505874 253.933785 
L 498.16347 252.774833 
L 498.16347 252.760485 
L 498.993493 252.29838 
L 498.993493 250.235333 
L 498.993493 250.235333 
" style="fill:none;stroke:#0000ff;stroke-linecap:square;"/>
   </g>
   <g id="patch_8">
    <path d="M 72 165.176471 
L 518.4 165.176471 
" style="fill:none;stroke:#000000;stroke-linecap:square;stroke-linejoin:miter;"/>
   </g>
   <g id="patch_9">
    <path d="M 518.4 266.823529 
L 518.4 165.176471 
" style="fill:none;stroke:#000000;stroke-linecap:square;stroke-linejoin:miter;"/>
   </g>
   <g id="patch_10">
    <path d="M 72 266.823529 
L 518.4 266.823529 
" style="fill:none;stroke:#000000;stroke-linecap:square;stroke-linejoin:miter;"/>
   </g>
   <g id="patch_11">
    <path d="M 72 266.823529 
L 72 165.176471 
" style="fill:none;stroke:#000000;stroke-linecap:square;stroke-linejoin:miter;"/>
   </g>
   <g id="matplotlib.axis_3">
    <g id="xtick_7">
     <g id="line2d_35">
      <g>
       <use style="stroke:#000000;stroke-width:0.5;" x="72.0" xlink:href="#m2a3dbc33e2" y="266.823529412"/>
      </g>
     </g>
     <g id="line2d_36">
      <g>
       <use style="stroke:#000000;stroke-width:0.5;" x="72.0" xlink:href="#mbb2e9c619b" y="165.176470588"/>
      </g>
     </g>
     <g id="text_18">
      <!-- 0 -->
      <g transform="translate(68.1825 279.941654412)scale(0.12 -0.12)">
       <use xlink:href="#BitstreamVeraSans-Roman-30"/>
      </g>
     </g>
    </g>
    <g id="xtick_8">
     <g id="line2d_37">
      <g>
       <use style="stroke:#000000;stroke-width:0.5;" x="161.28" xlink:href="#m2a3dbc33e2" y="266.823529412"/>
      </g>
     </g>
     <g id="line2d_38">
      <g>
       <use style="stroke:#000000;stroke-width:0.5;" x="161.28" xlink:href="#mbb2e9c619b" y="165.176470588"/>
      </g>
     </g>
     <g id="text_19">
      <!-- 1 -->
      <g transform="translate(157.4625 279.941654412)scale(0.12 -0.12)">
       <use xlink:href="#BitstreamVeraSans-Roman-31"/>
      </g>
     </g>
    </g>
    <g id="xtick_9">
     <g id="line2d_39">
      <g>
       <use style="stroke:#000000;stroke-width:0.5;" x="250.56" xlink:href="#m2a3dbc33e2" y="266.823529412"/>
      </g>
     </g>
     <g id="line2d_40">
      <g>
       <use style="stroke:#000000;stroke-width:0.5;" x="250.56" xlink:href="#mbb2e9c619b" y="165.176470588"/>
      </g>
     </g>
     <g id="text_20">
      <!-- 2 -->
      <g transform="translate(246.7425 279.941654412)scale(0.12 -0.12)">
       <use xlink:href="#BitstreamVeraSans-Roman-32"/>
      </g>
     </g>
    </g>
    <g id="xtick_10">
     <g id="line2d_41">
      <g>
       <use style="stroke:#000000;stroke-width:0.5;" x="339.84" xlink:href="#m2a3dbc33e2" y="266.823529412"/>
      </g>
     </g>
     <g id="line2d_42">
      <g>
       <use style="stroke:#000000;stroke-width:0.5;" x="339.84" xlink:href="#mbb2e9c619b" y="165.176470588"/>
      </g>
     </g>
     <g id="text_21">
      <!-- 3 -->
      <g transform="translate(336.0225 279.941654412)scale(0.12 -0.12)">
       <use xlink:href="#BitstreamVeraSans-Roman-33"/>
      </g>
     </g>
    </g>
    <g id="xtick_11">
     <g id="line2d_43">
      <g>
       <use style="stroke:#000000;stroke-width:0.5;" x="429.12" xlink:href="#m2a3dbc33e2" y="266.823529412"/>
      </g>
     </g>
     <g id="line2d_44">
      <g>
       <use style="stroke:#000000;stroke-width:0.5;" x="429.12" xlink:href="#mbb2e9c619b" y="165.176470588"/>
      </g>
     </g>
     <g id="text_22">
      <!-- 4 -->
      <g transform="translate(425.3025 279.941654412)scale(0.12 -0.12)">
       <use xlink:href="#BitstreamVeraSans-Roman-34"/>
      </g>
     </g>
    </g>
    <g id="xtick_12">
     <g id="line2d_45">
      <g>
       <use style="stroke:#000000;stroke-width:0.5;" x="518.4" xlink:href="#m2a3dbc33e2" y="266.823529412"/>
      </g>
     </g>
     <g id="line2d_46">
      <g>
       <use style="stroke:#000000;stroke-width:0.5;" x="518.4" xlink:href="#mbb2e9c619b" y="165.176470588"/>
      </g>
     </g>
     <g id="text_23">
      <!-- 5 -->
      <g transform="translate(514.5825 279.941654412)scale(0.12 -0.12)">
       <use xlink:href="#BitstreamVeraSans-Roman-35"/>
      </g>
     </g>
    </g>
   </g>
   <g id="matplotlib.axis_4">
    <g id="ytick_11">
     <g id="line2d_47">
      <g>
       <use style="stroke:#000000;stroke-width:0.5;" x="72.0" xlink:href="#m2a9d966803" y="266.823529412"/>
      </g>
     </g>
     <g id="line2d_48">
      <g>
       <use style="stroke:#000000;stroke-width:0.5;" x="518.4" xlink:href="#mf9b4dc8095" y="266.823529412"/>
      </g>
     </g>
     <g id="text_24">
      <!-- 0.000 -->
      <g transform="translate(33.64625 270.134779412)scale(0.12 -0.12)">
       <use xlink:href="#BitstreamVeraSans-Roman-30"/>
       <use x="63.623046875" xlink:href="#BitstreamVeraSans-Roman-2e"/>
       <use x="95.41015625" xlink:href="#BitstreamVeraSans-Roman-30"/>
       <use x="159.033203125" xlink:href="#BitstreamVeraSans-Roman-30"/>
       <use x="222.65625" xlink:href="#BitstreamVeraSans-Roman-30"/>
      </g>
     </g>
    </g>
    <g id="ytick_12">
     <g id="line2d_49">
      <g>
       <use style="stroke:#000000;stroke-width:0.5;" x="72.0" xlink:href="#m2a9d966803" y="255.529411765"/>
      </g>
     </g>
     <g id="line2d_50">
      <g>
       <use style="stroke:#000000;stroke-width:0.5;" x="518.4" xlink:href="#mf9b4dc8095" y="255.529411765"/>
      </g>
     </g>
     <g id="text_25">
      <!-- 0.001 -->
      <g transform="translate(33.64625 258.840661765)scale(0.12 -0.12)">
       <use xlink:href="#BitstreamVeraSans-Roman-30"/>
       <use x="63.623046875" xlink:href="#BitstreamVeraSans-Roman-2e"/>
       <use x="95.41015625" xlink:href="#BitstreamVeraSans-Roman-30"/>
       <use x="159.033203125" xlink:href="#BitstreamVeraSans-Roman-30"/>
       <use x="222.65625" xlink:href="#BitstreamVeraSans-Roman-31"/>
      </g>
     </g>
    </g>
    <g id="ytick_13">
     <g id="line2d_51">
      <g>
       <use style="stroke:#000000;stroke-width:0.5;" x="72.0" xlink:href="#m2a9d966803" y="244.235294118"/>
      </g>
     </g>
     <g id="line2d_52">
      <g>
       <use style="stroke:#000000;stroke-width:0.5;" x="518.4" xlink:href="#mf9b4dc8095" y="244.235294118"/>
      </g>
     </g>
     <g id="text_26">
      <!-- 0.002 -->
      <g transform="translate(33.64625 247.546544118)scale(0.12 -0.12)">
       <use xlink:href="#BitstreamVeraSans-Roman-30"/>
       <use x="63.623046875" xlink:href="#BitstreamVeraSans-Roman-2e"/>
       <use x="95.41015625" xlink:href="#BitstreamVeraSans-Roman-30"/>
       <use x="159.033203125" xlink:href="#BitstreamVeraSans-Roman-30"/>
       <use x="222.65625" xlink:href="#BitstreamVeraSans-Roman-32"/>
      </g>
     </g>
    </g>
    <g id="ytick_14">
     <g id="line2d_53">
      <g>
       <use style="stroke:#000000;stroke-width:0.5;" x="72.0" xlink:href="#m2a9d966803" y="232.941176471"/>
      </g>
     </g>
     <g id="line2d_54">
      <g>
       <use style="stroke:#000000;stroke-width:0.5;" x="518.4" xlink:href="#mf9b4dc8095" y="232.941176471"/>
      </g>
     </g>
     <g id="text_27">
      <!-- 0.003 -->
      <g transform="translate(33.64625 236.252426471)scale(0.12 -0.12)">
       <use xlink:href="#BitstreamVeraSans-Roman-30"/>
       <use x="63.623046875" xlink:href="#BitstreamVeraSans-Roman-2e"/>
       <use x="95.41015625" xlink:href="#BitstreamVeraSans-Roman-30"/>
       <use x="159.033203125" xlink:href="#BitstreamVeraSans-Roman-30"/>
       <use x="222.65625" xlink:href="#BitstreamVeraSans-Roman-33"/>
      </g>
     </g>
    </g>
    <g id="ytick_15">
     <g id="line2d_55">
      <g>
       <use style="stroke:#000000;stroke-width:0.5;" x="72.0" xlink:href="#m2a9d966803" y="221.647058824"/>
      </g>
     </g>
     <g id="line2d_56">
      <g>
       <use style="stroke:#000000;stroke-width:0.5;" x="518.4" xlink:href="#mf9b4dc8095" y="221.647058824"/>
      </g>
     </g>
     <g id="text_28">
      <!-- 0.004 -->
      <g transform="translate(33.64625 224.958308824)scale(0.12 -0.12)">
       <use xlink:href="#BitstreamVeraSans-Roman-30"/>
       <use x="63.623046875" xlink:href="#BitstreamVeraSans-Roman-2e"/>
       <use x="95.41015625" xlink:href="#BitstreamVeraSans-Roman-30"/>
       <use x="159.033203125" xlink:href="#BitstreamVeraSans-Roman-30"/>
       <use x="222.65625" xlink:href="#BitstreamVeraSans-Roman-34"/>
      </g>
     </g>
    </g>
    <g id="ytick_16">
     <g id="line2d_57">
      <g>
       <use style="stroke:#000000;stroke-width:0.5;" x="72.0" xlink:href="#m2a9d966803" y="210.352941176"/>
      </g>
     </g>
     <g id="line2d_58">
      <g>
       <use style="stroke:#000000;stroke-width:0.5;" x="518.4" xlink:href="#mf9b4dc8095" y="210.352941176"/>
      </g>
     </g>
     <g id="text_29">
      <!-- 0.005 -->
      <g transform="translate(33.64625 213.664191176)scale(0.12 -0.12)">
       <use xlink:href="#BitstreamVeraSans-Roman-30"/>
       <use x="63.623046875" xlink:href="#BitstreamVeraSans-Roman-2e"/>
       <use x="95.41015625" xlink:href="#BitstreamVeraSans-Roman-30"/>
       <use x="159.033203125" xlink:href="#BitstreamVeraSans-Roman-30"/>
       <use x="222.65625" xlink:href="#BitstreamVeraSans-Roman-35"/>
      </g>
     </g>
    </g>
    <g id="ytick_17">
     <g id="line2d_59">
      <g>
       <use style="stroke:#000000;stroke-width:0.5;" x="72.0" xlink:href="#m2a9d966803" y="199.058823529"/>
      </g>
     </g>
     <g id="line2d_60">
      <g>
       <use style="stroke:#000000;stroke-width:0.5;" x="518.4" xlink:href="#mf9b4dc8095" y="199.058823529"/>
      </g>
     </g>
     <g id="text_30">
      <!-- 0.006 -->
      <g transform="translate(33.64625 202.370073529)scale(0.12 -0.12)">
       <use xlink:href="#BitstreamVeraSans-Roman-30"/>
       <use x="63.623046875" xlink:href="#BitstreamVeraSans-Roman-2e"/>
       <use x="95.41015625" xlink:href="#BitstreamVeraSans-Roman-30"/>
       <use x="159.033203125" xlink:href="#BitstreamVeraSans-Roman-30"/>
       <use x="222.65625" xlink:href="#BitstreamVeraSans-Roman-36"/>
      </g>
     </g>
    </g>
    <g id="ytick_18">
     <g id="line2d_61">
      <g>
       <use style="stroke:#000000;stroke-width:0.5;" x="72.0" xlink:href="#m2a9d966803" y="187.764705882"/>
      </g>
     </g>
     <g id="line2d_62">
      <g>
       <use style="stroke:#000000;stroke-width:0.5;" x="518.4" xlink:href="#mf9b4dc8095" y="187.764705882"/>
      </g>
     </g>
     <g id="text_31">
      <!-- 0.007 -->
      <g transform="translate(33.64625 191.075955882)scale(0.12 -0.12)">
       <use xlink:href="#BitstreamVeraSans-Roman-30"/>
       <use x="63.623046875" xlink:href="#BitstreamVeraSans-Roman-2e"/>
       <use x="95.41015625" xlink:href="#BitstreamVeraSans-Roman-30"/>
       <use x="159.033203125" xlink:href="#BitstreamVeraSans-Roman-30"/>
       <use x="222.65625" xlink:href="#BitstreamVeraSans-Roman-37"/>
      </g>
     </g>
    </g>
    <g id="ytick_19">
     <g id="line2d_63">
      <g>
       <use style="stroke:#000000;stroke-width:0.5;" x="72.0" xlink:href="#m2a9d966803" y="176.470588235"/>
      </g>
     </g>
     <g id="line2d_64">
      <g>
       <use style="stroke:#000000;stroke-width:0.5;" x="518.4" xlink:href="#mf9b4dc8095" y="176.470588235"/>
      </g>
     </g>
     <g id="text_32">
      <!-- 0.008 -->
      <g transform="translate(33.64625 179.781838235)scale(0.12 -0.12)">
       <use xlink:href="#BitstreamVeraSans-Roman-30"/>
       <use x="63.623046875" xlink:href="#BitstreamVeraSans-Roman-2e"/>
       <use x="95.41015625" xlink:href="#BitstreamVeraSans-Roman-30"/>
       <use x="159.033203125" xlink:href="#BitstreamVeraSans-Roman-30"/>
       <use x="222.65625" xlink:href="#BitstreamVeraSans-Roman-38"/>
      </g>
     </g>
    </g>
    <g id="ytick_20">
     <g id="line2d_65">
      <g>
       <use style="stroke:#000000;stroke-width:0.5;" x="72.0" xlink:href="#m2a9d966803" y="165.176470588"/>
      </g>
     </g>
     <g id="line2d_66">
      <g>
       <use style="stroke:#000000;stroke-width:0.5;" x="518.4" xlink:href="#mf9b4dc8095" y="165.176470588"/>
      </g>
     </g>
     <g id="text_33">
      <!-- 0.009 -->
      <g transform="translate(33.64625 168.487720588)scale(0.12 -0.12)">
       <use xlink:href="#BitstreamVeraSans-Roman-30"/>
       <use x="63.623046875" xlink:href="#BitstreamVeraSans-Roman-2e"/>
       <use x="95.41015625" xlink:href="#BitstreamVeraSans-Roman-30"/>
       <use x="159.033203125" xlink:href="#BitstreamVeraSans-Roman-30"/>
       <use x="222.65625" xlink:href="#BitstreamVeraSans-Roman-39"/>
      </g>
     </g>
    </g>
    <g id="text_34">
     <!-- thegma_y -->
     <defs>
      <path d="M 32.171875 -5.078125 
Q 28.375 -14.84375 24.75 -17.8125 
Q 21.140625 -20.796875 15.09375 -20.796875 
L 7.90625 -20.796875 
L 7.90625 -13.28125 
L 13.1875 -13.28125 
Q 16.890625 -13.28125 18.9375 -11.515625 
Q 21 -9.765625 23.484375 -3.21875 
L 25.09375 0.875 
L 2.984375 54.6875 
L 12.5 54.6875 
L 29.59375 11.921875 
L 46.6875 54.6875 
L 56.203125 54.6875 
z
" id="BitstreamVeraSans-Roman-79"/>
     </defs>
     <g transform="translate(25.816875 245.728125)rotate(-90.0)scale(0.12 -0.12)">
      <use xlink:href="#BitstreamVeraSans-Roman-74"/>
      <use x="39.208984375" xlink:href="#BitstreamVeraSans-Roman-68"/>
      <use x="102.587890625" xlink:href="#BitstreamVeraSans-Roman-65"/>
      <use x="164.111328125" xlink:href="#BitstreamVeraSans-Roman-67"/>
      <use x="227.587890625" xlink:href="#BitstreamVeraSans-Roman-6d"/>
      <use x="325.0" xlink:href="#BitstreamVeraSans-Roman-61"/>
      <use x="386.279296875" xlink:href="#BitstreamVeraSans-Roman-5f"/>
      <use x="436.279296875" xlink:href="#BitstreamVeraSans-Roman-79"/>
     </g>
    </g>
   </g>
  </g>
  <g id="axes_3">
   <g id="patch_12">
    <path d="M 72 388.8 
L 518.4 388.8 
L 518.4 287.152941 
L 72 287.152941 
z
" style="fill:#ffffff;"/>
   </g>
   <g id="line2d_67">
    <path clip-path="url(#p30bbd548e4)" d="M 72 49.970969 
L 72 48.976716 
L 77.48272 48.823169 
L 77.48272 168.833515 
L 77.48272 168.825041 
L 78.107141 168.816568 
L 78.301321 337.005438 
L 78.301321 336.969463 
L 78.937164 336.861687 
L 79.542548 342.296278 
L 79.542548 342.216183 
L 80.757123 342.056405 
L 80.757123 341.936929 
L 82.234411 341.7781 
L 82.234411 341.698887 
L 83.68124 341.501433 
L 83.68124 341.422682 
L 84.522685 341.265571 
L 84.522685 341.226374 
L 85.790564 341.06991 
L 85.790564 341.030874 
L 87.256431 340.83617 
L 87.256431 340.758509 
L 88.132143 340.603564 
L 88.132143 340.564905 
L 89.392407 340.410579 
L 89.392407 340.333601 
L 90.694553 340.180009 
L 90.694553 341.608125 
L 91.330396 341.568644 
L 91.330396 342.57035 
L 92.209916 342.409352 
L 92.209916 355.170862 
L 92.209916 355.115481 
L 93.717664 354.894861 
L 93.717664 354.785087 
L 94.600991 354.621088 
L 94.600991 354.512191 
L 95.89933 354.295428 
L 95.89933 354.187555 
L 97.197669 353.972812 
L 97.197669 353.865936 
L 98.092418 353.706232 
L 98.092418 353.653158 
L 99.421216 353.441661 
L 99.421216 353.336385 
L 100.704325 353.126766 
L 100.704325 353.074554 
L 101.621919 352.918371 
L 101.621919 352.814627 
L 102.912643 352.608029 
L 102.912643 352.505172 
L 104.230019 352.300326 
L 104.230019 355.999145 
L 104.922974 355.885688 
L 105.15142 357.874557 
L 105.15142 357.754246 
L 105.802493 357.634399 
L 105.802493 357.574648 
L 106.480219 357.455488 
L 106.480219 357.396077 
L 107.150329 357.277592 
L 107.150329 357.218517 
L 108.521009 357.041948 
L 108.521009 356.98331 
L 108.75707 356.866357 
L 108.75707 356.80804 
L 109.415758 356.691725 
L 109.415758 356.633725 
L 110.127751 356.518038 
L 110.127751 356.46035 
L 110.790246 356.345281 
L 110.790246 356.287899 
L 111.487008 356.173438 
L 111.487008 356.116358 
L 112.400795 355.945713 
L 112.400795 355.889028 
L 113.07852 355.775949 
L 113.07852 355.719555 
L 113.996114 355.550946 
L 113.996114 355.494933 
L 114.879441 355.327455 
L 114.879441 355.271815 
L 115.857955 355.105447 
L 115.857955 355.050173 
L 117.262902 354.829977 
L 117.262902 354.720412 
L 117.944434 354.665762 
L 117.944434 360.557166 
L 117.944434 360.491246 
L 119.105705 360.294399 
L 119.105705 367.304844 
L 119.105705 367.218303 
L 119.810082 367.046254 
L 119.810082 366.960738 
L 120.510652 366.790702 
L 120.510652 366.706175 
L 121.447283 366.538083 
L 121.447283 366.371251 
L 122.121201 366.205651 
L 122.121201 366.123305 
L 123.0921 365.959502 
L 123.0921 365.796866 
L 123.785054 365.635372 
L 123.785054 365.555046 
L 124.489432 365.39522 
L 124.489432 365.315715 
L 125.190002 365.157507 
L 125.190002 365.078799 
L 126.13044 364.922161 
L 126.13044 364.766543 
L 127.070879 364.611927 
L 127.070879 364.458293 
L 127.786679 364.305623 
L 127.786679 364.229643 
L 128.727118 364.078385 
L 128.727118 363.928046 
L 129.420073 363.778611 
L 129.420073 363.704227 
L 130.364319 363.556116 
L 130.364319 363.40887 
L 131.057274 363.262472 
L 131.057274 363.189588 
L 131.788303 363.044436 
L 131.788303 362.972167 
L 132.485065 362.828231 
L 132.485065 368.541626 
L 133.444542 368.358436 
L 133.444542 368.176873 
L 134.38498 367.996895 
L 134.38498 367.81846 
L 135.10078 367.64153 
L 135.10078 367.553618 
L 136.075486 367.378875 
L 136.075486 367.205547 
L 136.791285 367.033598 
L 136.791285 366.948132 
L 137.708879 366.778193 
L 137.708879 366.609556 
L 138.417064 366.442191 
L 138.417064 366.358976 
L 139.132864 366.193466 
L 139.132864 366.111164 
L 139.856278 365.947448 
L 139.856278 365.866029 
L 140.556848 365.704051 
L 140.556848 365.623487 
L 141.523939 365.463192 
L 141.523939 365.303991 
L 142.270198 365.145862 
L 142.270198 365.067192 
L 142.99742 364.91063 
L 142.99742 364.832733 
L 143.968318 364.677692 
L 143.968318 364.523642 
L 144.946832 364.370563 
L 144.946832 364.218437 
L 145.662631 364.067248 
L 145.662631 368.768018 
L 146.386046 368.582776 
L 146.386046 368.490789 
L 147.372174 368.308053 
L 147.372174 368.126933 
L 148.110818 367.947385 
L 148.110818 367.858189 
L 149.081717 367.680926 
L 149.081717 367.505139 
L 149.847013 367.330791 
L 149.847013 367.244146 
L 150.59708 367.071892 
L 150.59708 366.986275 
L 151.320494 366.816042 
L 151.320494 366.731418 
L 152.047716 366.563135 
L 152.047716 366.47947 
L 153.026229 366.313073 
L 153.026229 366.147898 
L 153.761066 365.983919 
L 153.761066 365.90237 
L 154.488288 365.740137 
L 154.488288 365.659447 
L 155.20028 365.498905 
L 155.20028 365.419047 
L 155.965577 365.260145 
L 155.965577 365.181095 
L 156.955512 365.023783 
L 156.955512 364.867504 
L 157.701771 364.71224 
L 157.701771 364.634982 
L 158.421378 364.481203 
L 158.421378 364.404676 
L 159.388469 364.252339 
L 159.388469 368.725778 
L 159.388469 368.633138 
L 160.40125 368.449124 
L 160.40125 368.266759 
L 161.136086 368.086 
L 161.136086 367.996209 
L 161.870923 367.81778 
L 161.870923 367.729133 
L 162.624797 367.552947 
L 162.624797 367.465399 
L 163.610925 367.291373 
L 163.610925 367.118744 
L 164.600861 366.947479 
L 164.600861 366.777545 
L 165.335698 366.608913 
L 165.335698 366.525076 
L 166.093379 366.358341 
L 166.093379 366.275436 
L 166.835831 366.110535 
L 166.835831 366.028533 
L 168.061828 365.784278 
L 168.061828 365.622871 
L 168.81951 365.462581 
L 168.81951 365.382847 
L 169.565769 365.224189 
L 169.565769 365.145259 
L 170.536667 364.988184 
L 170.536667 364.832138 
L 171.777894 364.599955 
L 171.777894 365.666 
L 171.777894 365.585567 
L 172.516538 365.425533 
L 172.516538 365.345925 
L 173.270412 365.187515 
L 173.270412 368.573248 
L 174.267963 368.389774 
L 174.267963 368.207934 
L 175.014222 368.027687 
L 175.014222 367.938147 
L 176.004158 367.760211 
L 176.004158 367.583767 
L 176.746609 367.408778 
L 176.746609 367.321818 
L 177.466216 367.148946 
L 177.466216 367.063026 
L 178.463767 366.892196 
L 178.463767 366.722688 
L 179.468932 366.554472 
L 179.716416 366.387518 
L 179.716416 366.304506 
L 180.47029 366.139393 
L 180.47029 366.057287 
L 181.231779 365.893956 
L 181.231779 365.812726 
L 182.023728 365.651122 
L 182.023728 365.570741 
L 183.006048 365.410808 
L 183.006048 365.251961 
L 184.007406 365.094179 
L 184.007406 364.937439 
L 184.749858 364.781723 
L 184.749858 364.704242 
L 185.499925 364.550023 
L 185.499925 364.473281 
L 186.48986 364.320517 
L 186.48986 364.244491 
L 186.48986 364.244491 
L 186.48986 364.244491 
L 186.48986 368.620235 
L 187.506448 368.436338 
L 187.506448 368.254087 
L 188.286974 368.073438 
L 188.286974 367.983701 
L 189.05227 367.805379 
L 189.05227 367.716783 
L 190.065051 367.540699 
L 190.065051 367.279275 
L 191.047371 367.106742 
L 191.047371 367.020988 
L 192.048729 366.850486 
L 192.048729 366.681298 
L 192.783566 366.513394 
L 192.783566 366.346745 
L 193.784924 366.181324 
L 193.784924 366.099066 
L 194.55022 365.935437 
L 194.55022 365.854061 
L 195.517311 365.692167 
L 195.517311 365.531399 
L 196.313067 365.371735 
L 196.313067 365.292309 
L 197.006022 365.134258 
L 197.006022 365.055627 
L 197.740859 364.89914 
L 197.740859 364.82128 
L 198.529 364.743672 
L 198.784099 365.910742 
L 198.784099 365.74845 
L 199.770227 365.587292 
L 199.770227 368.925998 
L 199.770227 368.83243 
L 200.531716 368.739298 
L 200.531716 368.982305 
L 200.531716 368.888472 
L 201.274168 368.70212 
L 201.274168 368.609589 
L 202.290755 368.425788 
L 202.290755 368.24363 
L 203.292113 368.063073 
L 203.292113 367.884073 
L 204.072639 367.706593 
L 204.072639 367.618411 
L 204.807476 367.443138 
L 204.807476 367.356039 
L 205.820257 367.182893 
L 205.820257 367.011124 
L 206.844459 366.840698 
L 207.099558 366.671584 
L 207.099558 366.58751 
L 207.861047 366.42031 
L 207.861047 366.337177 
L 208.630151 366.171826 
L 208.630151 366.089602 
L 209.654353 365.926041 
L 209.654353 365.763641 
L 210.381575 365.602378 
L 210.381575 365.522166 
L 211.390548 365.362564 
L 211.390548 365.204042 
L 212.14823 365.046578 
L 212.14823 368.710228 
L 212.924948 368.525514 
L 212.924948 369.300414 
L 213.663593 369.205058 
L 213.663593 371.202831 
L 213.663593 371.097224 
L 214.432696 370.887878 
L 214.432696 370.784118 
L 215.460706 370.578369 
L 215.460706 370.374917 
L 216.21458 370.173688 
L 216.21458 370.073884 
L 216.995107 369.875856 
L 216.995107 369.777614 
L 217.756595 369.582639 
L 217.756595 369.485889 
L 218.521892 369.293829 
L 218.521892 369.198504 
L 219.511827 369.009233 
L 219.511827 368.821755 
L 220.277124 368.636019 
L 220.277124 368.54379 
L 221.030998 368.360581 
L 221.030998 368.178999 
L 222.57682 367.909585 
L 222.57682 367.643602 
L 223.593408 367.468123 
L 223.593408 367.380922 
L 224.362512 367.207577 
L 224.362512 367.035613 
L 225.375292 366.864996 
L 225.375292 366.780184 
L 226.144396 366.611532 
L 226.144396 367.316939 
L 226.917307 367.144107 
L 226.917307 367.058205 
L 227.682604 366.972642 
L 227.930088 369.85439 
L 227.930088 369.658632 
L 228.718229 371.039896 
L 228.718229 370.831218 
L 229.49114 370.624936 
L 229.49114 370.522668 
L 230.237399 370.31983 
L 230.237399 370.219241 
L 231.02554 370.01968 
L 231.02554 369.92069 
L 232.023091 369.724252 
L 232.023091 369.529816 
L 233.062523 369.337322 
L 233.062523 369.146714 
L 233.831627 368.957937 
L 233.831627 368.864218 
L 234.604538 368.678091 
L 234.604538 368.58567 
L 235.655393 368.402085 
L 235.655393 368.220136 
L 236.413074 368.039783 
L 236.413074 367.950191 
L 237.452507 367.772153 
L 237.452507 368.095697 
L 237.452507 368.005865 
L 238.23684 367.827354 
L 238.23684 367.738666 
L 238.975484 367.562401 
L 238.975484 367.474814 
L 240.022532 367.300712 
L 240.022532 367.752892 
L 240.022532 367.664516 
L 241.061964 367.488864 
L 241.061964 367.401579 
L 241.061964 367.401579 
L 241.061964 367.401579 
L 241.061964 369.826093 
L 241.834875 369.728108 
L 241.834875 371.016861 
L 241.834875 370.912352 
L 242.615402 370.705145 
L 242.615402 370.602426 
L 243.673871 370.398708 
L 243.673871 370.197222 
L 244.701881 369.997894 
L 244.964595 369.800658 
L 244.964595 369.702803 
L 245.741314 369.508583 
L 245.741314 369.412203 
L 246.544684 369.220866 
L 246.544684 369.125895 
L 247.580309 368.937315 
L 247.580309 368.75051 
L 248.337991 368.565428 
L 248.337991 368.47352 
L 249.41169 368.290938 
L 249.41169 368.109967 
L 250.173179 367.930566 
L 250.173179 367.841441 
L 250.934668 367.664319 
L 250.934668 367.576312 
L 251.715194 367.401384 
L 251.715194 367.314454 
L 252.499528 367.141641 
L 252.499528 367.05575 
L 253.546575 366.884977 
L 253.546575 366.715524 
L 254.330909 366.631283 
L 254.330909 367.246365 
L 254.330909 367.160058 
L 255.10382 366.988468 
L 255.10382 366.903177 
L 256.150867 366.733585 
L 256.150867 369.643044 
L 256.150867 369.545991 
L 257.182685 369.353337 
L 257.182685 369.162573 
L 257.974633 368.973645 
L 257.974633 368.879853 
L 258.755159 368.693581 
L 258.755159 368.601089 
L 259.813629 368.417364 
L 259.813629 368.235281 
L 260.57131 368.054796 
L 260.57131 367.965139 
L 261.397526 367.786975 
L 264.805189 366.579783 
L 265.875081 366.412641 
L 265.875081 366.246737 
L 266.667029 366.082044 
L 266.667029 366.000144 
L 267.439941 365.83722 
L 267.439941 365.75619 
L 268.228082 365.594979 
L 268.228082 365.514792 
L 268.997185 366.76143 
L 268.997185 366.59292 
L 270.04804 366.425679 
L 270.04804 369.684977 
L 270.04804 369.490937 
L 270.843796 369.298827 
L 270.843796 369.203478 
L 272.427693 368.920176 
L 272.427693 368.73353 
L 273.219641 368.548604 
L 273.219641 368.456771 
L 274.255266 368.274338 
L 274.255266 368.093512 
L 275.020563 367.914252 
L 275.020563 367.825197 
L 275.820126 367.648211 
L 275.820126 367.560271 
L 276.596845 367.385474 
L 276.596845 367.212092 
L 278.195972 366.9546 
L 278.195972 366.869441 
L 278.458685 366.700108 
L 278.458685 366.615926 
L 279.254441 366.448513 
L 279.254441 366.365275 
L 280.282451 366.199718 
L 280.282451 366.117393 
L 281.066785 365.953633 
L 281.066785 365.872192 
L 281.824466 365.710171 
L 281.824466 365.629585 
L 282.886743 365.469249 
L 282.886743 365.389492 
L 282.886743 365.389492 
L 282.886743 365.389492 
L 282.886743 366.680078 
L 282.886743 366.595972 
L 283.952828 366.428708 
L 283.952828 366.345544 
L 284.718124 369.780494 
L 284.718124 369.682743 
L 284.718124 371.4497 
L 285.536725 371.236152 
L 285.536725 371.130346 
L 286.55712 370.920613 
L 286.55712 370.713311 
L 287.604167 370.508359 
L 287.604167 370.305677 
L 288.399923 370.105193 
L 291.54868 368.851098 
L 292.610957 368.665092 
L 292.610957 368.389262 
L 294.194854 368.117109 
L 294.194854 367.937646 
L 295.253324 367.759714 
L 295.253324 367.583274 
L 296.030042 367.408289 
L 296.285141 367.234724 
L 296.285141 367.148463 
L 297.088512 366.976965 
L 297.088512 366.891719 
L 297.884268 366.806804 
L 297.884268 369.876045 
L 298.691446 369.680065 
L 298.950352 371.124414 
L 298.950352 370.91475 
L 299.9974 370.707515 
L 299.9974 370.604783 
L 300.796963 370.40104 
L 301.063484 370.199528 
L 301.063484 370.099586 
L 302.651189 369.802915 
L 302.651189 369.705049 
L 303.976179 369.223057 
L 303.976179 369.128075 
L 304.783357 368.939475 
L 305.049879 368.752649 
L 305.049879 368.659886 
L 305.857057 368.47563 
L 305.857057 368.384126 
L 306.660428 368.202336 
L 306.660428 368.11204 
L 307.71509 367.932621 
L 307.71509 367.843488 
L 308.514653 367.666348 
L 308.788789 367.490681 
L 308.788789 367.403389 
L 309.584545 367.229863 
L 309.584545 367.143622 
L 310.372686 366.972161 
L 310.372686 367.524091 
L 311.12656 367.436662 
L 311.393081 367.812202 
L 311.393081 367.723578 
L 312.219297 367.635325 
L 312.219297 369.941347 
L 312.470588 369.842766 
L 312.470588 371.064534 
L 312.470588 370.959746 
L 313.277766 370.751995 
L 313.277766 370.649011 
L 314.054485 370.444776 
L 314.054485 370.343507 
L 314.850241 370.142616 
L 314.850241 370.042978 
L 315.904903 369.845272 
L 315.904903 369.747188 
L 316.712082 369.552521 
L 316.98241 369.359802 
L 316.98241 369.264156 
L 317.755321 369.074255 
L 317.755321 368.979986 
L 318.5625 368.792782 
L 318.5625 368.699834 
L 319.628584 368.515215 
L 319.628584 368.423533 
L 320.390073 368.241395 
L 320.668017 368.060856 
L 320.668017 367.971174 
L 321.486617 367.792958 
L 321.486617 367.704414 
L 321.745523 367.616241 
L 322.522242 367.440986 
L 322.522242 367.353896 
L 323.314191 367.180768 
L 323.314191 367.009015 
L 324.38789 366.923644 
L 324.658218 367.563681 
L 324.658218 367.388857 
L 325.476819 367.813109 
L 325.74334 367.636224 
L 325.74334 367.548333 
L 326.546711 367.460805 
L 326.546711 369.933528 
L 326.546711 369.834988 
L 327.346274 369.639428 
L 327.346274 369.445844 
L 328.408551 369.254178 
L 328.408551 369.159046 
L 329.463214 368.970151 
L 329.463214 368.783039 
L 330.293237 368.597659 
L 330.293237 368.505605 
L 331.07757 368.322737 
L 331.07757 368.231912 
L 332.155077 368.051457 
L 332.155077 367.872557 
L 333.251621 367.695173 
L 333.251621 367.519269 
L 334.313898 367.344806 
L 334.313898 367.17175 
L 335.102039 367.000068 
L 335.102039 366.914733 
L 336.137664 366.745051 
L 336.137664 366.576666 
L 337.203749 366.409546 
L 337.203749 366.243665 
L 338.269833 366.078995 
L 338.269833 365.91551 
L 339.084626 365.834204 
L 339.084626 366.985735 
L 339.084626 366.900455 
L 339.857537 366.730884 
L 339.857537 366.646585 
L 340.938852 366.478942 
L 340.938852 366.395591 
L 340.938852 366.395591 
L 340.938852 366.395591 
L 340.938852 369.787331 
L 342.012551 369.592257 
L 342.012551 369.399144 
L 342.819729 369.207934 
L 342.819729 368.831006 
L 344.712029 368.552915 
L 344.712029 368.461063 
L 345.778114 368.278592 
L 346.577677 367.918433 
L 346.577677 367.82936 
L 347.346781 367.652338 
L 347.346781 367.564381 
L 348.176804 367.389551 
L 348.176804 367.302669 
L 349.254311 367.12995 
L 349.254311 366.958597 
L 350.308973 366.788577 
L 350.308973 366.619861 
L 351.085692 366.452419 
L 351.085692 366.369166 
L 351.854796 366.203582 
L 351.854796 366.121243 
L 352.677204 365.957455 
L 352.677204 365.876 
L 352.958954 365.794833 
L 353.743288 365.713952 
L 354.017424 367.141937 
L 354.017424 366.97049 
L 355.053049 366.800378 
L 355.053049 370.374911 
L 355.053049 370.274023 
L 355.867842 370.173681 
L 355.867842 371.522154 
L 355.867842 371.414607 
L 356.941542 371.201486 
L 356.941542 370.990914 
L 358.003819 370.782804 
L 358.003819 370.57707 
L 359.092748 370.373633 
L 359.092748 370.172417 
L 359.884696 369.973352 
L 359.884696 369.874605 
L 360.695682 369.67864 
L 360.695682 369.581407 
L 361.784611 369.388402 
L 361.784611 369.197297 
L 362.877348 369.008037 
L 362.877348 368.727493 
L 364.491704 368.450816 
L 364.491704 368.268436 
L 365.542559 368.087662 
L 365.542559 367.819421 
L 366.604836 367.642483 
L 366.604836 367.554567 
L 367.419629 367.379817 
L 367.419629 367.292974 
L 368.20777 367.120332 
L 368.20777 367.797915 
L 368.988296 367.621156 
L 368.988296 367.533328 
L 369.80309 367.445861 
L 370.065803 370.171394 
L 370.065803 369.972339 
L 371.15854 369.775368 
L 371.15854 369.580415 
L 371.939066 369.387419 
L 371.939066 369.291638 
L 372.734822 369.101471 
L 372.734822 369.007074 
L 373.816136 368.819615 
L 373.816136 368.6339 
L 374.893643 368.449879 
L 374.893643 368.267507 
L 375.963535 368.086742 
L 375.963535 367.90754 
L 376.778328 367.729862 
L 376.778328 367.641582 
L 377.539817 367.466119 
L 377.539817 367.292088 
L 378.56402 367.119453 
L 378.56402 366.863048 
L 379.892818 366.693763 
L 379.892818 366.609605 
L 380.722841 366.44224 
L 380.722841 366.359025 
L 381.510982 366.193515 
L 381.510982 366.111212 
L 382.33339 365.947496 
L 382.592296 367.147203 
L 382.592296 367.06129 
L 383.365207 366.890473 
L 383.662188 366.720979 
L 384.454136 369.987134 
L 384.454136 371.378389 
L 384.454136 371.271724 
L 385.287967 371.060319 
L 385.287967 370.955556 
L 386.357859 370.747853 
L 386.357859 370.542513 
L 387.180267 370.339456 
L 387.180267 370.238761 
L 387.987445 370.038992 
L 387.987445 369.939901 
L 388.809853 369.743265 
L 388.809853 369.645704 
L 389.613224 369.452057 
L 389.613224 369.355957 
L 390.686923 369.165168 
L 390.686923 368.88241 
L 391.490294 368.696115 
L 391.745393 368.603611 
L 392.556379 368.419864 
L 392.556379 368.328609 
L 393.355942 368.147308 
L 393.355942 367.967585 
L 394.936032 367.700871 
L 395.210168 367.524919 
L 395.210168 367.437486 
L 396.009731 367.35041 
L 396.268637 367.993642 
L 396.268637 367.815235 
L 397.08343 367.638332 
L 397.08343 367.550433 
L 397.863956 367.375716 
L 397.863956 367.28889 
L 398.693979 367.202413 
L 398.952886 371.296457 
L 400.00374 371.084757 
L 400.00374 370.875557 
L 401.054595 370.66877 
L 401.054595 370.464316 
L 401.89604 370.262116 
L 401.89604 370.161839 
L 402.958317 369.962885 
L 402.958317 369.766012 
L 404.020594 369.571153 
L 404.020594 369.37825 
L 405.063834 369.187244 
L 405.063834 368.99808 
L 405.867205 368.810707 
L 405.867205 368.717675 
L 406.659154 368.532894 
L 406.659154 368.441132 
L 407.694779 368.258838 
L 407.694779 368.078148 
L 408.776093 367.899019 
L 408.776093 367.721413 
L 409.571849 367.545291 
L 409.571849 367.370617 
L 411.167168 367.111242 
L 411.167168 367.025471 
L 411.448919 367.721431 
L 411.448919 367.633186 
L 412.233253 367.457792 
L 412.499774 367.283828 
L 412.499774 367.197371 
L 413.573473 367.025488 
L 413.573473 370.218423 
L 413.573473 370.01887 
L 414.376844 371.392833 
L 414.376844 371.179974 
L 415.450543 370.969657 
L 416.265336 370.761792 
L 416.265336 370.658752 
L 417.308576 370.454409 
L 417.308576 370.252317 
L 418.085295 370.052404 
L 418.085295 369.953242 
L 418.900088 369.756468 
L 418.900088 369.65884 
L 419.707266 369.465062 
L 419.707266 369.273207 
L 421.310201 368.988907 
L 421.569107 368.801619 
L 421.569107 368.70863 
L 422.380092 368.523931 
L 422.380092 368.43221 
L 423.191078 368.249995 
L 423.191078 368.159491 
L 423.979219 367.979662 
L 423.979219 367.890328 
L 424.790205 367.712795 
L 424.790205 367.624587 
L 425.582153 367.449264 
L 425.848675 368.060906 
L 425.848675 367.971224 
L 426.640623 367.793007 
L 426.640623 367.704463 
L 427.436379 367.528482 
L 427.436379 367.441035 
L 428.243557 367.267206 
L 428.243557 370.004951 
L 428.243557 369.807641 
L 429.835069 369.515461 
L 430.08636 369.32311 
L 430.908768 369.132639 
L 430.908768 368.850343 
L 432.50028 368.571986 
L 432.50028 368.480047 
L 433.296036 368.297407 
L 433.296036 368.206695 
L 434.327854 368.026458 
L 434.327854 367.758998 
L 435.923173 367.494894 
L 436.189694 367.32063 
L 436.189694 367.147767 
L 437.781206 366.891031 
L 437.781206 366.721532 
L 438.839676 366.553324 
L 438.839676 366.386379 
L 439.894338 366.220668 
L 439.894338 366.056164 
L 440.678671 365.892842 
L 440.678671 365.811616 
L 440.678671 365.811616 
L 440.678671 365.811616 
L 440.678671 367.04361 
L 442.273991 366.788088 
L 442.540512 366.703571 
L 442.540512 369.951787 
L 442.540512 369.853152 
L 443.328653 369.657407 
L 443.328653 369.560281 
L 443.328653 369.560281 
L 443.328653 369.560281 
L 443.328653 371.084043 
L 444.132024 370.874851 
L 444.132024 370.771166 
L 445.719728 370.463626 
L 445.719728 370.261434 
L 446.534521 370.061423 
L 446.534521 369.962214 
L 447.562531 369.570496 
L 448.346865 369.377599 
L 449.412949 368.903537 
L 449.412949 368.810074 
L 450.993039 368.53227 
L 450.993039 368.440511 
L 452.352297 367.898414 
L 453.163282 367.720813 
L 453.163282 367.544696 
L 454.697683 367.283223 
L 454.697683 367.196769 
L 454.964204 367.930684 
L 454.964204 367.841559 
L 455.782804 367.664436 
L 455.782804 367.576428 
L 456.053133 367.4015 
L 457.11541 367.227989 
L 457.11541 370.013922 
L 457.11541 369.816519 
L 458.687885 369.524204 
L 458.962021 369.331766 
L 458.962021 369.236257 
L 459.773006 369.046624 
L 460.031912 368.952486 
L 461.113227 368.765539 
L 461.113227 368.58032 
L 461.91279 368.396783 
L 461.91279 368.30563 
L 462.742813 368.124531 
L 462.742813 367.76701 
L 464.840715 367.415465 
L 464.840715 367.328478 
L 465.644086 367.155553 
L 465.644086 367.069607 
L 466.455072 366.898726 
L 466.455072 366.729168 
L 467.258442 366.560902 
L 468.282645 366.228134 
L 469.127898 366.063577 
L 469.127898 365.981743 
L 470.985931 365.416924 
L 471.774072 365.258036 
L 471.774072 370.138277 
L 471.774072 369.939572 
L 473.369391 369.64538 
L 476.849395 368.328306 
L 476.849395 368.147008 
L 477.664189 367.967287 
L 477.664189 367.878006 
L 477.926902 367.789104 
L 478.730273 367.612419 
L 478.730273 367.524627 
L 480.306555 367.263398 
L 480.306555 367.177023 
L 481.094696 367.0053 
L 481.094696 366.919943 
L 481.924719 366.750222 
L 481.924719 366.665849 
L 482.183625 366.581797 
L 482.983189 366.414639 
L 482.983189 366.331527 
L 484.053081 366.166218 
L 484.053081 366.084014 
L 484.053081 366.084014 
L 484.053081 366.084014 
L 484.053081 367.384175 
L 484.845029 367.210804 
L 484.845029 367.124639 
L 485.640785 366.953327 
L 485.640785 366.783349 
L 486.714484 366.614672 
L 486.714484 369.880257 
L 487.772954 369.684235 
L 487.772954 369.490202 
L 488.564903 369.298099 
L 488.564903 369.202754 
L 489.356851 369.013442 
L 489.356851 368.919462 
L 490.419128 368.732822 
L 490.419128 368.547903 
L 491.511865 368.364656 
L 491.511865 368.183038 
L 492.581757 368.003007 
L 492.581757 367.647539 
L 494.43979 367.384811 
L 494.43979 367.211435 
L 495.239353 367.03944 
L 496.579574 366.531424 
L 496.579574 366.447878 
L 498.16347 366.19909 
L 498.16347 366.034743 
L 498.993493 365.871573 
L 498.993493 354.968854 
L 498.993493 354.968854 
" style="fill:none;stroke:#0000ff;stroke-linecap:square;"/>
   </g>
   <g id="patch_13">
    <path d="M 72 287.152941 
L 518.4 287.152941 
" style="fill:none;stroke:#000000;stroke-linecap:square;stroke-linejoin:miter;"/>
   </g>
   <g id="patch_14">
    <path d="M 518.4 388.8 
L 518.4 287.152941 
" style="fill:none;stroke:#000000;stroke-linecap:square;stroke-linejoin:miter;"/>
   </g>
   <g id="patch_15">
    <path d="M 72 388.8 
L 518.4 388.8 
" style="fill:none;stroke:#000000;stroke-linecap:square;stroke-linejoin:miter;"/>
   </g>
   <g id="patch_16">
    <path d="M 72 388.8 
L 72 287.152941 
" style="fill:none;stroke:#000000;stroke-linecap:square;stroke-linejoin:miter;"/>
   </g>
   <g id="matplotlib.axis_5">
    <g id="xtick_13">
     <g id="line2d_68">
      <g>
       <use style="stroke:#000000;stroke-width:0.5;" x="72.0" xlink:href="#m2a3dbc33e2" y="388.8"/>
      </g>
     </g>
     <g id="line2d_69">
      <g>
       <use style="stroke:#000000;stroke-width:0.5;" x="72.0" xlink:href="#mbb2e9c619b" y="287.152941176"/>
      </g>
     </g>
     <g id="text_35">
      <!-- 0 -->
      <g transform="translate(68.1825 401.918125)scale(0.12 -0.12)">
       <use xlink:href="#BitstreamVeraSans-Roman-30"/>
      </g>
     </g>
    </g>
    <g id="xtick_14">
     <g id="line2d_70">
      <g>
       <use style="stroke:#000000;stroke-width:0.5;" x="161.28" xlink:href="#m2a3dbc33e2" y="388.8"/>
      </g>
     </g>
     <g id="line2d_71">
      <g>
       <use style="stroke:#000000;stroke-width:0.5;" x="161.28" xlink:href="#mbb2e9c619b" y="287.152941176"/>
      </g>
     </g>
     <g id="text_36">
      <!-- 1 -->
      <g transform="translate(157.4625 401.918125)scale(0.12 -0.12)">
       <use xlink:href="#BitstreamVeraSans-Roman-31"/>
      </g>
     </g>
    </g>
    <g id="xtick_15">
     <g id="line2d_72">
      <g>
       <use style="stroke:#000000;stroke-width:0.5;" x="250.56" xlink:href="#m2a3dbc33e2" y="388.8"/>
      </g>
     </g>
     <g id="line2d_73">
      <g>
       <use style="stroke:#000000;stroke-width:0.5;" x="250.56" xlink:href="#mbb2e9c619b" y="287.152941176"/>
      </g>
     </g>
     <g id="text_37">
      <!-- 2 -->
      <g transform="translate(246.7425 401.918125)scale(0.12 -0.12)">
       <use xlink:href="#BitstreamVeraSans-Roman-32"/>
      </g>
     </g>
    </g>
    <g id="xtick_16">
     <g id="line2d_74">
      <g>
       <use style="stroke:#000000;stroke-width:0.5;" x="339.84" xlink:href="#m2a3dbc33e2" y="388.8"/>
      </g>
     </g>
     <g id="line2d_75">
      <g>
       <use style="stroke:#000000;stroke-width:0.5;" x="339.84" xlink:href="#mbb2e9c619b" y="287.152941176"/>
      </g>
     </g>
     <g id="text_38">
      <!-- 3 -->
      <g transform="translate(336.0225 401.918125)scale(0.12 -0.12)">
       <use xlink:href="#BitstreamVeraSans-Roman-33"/>
      </g>
     </g>
    </g>
    <g id="xtick_17">
     <g id="line2d_76">
      <g>
       <use style="stroke:#000000;stroke-width:0.5;" x="429.12" xlink:href="#m2a3dbc33e2" y="388.8"/>
      </g>
     </g>
     <g id="line2d_77">
      <g>
       <use style="stroke:#000000;stroke-width:0.5;" x="429.12" xlink:href="#mbb2e9c619b" y="287.152941176"/>
      </g>
     </g>
     <g id="text_39">
      <!-- 4 -->
      <g transform="translate(425.3025 401.918125)scale(0.12 -0.12)">
       <use xlink:href="#BitstreamVeraSans-Roman-34"/>
      </g>
     </g>
    </g>
    <g id="xtick_18">
     <g id="line2d_78">
      <g>
       <use style="stroke:#000000;stroke-width:0.5;" x="518.4" xlink:href="#m2a3dbc33e2" y="388.8"/>
      </g>
     </g>
     <g id="line2d_79">
      <g>
       <use style="stroke:#000000;stroke-width:0.5;" x="518.4" xlink:href="#mbb2e9c619b" y="287.152941176"/>
      </g>
     </g>
     <g id="text_40">
      <!-- 5 -->
      <g transform="translate(514.5825 401.918125)scale(0.12 -0.12)">
       <use xlink:href="#BitstreamVeraSans-Roman-35"/>
      </g>
     </g>
    </g>
    <g id="text_41">
     <!-- travel_distance -->
     <defs>
      <path d="M 54.890625 33.015625 
L 54.890625 0 
L 45.90625 0 
L 45.90625 32.71875 
Q 45.90625 40.484375 42.875 44.328125 
Q 39.84375 48.1875 33.796875 48.1875 
Q 26.515625 48.1875 22.3125 43.546875 
Q 18.109375 38.921875 18.109375 30.90625 
L 18.109375 0 
L 9.078125 0 
L 9.078125 54.6875 
L 18.109375 54.6875 
L 18.109375 46.1875 
Q 21.34375 51.125 25.703125 53.5625 
Q 30.078125 56 35.796875 56 
Q 45.21875 56 50.046875 50.171875 
Q 54.890625 44.34375 54.890625 33.015625 
" id="BitstreamVeraSans-Roman-6e"/>
      <path d="M 9.421875 75.984375 
L 18.40625 75.984375 
L 18.40625 0 
L 9.421875 0 
z
" id="BitstreamVeraSans-Roman-6c"/>
      <path d="M 9.421875 54.6875 
L 18.40625 54.6875 
L 18.40625 0 
L 9.421875 0 
z
M 9.421875 75.984375 
L 18.40625 75.984375 
L 18.40625 64.59375 
L 9.421875 64.59375 
z
" id="BitstreamVeraSans-Roman-69"/>
      <path d="M 2.984375 54.6875 
L 12.5 54.6875 
L 29.59375 8.796875 
L 46.6875 54.6875 
L 56.203125 54.6875 
L 35.6875 0 
L 23.484375 0 
z
" id="BitstreamVeraSans-Roman-76"/>
      <path d="M 45.40625 46.390625 
L 45.40625 75.984375 
L 54.390625 75.984375 
L 54.390625 0 
L 45.40625 0 
L 45.40625 8.203125 
Q 42.578125 3.328125 38.25 0.953125 
Q 33.9375 -1.421875 27.875 -1.421875 
Q 17.96875 -1.421875 11.734375 6.484375 
Q 5.515625 14.40625 5.515625 27.296875 
Q 5.515625 40.1875 11.734375 48.09375 
Q 17.96875 56 27.875 56 
Q 33.9375 56 38.25 53.625 
Q 42.578125 51.265625 45.40625 46.390625 
M 14.796875 27.296875 
Q 14.796875 17.390625 18.875 11.75 
Q 22.953125 6.109375 30.078125 6.109375 
Q 37.203125 6.109375 41.296875 11.75 
Q 45.40625 17.390625 45.40625 27.296875 
Q 45.40625 37.203125 41.296875 42.84375 
Q 37.203125 48.484375 30.078125 48.484375 
Q 22.953125 48.484375 18.875 42.84375 
Q 14.796875 37.203125 14.796875 27.296875 
" id="BitstreamVeraSans-Roman-64"/>
      <path d="M 41.109375 46.296875 
Q 39.59375 47.171875 37.8125 47.578125 
Q 36.03125 48 33.890625 48 
Q 26.265625 48 22.1875 43.046875 
Q 18.109375 38.09375 18.109375 28.8125 
L 18.109375 0 
L 9.078125 0 
L 9.078125 54.6875 
L 18.109375 54.6875 
L 18.109375 46.1875 
Q 20.953125 51.171875 25.484375 53.578125 
Q 30.03125 56 36.53125 56 
Q 37.453125 56 38.578125 55.875 
Q 39.703125 55.765625 41.0625 55.515625 
z
" id="BitstreamVeraSans-Roman-72"/>
      <path d="M 44.28125 53.078125 
L 44.28125 44.578125 
Q 40.484375 46.53125 36.375 47.5 
Q 32.28125 48.484375 27.875 48.484375 
Q 21.1875 48.484375 17.84375 46.4375 
Q 14.5 44.390625 14.5 40.28125 
Q 14.5 37.15625 16.890625 35.375 
Q 19.28125 33.59375 26.515625 31.984375 
L 29.59375 31.296875 
Q 39.15625 29.25 43.1875 25.515625 
Q 47.21875 21.78125 47.21875 15.09375 
Q 47.21875 7.46875 41.1875 3.015625 
Q 35.15625 -1.421875 24.609375 -1.421875 
Q 20.21875 -1.421875 15.453125 -0.5625 
Q 10.6875 0.296875 5.421875 2 
L 5.421875 11.28125 
Q 10.40625 8.6875 15.234375 7.390625 
Q 20.0625 6.109375 24.8125 6.109375 
Q 31.15625 6.109375 34.5625 8.28125 
Q 37.984375 10.453125 37.984375 14.40625 
Q 37.984375 18.0625 35.515625 20.015625 
Q 33.0625 21.96875 24.703125 23.78125 
L 21.578125 24.515625 
Q 13.234375 26.265625 9.515625 29.90625 
Q 5.8125 33.546875 5.8125 39.890625 
Q 5.8125 47.609375 11.28125 51.796875 
Q 16.75 56 26.8125 56 
Q 31.78125 56 36.171875 55.265625 
Q 40.578125 54.546875 44.28125 53.078125 
" id="BitstreamVeraSans-Roman-73"/>
      <path d="M 48.78125 52.59375 
L 48.78125 44.1875 
Q 44.96875 46.296875 41.140625 47.34375 
Q 37.3125 48.390625 33.40625 48.390625 
Q 24.65625 48.390625 19.8125 42.84375 
Q 14.984375 37.3125 14.984375 27.296875 
Q 14.984375 17.28125 19.8125 11.734375 
Q 24.65625 6.203125 33.40625 6.203125 
Q 37.3125 6.203125 41.140625 7.25 
Q 44.96875 8.296875 48.78125 10.40625 
L 48.78125 2.09375 
Q 45.015625 0.34375 40.984375 -0.53125 
Q 36.96875 -1.421875 32.421875 -1.421875 
Q 20.0625 -1.421875 12.78125 6.34375 
Q 5.515625 14.109375 5.515625 27.296875 
Q 5.515625 40.671875 12.859375 48.328125 
Q 20.21875 56 33.015625 56 
Q 37.15625 56 41.109375 55.140625 
Q 45.0625 54.296875 48.78125 52.59375 
" id="BitstreamVeraSans-Roman-63"/>
     </defs>
     <g transform="translate(249.3703125 418.531875)scale(0.12 -0.12)">
      <use xlink:href="#BitstreamVeraSans-Roman-74"/>
      <use x="39.208984375" xlink:href="#BitstreamVeraSans-Roman-72"/>
      <use x="80.322265625" xlink:href="#BitstreamVeraSans-Roman-61"/>
      <use x="141.6015625" xlink:href="#BitstreamVeraSans-Roman-76"/>
      <use x="200.78125" xlink:href="#BitstreamVeraSans-Roman-65"/>
      <use x="262.3046875" xlink:href="#BitstreamVeraSans-Roman-6c"/>
      <use x="290.087890625" xlink:href="#BitstreamVeraSans-Roman-5f"/>
      <use x="340.087890625" xlink:href="#BitstreamVeraSans-Roman-64"/>
      <use x="403.564453125" xlink:href="#BitstreamVeraSans-Roman-69"/>
      <use x="431.34765625" xlink:href="#BitstreamVeraSans-Roman-73"/>
      <use x="483.447265625" xlink:href="#BitstreamVeraSans-Roman-74"/>
      <use x="522.65625" xlink:href="#BitstreamVeraSans-Roman-61"/>
      <use x="583.935546875" xlink:href="#BitstreamVeraSans-Roman-6e"/>
      <use x="647.314453125" xlink:href="#BitstreamVeraSans-Roman-63"/>
      <use x="702.294921875" xlink:href="#BitstreamVeraSans-Roman-65"/>
     </g>
    </g>
   </g>
   <g id="matplotlib.axis_6">
    <g id="ytick_21">
     <g id="line2d_80">
      <g>
       <use style="stroke:#000000;stroke-width:0.5;" x="72.0" xlink:href="#m2a9d966803" y="388.8"/>
      </g>
     </g>
     <g id="line2d_81">
      <g>
       <use style="stroke:#000000;stroke-width:0.5;" x="518.4" xlink:href="#mf9b4dc8095" y="388.8"/>
      </g>
     </g>
     <g id="text_42">
      <!-- 0.0 -->
      <g transform="translate(48.91625 392.11125)scale(0.12 -0.12)">
       <use xlink:href="#BitstreamVeraSans-Roman-30"/>
       <use x="63.623046875" xlink:href="#BitstreamVeraSans-Roman-2e"/>
       <use x="95.41015625" xlink:href="#BitstreamVeraSans-Roman-30"/>
      </g>
     </g>
    </g>
    <g id="ytick_22">
     <g id="line2d_82">
      <g>
       <use style="stroke:#000000;stroke-width:0.5;" x="72.0" xlink:href="#m2a9d966803" y="375.247058824"/>
      </g>
     </g>
     <g id="line2d_83">
      <g>
       <use style="stroke:#000000;stroke-width:0.5;" x="518.4" xlink:href="#mf9b4dc8095" y="375.247058824"/>
      </g>
     </g>
     <g id="text_43">
      <!-- 0.2 -->
      <g transform="translate(48.91625 378.558308824)scale(0.12 -0.12)">
       <use xlink:href="#BitstreamVeraSans-Roman-30"/>
       <use x="63.623046875" xlink:href="#BitstreamVeraSans-Roman-2e"/>
       <use x="95.41015625" xlink:href="#BitstreamVeraSans-Roman-32"/>
      </g>
     </g>
    </g>
    <g id="ytick_23">
     <g id="line2d_84">
      <g>
       <use style="stroke:#000000;stroke-width:0.5;" x="72.0" xlink:href="#m2a9d966803" y="361.694117647"/>
      </g>
     </g>
     <g id="line2d_85">
      <g>
       <use style="stroke:#000000;stroke-width:0.5;" x="518.4" xlink:href="#mf9b4dc8095" y="361.694117647"/>
      </g>
     </g>
     <g id="text_44">
      <!-- 0.4 -->
      <g transform="translate(48.91625 365.005367647)scale(0.12 -0.12)">
       <use xlink:href="#BitstreamVeraSans-Roman-30"/>
       <use x="63.623046875" xlink:href="#BitstreamVeraSans-Roman-2e"/>
       <use x="95.41015625" xlink:href="#BitstreamVeraSans-Roman-34"/>
      </g>
     </g>
    </g>
    <g id="ytick_24">
     <g id="line2d_86">
      <g>
       <use style="stroke:#000000;stroke-width:0.5;" x="72.0" xlink:href="#m2a9d966803" y="348.141176471"/>
      </g>
     </g>
     <g id="line2d_87">
      <g>
       <use style="stroke:#000000;stroke-width:0.5;" x="518.4" xlink:href="#mf9b4dc8095" y="348.141176471"/>
      </g>
     </g>
     <g id="text_45">
      <!-- 0.6 -->
      <g transform="translate(48.91625 351.452426471)scale(0.12 -0.12)">
       <use xlink:href="#BitstreamVeraSans-Roman-30"/>
       <use x="63.623046875" xlink:href="#BitstreamVeraSans-Roman-2e"/>
       <use x="95.41015625" xlink:href="#BitstreamVeraSans-Roman-36"/>
      </g>
     </g>
    </g>
    <g id="ytick_25">
     <g id="line2d_88">
      <g>
       <use style="stroke:#000000;stroke-width:0.5;" x="72.0" xlink:href="#m2a9d966803" y="334.588235294"/>
      </g>
     </g>
     <g id="line2d_89">
      <g>
       <use style="stroke:#000000;stroke-width:0.5;" x="518.4" xlink:href="#mf9b4dc8095" y="334.588235294"/>
      </g>
     </g>
     <g id="text_46">
      <!-- 0.8 -->
      <g transform="translate(48.91625 337.899485294)scale(0.12 -0.12)">
       <use xlink:href="#BitstreamVeraSans-Roman-30"/>
       <use x="63.623046875" xlink:href="#BitstreamVeraSans-Roman-2e"/>
       <use x="95.41015625" xlink:href="#BitstreamVeraSans-Roman-38"/>
      </g>
     </g>
    </g>
    <g id="ytick_26">
     <g id="line2d_90">
      <g>
       <use style="stroke:#000000;stroke-width:0.5;" x="72.0" xlink:href="#m2a9d966803" y="321.035294118"/>
      </g>
     </g>
     <g id="line2d_91">
      <g>
       <use style="stroke:#000000;stroke-width:0.5;" x="518.4" xlink:href="#mf9b4dc8095" y="321.035294118"/>
      </g>
     </g>
     <g id="text_47">
      <!-- 1.0 -->
      <g transform="translate(48.91625 324.346544118)scale(0.12 -0.12)">
       <use xlink:href="#BitstreamVeraSans-Roman-31"/>
       <use x="63.623046875" xlink:href="#BitstreamVeraSans-Roman-2e"/>
       <use x="95.41015625" xlink:href="#BitstreamVeraSans-Roman-30"/>
      </g>
     </g>
    </g>
    <g id="ytick_27">
     <g id="line2d_92">
      <g>
       <use style="stroke:#000000;stroke-width:0.5;" x="72.0" xlink:href="#m2a9d966803" y="307.482352941"/>
      </g>
     </g>
     <g id="line2d_93">
      <g>
       <use style="stroke:#000000;stroke-width:0.5;" x="518.4" xlink:href="#mf9b4dc8095" y="307.482352941"/>
      </g>
     </g>
     <g id="text_48">
      <!-- 1.2 -->
      <g transform="translate(48.91625 310.793602941)scale(0.12 -0.12)">
       <use xlink:href="#BitstreamVeraSans-Roman-31"/>
       <use x="63.623046875" xlink:href="#BitstreamVeraSans-Roman-2e"/>
       <use x="95.41015625" xlink:href="#BitstreamVeraSans-Roman-32"/>
      </g>
     </g>
    </g>
    <g id="ytick_28">
     <g id="line2d_94">
      <g>
       <use style="stroke:#000000;stroke-width:0.5;" x="72.0" xlink:href="#m2a9d966803" y="293.929411765"/>
      </g>
     </g>
     <g id="line2d_95">
      <g>
       <use style="stroke:#000000;stroke-width:0.5;" x="518.4" xlink:href="#mf9b4dc8095" y="293.929411765"/>
      </g>
     </g>
     <g id="text_49">
      <!-- 1.4 -->
      <g transform="translate(48.91625 297.240661765)scale(0.12 -0.12)">
       <use xlink:href="#BitstreamVeraSans-Roman-31"/>
       <use x="63.623046875" xlink:href="#BitstreamVeraSans-Roman-2e"/>
       <use x="95.41015625" xlink:href="#BitstreamVeraSans-Roman-34"/>
      </g>
     </g>
    </g>
    <g id="text_50">
     <!-- thegma_theta -->
     <g transform="translate(41.086875 380.028970588)rotate(-90.0)scale(0.12 -0.12)">
      <use xlink:href="#BitstreamVeraSans-Roman-74"/>
      <use x="39.208984375" xlink:href="#BitstreamVeraSans-Roman-68"/>
      <use x="102.587890625" xlink:href="#BitstreamVeraSans-Roman-65"/>
      <use x="164.111328125" xlink:href="#BitstreamVeraSans-Roman-67"/>
      <use x="227.587890625" xlink:href="#BitstreamVeraSans-Roman-6d"/>
      <use x="325.0" xlink:href="#BitstreamVeraSans-Roman-61"/>
      <use x="386.279296875" xlink:href="#BitstreamVeraSans-Roman-5f"/>
      <use x="436.279296875" xlink:href="#BitstreamVeraSans-Roman-74"/>
      <use x="475.48828125" xlink:href="#BitstreamVeraSans-Roman-68"/>
      <use x="538.8671875" xlink:href="#BitstreamVeraSans-Roman-65"/>
      <use x="600.390625" xlink:href="#BitstreamVeraSans-Roman-74"/>
      <use x="639.599609375" xlink:href="#BitstreamVeraSans-Roman-61"/>
     </g>
    </g>
   </g>
  </g>
 </g>
 <defs>
  <clipPath id="p4b548a24a8">
   <rect height="101.647058824" width="446.4" x="72.0" y="43.2"/>
  </clipPath>
  <clipPath id="p30bbd548e4">
   <rect height="101.647058824" width="446.4" x="72.0" y="287.152941176"/>
  </clipPath>
  <clipPath id="p39eca0679a">
   <rect height="101.647058824" width="446.4" x="72.0" y="165.176470588"/>
  </clipPath>
 </defs>
</svg>
