<?xml version="1.0" encoding="utf-8" standalone="no"?>
<!DOCTYPE svg PUBLIC "-//W3C//DTD SVG 1.1//EN"
  "http://www.w3.org/Graphics/SVG/1.1/DTD/svg11.dtd">
<!-- Created with matplotlib (http://matplotlib.org/) -->
<svg height="432pt" version="1.1" viewBox="0 0 576 432" width="576pt" xmlns="http://www.w3.org/2000/svg" xmlns:xlink="http://www.w3.org/1999/xlink">
 <defs>
  <style type="text/css">
*{stroke-linecap:butt;stroke-linejoin:round;stroke-miterlimit:100000;}
  </style>
 </defs>
 <g id="figure_1">
  <g id="patch_1">
   <path d="M 0 432 
L 576 432 
L 576 0 
L 0 0 
z
" style="fill:#ffffff;"/>
  </g>
  <g id="axes_1">
   <g id="patch_2">
    <path d="M 72 144.847059 
L 518.4 144.847059 
L 518.4 43.2 
L 72 43.2 
z
" style="fill:#ffffff;"/>
   </g>
   <g id="line2d_1">
    <path clip-path="url(#p1d9564935a)" d="M 72 55.904232 
L 72 55.606097 
L 74.280659 55.481235 
L 76.869722 55.095204 
L 76.869722 55.091934 
L 77.48272 54.962699 
L 77.48272 123.555307 
L 77.48272 123.548415 
L 78.107141 124.130741 
L 78.301321 125.549176 
L 78.301321 125.541572 
L 79.542548 126.028209 
L 79.542548 126.012618 
L 80.757123 126.364793 
L 80.757123 126.348919 
L 82.234411 126.599853 
L 82.234411 126.583774 
L 83.68124 126.632728 
L 83.68124 126.61662 
L 85.143299 126.450079 
L 86.411178 126.145582 
L 88.132143 125.513185 
L 88.132143 125.505596 
L 89.392407 124.872551 
L 90.694553 124.116315 
L 90.694553 131.811075 
L 92.857182 131.613719 
L 94.600991 131.328332 
L 96.508521 130.887358 
L 98.092418 130.420567 
L 100.05706 129.74843 
L 102.223496 128.864276 
L 102.223496 128.855094 
L 103.582753 128.248216 
L 104.230019 133.418509 
L 105.802493 133.085553 
L 107.843284 132.595917 
L 110.127751 131.935014 
L 110.127751 131.912299 
L 112.400795 131.134847 
L 114.879441 130.184422 
L 116.547102 129.482186 
L 116.547102 133.921531 
L 117.262902 133.750502 
L 117.262902 134.038238 
L 119.810082 133.47778 
L 119.810082 133.451989 
L 122.121201 132.837047 
L 122.121201 132.824832 
L 124.489432 132.094411 
L 127.070879 131.209385 
L 127.070879 131.198626 
L 129.420073 130.310435 
L 129.420073 134.261002 
L 131.788303 133.635166 
L 131.788303 133.622082 
L 134.38498 132.835669 
L 134.38498 132.811253 
L 136.791285 131.966804 
L 139.132864 131.061356 
L 141.523939 130.080979 
L 141.523939 135.183861 
L 141.523939 135.168682 
L 142.270198 134.968314 
L 142.270198 136.610289 
L 142.270198 136.592489 
L 143.968318 136.168437 
L 145.662631 135.689427 
L 148.110818 134.936582 
L 148.110818 134.907006 
L 150.59708 134.039451 
L 150.59708 134.012324 
L 153.026229 133.046338 
L 153.761066 132.763016 
L 153.761066 134.085558 
L 153.761066 134.071927 
L 154.488288 133.788611 
L 154.488288 136.517 
L 154.488288 136.499398 
L 156.955512 135.645032 
L 156.955512 135.613185 
L 159.388469 134.680163 
L 159.388469 134.651329 
L 161.870923 133.60765 
L 161.870923 133.594598 
L 164.600861 132.361911 
L 164.600861 132.35016 
L 166.835831 131.294815 
L 166.835831 135.589896 
L 166.835831 135.574052 
L 168.81951 134.844751 
L 171.511373 133.802836 
L 176.004158 131.843335 
L 176.004158 131.820778 
L 179.221448 130.318704 
L 179.468932 135.248219 
L 179.716416 135.163264 
L 179.716416 135.893159 
L 179.716416 135.876778 
L 182.023728 135.041404 
L 184.749858 133.998315 
L 184.749858 133.971284 
L 187.506448 132.821664 
L 187.506448 132.809462 
L 190.065051 131.654077 
L 192.783566 130.368938 
L 196.313067 128.63663 
L 196.313067 128.618527 
L 199.770227 126.795082 
L 203.292113 124.850645 
L 204.072639 124.415438 
L 204.072639 134.016263 
L 206.844459 133.101023 
L 211.390548 131.367494 
L 211.390548 131.356603 
L 214.432696 130.101194 
L 214.432696 130.091238 
L 216.21458 129.328765 
L 216.21458 131.986003 
L 216.21458 131.974589 
L 219.511827 130.554815 
L 219.511827 130.534279 
L 222.57682 129.096491 
L 226.144396 127.343167 
L 228.718229 126.018752 
L 228.718229 130.27414 
L 232.023091 128.685628 
L 235.392679 126.99399 
L 235.655393 131.233789 
L 235.655393 131.212231 
L 236.413074 131.841563 
L 236.413074 131.819 
L 238.975484 130.936597 
L 241.061964 130.181859 
L 241.061964 132.592184 
L 243.673871 131.602508 
L 246.544684 130.434177 
L 249.41169 129.188867 
L 252.499528 127.76655 
L 254.330909 126.902755 
L 254.330909 133.031231 
L 254.330909 133.018811 
L 257.182685 132.12542 
L 257.182685 132.113883 
L 259.813629 131.196443 
L 262.471225 130.192009 
L 265.875081 128.814028 
L 265.875081 128.795722 
L 268.997185 127.414264 
L 272.427693 125.796512 
L 275.820126 124.099718 
L 279.254441 122.28695 
L 282.886743 120.277971 
L 287.604167 117.546193 
L 287.604167 117.540815 
L 288.399923 117.075014 
L 288.399923 124.153841 
L 288.666444 124.040034 
L 288.666444 127.778383 
L 289.439356 127.559114 
L 289.439356 128.47362 
L 292.610957 127.635416 
L 296.285141 126.562579 
L 296.285141 126.546521 
L 299.9974 125.334 
L 299.9974 125.318952 
L 303.713466 123.974201 
L 308.788789 121.909803 
L 308.788789 121.897002 
L 312.470588 120.263662 
L 316.712082 118.258354 
L 322.522242 115.274252 
L 322.522242 115.264321 
L 327.346274 112.61409 
L 327.346274 127.061521 
L 331.07757 125.480267 
L 331.07757 125.465103 
L 334.313898 123.968793 
L 338.269833 122.011541 
L 338.269833 122.005109 
L 339.084626 121.597014 
L 339.084626 131.601119 
L 339.084626 131.590032 
L 339.857537 131.412029 
L 339.857537 134.399167 
L 339.857537 134.385116 
L 340.679946 135.43368 
L 343.6231 134.674219 
L 346.044635 134.002109 
L 348.98779 133.038403 
L 352.677204 131.62006 
L 356.941542 129.807204 
L 359.884696 128.445823 
L 362.877348 126.972738 
L 366.604836 125.049457 
L 369.80309 123.320899 
L 370.065803 130.141496 
L 370.065803 130.121535 
L 373.545808 129.008537 
L 378.316536 127.256835 
L 382.33339 125.624635 
L 382.592296 127.113193 
L 382.592296 127.104914 
L 383.662188 126.681408 
L 384.454136 128.473329 
L 384.454136 128.455399 
L 387.987445 127.31903 
L 387.987445 127.310652 
L 391.490294 126.061134 
L 396.009731 124.298114 
L 396.268637 125.390679 
L 396.268637 125.375588 
L 400.00374 123.886002 
L 404.020594 122.153994 
L 404.020594 122.147523 
L 407.694779 120.44304 
L 411.167168 118.742562 
L 411.448919 124.611784 
L 411.448919 124.604526 
L 413.573473 124.008754 
L 413.573473 130.205606 
L 413.573473 130.185553 
L 414.376844 132.664317 
L 414.376844 132.640226 
L 417.308576 131.757798 
L 419.707266 130.93157 
L 423.191078 129.665931 
L 423.191078 129.646591 
L 425.582153 128.695347 
L 425.848675 133.500627 
L 425.848675 133.487687 
L 428.243557 132.809475 
L 428.243557 132.797277 
L 430.908768 131.971045 
L 434.327854 130.825595 
L 434.327854 130.794198 
L 437.781206 129.491022 
L 437.781206 129.4719 
L 440.678671 128.249011 
L 444.132024 126.700266 
L 447.562531 125.065277 
L 451.251945 123.193408 
L 455.782804 120.769655 
L 455.782804 120.757455 
L 461.91279 117.242073 
L 466.455072 114.493918 
L 467.258442 127.054499 
L 471.774072 125.793288 
L 475.242654 124.739046 
L 478.730273 123.557859 
L 478.730273 125.804578 
L 478.730273 125.796861 
L 482.183625 124.679282 
L 485.640785 123.4286 
L 486.447963 129.585864 
L 491.241536 127.79426 
L 495.505874 125.98061 
L 498.993493 124.380887 
L 498.993493 123.419532 
L 498.993493 123.419532 
" style="fill:none;stroke:#0000ff;stroke-linecap:square;"/>
   </g>
   <g id="patch_3">
    <path d="M 72 43.2 
L 518.4 43.2 
" style="fill:none;stroke:#000000;stroke-linecap:square;stroke-linejoin:miter;"/>
   </g>
   <g id="patch_4">
    <path d="M 518.4 144.847059 
L 518.4 43.2 
" style="fill:none;stroke:#000000;stroke-linecap:square;stroke-linejoin:miter;"/>
   </g>
   <g id="patch_5">
    <path d="M 72 144.847059 
L 518.4 144.847059 
" style="fill:none;stroke:#000000;stroke-linecap:square;stroke-linejoin:miter;"/>
   </g>
   <g id="patch_6">
    <path d="M 72 144.847059 
L 72 43.2 
" style="fill:none;stroke:#000000;stroke-linecap:square;stroke-linejoin:miter;"/>
   </g>
   <g id="matplotlib.axis_1">
    <g id="xtick_1">
     <g id="line2d_2">
      <defs>
       <path d="M 0 0 
L 0 -4 
" id="mdd72a6f99d" style="stroke:#000000;stroke-width:0.5;"/>
      </defs>
      <g>
       <use style="stroke:#000000;stroke-width:0.5;" x="72.0" xlink:href="#mdd72a6f99d" y="144.847058824"/>
      </g>
     </g>
     <g id="line2d_3">
      <defs>
       <path d="M 0 0 
L 0 4 
" id="me4d7fb92a7" style="stroke:#000000;stroke-width:0.5;"/>
      </defs>
      <g>
       <use style="stroke:#000000;stroke-width:0.5;" x="72.0" xlink:href="#me4d7fb92a7" y="43.2"/>
      </g>
     </g>
     <g id="text_1">
      <!-- 0 -->
      <defs>
       <path d="M 31.78125 66.40625 
Q 24.171875 66.40625 20.328125 58.90625 
Q 16.5 51.421875 16.5 36.375 
Q 16.5 21.390625 20.328125 13.890625 
Q 24.171875 6.390625 31.78125 6.390625 
Q 39.453125 6.390625 43.28125 13.890625 
Q 47.125 21.390625 47.125 36.375 
Q 47.125 51.421875 43.28125 58.90625 
Q 39.453125 66.40625 31.78125 66.40625 
M 31.78125 74.21875 
Q 44.046875 74.21875 50.515625 64.515625 
Q 56.984375 54.828125 56.984375 36.375 
Q 56.984375 17.96875 50.515625 8.265625 
Q 44.046875 -1.421875 31.78125 -1.421875 
Q 19.53125 -1.421875 13.0625 8.265625 
Q 6.59375 17.96875 6.59375 36.375 
Q 6.59375 54.828125 13.0625 64.515625 
Q 19.53125 74.21875 31.78125 74.21875 
" id="BitstreamVeraSans-Roman-30"/>
      </defs>
      <g transform="translate(68.1825 157.965183824)scale(0.12 -0.12)">
       <use xlink:href="#BitstreamVeraSans-Roman-30"/>
      </g>
     </g>
    </g>
    <g id="xtick_2">
     <g id="line2d_4">
      <g>
       <use style="stroke:#000000;stroke-width:0.5;" x="161.28" xlink:href="#mdd72a6f99d" y="144.847058824"/>
      </g>
     </g>
     <g id="line2d_5">
      <g>
       <use style="stroke:#000000;stroke-width:0.5;" x="161.28" xlink:href="#me4d7fb92a7" y="43.2"/>
      </g>
     </g>
     <g id="text_2">
      <!-- 1 -->
      <defs>
       <path d="M 12.40625 8.296875 
L 28.515625 8.296875 
L 28.515625 63.921875 
L 10.984375 60.40625 
L 10.984375 69.390625 
L 28.421875 72.90625 
L 38.28125 72.90625 
L 38.28125 8.296875 
L 54.390625 8.296875 
L 54.390625 0 
L 12.40625 0 
z
" id="BitstreamVeraSans-Roman-31"/>
      </defs>
      <g transform="translate(157.4625 157.965183824)scale(0.12 -0.12)">
       <use xlink:href="#BitstreamVeraSans-Roman-31"/>
      </g>
     </g>
    </g>
    <g id="xtick_3">
     <g id="line2d_6">
      <g>
       <use style="stroke:#000000;stroke-width:0.5;" x="250.56" xlink:href="#mdd72a6f99d" y="144.847058824"/>
      </g>
     </g>
     <g id="line2d_7">
      <g>
       <use style="stroke:#000000;stroke-width:0.5;" x="250.56" xlink:href="#me4d7fb92a7" y="43.2"/>
      </g>
     </g>
     <g id="text_3">
      <!-- 2 -->
      <defs>
       <path d="M 19.1875 8.296875 
L 53.609375 8.296875 
L 53.609375 0 
L 7.328125 0 
L 7.328125 8.296875 
Q 12.9375 14.109375 22.625 23.890625 
Q 32.328125 33.6875 34.8125 36.53125 
Q 39.546875 41.84375 41.421875 45.53125 
Q 43.3125 49.21875 43.3125 52.78125 
Q 43.3125 58.59375 39.234375 62.25 
Q 35.15625 65.921875 28.609375 65.921875 
Q 23.96875 65.921875 18.8125 64.3125 
Q 13.671875 62.703125 7.8125 59.421875 
L 7.8125 69.390625 
Q 13.765625 71.78125 18.9375 73 
Q 24.125 74.21875 28.421875 74.21875 
Q 39.75 74.21875 46.484375 68.546875 
Q 53.21875 62.890625 53.21875 53.421875 
Q 53.21875 48.921875 51.53125 44.890625 
Q 49.859375 40.875 45.40625 35.40625 
Q 44.1875 33.984375 37.640625 27.21875 
Q 31.109375 20.453125 19.1875 8.296875 
" id="BitstreamVeraSans-Roman-32"/>
      </defs>
      <g transform="translate(246.7425 157.965183824)scale(0.12 -0.12)">
       <use xlink:href="#BitstreamVeraSans-Roman-32"/>
      </g>
     </g>
    </g>
    <g id="xtick_4">
     <g id="line2d_8">
      <g>
       <use style="stroke:#000000;stroke-width:0.5;" x="339.84" xlink:href="#mdd72a6f99d" y="144.847058824"/>
      </g>
     </g>
     <g id="line2d_9">
      <g>
       <use style="stroke:#000000;stroke-width:0.5;" x="339.84" xlink:href="#me4d7fb92a7" y="43.2"/>
      </g>
     </g>
     <g id="text_4">
      <!-- 3 -->
      <defs>
       <path d="M 40.578125 39.3125 
Q 47.65625 37.796875 51.625 33 
Q 55.609375 28.21875 55.609375 21.1875 
Q 55.609375 10.40625 48.1875 4.484375 
Q 40.765625 -1.421875 27.09375 -1.421875 
Q 22.515625 -1.421875 17.65625 -0.515625 
Q 12.796875 0.390625 7.625 2.203125 
L 7.625 11.71875 
Q 11.71875 9.328125 16.59375 8.109375 
Q 21.484375 6.890625 26.8125 6.890625 
Q 36.078125 6.890625 40.9375 10.546875 
Q 45.796875 14.203125 45.796875 21.1875 
Q 45.796875 27.640625 41.28125 31.265625 
Q 36.765625 34.90625 28.71875 34.90625 
L 20.21875 34.90625 
L 20.21875 43.015625 
L 29.109375 43.015625 
Q 36.375 43.015625 40.234375 45.921875 
Q 44.09375 48.828125 44.09375 54.296875 
Q 44.09375 59.90625 40.109375 62.90625 
Q 36.140625 65.921875 28.71875 65.921875 
Q 24.65625 65.921875 20.015625 65.03125 
Q 15.375 64.15625 9.8125 62.3125 
L 9.8125 71.09375 
Q 15.4375 72.65625 20.34375 73.4375 
Q 25.25 74.21875 29.59375 74.21875 
Q 40.828125 74.21875 47.359375 69.109375 
Q 53.90625 64.015625 53.90625 55.328125 
Q 53.90625 49.265625 50.4375 45.09375 
Q 46.96875 40.921875 40.578125 39.3125 
" id="BitstreamVeraSans-Roman-33"/>
      </defs>
      <g transform="translate(336.0225 157.965183824)scale(0.12 -0.12)">
       <use xlink:href="#BitstreamVeraSans-Roman-33"/>
      </g>
     </g>
    </g>
    <g id="xtick_5">
     <g id="line2d_10">
      <g>
       <use style="stroke:#000000;stroke-width:0.5;" x="429.12" xlink:href="#mdd72a6f99d" y="144.847058824"/>
      </g>
     </g>
     <g id="line2d_11">
      <g>
       <use style="stroke:#000000;stroke-width:0.5;" x="429.12" xlink:href="#me4d7fb92a7" y="43.2"/>
      </g>
     </g>
     <g id="text_5">
      <!-- 4 -->
      <defs>
       <path d="M 37.796875 64.3125 
L 12.890625 25.390625 
L 37.796875 25.390625 
z
M 35.203125 72.90625 
L 47.609375 72.90625 
L 47.609375 25.390625 
L 58.015625 25.390625 
L 58.015625 17.1875 
L 47.609375 17.1875 
L 47.609375 0 
L 37.796875 0 
L 37.796875 17.1875 
L 4.890625 17.1875 
L 4.890625 26.703125 
z
" id="BitstreamVeraSans-Roman-34"/>
      </defs>
      <g transform="translate(425.3025 157.965183824)scale(0.12 -0.12)">
       <use xlink:href="#BitstreamVeraSans-Roman-34"/>
      </g>
     </g>
    </g>
    <g id="xtick_6">
     <g id="line2d_12">
      <g>
       <use style="stroke:#000000;stroke-width:0.5;" x="518.4" xlink:href="#mdd72a6f99d" y="144.847058824"/>
      </g>
     </g>
     <g id="line2d_13">
      <g>
       <use style="stroke:#000000;stroke-width:0.5;" x="518.4" xlink:href="#me4d7fb92a7" y="43.2"/>
      </g>
     </g>
     <g id="text_6">
      <!-- 5 -->
      <defs>
       <path d="M 10.796875 72.90625 
L 49.515625 72.90625 
L 49.515625 64.59375 
L 19.828125 64.59375 
L 19.828125 46.734375 
Q 21.96875 47.46875 24.109375 47.828125 
Q 26.265625 48.1875 28.421875 48.1875 
Q 40.625 48.1875 47.75 41.5 
Q 54.890625 34.8125 54.890625 23.390625 
Q 54.890625 11.625 47.5625 5.09375 
Q 40.234375 -1.421875 26.90625 -1.421875 
Q 22.3125 -1.421875 17.546875 -0.640625 
Q 12.796875 0.140625 7.71875 1.703125 
L 7.71875 11.625 
Q 12.109375 9.234375 16.796875 8.0625 
Q 21.484375 6.890625 26.703125 6.890625 
Q 35.15625 6.890625 40.078125 11.328125 
Q 45.015625 15.765625 45.015625 23.390625 
Q 45.015625 31 40.078125 35.4375 
Q 35.15625 39.890625 26.703125 39.890625 
Q 22.75 39.890625 18.8125 39.015625 
Q 14.890625 38.140625 10.796875 36.28125 
z
" id="BitstreamVeraSans-Roman-35"/>
      </defs>
      <g transform="translate(514.5825 157.965183824)scale(0.12 -0.12)">
       <use xlink:href="#BitstreamVeraSans-Roman-35"/>
      </g>
     </g>
    </g>
   </g>
   <g id="matplotlib.axis_2">
    <g id="ytick_1">
     <g id="line2d_14">
      <defs>
       <path d="M 0 0 
L 4 0 
" id="m4cfd9464f5" style="stroke:#000000;stroke-width:0.5;"/>
      </defs>
      <g>
       <use style="stroke:#000000;stroke-width:0.5;" x="72.0" xlink:href="#m4cfd9464f5" y="144.847058824"/>
      </g>
     </g>
     <g id="line2d_15">
      <defs>
       <path d="M 0 0 
L -4 0 
" id="m1e8ba31d53" style="stroke:#000000;stroke-width:0.5;"/>
      </defs>
      <g>
       <use style="stroke:#000000;stroke-width:0.5;" x="518.4" xlink:href="#m1e8ba31d53" y="144.847058824"/>
      </g>
     </g>
     <g id="text_7">
      <!-- 0.000 -->
      <defs>
       <path d="M 10.6875 12.40625 
L 21 12.40625 
L 21 0 
L 10.6875 0 
z
" id="BitstreamVeraSans-Roman-2e"/>
      </defs>
      <g transform="translate(33.64625 148.158308824)scale(0.12 -0.12)">
       <use xlink:href="#BitstreamVeraSans-Roman-30"/>
       <use x="63.623046875" xlink:href="#BitstreamVeraSans-Roman-2e"/>
       <use x="95.41015625" xlink:href="#BitstreamVeraSans-Roman-30"/>
       <use x="159.033203125" xlink:href="#BitstreamVeraSans-Roman-30"/>
       <use x="222.65625" xlink:href="#BitstreamVeraSans-Roman-30"/>
      </g>
     </g>
    </g>
    <g id="ytick_2">
     <g id="line2d_16">
      <g>
       <use style="stroke:#000000;stroke-width:0.5;" x="72.0" xlink:href="#m4cfd9464f5" y="132.141176471"/>
      </g>
     </g>
     <g id="line2d_17">
      <g>
       <use style="stroke:#000000;stroke-width:0.5;" x="518.4" xlink:href="#m1e8ba31d53" y="132.141176471"/>
      </g>
     </g>
     <g id="text_8">
      <!-- 0.001 -->
      <g transform="translate(33.64625 135.452426471)scale(0.12 -0.12)">
       <use xlink:href="#BitstreamVeraSans-Roman-30"/>
       <use x="63.623046875" xlink:href="#BitstreamVeraSans-Roman-2e"/>
       <use x="95.41015625" xlink:href="#BitstreamVeraSans-Roman-30"/>
       <use x="159.033203125" xlink:href="#BitstreamVeraSans-Roman-30"/>
       <use x="222.65625" xlink:href="#BitstreamVeraSans-Roman-31"/>
      </g>
     </g>
    </g>
    <g id="ytick_3">
     <g id="line2d_18">
      <g>
       <use style="stroke:#000000;stroke-width:0.5;" x="72.0" xlink:href="#m4cfd9464f5" y="119.435294118"/>
      </g>
     </g>
     <g id="line2d_19">
      <g>
       <use style="stroke:#000000;stroke-width:0.5;" x="518.4" xlink:href="#m1e8ba31d53" y="119.435294118"/>
      </g>
     </g>
     <g id="text_9">
      <!-- 0.002 -->
      <g transform="translate(33.64625 122.746544118)scale(0.12 -0.12)">
       <use xlink:href="#BitstreamVeraSans-Roman-30"/>
       <use x="63.623046875" xlink:href="#BitstreamVeraSans-Roman-2e"/>
       <use x="95.41015625" xlink:href="#BitstreamVeraSans-Roman-30"/>
       <use x="159.033203125" xlink:href="#BitstreamVeraSans-Roman-30"/>
       <use x="222.65625" xlink:href="#BitstreamVeraSans-Roman-32"/>
      </g>
     </g>
    </g>
    <g id="ytick_4">
     <g id="line2d_20">
      <g>
       <use style="stroke:#000000;stroke-width:0.5;" x="72.0" xlink:href="#m4cfd9464f5" y="106.729411765"/>
      </g>
     </g>
     <g id="line2d_21">
      <g>
       <use style="stroke:#000000;stroke-width:0.5;" x="518.4" xlink:href="#m1e8ba31d53" y="106.729411765"/>
      </g>
     </g>
     <g id="text_10">
      <!-- 0.003 -->
      <g transform="translate(33.64625 110.040661765)scale(0.12 -0.12)">
       <use xlink:href="#BitstreamVeraSans-Roman-30"/>
       <use x="63.623046875" xlink:href="#BitstreamVeraSans-Roman-2e"/>
       <use x="95.41015625" xlink:href="#BitstreamVeraSans-Roman-30"/>
       <use x="159.033203125" xlink:href="#BitstreamVeraSans-Roman-30"/>
       <use x="222.65625" xlink:href="#BitstreamVeraSans-Roman-33"/>
      </g>
     </g>
    </g>
    <g id="ytick_5">
     <g id="line2d_22">
      <g>
       <use style="stroke:#000000;stroke-width:0.5;" x="72.0" xlink:href="#m4cfd9464f5" y="94.0235294118"/>
      </g>
     </g>
     <g id="line2d_23">
      <g>
       <use style="stroke:#000000;stroke-width:0.5;" x="518.4" xlink:href="#m1e8ba31d53" y="94.0235294118"/>
      </g>
     </g>
     <g id="text_11">
      <!-- 0.004 -->
      <g transform="translate(33.64625 97.3347794118)scale(0.12 -0.12)">
       <use xlink:href="#BitstreamVeraSans-Roman-30"/>
       <use x="63.623046875" xlink:href="#BitstreamVeraSans-Roman-2e"/>
       <use x="95.41015625" xlink:href="#BitstreamVeraSans-Roman-30"/>
       <use x="159.033203125" xlink:href="#BitstreamVeraSans-Roman-30"/>
       <use x="222.65625" xlink:href="#BitstreamVeraSans-Roman-34"/>
      </g>
     </g>
    </g>
    <g id="ytick_6">
     <g id="line2d_24">
      <g>
       <use style="stroke:#000000;stroke-width:0.5;" x="72.0" xlink:href="#m4cfd9464f5" y="81.3176470588"/>
      </g>
     </g>
     <g id="line2d_25">
      <g>
       <use style="stroke:#000000;stroke-width:0.5;" x="518.4" xlink:href="#m1e8ba31d53" y="81.3176470588"/>
      </g>
     </g>
     <g id="text_12">
      <!-- 0.005 -->
      <g transform="translate(33.64625 84.6288970588)scale(0.12 -0.12)">
       <use xlink:href="#BitstreamVeraSans-Roman-30"/>
       <use x="63.623046875" xlink:href="#BitstreamVeraSans-Roman-2e"/>
       <use x="95.41015625" xlink:href="#BitstreamVeraSans-Roman-30"/>
       <use x="159.033203125" xlink:href="#BitstreamVeraSans-Roman-30"/>
       <use x="222.65625" xlink:href="#BitstreamVeraSans-Roman-35"/>
      </g>
     </g>
    </g>
    <g id="ytick_7">
     <g id="line2d_26">
      <g>
       <use style="stroke:#000000;stroke-width:0.5;" x="72.0" xlink:href="#m4cfd9464f5" y="68.6117647059"/>
      </g>
     </g>
     <g id="line2d_27">
      <g>
       <use style="stroke:#000000;stroke-width:0.5;" x="518.4" xlink:href="#m1e8ba31d53" y="68.6117647059"/>
      </g>
     </g>
     <g id="text_13">
      <!-- 0.006 -->
      <defs>
       <path d="M 33.015625 40.375 
Q 26.375 40.375 22.484375 35.828125 
Q 18.609375 31.296875 18.609375 23.390625 
Q 18.609375 15.53125 22.484375 10.953125 
Q 26.375 6.390625 33.015625 6.390625 
Q 39.65625 6.390625 43.53125 10.953125 
Q 47.40625 15.53125 47.40625 23.390625 
Q 47.40625 31.296875 43.53125 35.828125 
Q 39.65625 40.375 33.015625 40.375 
M 52.59375 71.296875 
L 52.59375 62.3125 
Q 48.875 64.0625 45.09375 64.984375 
Q 41.3125 65.921875 37.59375 65.921875 
Q 27.828125 65.921875 22.671875 59.328125 
Q 17.53125 52.734375 16.796875 39.40625 
Q 19.671875 43.65625 24.015625 45.921875 
Q 28.375 48.1875 33.59375 48.1875 
Q 44.578125 48.1875 50.953125 41.515625 
Q 57.328125 34.859375 57.328125 23.390625 
Q 57.328125 12.15625 50.6875 5.359375 
Q 44.046875 -1.421875 33.015625 -1.421875 
Q 20.359375 -1.421875 13.671875 8.265625 
Q 6.984375 17.96875 6.984375 36.375 
Q 6.984375 53.65625 15.1875 63.9375 
Q 23.390625 74.21875 37.203125 74.21875 
Q 40.921875 74.21875 44.703125 73.484375 
Q 48.484375 72.75 52.59375 71.296875 
" id="BitstreamVeraSans-Roman-36"/>
      </defs>
      <g transform="translate(33.64625 71.9230147059)scale(0.12 -0.12)">
       <use xlink:href="#BitstreamVeraSans-Roman-30"/>
       <use x="63.623046875" xlink:href="#BitstreamVeraSans-Roman-2e"/>
       <use x="95.41015625" xlink:href="#BitstreamVeraSans-Roman-30"/>
       <use x="159.033203125" xlink:href="#BitstreamVeraSans-Roman-30"/>
       <use x="222.65625" xlink:href="#BitstreamVeraSans-Roman-36"/>
      </g>
     </g>
    </g>
    <g id="ytick_8">
     <g id="line2d_28">
      <g>
       <use style="stroke:#000000;stroke-width:0.5;" x="72.0" xlink:href="#m4cfd9464f5" y="55.9058823529"/>
      </g>
     </g>
     <g id="line2d_29">
      <g>
       <use style="stroke:#000000;stroke-width:0.5;" x="518.4" xlink:href="#m1e8ba31d53" y="55.9058823529"/>
      </g>
     </g>
     <g id="text_14">
      <!-- 0.007 -->
      <defs>
       <path d="M 8.203125 72.90625 
L 55.078125 72.90625 
L 55.078125 68.703125 
L 28.609375 0 
L 18.3125 0 
L 43.21875 64.59375 
L 8.203125 64.59375 
z
" id="BitstreamVeraSans-Roman-37"/>
      </defs>
      <g transform="translate(33.64625 59.2171323529)scale(0.12 -0.12)">
       <use xlink:href="#BitstreamVeraSans-Roman-30"/>
       <use x="63.623046875" xlink:href="#BitstreamVeraSans-Roman-2e"/>
       <use x="95.41015625" xlink:href="#BitstreamVeraSans-Roman-30"/>
       <use x="159.033203125" xlink:href="#BitstreamVeraSans-Roman-30"/>
       <use x="222.65625" xlink:href="#BitstreamVeraSans-Roman-37"/>
      </g>
     </g>
    </g>
    <g id="ytick_9">
     <g id="line2d_30">
      <g>
       <use style="stroke:#000000;stroke-width:0.5;" x="72.0" xlink:href="#m4cfd9464f5" y="43.2"/>
      </g>
     </g>
     <g id="line2d_31">
      <g>
       <use style="stroke:#000000;stroke-width:0.5;" x="518.4" xlink:href="#m1e8ba31d53" y="43.2"/>
      </g>
     </g>
     <g id="text_15">
      <!-- 0.008 -->
      <defs>
       <path d="M 31.78125 34.625 
Q 24.75 34.625 20.71875 30.859375 
Q 16.703125 27.09375 16.703125 20.515625 
Q 16.703125 13.921875 20.71875 10.15625 
Q 24.75 6.390625 31.78125 6.390625 
Q 38.8125 6.390625 42.859375 10.171875 
Q 46.921875 13.96875 46.921875 20.515625 
Q 46.921875 27.09375 42.890625 30.859375 
Q 38.875 34.625 31.78125 34.625 
M 21.921875 38.8125 
Q 15.578125 40.375 12.03125 44.71875 
Q 8.5 49.078125 8.5 55.328125 
Q 8.5 64.0625 14.71875 69.140625 
Q 20.953125 74.21875 31.78125 74.21875 
Q 42.671875 74.21875 48.875 69.140625 
Q 55.078125 64.0625 55.078125 55.328125 
Q 55.078125 49.078125 51.53125 44.71875 
Q 48 40.375 41.703125 38.8125 
Q 48.828125 37.15625 52.796875 32.3125 
Q 56.78125 27.484375 56.78125 20.515625 
Q 56.78125 9.90625 50.3125 4.234375 
Q 43.84375 -1.421875 31.78125 -1.421875 
Q 19.734375 -1.421875 13.25 4.234375 
Q 6.78125 9.90625 6.78125 20.515625 
Q 6.78125 27.484375 10.78125 32.3125 
Q 14.796875 37.15625 21.921875 38.8125 
M 18.3125 54.390625 
Q 18.3125 48.734375 21.84375 45.5625 
Q 25.390625 42.390625 31.78125 42.390625 
Q 38.140625 42.390625 41.71875 45.5625 
Q 45.3125 48.734375 45.3125 54.390625 
Q 45.3125 60.0625 41.71875 63.234375 
Q 38.140625 66.40625 31.78125 66.40625 
Q 25.390625 66.40625 21.84375 63.234375 
Q 18.3125 60.0625 18.3125 54.390625 
" id="BitstreamVeraSans-Roman-38"/>
      </defs>
      <g transform="translate(33.64625 46.51125)scale(0.12 -0.12)">
       <use xlink:href="#BitstreamVeraSans-Roman-30"/>
       <use x="63.623046875" xlink:href="#BitstreamVeraSans-Roman-2e"/>
       <use x="95.41015625" xlink:href="#BitstreamVeraSans-Roman-30"/>
       <use x="159.033203125" xlink:href="#BitstreamVeraSans-Roman-30"/>
       <use x="222.65625" xlink:href="#BitstreamVeraSans-Roman-38"/>
      </g>
     </g>
    </g>
    <g id="text_16">
     <!-- thegma_x -->
     <defs>
      <path d="M 50.984375 -16.609375 
L 50.984375 -23.578125 
L -0.984375 -23.578125 
L -0.984375 -16.609375 
z
" id="BitstreamVeraSans-Roman-5f"/>
      <path d="M 52 44.1875 
Q 55.375 50.25 60.0625 53.125 
Q 64.75 56 71.09375 56 
Q 79.640625 56 84.28125 50.015625 
Q 88.921875 44.046875 88.921875 33.015625 
L 88.921875 0 
L 79.890625 0 
L 79.890625 32.71875 
Q 79.890625 40.578125 77.09375 44.375 
Q 74.3125 48.1875 68.609375 48.1875 
Q 61.625 48.1875 57.5625 43.546875 
Q 53.515625 38.921875 53.515625 30.90625 
L 53.515625 0 
L 44.484375 0 
L 44.484375 32.71875 
Q 44.484375 40.625 41.703125 44.40625 
Q 38.921875 48.1875 33.109375 48.1875 
Q 26.21875 48.1875 22.15625 43.53125 
Q 18.109375 38.875 18.109375 30.90625 
L 18.109375 0 
L 9.078125 0 
L 9.078125 54.6875 
L 18.109375 54.6875 
L 18.109375 46.1875 
Q 21.1875 51.21875 25.484375 53.609375 
Q 29.78125 56 35.6875 56 
Q 41.65625 56 45.828125 52.96875 
Q 50 49.953125 52 44.1875 
" id="BitstreamVeraSans-Roman-6d"/>
      <path d="M 54.890625 33.015625 
L 54.890625 0 
L 45.90625 0 
L 45.90625 32.71875 
Q 45.90625 40.484375 42.875 44.328125 
Q 39.84375 48.1875 33.796875 48.1875 
Q 26.515625 48.1875 22.3125 43.546875 
Q 18.109375 38.921875 18.109375 30.90625 
L 18.109375 0 
L 9.078125 0 
L 9.078125 75.984375 
L 18.109375 75.984375 
L 18.109375 46.1875 
Q 21.34375 51.125 25.703125 53.5625 
Q 30.078125 56 35.796875 56 
Q 45.21875 56 50.046875 50.171875 
Q 54.890625 44.34375 54.890625 33.015625 
" id="BitstreamVeraSans-Roman-68"/>
      <path d="M 54.890625 54.6875 
L 35.109375 28.078125 
L 55.90625 0 
L 45.3125 0 
L 29.390625 21.484375 
L 13.484375 0 
L 2.875 0 
L 24.125 28.609375 
L 4.6875 54.6875 
L 15.28125 54.6875 
L 29.78125 35.203125 
L 44.28125 54.6875 
z
" id="BitstreamVeraSans-Roman-78"/>
      <path d="M 56.203125 29.59375 
L 56.203125 25.203125 
L 14.890625 25.203125 
Q 15.484375 15.921875 20.484375 11.0625 
Q 25.484375 6.203125 34.421875 6.203125 
Q 39.59375 6.203125 44.453125 7.46875 
Q 49.3125 8.734375 54.109375 11.28125 
L 54.109375 2.78125 
Q 49.265625 0.734375 44.1875 -0.34375 
Q 39.109375 -1.421875 33.890625 -1.421875 
Q 20.796875 -1.421875 13.15625 6.1875 
Q 5.515625 13.8125 5.515625 26.8125 
Q 5.515625 40.234375 12.765625 48.109375 
Q 20.015625 56 32.328125 56 
Q 43.359375 56 49.78125 48.890625 
Q 56.203125 41.796875 56.203125 29.59375 
M 47.21875 32.234375 
Q 47.125 39.59375 43.09375 43.984375 
Q 39.0625 48.390625 32.421875 48.390625 
Q 24.90625 48.390625 20.390625 44.140625 
Q 15.875 39.890625 15.1875 32.171875 
z
" id="BitstreamVeraSans-Roman-65"/>
      <path d="M 18.3125 70.21875 
L 18.3125 54.6875 
L 36.8125 54.6875 
L 36.8125 47.703125 
L 18.3125 47.703125 
L 18.3125 18.015625 
Q 18.3125 11.328125 20.140625 9.421875 
Q 21.96875 7.515625 27.59375 7.515625 
L 36.8125 7.515625 
L 36.8125 0 
L 27.59375 0 
Q 17.1875 0 13.234375 3.875 
Q 9.28125 7.765625 9.28125 18.015625 
L 9.28125 47.703125 
L 2.6875 47.703125 
L 2.6875 54.6875 
L 9.28125 54.6875 
L 9.28125 70.21875 
z
" id="BitstreamVeraSans-Roman-74"/>
      <path d="M 34.28125 27.484375 
Q 23.390625 27.484375 19.1875 25 
Q 14.984375 22.515625 14.984375 16.5 
Q 14.984375 11.71875 18.140625 8.90625 
Q 21.296875 6.109375 26.703125 6.109375 
Q 34.1875 6.109375 38.703125 11.40625 
Q 43.21875 16.703125 43.21875 25.484375 
L 43.21875 27.484375 
z
M 52.203125 31.203125 
L 52.203125 0 
L 43.21875 0 
L 43.21875 8.296875 
Q 40.140625 3.328125 35.546875 0.953125 
Q 30.953125 -1.421875 24.3125 -1.421875 
Q 15.921875 -1.421875 10.953125 3.296875 
Q 6 8.015625 6 15.921875 
Q 6 25.140625 12.171875 29.828125 
Q 18.359375 34.515625 30.609375 34.515625 
L 43.21875 34.515625 
L 43.21875 35.40625 
Q 43.21875 41.609375 39.140625 45 
Q 35.0625 48.390625 27.6875 48.390625 
Q 23 48.390625 18.546875 47.265625 
Q 14.109375 46.140625 10.015625 43.890625 
L 10.015625 52.203125 
Q 14.9375 54.109375 19.578125 55.046875 
Q 24.21875 56 28.609375 56 
Q 40.484375 56 46.34375 49.84375 
Q 52.203125 43.703125 52.203125 31.203125 
" id="BitstreamVeraSans-Roman-61"/>
      <path d="M 45.40625 27.984375 
Q 45.40625 37.75 41.375 43.109375 
Q 37.359375 48.484375 30.078125 48.484375 
Q 22.859375 48.484375 18.828125 43.109375 
Q 14.796875 37.75 14.796875 27.984375 
Q 14.796875 18.265625 18.828125 12.890625 
Q 22.859375 7.515625 30.078125 7.515625 
Q 37.359375 7.515625 41.375 12.890625 
Q 45.40625 18.265625 45.40625 27.984375 
M 54.390625 6.78125 
Q 54.390625 -7.171875 48.1875 -13.984375 
Q 42 -20.796875 29.203125 -20.796875 
Q 24.46875 -20.796875 20.265625 -20.09375 
Q 16.0625 -19.390625 12.109375 -17.921875 
L 12.109375 -9.1875 
Q 16.0625 -11.328125 19.921875 -12.34375 
Q 23.78125 -13.375 27.78125 -13.375 
Q 36.625 -13.375 41.015625 -8.765625 
Q 45.40625 -4.15625 45.40625 5.171875 
L 45.40625 9.625 
Q 42.625 4.78125 38.28125 2.390625 
Q 33.9375 0 27.875 0 
Q 17.828125 0 11.671875 7.65625 
Q 5.515625 15.328125 5.515625 27.984375 
Q 5.515625 40.671875 11.671875 48.328125 
Q 17.828125 56 27.875 56 
Q 33.9375 56 38.28125 53.609375 
Q 42.625 51.21875 45.40625 46.390625 
L 45.40625 54.6875 
L 54.390625 54.6875 
z
" id="BitstreamVeraSans-Roman-67"/>
     </defs>
     <g transform="translate(25.816875 123.751654412)rotate(-90.0)scale(0.12 -0.12)">
      <use xlink:href="#BitstreamVeraSans-Roman-74"/>
      <use x="39.208984375" xlink:href="#BitstreamVeraSans-Roman-68"/>
      <use x="102.587890625" xlink:href="#BitstreamVeraSans-Roman-65"/>
      <use x="164.111328125" xlink:href="#BitstreamVeraSans-Roman-67"/>
      <use x="227.587890625" xlink:href="#BitstreamVeraSans-Roman-6d"/>
      <use x="325.0" xlink:href="#BitstreamVeraSans-Roman-61"/>
      <use x="386.279296875" xlink:href="#BitstreamVeraSans-Roman-5f"/>
      <use x="436.279296875" xlink:href="#BitstreamVeraSans-Roman-78"/>
     </g>
    </g>
   </g>
  </g>
  <g id="axes_2">
   <g id="patch_7">
    <path d="M 72 266.823529 
L 518.4 266.823529 
L 518.4 165.176471 
L 72 165.176471 
z
" style="fill:#ffffff;"/>
   </g>
   <g id="line2d_32">
    <path clip-path="url(#pdaa2cfb100)" d="M 72 177.880703 
L 72 177.582567 
L 74.280659 177.458342 
L 76.245301 177.18773 
L 77.48272 176.940498 
L 77.48272 245.097209 
L 77.48272 245.090457 
L 78.107141 244.412241 
L 78.301321 253.959151 
L 78.301321 253.94775 
L 79.542548 253.693695 
L 80.757123 253.259108 
L 82.234411 252.509722 
L 83.68124 251.567553 
L 85.143299 250.441963 
L 87.256431 248.577615 
L 87.256431 248.569575 
L 89.392407 246.446569 
L 90.694553 245.086436 
L 90.694553 251.251024 
L 91.330396 250.758116 
L 91.555036 257.984804 
L 93.493025 257.391659 
L 95.19876 256.647389 
L 97.197669 255.713479 
L 97.197669 255.700282 
L 99.421216 254.518494 
L 99.421216 254.506577 
L 101.621919 253.205141 
L 103.582753 251.973517 
L 104.230019 254.905622 
L 104.230019 254.893317 
L 104.230019 257.495534 
L 105.802493 256.882815 
L 107.843284 256.054517 
L 110.127751 255.029657 
L 110.127751 255.017223 
L 112.400795 253.921242 
L 114.879441 252.657386 
L 116.547102 251.762078 
L 116.547102 255.202572 
L 117.262902 254.914036 
L 117.262902 257.40092 
L 119.105705 256.780713 
L 121.447283 255.94009 
L 121.447283 255.926618 
L 123.785054 255.002238 
L 126.13044 254.008061 
L 128.727118 252.833405 
L 129.420073 252.517044 
L 129.420073 255.672581 
L 131.788303 254.769272 
L 134.38498 253.706412 
L 137.480433 252.367058 
L 141.523939 250.444311 
L 141.523939 252.618826 
L 141.523939 252.608502 
L 142.270198 252.34505 
L 142.270198 255.255225 
L 142.270198 255.242549 
L 144.946832 254.340357 
L 144.946832 254.328609 
L 147.372174 253.43495 
L 150.59708 252.176568 
L 150.59708 252.156547 
L 153.761066 250.817063 
L 153.761066 251.218169 
L 153.761066 251.208771 
L 154.488288 250.910372 
L 154.488288 252.375586 
L 154.488288 252.365434 
L 157.701771 251.19551 
L 157.701771 251.186124 
L 161.136086 249.832179 
L 161.136086 249.814919 
L 164.600861 248.328931 
L 164.600861 248.321 
L 166.835831 247.315259 
L 166.835831 250.229477 
L 166.835831 250.220639 
L 170.281568 249.046984 
L 175.014222 247.219888 
L 178.463767 245.768002 
L 179.221448 245.448967 
L 179.468932 248.917955 
L 179.716416 248.845093 
L 179.716416 249.143635 
L 179.716416 249.13534 
L 183.006048 248.129962 
L 186.48986 246.953897 
L 186.48986 246.946516 
L 190.065051 245.61095 
L 190.065051 245.604035 
L 193.784924 244.092454 
L 193.784924 244.086002 
L 197.740859 242.32686 
L 197.740859 242.320873 
L 201.274168 240.624132 
L 204.072639 239.208453 
L 204.072639 246.489168 
L 207.099558 245.661277 
L 210.381575 244.65792 
L 213.663593 243.543235 
L 216.21458 242.612498 
L 216.21458 244.301125 
L 216.21458 244.294615 
L 219.511827 243.121015 
L 222.57682 241.919916 
L 226.144396 240.408824 
L 228.718229 239.239158 
L 228.718229 242.273072 
L 232.023091 240.950801 
L 235.392679 239.49568 
L 235.655393 252.377371 
L 235.655393 252.357083 
L 236.413074 255.630097 
L 236.413074 255.603925 
L 238.23684 255.361153 
L 240.022532 255.044312 
L 241.061964 254.838231 
L 241.061964 255.092257 
L 243.673871 254.523201 
L 243.673871 254.499381 
L 245.741314 253.922833 
L 248.337991 253.085429 
L 248.337991 253.074759 
L 250.934668 252.098259 
L 253.546575 250.999595 
L 254.330909 250.666725 
L 254.330909 252.866571 
L 254.330909 252.856067 
L 257.182685 252.020039 
L 257.182685 252.010135 
L 259.813629 251.136354 
L 262.471225 250.166285 
L 265.875081 248.81493 
L 265.875081 248.798649 
L 268.997185 247.430001 
L 272.427693 245.809249 
L 275.820126 244.091013 
L 279.254441 242.238059 
L 282.886743 240.177679 
L 287.604167 237.361923 
L 287.604167 237.351969 
L 288.399923 236.8676 
L 288.399923 249.455814 
L 288.666444 249.334532 
L 288.666444 256.473307 
L 289.439356 256.255099 
L 289.439356 257.968284 
L 291.54868 257.443591 
L 291.54868 257.427972 
L 293.380061 256.883989 
L 296.030042 256.014555 
L 299.9974 254.450496 
L 299.9974 254.426817 
L 302.932939 253.138936 
L 302.932939 253.128225 
L 305.857057 251.728334 
L 305.857057 251.718623 
L 308.788789 250.220919 
L 312.470588 248.227116 
L 312.470588 248.219232 
L 316.712082 245.78433 
L 316.712082 245.777361 
L 321.745523 242.661458 
L 326.546711 239.539757 
L 326.546711 239.529011 
L 327.346274 238.997673 
L 327.346274 246.260314 
L 331.07757 244.289295 
L 335.102039 242.034074 
L 339.084626 239.691913 
L 339.084626 247.141121 
L 339.084626 247.133676 
L 339.857537 246.867942 
L 339.857537 248.69746 
L 339.857537 248.689374 
L 340.938852 248.55953 
L 344.712029 247.332505 
L 344.712029 247.317468 
L 348.176804 246.050764 
L 351.854796 244.57476 
L 355.867842 242.829845 
L 355.867842 242.817628 
L 359.884696 240.909502 
L 363.680719 238.975328 
L 368.20777 236.512668 
L 368.20777 236.507832 
L 369.80309 235.608724 
L 370.065803 252.019256 
L 370.065803 251.99946 
L 372.734822 251.343198 
L 375.700821 250.503497 
L 378.56402 249.513398 
L 381.510982 248.429668 
L 382.33339 248.110224 
L 382.592296 252.731686 
L 382.592296 252.721285 
L 383.662188 252.30454 
L 384.454136 255.922979 
L 384.454136 255.896109 
L 387.180267 255.118739 
L 387.180267 255.093711 
L 389.613224 254.258836 
L 392.556379 253.13421 
L 392.556379 253.112806 
L 395.210168 251.966531 
L 396.009731 251.622024 
L 396.268637 254.168396 
L 396.268637 254.145244 
L 398.952886 252.914963 
L 401.89604 251.460063 
L 405.063834 249.78183 
L 408.776093 247.694081 
L 408.776093 247.686418 
L 411.167168 246.278305 
L 411.448919 254.245269 
L 411.448919 254.23362 
L 413.573473 253.483003 
L 413.573473 254.572987 
L 413.573473 254.549077 
L 414.376844 254.700516 
L 414.376844 254.676354 
L 417.308576 253.648363 
L 419.707266 252.692021 
L 423.191078 251.221675 
L 423.191078 251.202894 
L 425.582153 250.100895 
L 425.848675 252.451337 
L 425.848675 252.441141 
L 428.243557 251.571443 
L 431.696909 250.252812 
L 435.12361 248.808654 
L 435.12361 248.800519 
L 438.839676 247.103025 
L 438.839676 247.095593 
L 442.540512 245.270087 
L 446.534521 243.166247 
L 452.352297 239.865833 
L 457.11541 236.982596 
L 457.11541 236.962954 
L 461.91279 233.89679 
L 466.455072 230.82899 
L 467.258442 251.608674 
L 470.985931 250.558762 
L 473.63972 249.690429 
L 476.849395 248.515259 
L 476.849395 248.491266 
L 478.730273 247.749429 
L 478.730273 252.695466 
L 478.730273 252.685099 
L 481.924719 251.411586 
L 481.924719 251.402082 
L 485.640785 249.688805 
L 486.447963 251.208125 
L 490.419128 249.342161 
L 493.362283 247.840131 
L 496.579574 246.087299 
L 498.993493 244.636927 
L 498.993493 243.807195 
L 498.993493 243.807195 
" style="fill:none;stroke:#0000ff;stroke-linecap:square;"/>
   </g>
   <g id="patch_8">
    <path d="M 72 165.176471 
L 518.4 165.176471 
" style="fill:none;stroke:#000000;stroke-linecap:square;stroke-linejoin:miter;"/>
   </g>
   <g id="patch_9">
    <path d="M 518.4 266.823529 
L 518.4 165.176471 
" style="fill:none;stroke:#000000;stroke-linecap:square;stroke-linejoin:miter;"/>
   </g>
   <g id="patch_10">
    <path d="M 72 266.823529 
L 518.4 266.823529 
" style="fill:none;stroke:#000000;stroke-linecap:square;stroke-linejoin:miter;"/>
   </g>
   <g id="patch_11">
    <path d="M 72 266.823529 
L 72 165.176471 
" style="fill:none;stroke:#000000;stroke-linecap:square;stroke-linejoin:miter;"/>
   </g>
   <g id="matplotlib.axis_3">
    <g id="xtick_7">
     <g id="line2d_33">
      <g>
       <use style="stroke:#000000;stroke-width:0.5;" x="72.0" xlink:href="#mdd72a6f99d" y="266.823529412"/>
      </g>
     </g>
     <g id="line2d_34">
      <g>
       <use style="stroke:#000000;stroke-width:0.5;" x="72.0" xlink:href="#me4d7fb92a7" y="165.176470588"/>
      </g>
     </g>
     <g id="text_17">
      <!-- 0 -->
      <g transform="translate(68.1825 279.941654412)scale(0.12 -0.12)">
       <use xlink:href="#BitstreamVeraSans-Roman-30"/>
      </g>
     </g>
    </g>
    <g id="xtick_8">
     <g id="line2d_35">
      <g>
       <use style="stroke:#000000;stroke-width:0.5;" x="161.28" xlink:href="#mdd72a6f99d" y="266.823529412"/>
      </g>
     </g>
     <g id="line2d_36">
      <g>
       <use style="stroke:#000000;stroke-width:0.5;" x="161.28" xlink:href="#me4d7fb92a7" y="165.176470588"/>
      </g>
     </g>
     <g id="text_18">
      <!-- 1 -->
      <g transform="translate(157.4625 279.941654412)scale(0.12 -0.12)">
       <use xlink:href="#BitstreamVeraSans-Roman-31"/>
      </g>
     </g>
    </g>
    <g id="xtick_9">
     <g id="line2d_37">
      <g>
       <use style="stroke:#000000;stroke-width:0.5;" x="250.56" xlink:href="#mdd72a6f99d" y="266.823529412"/>
      </g>
     </g>
     <g id="line2d_38">
      <g>
       <use style="stroke:#000000;stroke-width:0.5;" x="250.56" xlink:href="#me4d7fb92a7" y="165.176470588"/>
      </g>
     </g>
     <g id="text_19">
      <!-- 2 -->
      <g transform="translate(246.7425 279.941654412)scale(0.12 -0.12)">
       <use xlink:href="#BitstreamVeraSans-Roman-32"/>
      </g>
     </g>
    </g>
    <g id="xtick_10">
     <g id="line2d_39">
      <g>
       <use style="stroke:#000000;stroke-width:0.5;" x="339.84" xlink:href="#mdd72a6f99d" y="266.823529412"/>
      </g>
     </g>
     <g id="line2d_40">
      <g>
       <use style="stroke:#000000;stroke-width:0.5;" x="339.84" xlink:href="#me4d7fb92a7" y="165.176470588"/>
      </g>
     </g>
     <g id="text_20">
      <!-- 3 -->
      <g transform="translate(336.0225 279.941654412)scale(0.12 -0.12)">
       <use xlink:href="#BitstreamVeraSans-Roman-33"/>
      </g>
     </g>
    </g>
    <g id="xtick_11">
     <g id="line2d_41">
      <g>
       <use style="stroke:#000000;stroke-width:0.5;" x="429.12" xlink:href="#mdd72a6f99d" y="266.823529412"/>
      </g>
     </g>
     <g id="line2d_42">
      <g>
       <use style="stroke:#000000;stroke-width:0.5;" x="429.12" xlink:href="#me4d7fb92a7" y="165.176470588"/>
      </g>
     </g>
     <g id="text_21">
      <!-- 4 -->
      <g transform="translate(425.3025 279.941654412)scale(0.12 -0.12)">
       <use xlink:href="#BitstreamVeraSans-Roman-34"/>
      </g>
     </g>
    </g>
    <g id="xtick_12">
     <g id="line2d_43">
      <g>
       <use style="stroke:#000000;stroke-width:0.5;" x="518.4" xlink:href="#mdd72a6f99d" y="266.823529412"/>
      </g>
     </g>
     <g id="line2d_44">
      <g>
       <use style="stroke:#000000;stroke-width:0.5;" x="518.4" xlink:href="#me4d7fb92a7" y="165.176470588"/>
      </g>
     </g>
     <g id="text_22">
      <!-- 5 -->
      <g transform="translate(514.5825 279.941654412)scale(0.12 -0.12)">
       <use xlink:href="#BitstreamVeraSans-Roman-35"/>
      </g>
     </g>
    </g>
   </g>
   <g id="matplotlib.axis_4">
    <g id="ytick_10">
     <g id="line2d_45">
      <g>
       <use style="stroke:#000000;stroke-width:0.5;" x="72.0" xlink:href="#m4cfd9464f5" y="266.823529412"/>
      </g>
     </g>
     <g id="line2d_46">
      <g>
       <use style="stroke:#000000;stroke-width:0.5;" x="518.4" xlink:href="#m1e8ba31d53" y="266.823529412"/>
      </g>
     </g>
     <g id="text_23">
      <!-- 0.000 -->
      <g transform="translate(33.64625 270.134779412)scale(0.12 -0.12)">
       <use xlink:href="#BitstreamVeraSans-Roman-30"/>
       <use x="63.623046875" xlink:href="#BitstreamVeraSans-Roman-2e"/>
       <use x="95.41015625" xlink:href="#BitstreamVeraSans-Roman-30"/>
       <use x="159.033203125" xlink:href="#BitstreamVeraSans-Roman-30"/>
       <use x="222.65625" xlink:href="#BitstreamVeraSans-Roman-30"/>
      </g>
     </g>
    </g>
    <g id="ytick_11">
     <g id="line2d_47">
      <g>
       <use style="stroke:#000000;stroke-width:0.5;" x="72.0" xlink:href="#m4cfd9464f5" y="254.117647059"/>
      </g>
     </g>
     <g id="line2d_48">
      <g>
       <use style="stroke:#000000;stroke-width:0.5;" x="518.4" xlink:href="#m1e8ba31d53" y="254.117647059"/>
      </g>
     </g>
     <g id="text_24">
      <!-- 0.001 -->
      <g transform="translate(33.64625 257.428897059)scale(0.12 -0.12)">
       <use xlink:href="#BitstreamVeraSans-Roman-30"/>
       <use x="63.623046875" xlink:href="#BitstreamVeraSans-Roman-2e"/>
       <use x="95.41015625" xlink:href="#BitstreamVeraSans-Roman-30"/>
       <use x="159.033203125" xlink:href="#BitstreamVeraSans-Roman-30"/>
       <use x="222.65625" xlink:href="#BitstreamVeraSans-Roman-31"/>
      </g>
     </g>
    </g>
    <g id="ytick_12">
     <g id="line2d_49">
      <g>
       <use style="stroke:#000000;stroke-width:0.5;" x="72.0" xlink:href="#m4cfd9464f5" y="241.411764706"/>
      </g>
     </g>
     <g id="line2d_50">
      <g>
       <use style="stroke:#000000;stroke-width:0.5;" x="518.4" xlink:href="#m1e8ba31d53" y="241.411764706"/>
      </g>
     </g>
     <g id="text_25">
      <!-- 0.002 -->
      <g transform="translate(33.64625 244.723014706)scale(0.12 -0.12)">
       <use xlink:href="#BitstreamVeraSans-Roman-30"/>
       <use x="63.623046875" xlink:href="#BitstreamVeraSans-Roman-2e"/>
       <use x="95.41015625" xlink:href="#BitstreamVeraSans-Roman-30"/>
       <use x="159.033203125" xlink:href="#BitstreamVeraSans-Roman-30"/>
       <use x="222.65625" xlink:href="#BitstreamVeraSans-Roman-32"/>
      </g>
     </g>
    </g>
    <g id="ytick_13">
     <g id="line2d_51">
      <g>
       <use style="stroke:#000000;stroke-width:0.5;" x="72.0" xlink:href="#m4cfd9464f5" y="228.705882353"/>
      </g>
     </g>
     <g id="line2d_52">
      <g>
       <use style="stroke:#000000;stroke-width:0.5;" x="518.4" xlink:href="#m1e8ba31d53" y="228.705882353"/>
      </g>
     </g>
     <g id="text_26">
      <!-- 0.003 -->
      <g transform="translate(33.64625 232.017132353)scale(0.12 -0.12)">
       <use xlink:href="#BitstreamVeraSans-Roman-30"/>
       <use x="63.623046875" xlink:href="#BitstreamVeraSans-Roman-2e"/>
       <use x="95.41015625" xlink:href="#BitstreamVeraSans-Roman-30"/>
       <use x="159.033203125" xlink:href="#BitstreamVeraSans-Roman-30"/>
       <use x="222.65625" xlink:href="#BitstreamVeraSans-Roman-33"/>
      </g>
     </g>
    </g>
    <g id="ytick_14">
     <g id="line2d_53">
      <g>
       <use style="stroke:#000000;stroke-width:0.5;" x="72.0" xlink:href="#m4cfd9464f5" y="216.0"/>
      </g>
     </g>
     <g id="line2d_54">
      <g>
       <use style="stroke:#000000;stroke-width:0.5;" x="518.4" xlink:href="#m1e8ba31d53" y="216.0"/>
      </g>
     </g>
     <g id="text_27">
      <!-- 0.004 -->
      <g transform="translate(33.64625 219.31125)scale(0.12 -0.12)">
       <use xlink:href="#BitstreamVeraSans-Roman-30"/>
       <use x="63.623046875" xlink:href="#BitstreamVeraSans-Roman-2e"/>
       <use x="95.41015625" xlink:href="#BitstreamVeraSans-Roman-30"/>
       <use x="159.033203125" xlink:href="#BitstreamVeraSans-Roman-30"/>
       <use x="222.65625" xlink:href="#BitstreamVeraSans-Roman-34"/>
      </g>
     </g>
    </g>
    <g id="ytick_15">
     <g id="line2d_55">
      <g>
       <use style="stroke:#000000;stroke-width:0.5;" x="72.0" xlink:href="#m4cfd9464f5" y="203.294117647"/>
      </g>
     </g>
     <g id="line2d_56">
      <g>
       <use style="stroke:#000000;stroke-width:0.5;" x="518.4" xlink:href="#m1e8ba31d53" y="203.294117647"/>
      </g>
     </g>
     <g id="text_28">
      <!-- 0.005 -->
      <g transform="translate(33.64625 206.605367647)scale(0.12 -0.12)">
       <use xlink:href="#BitstreamVeraSans-Roman-30"/>
       <use x="63.623046875" xlink:href="#BitstreamVeraSans-Roman-2e"/>
       <use x="95.41015625" xlink:href="#BitstreamVeraSans-Roman-30"/>
       <use x="159.033203125" xlink:href="#BitstreamVeraSans-Roman-30"/>
       <use x="222.65625" xlink:href="#BitstreamVeraSans-Roman-35"/>
      </g>
     </g>
    </g>
    <g id="ytick_16">
     <g id="line2d_57">
      <g>
       <use style="stroke:#000000;stroke-width:0.5;" x="72.0" xlink:href="#m4cfd9464f5" y="190.588235294"/>
      </g>
     </g>
     <g id="line2d_58">
      <g>
       <use style="stroke:#000000;stroke-width:0.5;" x="518.4" xlink:href="#m1e8ba31d53" y="190.588235294"/>
      </g>
     </g>
     <g id="text_29">
      <!-- 0.006 -->
      <g transform="translate(33.64625 193.899485294)scale(0.12 -0.12)">
       <use xlink:href="#BitstreamVeraSans-Roman-30"/>
       <use x="63.623046875" xlink:href="#BitstreamVeraSans-Roman-2e"/>
       <use x="95.41015625" xlink:href="#BitstreamVeraSans-Roman-30"/>
       <use x="159.033203125" xlink:href="#BitstreamVeraSans-Roman-30"/>
       <use x="222.65625" xlink:href="#BitstreamVeraSans-Roman-36"/>
      </g>
     </g>
    </g>
    <g id="ytick_17">
     <g id="line2d_59">
      <g>
       <use style="stroke:#000000;stroke-width:0.5;" x="72.0" xlink:href="#m4cfd9464f5" y="177.882352941"/>
      </g>
     </g>
     <g id="line2d_60">
      <g>
       <use style="stroke:#000000;stroke-width:0.5;" x="518.4" xlink:href="#m1e8ba31d53" y="177.882352941"/>
      </g>
     </g>
     <g id="text_30">
      <!-- 0.007 -->
      <g transform="translate(33.64625 181.193602941)scale(0.12 -0.12)">
       <use xlink:href="#BitstreamVeraSans-Roman-30"/>
       <use x="63.623046875" xlink:href="#BitstreamVeraSans-Roman-2e"/>
       <use x="95.41015625" xlink:href="#BitstreamVeraSans-Roman-30"/>
       <use x="159.033203125" xlink:href="#BitstreamVeraSans-Roman-30"/>
       <use x="222.65625" xlink:href="#BitstreamVeraSans-Roman-37"/>
      </g>
     </g>
    </g>
    <g id="ytick_18">
     <g id="line2d_61">
      <g>
       <use style="stroke:#000000;stroke-width:0.5;" x="72.0" xlink:href="#m4cfd9464f5" y="165.176470588"/>
      </g>
     </g>
     <g id="line2d_62">
      <g>
       <use style="stroke:#000000;stroke-width:0.5;" x="518.4" xlink:href="#m1e8ba31d53" y="165.176470588"/>
      </g>
     </g>
     <g id="text_31">
      <!-- 0.008 -->
      <g transform="translate(33.64625 168.487720588)scale(0.12 -0.12)">
       <use xlink:href="#BitstreamVeraSans-Roman-30"/>
       <use x="63.623046875" xlink:href="#BitstreamVeraSans-Roman-2e"/>
       <use x="95.41015625" xlink:href="#BitstreamVeraSans-Roman-30"/>
       <use x="159.033203125" xlink:href="#BitstreamVeraSans-Roman-30"/>
       <use x="222.65625" xlink:href="#BitstreamVeraSans-Roman-38"/>
      </g>
     </g>
    </g>
    <g id="text_32">
     <!-- thegma_y -->
     <defs>
      <path d="M 32.171875 -5.078125 
Q 28.375 -14.84375 24.75 -17.8125 
Q 21.140625 -20.796875 15.09375 -20.796875 
L 7.90625 -20.796875 
L 7.90625 -13.28125 
L 13.1875 -13.28125 
Q 16.890625 -13.28125 18.9375 -11.515625 
Q 21 -9.765625 23.484375 -3.21875 
L 25.09375 0.875 
L 2.984375 54.6875 
L 12.5 54.6875 
L 29.59375 11.921875 
L 46.6875 54.6875 
L 56.203125 54.6875 
z
" id="BitstreamVeraSans-Roman-79"/>
     </defs>
     <g transform="translate(25.816875 245.728125)rotate(-90.0)scale(0.12 -0.12)">
      <use xlink:href="#BitstreamVeraSans-Roman-74"/>
      <use x="39.208984375" xlink:href="#BitstreamVeraSans-Roman-68"/>
      <use x="102.587890625" xlink:href="#BitstreamVeraSans-Roman-65"/>
      <use x="164.111328125" xlink:href="#BitstreamVeraSans-Roman-67"/>
      <use x="227.587890625" xlink:href="#BitstreamVeraSans-Roman-6d"/>
      <use x="325.0" xlink:href="#BitstreamVeraSans-Roman-61"/>
      <use x="386.279296875" xlink:href="#BitstreamVeraSans-Roman-5f"/>
      <use x="436.279296875" xlink:href="#BitstreamVeraSans-Roman-79"/>
     </g>
    </g>
   </g>
  </g>
  <g id="axes_3">
   <g id="patch_12">
    <path d="M 72 388.8 
L 518.4 388.8 
L 518.4 287.152941 
L 72 287.152941 
z
" style="fill:#ffffff;"/>
   </g>
   <g id="line2d_63">
    <path clip-path="url(#p45bd0b9755)" d="M 72 321.00819 
L 72 316.268921 
L 73.667661 316.041323 
L 73.667661 316.016078 
L 75.118297 315.864793 
L 75.118297 315.814435 
L 76.869722 315.638452 
L 76.869722 315.613346 
L 77.48272 315.563161 
L 77.48272 317.793572 
L 77.48272 317.767705 
L 78.107141 317.741847 
L 78.301321 338.809885 
L 78.301321 338.77315 
L 79.542548 338.626476 
L 79.542548 338.5533 
L 80.757123 338.370824 
L 80.757123 338.334408 
L 82.234411 338.152721 
L 82.234411 338.080228 
L 83.68124 337.899448 
L 83.68124 337.827315 
L 85.143299 337.647429 
L 85.143299 337.575651 
L 86.411178 337.396646 
L 86.411178 337.360919 
L 87.903696 337.182658 
L 89.392407 336.86333 
L 89.392407 336.827971 
L 90.694553 336.686772 
L 90.694553 347.683949 
L 91.330396 347.639293 
L 91.555036 361.112757 
L 92.857182 360.914412 
L 92.857182 360.782963 
L 93.717664 360.586937 
L 93.717664 360.521897 
L 94.600991 360.327668 
L 94.600991 360.263219 
L 95.19876 360.134756 
L 95.19876 360.006865 
L 96.508521 359.816088 
L 96.508521 359.689597 
L 97.197669 359.563654 
L 97.197669 359.438251 
L 98.092418 359.251145 
L 98.092418 359.189039 
L 98.739684 359.065215 
L 98.739684 359.003497 
L 99.421216 358.880442 
L 99.421216 358.819103 
L 100.704325 358.635837 
L 100.704325 358.514276 
L 101.621919 358.332843 
L 101.621919 358.212486 
L 102.223496 358.0926 
L 102.223496 358.032833 
L 102.912643 357.913644 
L 102.912643 357.854222 
L 103.582753 357.735719 
L 104.230019 363.422106 
L 104.230019 363.349819 
L 104.230019 367.002744 
L 104.922974 366.834829 
L 105.15142 366.668188 
L 105.15142 366.585336 
L 105.802493 366.420553 
L 105.802493 366.338614 
L 106.480219 366.175628 
L 106.480219 366.094573 
L 107.150329 365.933326 
L 107.150329 365.853127 
L 108.521009 365.614195 
L 108.521009 365.535097 
L 108.75707 365.377701 
L 108.75707 365.299398 
L 109.415758 365.143571 
L 109.415758 365.06604 
L 110.127751 364.911735 
L 110.127751 364.834955 
L 110.790246 364.682127 
L 110.790246 364.606076 
L 111.487008 364.454686 
L 111.487008 364.379342 
L 112.400795 364.229349 
L 112.400795 364.080266 
L 113.771475 363.858311 
L 113.771475 363.784764 
L 116.547102 362.847612 
L 116.547102 367.318017 
L 117.262902 367.147657 
L 117.262902 369.890654 
L 117.944434 369.697336 
L 117.944434 369.601408 
L 118.877258 369.410974 
L 119.105705 369.222393 
L 119.105705 369.128781 
L 119.810082 368.942879 
L 119.810082 368.850578 
L 120.510652 368.667245 
L 120.510652 368.576202 
L 121.447283 368.395335 
L 121.447283 368.216056 
L 122.121201 368.038326 
L 122.121201 367.950029 
L 123.0921 367.774547 
L 123.0921 367.600518 
L 123.785054 367.427905 
L 123.785054 367.34212 
L 124.489432 367.17157 
L 124.489432 367.086797 
L 125.190002 366.918237 
L 125.190002 366.834442 
L 126.13044 366.667804 
L 126.13044 366.502411 
L 127.070879 366.338236 
L 127.070879 366.175252 
L 127.786679 366.013434 
L 127.786679 365.932954 
L 128.727118 365.772838 
L 128.727118 365.613829 
L 129.420073 365.455902 
L 129.420073 369.045049 
L 130.364319 368.859928 
L 130.364319 368.67651 
L 131.057274 368.494749 
L 131.057274 368.404476 
L 131.788303 368.225118 
L 131.788303 368.136023 
L 132.485065 367.958975 
L 132.485065 367.871013 
L 133.444542 367.696188 
L 133.444542 367.522799 
L 134.38498 367.350813 
L 134.38498 367.180194 
L 135.10078 367.010911 
L 135.10078 366.926761 
L 136.075486 366.759425 
L 136.075486 366.59335 
L 136.791285 366.428507 
L 136.791285 366.34654 
L 137.708879 366.183496 
L 137.708879 366.021619 
L 138.417064 365.860885 
L 138.417064 365.780939 
L 139.132864 365.621873 
L 139.132864 365.542748 
L 139.856278 365.385301 
L 139.856278 365.306973 
L 140.556848 365.151095 
L 140.556848 365.073541 
L 141.523939 364.919187 
L 141.523939 368.596744 
L 141.523939 368.506018 
L 142.270198 368.415695 
L 142.270198 370.365981 
L 142.270198 370.266592 
L 142.99742 370.069394 
L 142.99742 369.97157 
L 143.968318 369.77743 
L 143.968318 369.585252 
L 144.946832 369.394977 
L 144.946832 369.20655 
L 145.662631 369.019918 
L 145.662631 368.927259 
L 146.386046 368.743225 
L 146.386046 368.651839 
L 147.372174 368.470298 
L 147.372174 368.290364 
L 148.110818 368.111996 
L 148.110818 368.023385 
L 149.081717 367.847289 
L 149.081717 367.672661 
L 149.847013 367.499464 
L 149.847013 367.413391 
L 150.59708 367.242278 
L 150.59708 367.157228 
L 151.320494 366.988123 
L 151.320494 366.904061 
L 152.047716 366.736897 
L 152.047716 366.653788 
L 153.026229 366.488499 
L 153.026229 366.324425 
L 153.761066 366.242836 
L 153.761066 366.544059 
L 153.761066 366.461667 
L 154.488288 366.379579 
L 154.488288 369.157428 
L 154.488288 369.064124 
L 155.20028 368.878826 
L 155.20028 368.78682 
L 155.965577 368.604066 
L 155.965577 368.513307 
L 156.955512 368.332995 
L 156.955512 368.154258 
L 157.701771 367.977055 
L 157.701771 367.889016 
L 158.421378 367.714042 
L 158.421378 367.627098 
L 159.388469 367.45427 
L 159.388469 367.282831 
L 160.40125 367.112748 
L 160.40125 366.943987 
L 161.136086 366.77652 
L 161.136086 366.693262 
L 161.870923 366.52768 
L 161.870923 366.445349 
L 162.624797 366.28159 
L 162.624797 366.200155 
L 163.610925 366.03816 
L 163.610925 365.87731 
L 164.600861 365.71758 
L 164.600861 365.558949 
L 165.335698 365.401392 
L 165.335698 365.323011 
L 166.093379 365.167027 
L 166.093379 365.08942 
L 166.835831 365.012067 
L 166.835831 369.297346 
L 166.835831 369.203375 
L 167.821959 369.016772 
L 168.061828 368.831914 
L 168.061828 368.740123 
L 168.81951 368.557791 
L 168.81951 368.467238 
L 169.565769 368.287331 
L 169.565769 368.197967 
L 170.536667 368.020391 
L 170.536667 367.84432 
L 171.511373 367.669716 
L 171.777894 367.496543 
L 171.777894 367.410483 
L 172.516538 367.239392 
L 172.516538 367.154353 
L 173.270412 366.985271 
L 173.270412 366.90122 
L 174.267963 366.734077 
L 174.267963 366.568191 
L 175.014222 366.403534 
L 175.014222 366.321657 
L 176.004158 366.158793 
L 176.004158 365.997092 
L 176.746609 365.836529 
L 176.746609 365.756667 
L 177.466216 365.597768 
L 177.466216 365.518725 
L 178.463767 365.361439 
L 178.463767 365.205202 
L 179.221448 365.12747 
L 179.468932 369.719772 
L 179.716416 369.548475 
L 180.47029 369.35856 
L 180.47029 369.264294 
L 181.231779 369.077116 
L 181.231779 368.984189 
L 182.023728 368.799632 
L 182.023728 368.707989 
L 183.006048 368.525946 
L 183.006048 368.345522 
L 184.007406 368.166677 
L 184.007406 367.989368 
L 184.749858 367.813557 
L 184.749858 367.726202 
L 185.499925 367.552569 
L 185.499925 367.466282 
L 186.48986 367.294747 
L 186.48986 367.12457 
L 187.506448 366.955718 
L 187.506448 366.788162 
L 188.286974 366.621871 
L 188.286974 366.539192 
L 189.05227 366.374747 
L 189.05227 366.292976 
L 190.065051 366.130317 
L 190.065051 365.888495 
L 191.047371 365.728688 
L 191.047371 365.649198 
L 192.048729 365.491031 
L 192.048729 365.333931 
L 192.783566 365.177876 
L 192.783566 365.022844 
L 193.784924 364.868817 
L 193.784924 364.792174 
L 194.55022 364.639618 
L 194.55022 364.5637 
L 195.517311 364.412572 
L 195.517311 364.262376 
L 196.313067 364.113093 
L 196.313067 364.038789 
L 197.006022 363.890846 
L 197.006022 363.817203 
L 197.740859 363.670565 
L 197.740859 363.597566 
L 198.784099 363.452198 
L 198.784099 363.307659 
L 199.770227 363.163935 
L 199.770227 363.021013 
L 200.531716 362.878878 
L 200.531716 362.808102 
L 201.274168 362.667126 
L 201.274168 362.596922 
L 202.290755 362.457075 
L 202.290755 362.317967 
L 203.292113 362.179586 
L 203.292113 362.041921 
L 204.072639 361.90496 
L 204.072639 369.442649 
L 204.807476 369.253762 
L 204.807476 369.16 
L 205.820257 368.973806 
L 205.820257 368.789344 
L 206.844459 368.606568 
L 207.099558 368.42543 
L 207.099558 368.335463 
L 207.861047 368.156704 
L 207.861047 368.067903 
L 208.630151 367.891432 
L 208.630151 367.803753 
L 209.654353 367.629483 
L 209.654353 367.456637 
L 210.381575 367.285179 
L 210.381575 367.19996 
L 211.390548 367.030524 
L 211.390548 366.862396 
L 212.14823 366.695547 
L 212.14823 366.612593 
L 212.924948 366.447609 
L 212.924948 366.365572 
L 213.663593 366.202391 
L 213.663593 366.12124 
L 214.432696 365.959805 
L 214.432696 365.879514 
L 215.460706 365.719769 
L 215.460706 365.561122 
L 216.21458 365.482203 
L 216.21458 366.470035 
L 216.21458 366.387916 
L 216.995107 366.224573 
L 216.995107 366.143344 
L 217.756595 365.981752 
L 217.756595 365.901383 
L 218.521892 365.741487 
L 218.521892 365.661953 
L 219.511827 365.5037 
L 219.511827 365.346515 
L 220.277124 365.190376 
L 220.277124 365.112693 
L 221.030998 364.958086 
L 221.030998 364.804474 
L 222.57682 364.575884 
L 222.57682 364.34943 
L 223.593408 364.199619 
L 223.593408 364.125054 
L 224.362512 363.976597 
L 224.362512 363.902701 
L 225.375292 363.755562 
L 225.375292 363.609282 
L 226.144396 363.463847 
L 226.144396 363.391442 
L 226.917307 363.247247 
L 226.917307 363.175454 
L 227.930088 363.032467 
L 227.930088 362.89027 
L 228.718229 362.748849 
L 228.718229 364.907993 
L 229.49114 364.754701 
L 229.49114 364.678421 
L 230.237399 364.526579 
L 230.237399 364.451014 
L 231.02554 364.300581 
L 231.02554 364.225711 
L 232.023091 364.076649 
L 232.023091 363.928481 
L 233.062523 363.781191 
L 233.062523 363.634762 
L 233.831627 363.489181 
L 233.831627 363.416703 
L 234.604538 363.272365 
L 234.604538 363.200502 
L 235.392679 363.128839 
L 235.655393 368.296169 
L 235.655393 368.11775 
L 236.413074 369.087711 
L 236.413074 368.994735 
L 236.413074 368.902193 
L 237.452507 368.718389 
L 237.452507 368.536252 
L 238.23684 368.355738 
L 238.23684 368.266076 
L 238.975484 368.087917 
L 238.975484 367.999409 
L 240.022532 367.823514 
L 240.022532 367.649082 
L 241.061964 367.476077 
L 241.061964 367.390098 
L 241.061964 367.390098 
L 241.061964 367.390098 
L 241.061964 367.944042 
L 241.834875 367.76861 
L 241.834875 367.681441 
L 242.615402 367.508172 
L 242.615402 367.422065 
L 243.673871 367.250882 
L 243.673871 367.081048 
L 244.964595 366.828759 
L 244.964595 366.662164 
L 245.741314 366.496813 
L 245.741314 366.414595 
L 246.544684 366.251059 
L 246.544684 366.169734 
L 247.580309 366.007956 
L 247.580309 365.847317 
L 248.337991 365.687795 
L 248.337991 365.608445 
L 249.41169 365.450555 
L 249.41169 365.293725 
L 250.173179 365.137934 
L 250.173179 365.060423 
L 250.934668 364.906153 
L 250.934668 364.829391 
L 251.715194 364.676599 
L 251.715194 364.600565 
L 252.499528 364.449209 
L 252.499528 364.373882 
L 253.546575 364.223922 
L 253.546575 364.074872 
L 254.330909 364.000682 
L 254.330909 369.442679 
L 254.330909 369.348006 
L 255.10382 369.16003 
L 255.10382 369.066713 
L 256.150867 368.881391 
L 256.150867 368.697777 
L 257.182685 368.515825 
L 257.182685 368.335491 
L 257.974633 368.156733 
L 257.974633 368.067931 
L 258.755159 367.89146 
L 258.755159 367.80378 
L 259.813629 367.629511 
L 259.813629 367.456664 
L 260.57131 367.285206 
L 260.57131 367.199987 
L 261.397526 367.030551 
L 264.805189 365.879539 
L 265.875081 365.719794 
L 265.875081 365.561147 
L 266.667029 365.403576 
L 266.667029 365.325187 
L 267.439941 365.169189 
L 267.439941 365.091575 
L 268.228082 364.937105 
L 268.228082 364.860243 
L 268.997185 364.707255 
L 268.997185 364.631125 
L 270.04804 364.479579 
L 270.04804 364.254013 
L 271.624322 364.030502 
L 271.624322 363.882609 
L 272.427693 363.735588 
L 272.427693 363.6624 
L 273.219641 363.516659 
L 273.219641 363.444103 
L 274.255266 363.29961 
L 274.255266 363.155931 
L 275.020563 363.013053 
L 275.020563 362.94191 
L 275.820126 362.800208 
L 275.820126 362.729645 
L 276.596845 362.589091 
L 276.596845 362.519095 
L 277.400216 362.379661 
L 277.400216 362.310219 
L 278.458685 362.171878 
L 278.458685 362.034252 
L 279.254441 361.89733 
L 279.254441 361.761102 
L 280.282451 361.625556 
L 280.282451 361.558037 
L 281.066785 361.423497 
L 281.066785 361.356474 
L 281.824466 361.222917 
L 281.824466 361.156381 
L 282.886743 360.957725 
L 282.886743 360.826072 
L 283.952828 360.695036 
L 283.952828 360.629746 
L 284.718124 360.499619 
L 284.718124 360.434779 
L 285.536725 360.305542 
L 285.536725 360.241143 
L 286.55712 360.048811 
L 286.55712 359.984986 
L 287.604167 359.794352 
L 287.604167 359.731085 
L 288.399923 359.667956 
L 288.399923 364.866777 
L 288.666444 364.790141 
L 288.666444 368.975677 
L 289.439356 368.791198 
L 289.439356 370.163128 
L 290.501633 369.967014 
L 290.501633 369.772921 
L 291.54868 369.580788 
L 291.54868 369.390557 
L 292.610957 369.202172 
L 292.610957 369.015581 
L 293.380061 368.830733 
L 293.380061 368.738948 
L 294.194854 368.556626 
L 294.194854 368.466079 
L 295.253324 368.286182 
L 295.253324 368.107849 
L 296.285141 367.93104 
L 296.285141 367.755717 
L 297.088512 367.581842 
L 297.088512 367.495437 
L 297.884268 367.323669 
L 297.884268 367.238298 
L 298.950352 367.068563 
L 298.950352 366.816417 
L 299.9974 366.649915 
L 299.9974 366.567131 
L 300.796963 366.402481 
L 301.063484 366.239033 
L 301.063484 366.157752 
L 302.651189 365.915639 
L 302.932939 365.755644 
L 302.932939 365.676062 
L 303.976179 365.517713 
L 303.976179 365.360434 
L 304.783357 365.204203 
L 305.049879 365.049 
L 305.049879 364.971777 
L 305.857057 364.818078 
L 305.857057 364.741597 
L 307.448569 364.513598 
L 307.448569 364.438072 
L 308.788789 363.989747 
L 308.788789 363.915812 
L 309.584545 363.768596 
L 309.584545 363.695311 
L 311.12656 363.476731 
L 311.12656 363.404289 
L 312.470588 362.973904 
L 312.470588 362.902868 
L 313.277766 362.761378 
L 313.277766 362.690921 
L 314.054485 362.550574 
L 314.054485 362.480681 
L 314.850241 362.341449 
L 314.850241 362.272107 
L 315.904903 362.133963 
L 315.904903 362.06516 
L 316.712082 361.92808 
L 316.98241 361.791697 
L 316.98241 361.723763 
L 317.755321 361.588403 
L 317.755321 361.520975 
L 318.5625 361.386617 
L 318.5625 361.319684 
L 320.390073 361.053568 
L 320.390073 360.987437 
L 320.668017 360.855644 
L 320.668017 360.78998 
L 321.486617 360.659111 
L 321.486617 360.593905 
L 321.745523 360.528849 
L 322.522242 360.399184 
L 322.522242 360.334573 
L 323.314191 360.205789 
L 323.314191 360.077582 
L 324.658218 359.886338 
L 324.658218 359.82287 
L 325.74334 359.633296 
L 325.74334 359.570378 
L 326.546711 359.444946 
L 326.546711 359.382431 
L 327.346274 359.257797 
L 327.346274 364.163273 
L 328.408551 364.014588 
L 328.408551 363.866788 
L 329.463214 363.71986 
L 329.463214 363.573788 
L 330.293237 363.428556 
L 330.293237 363.356251 
L 331.07757 363.212254 
L 331.07757 363.140559 
L 332.155077 362.997766 
L 332.155077 362.855759 
L 333.251621 362.714524 
L 333.251621 362.574051 
L 334.313898 362.434326 
L 334.313898 362.295337 
L 335.102039 362.157074 
L 335.102039 362.08821 
L 336.137664 361.951013 
L 336.137664 361.814514 
L 337.203749 361.678701 
L 337.203749 361.543566 
L 338.269833 361.409097 
L 338.269833 361.275285 
L 339.084626 361.208622 
L 339.084626 368.307213 
L 339.084626 368.217763 
L 339.857537 368.128699 
L 339.857537 369.807928 
L 339.857537 369.711443 
L 340.938852 369.52408 
L 340.938852 369.334403 
L 342.012551 369.146557 
L 342.012551 368.960489 
L 342.819729 368.77615 
L 342.819729 368.412471 
L 344.712029 368.143914 
L 344.712029 368.055167 
L 345.778114 367.878804 
L 346.577677 367.530463 
L 346.577677 367.444266 
L 347.346781 367.272906 
L 347.346781 367.187736 
L 348.176804 367.018395 
L 348.176804 366.934216 
L 349.254311 366.766823 
L 349.254311 366.600692 
L 350.308973 366.435796 
L 350.308973 366.272106 
L 351.085692 366.109597 
L 351.085692 366.028778 
L 351.854796 365.867993 
L 351.854796 365.788022 
L 352.677204 365.628908 
L 352.677204 365.549759 
L 352.958954 365.470879 
L 354.017424 365.313914 
L 354.017424 365.15799 
L 355.053049 365.003088 
L 355.053049 364.849188 
L 355.867842 364.696271 
L 355.867842 364.620175 
L 356.941542 364.468697 
L 356.941542 364.318156 
L 358.003819 364.168535 
L 358.003819 364.019818 
L 359.092748 363.871988 
L 359.092748 363.725029 
L 359.884696 363.578926 
L 359.884696 363.506192 
L 360.695682 363.361346 
L 360.695682 363.289232 
L 361.784611 363.145611 
L 361.784611 363.00279 
L 362.877348 362.860755 
L 362.877348 362.649149 
L 364.491704 362.439242 
L 364.491704 362.300228 
L 365.542559 362.161939 
L 365.542559 361.955841 
L 366.604836 361.819318 
L 366.604836 361.751314 
L 367.419629 361.615817 
L 367.419629 361.548322 
L 368.20777 361.413829 
L 368.20777 361.34683 
L 368.988296 361.21332 
L 368.988296 361.146807 
L 369.80309 361.080453 
L 370.065803 369.063939 
L 370.065803 368.878642 
L 371.15854 368.695054 
L 371.15854 368.513126 
L 371.939066 368.332816 
L 371.939066 368.243254 
L 372.734822 368.065291 
L 372.734822 367.976879 
L 373.816136 367.801173 
L 373.816136 367.626925 
L 374.893643 367.454099 
L 374.893643 367.282662 
L 375.963535 367.112579 
L 375.963535 366.94382 
L 376.778328 366.776354 
L 376.778328 366.693097 
L 377.539817 366.527516 
L 377.539817 366.363157 
L 378.56402 366.199994 
L 378.56402 365.957433 
L 379.892818 365.797148 
L 379.892818 365.717422 
L 380.722841 365.558791 
L 380.722841 365.479881 
L 381.510982 365.322855 
L 381.510982 365.244735 
L 382.33339 365.089266 
L 382.592296 366.019342 
L 382.592296 365.938841 
L 383.365207 365.778685 
L 383.662188 365.619635 
L 384.454136 368.696465 
L 384.454136 368.514525 
L 385.287967 368.334202 
L 385.287967 368.244634 
L 386.357859 368.066659 
L 386.357859 367.890198 
L 387.180267 367.715214 
L 387.180267 367.628265 
L 387.987445 367.455428 
L 387.987445 367.369532 
L 388.809853 367.198766 
L 388.809853 367.113887 
L 389.613224 366.945118 
L 389.613224 366.86122 
L 390.686923 366.69438 
L 390.686923 366.446454 
L 391.490294 366.282687 
L 391.745393 366.201249 
L 392.556379 366.039246 
L 392.556379 365.958675 
L 393.355942 365.798381 
L 393.355942 365.639195 
L 394.936032 365.402448 
L 395.210168 365.245939 
L 395.210168 365.168073 
L 396.009731 365.090462 
L 396.268637 365.957134 
L 396.268637 365.79685 
L 397.08343 365.637675 
L 397.08343 365.558497 
L 397.863956 365.400944 
L 397.863956 365.322563 
L 398.952886 365.166583 
L 398.952886 365.011625 
L 400.00374 364.85767 
L 400.00374 364.704699 
L 401.054595 364.552693 
L 401.054595 364.401634 
L 401.89604 364.251504 
L 401.89604 364.176783 
L 402.958317 364.028016 
L 402.958317 363.880137 
L 404.020594 363.73313 
L 404.020594 363.586981 
L 405.063834 363.441674 
L 405.063834 363.297195 
L 405.867205 363.153529 
L 405.867205 363.081998 
L 406.659154 362.939528 
L 406.659154 362.868587 
L 407.694779 362.727283 
L 407.694779 362.586741 
L 408.776093 362.446949 
L 408.776093 362.307894 
L 409.571849 362.169565 
L 409.571849 362.031951 
L 411.167168 361.826847 
L 411.167168 361.758824 
L 411.448919 368.993287 
L 411.448919 368.900753 
L 412.233253 368.716962 
L 412.499774 368.534838 
L 412.499774 368.444387 
L 413.573473 368.26468 
L 413.573473 368.949454 
L 413.573473 368.765216 
L 414.376844 368.9619 
L 414.376844 368.869511 
L 414.376844 368.777548 
L 415.450543 368.594878 
L 416.265336 368.413845 
L 416.265336 368.323928 
L 417.308576 368.14527 
L 417.308576 367.968143 
L 418.085295 367.79251 
L 418.085295 367.705242 
L 418.900088 367.53178 
L 418.900088 367.445577 
L 419.707266 367.274207 
L 419.707266 367.104191 
L 421.310201 366.851636 
L 421.569107 366.684868 
L 421.569107 366.601954 
L 422.380092 366.437048 
L 422.380092 366.355049 
L 423.191078 366.191944 
L 423.191078 366.110831 
L 423.979219 365.949469 
L 423.979219 365.869214 
L 424.790205 365.709541 
L 424.790205 365.630117 
L 425.582153 365.472079 
L 425.848675 369.510811 
L 425.848675 369.415805 
L 426.640623 369.227177 
L 426.640623 369.133542 
L 427.436379 368.947596 
L 427.436379 368.855273 
L 428.243557 368.671897 
L 428.243557 368.399925 
L 429.835069 368.13153 
L 430.908768 367.691789 
L 430.908768 367.518437 
L 432.50028 367.261024 
L 432.50028 367.1759 
L 433.296036 367.006651 
L 433.296036 366.922517 
L 434.327854 366.755213 
L 434.327854 366.506611 
L 435.923173 366.260751 
L 436.189694 366.098323 
L 436.189694 365.93705 
L 437.781206 365.69725 
L 437.781206 365.538757 
L 438.839676 365.381336 
L 438.839676 365.224967 
L 439.894338 365.069628 
L 439.894338 364.915299 
L 440.678671 364.761961 
L 440.678671 364.609595 
L 442.273991 364.382829 
L 442.540512 364.232814 
L 442.540512 364.15815 
L 443.328653 364.009494 
L 443.328653 363.861725 
L 444.132024 363.714827 
L 444.132024 363.641699 
L 445.719728 363.423581 
L 445.719728 363.279204 
L 446.534521 363.135639 
L 446.534521 363.064157 
L 447.562531 362.780193 
L 448.346865 362.639367 
L 449.412949 362.290574 
L 449.412949 362.221365 
L 450.993039 362.01481 
L 450.993039 361.946311 
L 454.964204 360.873174 
L 455.782804 360.741918 
L 455.782804 360.67652 
L 456.053133 360.546177 
L 457.11541 360.416433 
L 457.11541 360.222921 
L 458.962021 359.966925 
L 458.962021 359.839776 
L 460.842898 359.587138 
L 461.113227 359.461634 
L 461.113227 359.399084 
L 461.91279 359.27438 
L 461.91279 359.212225 
L 462.742813 359.088305 
L 462.742813 358.842003 
L 464.840715 358.59771 
L 464.840715 358.536945 
L 465.644086 358.415779 
L 465.644086 358.355377 
L 466.455072 358.234931 
L 466.455072 358.114958 
L 467.258442 369.258532 
L 467.517349 369.071408 
L 467.517349 368.978508 
L 469.127898 368.702386 
L 469.127898 368.520393 
L 470.985931 367.895891 
L 471.774072 367.72086 
L 471.774072 367.461005 
L 473.369391 367.204276 
L 476.849395 366.044476 
L 476.849395 365.883581 
L 477.664189 365.723808 
L 477.664189 365.644335 
L 477.926902 365.565134 
L 478.730273 365.486201 
L 478.730273 366.503302 
L 478.730273 366.421061 
L 480.306555 366.17613 
L 480.306555 366.095074 
L 481.094696 365.933823 
L 481.094696 365.853623 
L 481.924719 365.694057 
L 481.924719 365.614686 
L 482.183625 365.535586 
L 482.983189 365.378187 
L 482.983189 365.299882 
L 484.053081 365.144051 
L 484.053081 364.98924 
L 484.845029 364.835429 
L 484.845029 364.758893 
L 485.640785 364.606546 
L 485.640785 364.455153 
L 486.447963 365.748416 
L 491.241536 364.431235 
L 491.511865 364.280924 
L 491.511865 364.206113 
L 492.581757 364.05717 
L 492.581757 363.761941 
L 494.43979 363.542784 
L 494.43979 363.39773 
L 495.239353 363.253499 
L 498.993493 362.127717 
L 498.993493 353.946387 
L 498.993493 353.946387 
" style="fill:none;stroke:#0000ff;stroke-linecap:square;"/>
   </g>
   <g id="patch_13">
    <path d="M 72 287.152941 
L 518.4 287.152941 
" style="fill:none;stroke:#000000;stroke-linecap:square;stroke-linejoin:miter;"/>
   </g>
   <g id="patch_14">
    <path d="M 518.4 388.8 
L 518.4 287.152941 
" style="fill:none;stroke:#000000;stroke-linecap:square;stroke-linejoin:miter;"/>
   </g>
   <g id="patch_15">
    <path d="M 72 388.8 
L 518.4 388.8 
" style="fill:none;stroke:#000000;stroke-linecap:square;stroke-linejoin:miter;"/>
   </g>
   <g id="patch_16">
    <path d="M 72 388.8 
L 72 287.152941 
" style="fill:none;stroke:#000000;stroke-linecap:square;stroke-linejoin:miter;"/>
   </g>
   <g id="matplotlib.axis_5">
    <g id="xtick_13">
     <g id="line2d_64">
      <g>
       <use style="stroke:#000000;stroke-width:0.5;" x="72.0" xlink:href="#mdd72a6f99d" y="388.8"/>
      </g>
     </g>
     <g id="line2d_65">
      <g>
       <use style="stroke:#000000;stroke-width:0.5;" x="72.0" xlink:href="#me4d7fb92a7" y="287.152941176"/>
      </g>
     </g>
     <g id="text_33">
      <!-- 0 -->
      <g transform="translate(68.1825 401.918125)scale(0.12 -0.12)">
       <use xlink:href="#BitstreamVeraSans-Roman-30"/>
      </g>
     </g>
    </g>
    <g id="xtick_14">
     <g id="line2d_66">
      <g>
       <use style="stroke:#000000;stroke-width:0.5;" x="161.28" xlink:href="#mdd72a6f99d" y="388.8"/>
      </g>
     </g>
     <g id="line2d_67">
      <g>
       <use style="stroke:#000000;stroke-width:0.5;" x="161.28" xlink:href="#me4d7fb92a7" y="287.152941176"/>
      </g>
     </g>
     <g id="text_34">
      <!-- 1 -->
      <g transform="translate(157.4625 401.918125)scale(0.12 -0.12)">
       <use xlink:href="#BitstreamVeraSans-Roman-31"/>
      </g>
     </g>
    </g>
    <g id="xtick_15">
     <g id="line2d_68">
      <g>
       <use style="stroke:#000000;stroke-width:0.5;" x="250.56" xlink:href="#mdd72a6f99d" y="388.8"/>
      </g>
     </g>
     <g id="line2d_69">
      <g>
       <use style="stroke:#000000;stroke-width:0.5;" x="250.56" xlink:href="#me4d7fb92a7" y="287.152941176"/>
      </g>
     </g>
     <g id="text_35">
      <!-- 2 -->
      <g transform="translate(246.7425 401.918125)scale(0.12 -0.12)">
       <use xlink:href="#BitstreamVeraSans-Roman-32"/>
      </g>
     </g>
    </g>
    <g id="xtick_16">
     <g id="line2d_70">
      <g>
       <use style="stroke:#000000;stroke-width:0.5;" x="339.84" xlink:href="#mdd72a6f99d" y="388.8"/>
      </g>
     </g>
     <g id="line2d_71">
      <g>
       <use style="stroke:#000000;stroke-width:0.5;" x="339.84" xlink:href="#me4d7fb92a7" y="287.152941176"/>
      </g>
     </g>
     <g id="text_36">
      <!-- 3 -->
      <g transform="translate(336.0225 401.918125)scale(0.12 -0.12)">
       <use xlink:href="#BitstreamVeraSans-Roman-33"/>
      </g>
     </g>
    </g>
    <g id="xtick_17">
     <g id="line2d_72">
      <g>
       <use style="stroke:#000000;stroke-width:0.5;" x="429.12" xlink:href="#mdd72a6f99d" y="388.8"/>
      </g>
     </g>
     <g id="line2d_73">
      <g>
       <use style="stroke:#000000;stroke-width:0.5;" x="429.12" xlink:href="#me4d7fb92a7" y="287.152941176"/>
      </g>
     </g>
     <g id="text_37">
      <!-- 4 -->
      <g transform="translate(425.3025 401.918125)scale(0.12 -0.12)">
       <use xlink:href="#BitstreamVeraSans-Roman-34"/>
      </g>
     </g>
    </g>
    <g id="xtick_18">
     <g id="line2d_74">
      <g>
       <use style="stroke:#000000;stroke-width:0.5;" x="518.4" xlink:href="#mdd72a6f99d" y="388.8"/>
      </g>
     </g>
     <g id="line2d_75">
      <g>
       <use style="stroke:#000000;stroke-width:0.5;" x="518.4" xlink:href="#me4d7fb92a7" y="287.152941176"/>
      </g>
     </g>
     <g id="text_38">
      <!-- 5 -->
      <g transform="translate(514.5825 401.918125)scale(0.12 -0.12)">
       <use xlink:href="#BitstreamVeraSans-Roman-35"/>
      </g>
     </g>
    </g>
    <g id="text_39">
     <!-- travel_distance -->
     <defs>
      <path d="M 54.890625 33.015625 
L 54.890625 0 
L 45.90625 0 
L 45.90625 32.71875 
Q 45.90625 40.484375 42.875 44.328125 
Q 39.84375 48.1875 33.796875 48.1875 
Q 26.515625 48.1875 22.3125 43.546875 
Q 18.109375 38.921875 18.109375 30.90625 
L 18.109375 0 
L 9.078125 0 
L 9.078125 54.6875 
L 18.109375 54.6875 
L 18.109375 46.1875 
Q 21.34375 51.125 25.703125 53.5625 
Q 30.078125 56 35.796875 56 
Q 45.21875 56 50.046875 50.171875 
Q 54.890625 44.34375 54.890625 33.015625 
" id="BitstreamVeraSans-Roman-6e"/>
      <path d="M 9.421875 75.984375 
L 18.40625 75.984375 
L 18.40625 0 
L 9.421875 0 
z
" id="BitstreamVeraSans-Roman-6c"/>
      <path d="M 9.421875 54.6875 
L 18.40625 54.6875 
L 18.40625 0 
L 9.421875 0 
z
M 9.421875 75.984375 
L 18.40625 75.984375 
L 18.40625 64.59375 
L 9.421875 64.59375 
z
" id="BitstreamVeraSans-Roman-69"/>
      <path d="M 2.984375 54.6875 
L 12.5 54.6875 
L 29.59375 8.796875 
L 46.6875 54.6875 
L 56.203125 54.6875 
L 35.6875 0 
L 23.484375 0 
z
" id="BitstreamVeraSans-Roman-76"/>
      <path d="M 45.40625 46.390625 
L 45.40625 75.984375 
L 54.390625 75.984375 
L 54.390625 0 
L 45.40625 0 
L 45.40625 8.203125 
Q 42.578125 3.328125 38.25 0.953125 
Q 33.9375 -1.421875 27.875 -1.421875 
Q 17.96875 -1.421875 11.734375 6.484375 
Q 5.515625 14.40625 5.515625 27.296875 
Q 5.515625 40.1875 11.734375 48.09375 
Q 17.96875 56 27.875 56 
Q 33.9375 56 38.25 53.625 
Q 42.578125 51.265625 45.40625 46.390625 
M 14.796875 27.296875 
Q 14.796875 17.390625 18.875 11.75 
Q 22.953125 6.109375 30.078125 6.109375 
Q 37.203125 6.109375 41.296875 11.75 
Q 45.40625 17.390625 45.40625 27.296875 
Q 45.40625 37.203125 41.296875 42.84375 
Q 37.203125 48.484375 30.078125 48.484375 
Q 22.953125 48.484375 18.875 42.84375 
Q 14.796875 37.203125 14.796875 27.296875 
" id="BitstreamVeraSans-Roman-64"/>
      <path d="M 41.109375 46.296875 
Q 39.59375 47.171875 37.8125 47.578125 
Q 36.03125 48 33.890625 48 
Q 26.265625 48 22.1875 43.046875 
Q 18.109375 38.09375 18.109375 28.8125 
L 18.109375 0 
L 9.078125 0 
L 9.078125 54.6875 
L 18.109375 54.6875 
L 18.109375 46.1875 
Q 20.953125 51.171875 25.484375 53.578125 
Q 30.03125 56 36.53125 56 
Q 37.453125 56 38.578125 55.875 
Q 39.703125 55.765625 41.0625 55.515625 
z
" id="BitstreamVeraSans-Roman-72"/>
      <path d="M 44.28125 53.078125 
L 44.28125 44.578125 
Q 40.484375 46.53125 36.375 47.5 
Q 32.28125 48.484375 27.875 48.484375 
Q 21.1875 48.484375 17.84375 46.4375 
Q 14.5 44.390625 14.5 40.28125 
Q 14.5 37.15625 16.890625 35.375 
Q 19.28125 33.59375 26.515625 31.984375 
L 29.59375 31.296875 
Q 39.15625 29.25 43.1875 25.515625 
Q 47.21875 21.78125 47.21875 15.09375 
Q 47.21875 7.46875 41.1875 3.015625 
Q 35.15625 -1.421875 24.609375 -1.421875 
Q 20.21875 -1.421875 15.453125 -0.5625 
Q 10.6875 0.296875 5.421875 2 
L 5.421875 11.28125 
Q 10.40625 8.6875 15.234375 7.390625 
Q 20.0625 6.109375 24.8125 6.109375 
Q 31.15625 6.109375 34.5625 8.28125 
Q 37.984375 10.453125 37.984375 14.40625 
Q 37.984375 18.0625 35.515625 20.015625 
Q 33.0625 21.96875 24.703125 23.78125 
L 21.578125 24.515625 
Q 13.234375 26.265625 9.515625 29.90625 
Q 5.8125 33.546875 5.8125 39.890625 
Q 5.8125 47.609375 11.28125 51.796875 
Q 16.75 56 26.8125 56 
Q 31.78125 56 36.171875 55.265625 
Q 40.578125 54.546875 44.28125 53.078125 
" id="BitstreamVeraSans-Roman-73"/>
      <path d="M 48.78125 52.59375 
L 48.78125 44.1875 
Q 44.96875 46.296875 41.140625 47.34375 
Q 37.3125 48.390625 33.40625 48.390625 
Q 24.65625 48.390625 19.8125 42.84375 
Q 14.984375 37.3125 14.984375 27.296875 
Q 14.984375 17.28125 19.8125 11.734375 
Q 24.65625 6.203125 33.40625 6.203125 
Q 37.3125 6.203125 41.140625 7.25 
Q 44.96875 8.296875 48.78125 10.40625 
L 48.78125 2.09375 
Q 45.015625 0.34375 40.984375 -0.53125 
Q 36.96875 -1.421875 32.421875 -1.421875 
Q 20.0625 -1.421875 12.78125 6.34375 
Q 5.515625 14.109375 5.515625 27.296875 
Q 5.515625 40.671875 12.859375 48.328125 
Q 20.21875 56 33.015625 56 
Q 37.15625 56 41.109375 55.140625 
Q 45.0625 54.296875 48.78125 52.59375 
" id="BitstreamVeraSans-Roman-63"/>
     </defs>
     <g transform="translate(249.3703125 418.531875)scale(0.12 -0.12)">
      <use xlink:href="#BitstreamVeraSans-Roman-74"/>
      <use x="39.208984375" xlink:href="#BitstreamVeraSans-Roman-72"/>
      <use x="80.322265625" xlink:href="#BitstreamVeraSans-Roman-61"/>
      <use x="141.6015625" xlink:href="#BitstreamVeraSans-Roman-76"/>
      <use x="200.78125" xlink:href="#BitstreamVeraSans-Roman-65"/>
      <use x="262.3046875" xlink:href="#BitstreamVeraSans-Roman-6c"/>
      <use x="290.087890625" xlink:href="#BitstreamVeraSans-Roman-5f"/>
      <use x="340.087890625" xlink:href="#BitstreamVeraSans-Roman-64"/>
      <use x="403.564453125" xlink:href="#BitstreamVeraSans-Roman-69"/>
      <use x="431.34765625" xlink:href="#BitstreamVeraSans-Roman-73"/>
      <use x="483.447265625" xlink:href="#BitstreamVeraSans-Roman-74"/>
      <use x="522.65625" xlink:href="#BitstreamVeraSans-Roman-61"/>
      <use x="583.935546875" xlink:href="#BitstreamVeraSans-Roman-6e"/>
      <use x="647.314453125" xlink:href="#BitstreamVeraSans-Roman-63"/>
      <use x="702.294921875" xlink:href="#BitstreamVeraSans-Roman-65"/>
     </g>
    </g>
   </g>
   <g id="matplotlib.axis_6">
    <g id="ytick_19">
     <g id="line2d_76">
      <g>
       <use style="stroke:#000000;stroke-width:0.5;" x="72.0" xlink:href="#m4cfd9464f5" y="388.8"/>
      </g>
     </g>
     <g id="line2d_77">
      <g>
       <use style="stroke:#000000;stroke-width:0.5;" x="518.4" xlink:href="#m1e8ba31d53" y="388.8"/>
      </g>
     </g>
     <g id="text_40">
      <!-- 0.0 -->
      <g transform="translate(48.91625 392.11125)scale(0.12 -0.12)">
       <use xlink:href="#BitstreamVeraSans-Roman-30"/>
       <use x="63.623046875" xlink:href="#BitstreamVeraSans-Roman-2e"/>
       <use x="95.41015625" xlink:href="#BitstreamVeraSans-Roman-30"/>
      </g>
     </g>
    </g>
    <g id="ytick_20">
     <g id="line2d_78">
      <g>
       <use style="stroke:#000000;stroke-width:0.5;" x="72.0" xlink:href="#m4cfd9464f5" y="375.247058824"/>
      </g>
     </g>
     <g id="line2d_79">
      <g>
       <use style="stroke:#000000;stroke-width:0.5;" x="518.4" xlink:href="#m1e8ba31d53" y="375.247058824"/>
      </g>
     </g>
     <g id="text_41">
      <!-- 0.2 -->
      <g transform="translate(48.91625 378.558308824)scale(0.12 -0.12)">
       <use xlink:href="#BitstreamVeraSans-Roman-30"/>
       <use x="63.623046875" xlink:href="#BitstreamVeraSans-Roman-2e"/>
       <use x="95.41015625" xlink:href="#BitstreamVeraSans-Roman-32"/>
      </g>
     </g>
    </g>
    <g id="ytick_21">
     <g id="line2d_80">
      <g>
       <use style="stroke:#000000;stroke-width:0.5;" x="72.0" xlink:href="#m4cfd9464f5" y="361.694117647"/>
      </g>
     </g>
     <g id="line2d_81">
      <g>
       <use style="stroke:#000000;stroke-width:0.5;" x="518.4" xlink:href="#m1e8ba31d53" y="361.694117647"/>
      </g>
     </g>
     <g id="text_42">
      <!-- 0.4 -->
      <g transform="translate(48.91625 365.005367647)scale(0.12 -0.12)">
       <use xlink:href="#BitstreamVeraSans-Roman-30"/>
       <use x="63.623046875" xlink:href="#BitstreamVeraSans-Roman-2e"/>
       <use x="95.41015625" xlink:href="#BitstreamVeraSans-Roman-34"/>
      </g>
     </g>
    </g>
    <g id="ytick_22">
     <g id="line2d_82">
      <g>
       <use style="stroke:#000000;stroke-width:0.5;" x="72.0" xlink:href="#m4cfd9464f5" y="348.141176471"/>
      </g>
     </g>
     <g id="line2d_83">
      <g>
       <use style="stroke:#000000;stroke-width:0.5;" x="518.4" xlink:href="#m1e8ba31d53" y="348.141176471"/>
      </g>
     </g>
     <g id="text_43">
      <!-- 0.6 -->
      <g transform="translate(48.91625 351.452426471)scale(0.12 -0.12)">
       <use xlink:href="#BitstreamVeraSans-Roman-30"/>
       <use x="63.623046875" xlink:href="#BitstreamVeraSans-Roman-2e"/>
       <use x="95.41015625" xlink:href="#BitstreamVeraSans-Roman-36"/>
      </g>
     </g>
    </g>
    <g id="ytick_23">
     <g id="line2d_84">
      <g>
       <use style="stroke:#000000;stroke-width:0.5;" x="72.0" xlink:href="#m4cfd9464f5" y="334.588235294"/>
      </g>
     </g>
     <g id="line2d_85">
      <g>
       <use style="stroke:#000000;stroke-width:0.5;" x="518.4" xlink:href="#m1e8ba31d53" y="334.588235294"/>
      </g>
     </g>
     <g id="text_44">
      <!-- 0.8 -->
      <g transform="translate(48.91625 337.899485294)scale(0.12 -0.12)">
       <use xlink:href="#BitstreamVeraSans-Roman-30"/>
       <use x="63.623046875" xlink:href="#BitstreamVeraSans-Roman-2e"/>
       <use x="95.41015625" xlink:href="#BitstreamVeraSans-Roman-38"/>
      </g>
     </g>
    </g>
    <g id="ytick_24">
     <g id="line2d_86">
      <g>
       <use style="stroke:#000000;stroke-width:0.5;" x="72.0" xlink:href="#m4cfd9464f5" y="321.035294118"/>
      </g>
     </g>
     <g id="line2d_87">
      <g>
       <use style="stroke:#000000;stroke-width:0.5;" x="518.4" xlink:href="#m1e8ba31d53" y="321.035294118"/>
      </g>
     </g>
     <g id="text_45">
      <!-- 1.0 -->
      <g transform="translate(48.91625 324.346544118)scale(0.12 -0.12)">
       <use xlink:href="#BitstreamVeraSans-Roman-31"/>
       <use x="63.623046875" xlink:href="#BitstreamVeraSans-Roman-2e"/>
       <use x="95.41015625" xlink:href="#BitstreamVeraSans-Roman-30"/>
      </g>
     </g>
    </g>
    <g id="ytick_25">
     <g id="line2d_88">
      <g>
       <use style="stroke:#000000;stroke-width:0.5;" x="72.0" xlink:href="#m4cfd9464f5" y="307.482352941"/>
      </g>
     </g>
     <g id="line2d_89">
      <g>
       <use style="stroke:#000000;stroke-width:0.5;" x="518.4" xlink:href="#m1e8ba31d53" y="307.482352941"/>
      </g>
     </g>
     <g id="text_46">
      <!-- 1.2 -->
      <g transform="translate(48.91625 310.793602941)scale(0.12 -0.12)">
       <use xlink:href="#BitstreamVeraSans-Roman-31"/>
       <use x="63.623046875" xlink:href="#BitstreamVeraSans-Roman-2e"/>
       <use x="95.41015625" xlink:href="#BitstreamVeraSans-Roman-32"/>
      </g>
     </g>
    </g>
    <g id="ytick_26">
     <g id="line2d_90">
      <g>
       <use style="stroke:#000000;stroke-width:0.5;" x="72.0" xlink:href="#m4cfd9464f5" y="293.929411765"/>
      </g>
     </g>
     <g id="line2d_91">
      <g>
       <use style="stroke:#000000;stroke-width:0.5;" x="518.4" xlink:href="#m1e8ba31d53" y="293.929411765"/>
      </g>
     </g>
     <g id="text_47">
      <!-- 1.4 -->
      <g transform="translate(48.91625 297.240661765)scale(0.12 -0.12)">
       <use xlink:href="#BitstreamVeraSans-Roman-31"/>
       <use x="63.623046875" xlink:href="#BitstreamVeraSans-Roman-2e"/>
       <use x="95.41015625" xlink:href="#BitstreamVeraSans-Roman-34"/>
      </g>
     </g>
    </g>
    <g id="text_48">
     <!-- thegma_theta -->
     <g transform="translate(41.086875 380.028970588)rotate(-90.0)scale(0.12 -0.12)">
      <use xlink:href="#BitstreamVeraSans-Roman-74"/>
      <use x="39.208984375" xlink:href="#BitstreamVeraSans-Roman-68"/>
      <use x="102.587890625" xlink:href="#BitstreamVeraSans-Roman-65"/>
      <use x="164.111328125" xlink:href="#BitstreamVeraSans-Roman-67"/>
      <use x="227.587890625" xlink:href="#BitstreamVeraSans-Roman-6d"/>
      <use x="325.0" xlink:href="#BitstreamVeraSans-Roman-61"/>
      <use x="386.279296875" xlink:href="#BitstreamVeraSans-Roman-5f"/>
      <use x="436.279296875" xlink:href="#BitstreamVeraSans-Roman-74"/>
      <use x="475.48828125" xlink:href="#BitstreamVeraSans-Roman-68"/>
      <use x="538.8671875" xlink:href="#BitstreamVeraSans-Roman-65"/>
      <use x="600.390625" xlink:href="#BitstreamVeraSans-Roman-74"/>
      <use x="639.599609375" xlink:href="#BitstreamVeraSans-Roman-61"/>
     </g>
    </g>
   </g>
  </g>
 </g>
 <defs>
  <clipPath id="p1d9564935a">
   <rect height="101.647058824" width="446.4" x="72.0" y="43.2"/>
  </clipPath>
  <clipPath id="p45bd0b9755">
   <rect height="101.647058824" width="446.4" x="72.0" y="287.152941176"/>
  </clipPath>
  <clipPath id="pdaa2cfb100">
   <rect height="101.647058824" width="446.4" x="72.0" y="165.176470588"/>
  </clipPath>
 </defs>
</svg>
