<?xml version="1.0" encoding="utf-8" standalone="no"?>
<!DOCTYPE svg PUBLIC "-//W3C//DTD SVG 1.1//EN"
  "http://www.w3.org/Graphics/SVG/1.1/DTD/svg11.dtd">
<!-- Created with matplotlib (http://matplotlib.org/) -->
<svg height="432pt" version="1.1" viewBox="0 0 576 432" width="576pt" xmlns="http://www.w3.org/2000/svg" xmlns:xlink="http://www.w3.org/1999/xlink">
 <defs>
  <style type="text/css">
*{stroke-linecap:butt;stroke-linejoin:round;stroke-miterlimit:100000;}
  </style>
 </defs>
 <g id="figure_1">
  <g id="patch_1">
   <path d="M 0 432 
L 576 432 
L 576 0 
L 0 0 
z
" style="fill:#ffffff;"/>
  </g>
  <g id="axes_1">
   <g id="patch_2">
    <path d="M 72 144.847059 
L 518.4 144.847059 
L 518.4 43.2 
L 72 43.2 
z
" style="fill:#ffffff;"/>
   </g>
   <g id="line2d_1">
    <path clip-path="url(#p7e8ec4be46)" d="M 72 55.904232 
L 72 55.606097 
L 72.32744 55.554302 
L 72.898557 55.244943 
L 73.667661 54.385782 
L 74.280659 53.345546 
L 75.118297 51.435114 
L 76.245301 48.039007 
L 77.48272 43.32268 
L 77.48272 105.236696 
L 77.48272 105.232987 
L 78.107141 108.158864 
L 78.301321 131.967017 
L 78.301321 131.955616 
L 80.159354 131.570837 
L 80.159354 131.54872 
L 81.60999 131.007203 
L 82.855025 130.40423 
L 84.522685 129.422101 
L 86.411178 128.106528 
L 88.767986 126.240014 
L 88.767986 126.224228 
L 90.694553 124.540875 
L 90.694553 124.970251 
L 90.694553 124.962862 
L 91.330396 124.418259 
L 91.555036 124.58761 
L 91.555036 124.573111 
L 92.209916 124.017226 
L 92.209916 127.125209 
L 94.600991 125.776851 
L 97.197669 124.198491 
L 100.05706 122.344017 
L 103.582753 119.917087 
L 104.230019 119.461428 
L 104.230019 121.710411 
L 104.922974 121.293063 
L 105.15142 122.435968 
L 105.15142 122.429414 
L 108.75707 120.378527 
L 112.400795 118.184619 
L 116.547102 115.559155 
L 117.944434 114.650921 
L 117.944434 119.81253 
L 119.105705 119.250497 
L 119.105705 123.556661 
L 122.863653 122.405015 
L 127.786679 120.689205 
L 131.057274 119.457846 
L 131.057274 121.571922 
L 131.057274 121.559302 
L 132.485065 121.092303 
L 132.485065 123.492529 
L 136.075486 122.640958 
L 136.075486 122.634344 
L 139.856278 121.623091 
L 139.856278 121.616766 
L 143.724642 120.453997 
L 145.662631 119.813218 
L 145.662631 122.711069 
L 145.662631 122.704435 
L 149.081717 121.9686 
L 152.763516 121.0707 
L 156.955512 119.868854 
L 159.152408 119.189722 
L 159.388469 122.090806 
L 159.388469 122.077901 
L 162.624797 121.438912 
L 166.093379 120.647067 
L 169.565769 119.737913 
L 171.511373 119.186597 
L 171.777894 120.669662 
L 171.777894 120.657516 
L 173.270412 120.278014 
L 173.270412 121.93974 
L 176.746609 121.307213 
L 180.47029 120.511507 
L 180.47029 120.505472 
L 184.007406 119.622269 
L 186.48986 118.938572 
L 186.48986 121.149721 
L 186.48986 121.143523 
L 190.065051 120.479844 
L 193.784924 119.676359 
L 197.740859 118.682196 
L 197.740859 118.67097 
L 198.529 118.464763 
L 198.784099 119.715052 
L 198.784099 119.703365 
L 199.770227 119.477552 
L 199.770227 120.884899 
L 199.770227 120.87877 
L 200.531716 120.769204 
L 200.531716 129.703116 
L 200.531716 129.69342 
L 203.292113 129.116979 
L 205.820257 128.504552 
L 208.630151 127.731451 
L 211.390548 126.876102 
L 212.14823 126.63369 
L 212.14823 132.716045 
L 212.924948 132.60788 
L 212.924948 134.850934 
L 212.924948 134.836249 
L 216.995107 134.396425 
L 219.511827 133.966156 
L 219.511827 133.939186 
L 221.807717 133.428843 
L 224.362512 132.770694 
L 224.362512 132.758535 
L 226.144396 132.241573 
L 226.144396 132.534956 
L 227.682604 132.102749 
L 227.930088 132.992649 
L 230.237399 132.498117 
L 233.062523 131.822552 
L 233.062523 131.811274 
L 235.655393 131.103241 
L 237.452507 130.588643 
L 237.452507 132.913661 
L 237.452507 132.901353 
L 239.756011 132.171924 
L 240.022532 132.395054 
L 240.022532 132.371474 
L 241.061964 132.051617 
L 241.061964 132.817761 
L 241.061964 132.805553 
L 241.834875 132.618301 
L 241.834875 133.035681 
L 241.834875 133.023247 
L 244.964595 132.25379 
L 244.964595 132.230474 
L 247.580309 131.492834 
L 250.934668 130.46727 
L 250.934668 130.446846 
L 253.546575 129.558527 
L 254.330909 129.88541 
L 254.330909 129.865779 
L 257.182685 128.870622 
L 260.57131 127.600397 
L 260.57131 127.591878 
L 264.0437 126.178879 
L 267.439941 124.696117 
L 269.789134 123.629903 
L 270.04804 128.039788 
L 270.04804 128.022307 
L 273.219641 127.130015 
L 276.596845 126.089515 
L 280.282451 124.850231 
L 283.693922 123.616298 
L 283.952828 128.40257 
L 284.718124 128.275583 
L 284.718124 132.083752 
L 287.604167 131.483164 
L 287.604167 131.472169 
L 290.501633 130.772836 
L 293.380061 129.992103 
L 296.285141 129.11913 
L 297.884268 128.611821 
L 297.884268 130.198634 
L 301.063484 129.406971 
L 301.063484 129.397453 
L 303.976179 128.576842 
L 307.448569 127.510832 
L 310.372686 126.501106 
L 310.372686 127.724966 
L 311.393081 127.39922 
L 312.219297 128.841736 
L 316.98241 127.593813 
L 320.668017 126.514142 
L 320.668017 126.490106 
L 324.658218 125.189386 
L 324.658218 126.509644 
L 324.658218 126.493618 
L 325.74334 126.981009 
L 325.74334 126.96456 
L 326.546711 126.742517 
L 326.546711 127.983798 
L 326.546711 127.975082 
L 330.293237 127.13265 
L 330.293237 127.116059 
L 334.032147 126.150616 
L 338.269833 124.869681 
L 339.084626 124.623046 
L 339.084626 125.799238 
L 339.084626 125.791521 
L 340.938852 125.271063 
L 340.938852 126.898359 
L 343.6231 126.309994 
L 347.346781 125.42836 
L 347.346781 125.42079 
L 351.085692 124.407513 
L 351.085692 124.400321 
L 353.743288 123.614978 
L 354.017424 124.955815 
L 354.017424 124.948424 
L 355.053049 124.679955 
L 355.053049 131.219079 
L 355.053049 131.208293 
L 355.867842 133.69823 
L 355.867842 133.685049 
L 358.003819 133.237756 
L 360.695682 132.634308 
L 362.877348 132.05625 
L 365.542559 131.308549 
L 368.20777 130.508072 
L 368.20777 131.009846 
L 369.80309 130.546633 
L 370.065803 131.494957 
L 370.065803 131.472949 
L 372.734822 130.801821 
L 375.963535 129.91354 
L 375.963535 129.903697 
L 378.56402 129.088775 
L 382.33339 127.864376 
L 382.33339 127.85572 
L 382.592296 128.828118 
L 382.592296 128.818941 
L 383.662188 128.481647 
L 384.454136 129.801792 
L 384.454136 130.457743 
L 384.454136 130.447528 
L 387.987445 129.731909 
L 387.987445 129.712467 
L 390.686923 129.069548 
L 394.170735 128.166392 
L 396.009731 127.656426 
L 396.268637 128.278692 
L 396.268637 128.260955 
L 398.693979 127.593447 
L 398.952886 128.8517 
L 398.952886 128.842511 
L 398.952886 129.437313 
L 401.89604 128.885835 
L 405.063834 128.210472 
L 408.776093 127.326103 
L 408.776093 127.309326 
L 411.167168 126.672147 
L 411.448919 127.314581 
L 411.448919 127.306196 
L 413.573473 126.751797 
L 413.573473 131.885043 
L 413.573473 131.873702 
L 417.057285 131.108876 
L 421.569107 129.874409 
L 424.790205 128.889689 
L 425.848675 128.562762 
L 425.848675 129.42782 
L 425.848675 129.418284 
L 428.243557 128.705757 
L 428.243557 130.089637 
L 428.243557 130.079673 
L 430.908768 129.44813 
L 434.327854 128.56937 
L 437.781206 127.578852 
L 440.678671 126.668144 
L 440.678671 127.898966 
L 440.678671 127.890289 
L 442.540512 127.377515 
L 442.540512 128.91672 
L 442.540512 128.907489 
L 443.328653 128.739947 
L 443.328653 129.435927 
L 446.785813 128.807326 
L 446.785813 128.798157 
L 450.212513 128.077391 
L 453.163282 127.361311 
L 454.697683 126.9779 
L 454.964204 127.627255 
L 454.964204 127.618715 
L 457.11541 127.086747 
L 457.11541 128.235526 
L 457.11541 128.217827 
L 461.113227 127.429462 
L 461.113227 127.412581 
L 464.840715 126.538321 
L 464.840715 126.52226 
L 468.282645 125.596908 
L 471.774072 124.56387 
L 471.774072 131.418281 
L 471.774072 131.407332 
L 475.242654 130.657329 
L 475.242654 130.636611 
L 477.926902 129.930586 
L 481.094696 129.045383 
L 484.053081 128.123983 
L 484.053081 129.195388 
L 486.447963 128.511482 
L 486.714484 130.452567 
L 490.160222 129.81706 
L 495.239353 128.658021 
L 498.993493 127.611182 
L 498.993493 125.849282 
L 498.993493 125.849282 
" style="fill:none;stroke:#0000ff;stroke-linecap:square;"/>
   </g>
   <g id="patch_3">
    <path d="M 72 43.2 
L 518.4 43.2 
" style="fill:none;stroke:#000000;stroke-linecap:square;stroke-linejoin:miter;"/>
   </g>
   <g id="patch_4">
    <path d="M 518.4 144.847059 
L 518.4 43.2 
" style="fill:none;stroke:#000000;stroke-linecap:square;stroke-linejoin:miter;"/>
   </g>
   <g id="patch_5">
    <path d="M 72 144.847059 
L 518.4 144.847059 
" style="fill:none;stroke:#000000;stroke-linecap:square;stroke-linejoin:miter;"/>
   </g>
   <g id="patch_6">
    <path d="M 72 144.847059 
L 72 43.2 
" style="fill:none;stroke:#000000;stroke-linecap:square;stroke-linejoin:miter;"/>
   </g>
   <g id="matplotlib.axis_1">
    <g id="xtick_1">
     <g id="line2d_2">
      <defs>
       <path d="M 0 0 
L 0 -4 
" id="m4f1c3ef5b6" style="stroke:#000000;stroke-width:0.5;"/>
      </defs>
      <g>
       <use style="stroke:#000000;stroke-width:0.5;" x="72.0" xlink:href="#m4f1c3ef5b6" y="144.847058824"/>
      </g>
     </g>
     <g id="line2d_3">
      <defs>
       <path d="M 0 0 
L 0 4 
" id="m8b9cc81279" style="stroke:#000000;stroke-width:0.5;"/>
      </defs>
      <g>
       <use style="stroke:#000000;stroke-width:0.5;" x="72.0" xlink:href="#m8b9cc81279" y="43.2"/>
      </g>
     </g>
     <g id="text_1">
      <!-- 0 -->
      <defs>
       <path d="M 31.78125 66.40625 
Q 24.171875 66.40625 20.328125 58.90625 
Q 16.5 51.421875 16.5 36.375 
Q 16.5 21.390625 20.328125 13.890625 
Q 24.171875 6.390625 31.78125 6.390625 
Q 39.453125 6.390625 43.28125 13.890625 
Q 47.125 21.390625 47.125 36.375 
Q 47.125 51.421875 43.28125 58.90625 
Q 39.453125 66.40625 31.78125 66.40625 
M 31.78125 74.21875 
Q 44.046875 74.21875 50.515625 64.515625 
Q 56.984375 54.828125 56.984375 36.375 
Q 56.984375 17.96875 50.515625 8.265625 
Q 44.046875 -1.421875 31.78125 -1.421875 
Q 19.53125 -1.421875 13.0625 8.265625 
Q 6.59375 17.96875 6.59375 36.375 
Q 6.59375 54.828125 13.0625 64.515625 
Q 19.53125 74.21875 31.78125 74.21875 
" id="BitstreamVeraSans-Roman-30"/>
      </defs>
      <g transform="translate(68.1825 157.965183824)scale(0.12 -0.12)">
       <use xlink:href="#BitstreamVeraSans-Roman-30"/>
      </g>
     </g>
    </g>
    <g id="xtick_2">
     <g id="line2d_4">
      <g>
       <use style="stroke:#000000;stroke-width:0.5;" x="161.28" xlink:href="#m4f1c3ef5b6" y="144.847058824"/>
      </g>
     </g>
     <g id="line2d_5">
      <g>
       <use style="stroke:#000000;stroke-width:0.5;" x="161.28" xlink:href="#m8b9cc81279" y="43.2"/>
      </g>
     </g>
     <g id="text_2">
      <!-- 1 -->
      <defs>
       <path d="M 12.40625 8.296875 
L 28.515625 8.296875 
L 28.515625 63.921875 
L 10.984375 60.40625 
L 10.984375 69.390625 
L 28.421875 72.90625 
L 38.28125 72.90625 
L 38.28125 8.296875 
L 54.390625 8.296875 
L 54.390625 0 
L 12.40625 0 
z
" id="BitstreamVeraSans-Roman-31"/>
      </defs>
      <g transform="translate(157.4625 157.965183824)scale(0.12 -0.12)">
       <use xlink:href="#BitstreamVeraSans-Roman-31"/>
      </g>
     </g>
    </g>
    <g id="xtick_3">
     <g id="line2d_6">
      <g>
       <use style="stroke:#000000;stroke-width:0.5;" x="250.56" xlink:href="#m4f1c3ef5b6" y="144.847058824"/>
      </g>
     </g>
     <g id="line2d_7">
      <g>
       <use style="stroke:#000000;stroke-width:0.5;" x="250.56" xlink:href="#m8b9cc81279" y="43.2"/>
      </g>
     </g>
     <g id="text_3">
      <!-- 2 -->
      <defs>
       <path d="M 19.1875 8.296875 
L 53.609375 8.296875 
L 53.609375 0 
L 7.328125 0 
L 7.328125 8.296875 
Q 12.9375 14.109375 22.625 23.890625 
Q 32.328125 33.6875 34.8125 36.53125 
Q 39.546875 41.84375 41.421875 45.53125 
Q 43.3125 49.21875 43.3125 52.78125 
Q 43.3125 58.59375 39.234375 62.25 
Q 35.15625 65.921875 28.609375 65.921875 
Q 23.96875 65.921875 18.8125 64.3125 
Q 13.671875 62.703125 7.8125 59.421875 
L 7.8125 69.390625 
Q 13.765625 71.78125 18.9375 73 
Q 24.125 74.21875 28.421875 74.21875 
Q 39.75 74.21875 46.484375 68.546875 
Q 53.21875 62.890625 53.21875 53.421875 
Q 53.21875 48.921875 51.53125 44.890625 
Q 49.859375 40.875 45.40625 35.40625 
Q 44.1875 33.984375 37.640625 27.21875 
Q 31.109375 20.453125 19.1875 8.296875 
" id="BitstreamVeraSans-Roman-32"/>
      </defs>
      <g transform="translate(246.7425 157.965183824)scale(0.12 -0.12)">
       <use xlink:href="#BitstreamVeraSans-Roman-32"/>
      </g>
     </g>
    </g>
    <g id="xtick_4">
     <g id="line2d_8">
      <g>
       <use style="stroke:#000000;stroke-width:0.5;" x="339.84" xlink:href="#m4f1c3ef5b6" y="144.847058824"/>
      </g>
     </g>
     <g id="line2d_9">
      <g>
       <use style="stroke:#000000;stroke-width:0.5;" x="339.84" xlink:href="#m8b9cc81279" y="43.2"/>
      </g>
     </g>
     <g id="text_4">
      <!-- 3 -->
      <defs>
       <path d="M 40.578125 39.3125 
Q 47.65625 37.796875 51.625 33 
Q 55.609375 28.21875 55.609375 21.1875 
Q 55.609375 10.40625 48.1875 4.484375 
Q 40.765625 -1.421875 27.09375 -1.421875 
Q 22.515625 -1.421875 17.65625 -0.515625 
Q 12.796875 0.390625 7.625 2.203125 
L 7.625 11.71875 
Q 11.71875 9.328125 16.59375 8.109375 
Q 21.484375 6.890625 26.8125 6.890625 
Q 36.078125 6.890625 40.9375 10.546875 
Q 45.796875 14.203125 45.796875 21.1875 
Q 45.796875 27.640625 41.28125 31.265625 
Q 36.765625 34.90625 28.71875 34.90625 
L 20.21875 34.90625 
L 20.21875 43.015625 
L 29.109375 43.015625 
Q 36.375 43.015625 40.234375 45.921875 
Q 44.09375 48.828125 44.09375 54.296875 
Q 44.09375 59.90625 40.109375 62.90625 
Q 36.140625 65.921875 28.71875 65.921875 
Q 24.65625 65.921875 20.015625 65.03125 
Q 15.375 64.15625 9.8125 62.3125 
L 9.8125 71.09375 
Q 15.4375 72.65625 20.34375 73.4375 
Q 25.25 74.21875 29.59375 74.21875 
Q 40.828125 74.21875 47.359375 69.109375 
Q 53.90625 64.015625 53.90625 55.328125 
Q 53.90625 49.265625 50.4375 45.09375 
Q 46.96875 40.921875 40.578125 39.3125 
" id="BitstreamVeraSans-Roman-33"/>
      </defs>
      <g transform="translate(336.0225 157.965183824)scale(0.12 -0.12)">
       <use xlink:href="#BitstreamVeraSans-Roman-33"/>
      </g>
     </g>
    </g>
    <g id="xtick_5">
     <g id="line2d_10">
      <g>
       <use style="stroke:#000000;stroke-width:0.5;" x="429.12" xlink:href="#m4f1c3ef5b6" y="144.847058824"/>
      </g>
     </g>
     <g id="line2d_11">
      <g>
       <use style="stroke:#000000;stroke-width:0.5;" x="429.12" xlink:href="#m8b9cc81279" y="43.2"/>
      </g>
     </g>
     <g id="text_5">
      <!-- 4 -->
      <defs>
       <path d="M 37.796875 64.3125 
L 12.890625 25.390625 
L 37.796875 25.390625 
z
M 35.203125 72.90625 
L 47.609375 72.90625 
L 47.609375 25.390625 
L 58.015625 25.390625 
L 58.015625 17.1875 
L 47.609375 17.1875 
L 47.609375 0 
L 37.796875 0 
L 37.796875 17.1875 
L 4.890625 17.1875 
L 4.890625 26.703125 
z
" id="BitstreamVeraSans-Roman-34"/>
      </defs>
      <g transform="translate(425.3025 157.965183824)scale(0.12 -0.12)">
       <use xlink:href="#BitstreamVeraSans-Roman-34"/>
      </g>
     </g>
    </g>
    <g id="xtick_6">
     <g id="line2d_12">
      <g>
       <use style="stroke:#000000;stroke-width:0.5;" x="518.4" xlink:href="#m4f1c3ef5b6" y="144.847058824"/>
      </g>
     </g>
     <g id="line2d_13">
      <g>
       <use style="stroke:#000000;stroke-width:0.5;" x="518.4" xlink:href="#m8b9cc81279" y="43.2"/>
      </g>
     </g>
     <g id="text_6">
      <!-- 5 -->
      <defs>
       <path d="M 10.796875 72.90625 
L 49.515625 72.90625 
L 49.515625 64.59375 
L 19.828125 64.59375 
L 19.828125 46.734375 
Q 21.96875 47.46875 24.109375 47.828125 
Q 26.265625 48.1875 28.421875 48.1875 
Q 40.625 48.1875 47.75 41.5 
Q 54.890625 34.8125 54.890625 23.390625 
Q 54.890625 11.625 47.5625 5.09375 
Q 40.234375 -1.421875 26.90625 -1.421875 
Q 22.3125 -1.421875 17.546875 -0.640625 
Q 12.796875 0.140625 7.71875 1.703125 
L 7.71875 11.625 
Q 12.109375 9.234375 16.796875 8.0625 
Q 21.484375 6.890625 26.703125 6.890625 
Q 35.15625 6.890625 40.078125 11.328125 
Q 45.015625 15.765625 45.015625 23.390625 
Q 45.015625 31 40.078125 35.4375 
Q 35.15625 39.890625 26.703125 39.890625 
Q 22.75 39.890625 18.8125 39.015625 
Q 14.890625 38.140625 10.796875 36.28125 
z
" id="BitstreamVeraSans-Roman-35"/>
      </defs>
      <g transform="translate(514.5825 157.965183824)scale(0.12 -0.12)">
       <use xlink:href="#BitstreamVeraSans-Roman-35"/>
      </g>
     </g>
    </g>
   </g>
   <g id="matplotlib.axis_2">
    <g id="ytick_1">
     <g id="line2d_14">
      <defs>
       <path d="M 0 0 
L 4 0 
" id="m4edd68c302" style="stroke:#000000;stroke-width:0.5;"/>
      </defs>
      <g>
       <use style="stroke:#000000;stroke-width:0.5;" x="72.0" xlink:href="#m4edd68c302" y="144.847058824"/>
      </g>
     </g>
     <g id="line2d_15">
      <defs>
       <path d="M 0 0 
L -4 0 
" id="m2ce0b5ab04" style="stroke:#000000;stroke-width:0.5;"/>
      </defs>
      <g>
       <use style="stroke:#000000;stroke-width:0.5;" x="518.4" xlink:href="#m2ce0b5ab04" y="144.847058824"/>
      </g>
     </g>
     <g id="text_7">
      <!-- 0.000 -->
      <defs>
       <path d="M 10.6875 12.40625 
L 21 12.40625 
L 21 0 
L 10.6875 0 
z
" id="BitstreamVeraSans-Roman-2e"/>
      </defs>
      <g transform="translate(33.64625 148.158308824)scale(0.12 -0.12)">
       <use xlink:href="#BitstreamVeraSans-Roman-30"/>
       <use x="63.623046875" xlink:href="#BitstreamVeraSans-Roman-2e"/>
       <use x="95.41015625" xlink:href="#BitstreamVeraSans-Roman-30"/>
       <use x="159.033203125" xlink:href="#BitstreamVeraSans-Roman-30"/>
       <use x="222.65625" xlink:href="#BitstreamVeraSans-Roman-30"/>
      </g>
     </g>
    </g>
    <g id="ytick_2">
     <g id="line2d_16">
      <g>
       <use style="stroke:#000000;stroke-width:0.5;" x="72.0" xlink:href="#m4edd68c302" y="132.141176471"/>
      </g>
     </g>
     <g id="line2d_17">
      <g>
       <use style="stroke:#000000;stroke-width:0.5;" x="518.4" xlink:href="#m2ce0b5ab04" y="132.141176471"/>
      </g>
     </g>
     <g id="text_8">
      <!-- 0.001 -->
      <g transform="translate(33.64625 135.452426471)scale(0.12 -0.12)">
       <use xlink:href="#BitstreamVeraSans-Roman-30"/>
       <use x="63.623046875" xlink:href="#BitstreamVeraSans-Roman-2e"/>
       <use x="95.41015625" xlink:href="#BitstreamVeraSans-Roman-30"/>
       <use x="159.033203125" xlink:href="#BitstreamVeraSans-Roman-30"/>
       <use x="222.65625" xlink:href="#BitstreamVeraSans-Roman-31"/>
      </g>
     </g>
    </g>
    <g id="ytick_3">
     <g id="line2d_18">
      <g>
       <use style="stroke:#000000;stroke-width:0.5;" x="72.0" xlink:href="#m4edd68c302" y="119.435294118"/>
      </g>
     </g>
     <g id="line2d_19">
      <g>
       <use style="stroke:#000000;stroke-width:0.5;" x="518.4" xlink:href="#m2ce0b5ab04" y="119.435294118"/>
      </g>
     </g>
     <g id="text_9">
      <!-- 0.002 -->
      <g transform="translate(33.64625 122.746544118)scale(0.12 -0.12)">
       <use xlink:href="#BitstreamVeraSans-Roman-30"/>
       <use x="63.623046875" xlink:href="#BitstreamVeraSans-Roman-2e"/>
       <use x="95.41015625" xlink:href="#BitstreamVeraSans-Roman-30"/>
       <use x="159.033203125" xlink:href="#BitstreamVeraSans-Roman-30"/>
       <use x="222.65625" xlink:href="#BitstreamVeraSans-Roman-32"/>
      </g>
     </g>
    </g>
    <g id="ytick_4">
     <g id="line2d_20">
      <g>
       <use style="stroke:#000000;stroke-width:0.5;" x="72.0" xlink:href="#m4edd68c302" y="106.729411765"/>
      </g>
     </g>
     <g id="line2d_21">
      <g>
       <use style="stroke:#000000;stroke-width:0.5;" x="518.4" xlink:href="#m2ce0b5ab04" y="106.729411765"/>
      </g>
     </g>
     <g id="text_10">
      <!-- 0.003 -->
      <g transform="translate(33.64625 110.040661765)scale(0.12 -0.12)">
       <use xlink:href="#BitstreamVeraSans-Roman-30"/>
       <use x="63.623046875" xlink:href="#BitstreamVeraSans-Roman-2e"/>
       <use x="95.41015625" xlink:href="#BitstreamVeraSans-Roman-30"/>
       <use x="159.033203125" xlink:href="#BitstreamVeraSans-Roman-30"/>
       <use x="222.65625" xlink:href="#BitstreamVeraSans-Roman-33"/>
      </g>
     </g>
    </g>
    <g id="ytick_5">
     <g id="line2d_22">
      <g>
       <use style="stroke:#000000;stroke-width:0.5;" x="72.0" xlink:href="#m4edd68c302" y="94.0235294118"/>
      </g>
     </g>
     <g id="line2d_23">
      <g>
       <use style="stroke:#000000;stroke-width:0.5;" x="518.4" xlink:href="#m2ce0b5ab04" y="94.0235294118"/>
      </g>
     </g>
     <g id="text_11">
      <!-- 0.004 -->
      <g transform="translate(33.64625 97.3347794118)scale(0.12 -0.12)">
       <use xlink:href="#BitstreamVeraSans-Roman-30"/>
       <use x="63.623046875" xlink:href="#BitstreamVeraSans-Roman-2e"/>
       <use x="95.41015625" xlink:href="#BitstreamVeraSans-Roman-30"/>
       <use x="159.033203125" xlink:href="#BitstreamVeraSans-Roman-30"/>
       <use x="222.65625" xlink:href="#BitstreamVeraSans-Roman-34"/>
      </g>
     </g>
    </g>
    <g id="ytick_6">
     <g id="line2d_24">
      <g>
       <use style="stroke:#000000;stroke-width:0.5;" x="72.0" xlink:href="#m4edd68c302" y="81.3176470588"/>
      </g>
     </g>
     <g id="line2d_25">
      <g>
       <use style="stroke:#000000;stroke-width:0.5;" x="518.4" xlink:href="#m2ce0b5ab04" y="81.3176470588"/>
      </g>
     </g>
     <g id="text_12">
      <!-- 0.005 -->
      <g transform="translate(33.64625 84.6288970588)scale(0.12 -0.12)">
       <use xlink:href="#BitstreamVeraSans-Roman-30"/>
       <use x="63.623046875" xlink:href="#BitstreamVeraSans-Roman-2e"/>
       <use x="95.41015625" xlink:href="#BitstreamVeraSans-Roman-30"/>
       <use x="159.033203125" xlink:href="#BitstreamVeraSans-Roman-30"/>
       <use x="222.65625" xlink:href="#BitstreamVeraSans-Roman-35"/>
      </g>
     </g>
    </g>
    <g id="ytick_7">
     <g id="line2d_26">
      <g>
       <use style="stroke:#000000;stroke-width:0.5;" x="72.0" xlink:href="#m4edd68c302" y="68.6117647059"/>
      </g>
     </g>
     <g id="line2d_27">
      <g>
       <use style="stroke:#000000;stroke-width:0.5;" x="518.4" xlink:href="#m2ce0b5ab04" y="68.6117647059"/>
      </g>
     </g>
     <g id="text_13">
      <!-- 0.006 -->
      <defs>
       <path d="M 33.015625 40.375 
Q 26.375 40.375 22.484375 35.828125 
Q 18.609375 31.296875 18.609375 23.390625 
Q 18.609375 15.53125 22.484375 10.953125 
Q 26.375 6.390625 33.015625 6.390625 
Q 39.65625 6.390625 43.53125 10.953125 
Q 47.40625 15.53125 47.40625 23.390625 
Q 47.40625 31.296875 43.53125 35.828125 
Q 39.65625 40.375 33.015625 40.375 
M 52.59375 71.296875 
L 52.59375 62.3125 
Q 48.875 64.0625 45.09375 64.984375 
Q 41.3125 65.921875 37.59375 65.921875 
Q 27.828125 65.921875 22.671875 59.328125 
Q 17.53125 52.734375 16.796875 39.40625 
Q 19.671875 43.65625 24.015625 45.921875 
Q 28.375 48.1875 33.59375 48.1875 
Q 44.578125 48.1875 50.953125 41.515625 
Q 57.328125 34.859375 57.328125 23.390625 
Q 57.328125 12.15625 50.6875 5.359375 
Q 44.046875 -1.421875 33.015625 -1.421875 
Q 20.359375 -1.421875 13.671875 8.265625 
Q 6.984375 17.96875 6.984375 36.375 
Q 6.984375 53.65625 15.1875 63.9375 
Q 23.390625 74.21875 37.203125 74.21875 
Q 40.921875 74.21875 44.703125 73.484375 
Q 48.484375 72.75 52.59375 71.296875 
" id="BitstreamVeraSans-Roman-36"/>
      </defs>
      <g transform="translate(33.64625 71.9230147059)scale(0.12 -0.12)">
       <use xlink:href="#BitstreamVeraSans-Roman-30"/>
       <use x="63.623046875" xlink:href="#BitstreamVeraSans-Roman-2e"/>
       <use x="95.41015625" xlink:href="#BitstreamVeraSans-Roman-30"/>
       <use x="159.033203125" xlink:href="#BitstreamVeraSans-Roman-30"/>
       <use x="222.65625" xlink:href="#BitstreamVeraSans-Roman-36"/>
      </g>
     </g>
    </g>
    <g id="ytick_8">
     <g id="line2d_28">
      <g>
       <use style="stroke:#000000;stroke-width:0.5;" x="72.0" xlink:href="#m4edd68c302" y="55.9058823529"/>
      </g>
     </g>
     <g id="line2d_29">
      <g>
       <use style="stroke:#000000;stroke-width:0.5;" x="518.4" xlink:href="#m2ce0b5ab04" y="55.9058823529"/>
      </g>
     </g>
     <g id="text_14">
      <!-- 0.007 -->
      <defs>
       <path d="M 8.203125 72.90625 
L 55.078125 72.90625 
L 55.078125 68.703125 
L 28.609375 0 
L 18.3125 0 
L 43.21875 64.59375 
L 8.203125 64.59375 
z
" id="BitstreamVeraSans-Roman-37"/>
      </defs>
      <g transform="translate(33.64625 59.2171323529)scale(0.12 -0.12)">
       <use xlink:href="#BitstreamVeraSans-Roman-30"/>
       <use x="63.623046875" xlink:href="#BitstreamVeraSans-Roman-2e"/>
       <use x="95.41015625" xlink:href="#BitstreamVeraSans-Roman-30"/>
       <use x="159.033203125" xlink:href="#BitstreamVeraSans-Roman-30"/>
       <use x="222.65625" xlink:href="#BitstreamVeraSans-Roman-37"/>
      </g>
     </g>
    </g>
    <g id="ytick_9">
     <g id="line2d_30">
      <g>
       <use style="stroke:#000000;stroke-width:0.5;" x="72.0" xlink:href="#m4edd68c302" y="43.2"/>
      </g>
     </g>
     <g id="line2d_31">
      <g>
       <use style="stroke:#000000;stroke-width:0.5;" x="518.4" xlink:href="#m2ce0b5ab04" y="43.2"/>
      </g>
     </g>
     <g id="text_15">
      <!-- 0.008 -->
      <defs>
       <path d="M 31.78125 34.625 
Q 24.75 34.625 20.71875 30.859375 
Q 16.703125 27.09375 16.703125 20.515625 
Q 16.703125 13.921875 20.71875 10.15625 
Q 24.75 6.390625 31.78125 6.390625 
Q 38.8125 6.390625 42.859375 10.171875 
Q 46.921875 13.96875 46.921875 20.515625 
Q 46.921875 27.09375 42.890625 30.859375 
Q 38.875 34.625 31.78125 34.625 
M 21.921875 38.8125 
Q 15.578125 40.375 12.03125 44.71875 
Q 8.5 49.078125 8.5 55.328125 
Q 8.5 64.0625 14.71875 69.140625 
Q 20.953125 74.21875 31.78125 74.21875 
Q 42.671875 74.21875 48.875 69.140625 
Q 55.078125 64.0625 55.078125 55.328125 
Q 55.078125 49.078125 51.53125 44.71875 
Q 48 40.375 41.703125 38.8125 
Q 48.828125 37.15625 52.796875 32.3125 
Q 56.78125 27.484375 56.78125 20.515625 
Q 56.78125 9.90625 50.3125 4.234375 
Q 43.84375 -1.421875 31.78125 -1.421875 
Q 19.734375 -1.421875 13.25 4.234375 
Q 6.78125 9.90625 6.78125 20.515625 
Q 6.78125 27.484375 10.78125 32.3125 
Q 14.796875 37.15625 21.921875 38.8125 
M 18.3125 54.390625 
Q 18.3125 48.734375 21.84375 45.5625 
Q 25.390625 42.390625 31.78125 42.390625 
Q 38.140625 42.390625 41.71875 45.5625 
Q 45.3125 48.734375 45.3125 54.390625 
Q 45.3125 60.0625 41.71875 63.234375 
Q 38.140625 66.40625 31.78125 66.40625 
Q 25.390625 66.40625 21.84375 63.234375 
Q 18.3125 60.0625 18.3125 54.390625 
" id="BitstreamVeraSans-Roman-38"/>
      </defs>
      <g transform="translate(33.64625 46.51125)scale(0.12 -0.12)">
       <use xlink:href="#BitstreamVeraSans-Roman-30"/>
       <use x="63.623046875" xlink:href="#BitstreamVeraSans-Roman-2e"/>
       <use x="95.41015625" xlink:href="#BitstreamVeraSans-Roman-30"/>
       <use x="159.033203125" xlink:href="#BitstreamVeraSans-Roman-30"/>
       <use x="222.65625" xlink:href="#BitstreamVeraSans-Roman-38"/>
      </g>
     </g>
    </g>
    <g id="text_16">
     <!-- thegma_x -->
     <defs>
      <path d="M 50.984375 -16.609375 
L 50.984375 -23.578125 
L -0.984375 -23.578125 
L -0.984375 -16.609375 
z
" id="BitstreamVeraSans-Roman-5f"/>
      <path d="M 52 44.1875 
Q 55.375 50.25 60.0625 53.125 
Q 64.75 56 71.09375 56 
Q 79.640625 56 84.28125 50.015625 
Q 88.921875 44.046875 88.921875 33.015625 
L 88.921875 0 
L 79.890625 0 
L 79.890625 32.71875 
Q 79.890625 40.578125 77.09375 44.375 
Q 74.3125 48.1875 68.609375 48.1875 
Q 61.625 48.1875 57.5625 43.546875 
Q 53.515625 38.921875 53.515625 30.90625 
L 53.515625 0 
L 44.484375 0 
L 44.484375 32.71875 
Q 44.484375 40.625 41.703125 44.40625 
Q 38.921875 48.1875 33.109375 48.1875 
Q 26.21875 48.1875 22.15625 43.53125 
Q 18.109375 38.875 18.109375 30.90625 
L 18.109375 0 
L 9.078125 0 
L 9.078125 54.6875 
L 18.109375 54.6875 
L 18.109375 46.1875 
Q 21.1875 51.21875 25.484375 53.609375 
Q 29.78125 56 35.6875 56 
Q 41.65625 56 45.828125 52.96875 
Q 50 49.953125 52 44.1875 
" id="BitstreamVeraSans-Roman-6d"/>
      <path d="M 54.890625 33.015625 
L 54.890625 0 
L 45.90625 0 
L 45.90625 32.71875 
Q 45.90625 40.484375 42.875 44.328125 
Q 39.84375 48.1875 33.796875 48.1875 
Q 26.515625 48.1875 22.3125 43.546875 
Q 18.109375 38.921875 18.109375 30.90625 
L 18.109375 0 
L 9.078125 0 
L 9.078125 75.984375 
L 18.109375 75.984375 
L 18.109375 46.1875 
Q 21.34375 51.125 25.703125 53.5625 
Q 30.078125 56 35.796875 56 
Q 45.21875 56 50.046875 50.171875 
Q 54.890625 44.34375 54.890625 33.015625 
" id="BitstreamVeraSans-Roman-68"/>
      <path d="M 54.890625 54.6875 
L 35.109375 28.078125 
L 55.90625 0 
L 45.3125 0 
L 29.390625 21.484375 
L 13.484375 0 
L 2.875 0 
L 24.125 28.609375 
L 4.6875 54.6875 
L 15.28125 54.6875 
L 29.78125 35.203125 
L 44.28125 54.6875 
z
" id="BitstreamVeraSans-Roman-78"/>
      <path d="M 56.203125 29.59375 
L 56.203125 25.203125 
L 14.890625 25.203125 
Q 15.484375 15.921875 20.484375 11.0625 
Q 25.484375 6.203125 34.421875 6.203125 
Q 39.59375 6.203125 44.453125 7.46875 
Q 49.3125 8.734375 54.109375 11.28125 
L 54.109375 2.78125 
Q 49.265625 0.734375 44.1875 -0.34375 
Q 39.109375 -1.421875 33.890625 -1.421875 
Q 20.796875 -1.421875 13.15625 6.1875 
Q 5.515625 13.8125 5.515625 26.8125 
Q 5.515625 40.234375 12.765625 48.109375 
Q 20.015625 56 32.328125 56 
Q 43.359375 56 49.78125 48.890625 
Q 56.203125 41.796875 56.203125 29.59375 
M 47.21875 32.234375 
Q 47.125 39.59375 43.09375 43.984375 
Q 39.0625 48.390625 32.421875 48.390625 
Q 24.90625 48.390625 20.390625 44.140625 
Q 15.875 39.890625 15.1875 32.171875 
z
" id="BitstreamVeraSans-Roman-65"/>
      <path d="M 18.3125 70.21875 
L 18.3125 54.6875 
L 36.8125 54.6875 
L 36.8125 47.703125 
L 18.3125 47.703125 
L 18.3125 18.015625 
Q 18.3125 11.328125 20.140625 9.421875 
Q 21.96875 7.515625 27.59375 7.515625 
L 36.8125 7.515625 
L 36.8125 0 
L 27.59375 0 
Q 17.1875 0 13.234375 3.875 
Q 9.28125 7.765625 9.28125 18.015625 
L 9.28125 47.703125 
L 2.6875 47.703125 
L 2.6875 54.6875 
L 9.28125 54.6875 
L 9.28125 70.21875 
z
" id="BitstreamVeraSans-Roman-74"/>
      <path d="M 34.28125 27.484375 
Q 23.390625 27.484375 19.1875 25 
Q 14.984375 22.515625 14.984375 16.5 
Q 14.984375 11.71875 18.140625 8.90625 
Q 21.296875 6.109375 26.703125 6.109375 
Q 34.1875 6.109375 38.703125 11.40625 
Q 43.21875 16.703125 43.21875 25.484375 
L 43.21875 27.484375 
z
M 52.203125 31.203125 
L 52.203125 0 
L 43.21875 0 
L 43.21875 8.296875 
Q 40.140625 3.328125 35.546875 0.953125 
Q 30.953125 -1.421875 24.3125 -1.421875 
Q 15.921875 -1.421875 10.953125 3.296875 
Q 6 8.015625 6 15.921875 
Q 6 25.140625 12.171875 29.828125 
Q 18.359375 34.515625 30.609375 34.515625 
L 43.21875 34.515625 
L 43.21875 35.40625 
Q 43.21875 41.609375 39.140625 45 
Q 35.0625 48.390625 27.6875 48.390625 
Q 23 48.390625 18.546875 47.265625 
Q 14.109375 46.140625 10.015625 43.890625 
L 10.015625 52.203125 
Q 14.9375 54.109375 19.578125 55.046875 
Q 24.21875 56 28.609375 56 
Q 40.484375 56 46.34375 49.84375 
Q 52.203125 43.703125 52.203125 31.203125 
" id="BitstreamVeraSans-Roman-61"/>
      <path d="M 45.40625 27.984375 
Q 45.40625 37.75 41.375 43.109375 
Q 37.359375 48.484375 30.078125 48.484375 
Q 22.859375 48.484375 18.828125 43.109375 
Q 14.796875 37.75 14.796875 27.984375 
Q 14.796875 18.265625 18.828125 12.890625 
Q 22.859375 7.515625 30.078125 7.515625 
Q 37.359375 7.515625 41.375 12.890625 
Q 45.40625 18.265625 45.40625 27.984375 
M 54.390625 6.78125 
Q 54.390625 -7.171875 48.1875 -13.984375 
Q 42 -20.796875 29.203125 -20.796875 
Q 24.46875 -20.796875 20.265625 -20.09375 
Q 16.0625 -19.390625 12.109375 -17.921875 
L 12.109375 -9.1875 
Q 16.0625 -11.328125 19.921875 -12.34375 
Q 23.78125 -13.375 27.78125 -13.375 
Q 36.625 -13.375 41.015625 -8.765625 
Q 45.40625 -4.15625 45.40625 5.171875 
L 45.40625 9.625 
Q 42.625 4.78125 38.28125 2.390625 
Q 33.9375 0 27.875 0 
Q 17.828125 0 11.671875 7.65625 
Q 5.515625 15.328125 5.515625 27.984375 
Q 5.515625 40.671875 11.671875 48.328125 
Q 17.828125 56 27.875 56 
Q 33.9375 56 38.28125 53.609375 
Q 42.625 51.21875 45.40625 46.390625 
L 45.40625 54.6875 
L 54.390625 54.6875 
z
" id="BitstreamVeraSans-Roman-67"/>
     </defs>
     <g transform="translate(25.816875 123.751654412)rotate(-90.0)scale(0.12 -0.12)">
      <use xlink:href="#BitstreamVeraSans-Roman-74"/>
      <use x="39.208984375" xlink:href="#BitstreamVeraSans-Roman-68"/>
      <use x="102.587890625" xlink:href="#BitstreamVeraSans-Roman-65"/>
      <use x="164.111328125" xlink:href="#BitstreamVeraSans-Roman-67"/>
      <use x="227.587890625" xlink:href="#BitstreamVeraSans-Roman-6d"/>
      <use x="325.0" xlink:href="#BitstreamVeraSans-Roman-61"/>
      <use x="386.279296875" xlink:href="#BitstreamVeraSans-Roman-5f"/>
      <use x="436.279296875" xlink:href="#BitstreamVeraSans-Roman-78"/>
     </g>
    </g>
   </g>
  </g>
  <g id="axes_2">
   <g id="patch_7">
    <path d="M 72 266.823529 
L 518.4 266.823529 
L 518.4 165.176471 
L 72 165.176471 
z
" style="fill:#ffffff;"/>
   </g>
   <g id="line2d_32">
    <path clip-path="url(#p908c7a8ef7)" d="M 72 177.880703 
L 72 177.582567 
L 72.32744 177.531332 
L 72.898557 177.223612 
L 73.667661 176.36904 
L 74.280659 175.335648 
L 75.118297 173.437996 
L 76.245301 170.044372 
L 77.48272 165.324971 
L 77.48272 224.998848 
L 77.48272 224.995343 
L 78.107141 221.562995 
L 78.301321 253.938929 
L 78.301321 253.927558 
L 78.937164 253.804178 
L 78.937164 256.185793 
L 80.159354 256.219195 
L 80.159354 256.205383 
L 80.159354 256.191589 
L 81.408196 255.983034 
L 82.234411 255.670434 
L 83.68124 254.970987 
L 83.68124 254.946281 
L 85.143299 253.966574 
L 86.411178 252.953491 
L 88.132143 251.389323 
L 90.020635 249.482657 
L 90.694553 248.782303 
L 90.694553 251.51514 
L 90.694553 251.505567 
L 91.330396 250.851818 
L 91.555036 252.496143 
L 91.555036 252.475698 
L 92.209916 251.786391 
L 92.209916 256.808836 
L 93.717664 255.82633 
L 95.89933 254.281827 
L 95.89933 254.270144 
L 98.092418 252.582149 
L 100.704325 250.451621 
L 104.230019 247.437266 
L 104.230019 247.429707 
L 104.230019 247.429707 
L 104.230019 247.429707 
L 104.230019 251.465383 
L 104.922974 250.945729 
L 105.15142 253.216914 
L 105.15142 253.206145 
L 107.843284 251.241261 
L 111.487008 248.476244 
L 111.487008 248.460273 
L 115.614278 245.181124 
L 117.944434 243.256947 
L 117.944434 250.293393 
L 119.105705 249.545124 
L 119.105705 255.376046 
L 121.447283 254.368314 
L 124.489432 252.982563 
L 124.489432 252.950826 
L 127.070879 251.676721 
L 130.364319 249.95915 
L 131.057274 249.59844 
L 131.057274 253.135686 
L 131.057274 253.114283 
L 132.485065 252.425959 
L 132.485065 256.259492 
L 134.38498 255.550296 
L 136.791285 254.611129 
L 139.132864 253.59662 
L 142.270198 252.174259 
L 142.270198 252.154259 
L 145.662631 250.490643 
L 145.662631 255.474736 
L 145.662631 255.461825 
L 148.110818 254.6025 
L 150.59708 253.648586 
L 153.026229 252.637169 
L 155.965577 251.319109 
L 159.152408 249.798366 
L 159.388469 255.162659 
L 159.388469 255.137539 
L 161.870923 254.305037 
L 164.600861 253.300572 
L 164.600861 253.289734 
L 167.574475 252.092925 
L 171.511373 250.318724 
L 171.777894 253.517667 
L 171.777894 253.495645 
L 173.270412 252.839321 
L 173.270412 256.379933 
L 175.775711 255.55403 
L 179.716416 253.993396 
L 182.743335 252.694864 
L 186.48986 250.904955 
L 186.48986 255.615664 
L 186.48986 255.602591 
L 189.05227 254.728089 
L 189.05227 254.715974 
L 191.789823 253.685594 
L 195.517311 252.072369 
L 198.529 250.687129 
L 198.784099 253.68541 
L 198.784099 253.66311 
L 199.770227 253.237391 
L 199.770227 256.566057 
L 199.770227 256.551773 
L 200.531716 256.327084 
L 200.531716 256.645376 
L 200.531716 256.630981 
L 203.048437 255.767927 
L 207.099558 254.128589 
L 207.099558 254.117046 
L 209.654353 252.981455 
L 212.14823 251.805287 
L 212.14823 255.429265 
L 212.924948 255.158668 
L 212.924948 255.556813 
L 212.924948 255.54381 
L 213.663593 255.302566 
L 213.663593 257.48451 
L 213.663593 257.468827 
L 216.21458 256.729566 
L 216.21458 256.700564 
L 218.521892 255.924492 
L 221.030998 254.994702 
L 223.593408 253.963176 
L 226.144396 252.866862 
L 226.144396 254.965878 
L 227.682604 254.315756 
L 227.930088 257.025495 
L 227.930088 257.010548 
L 227.930088 258.467046 
L 230.237399 257.822487 
L 230.237399 257.789982 
L 232.796002 256.963298 
L 236.413074 255.566145 
L 236.413074 255.553134 
L 237.452507 255.147899 
L 237.452507 255.395123 
L 237.452507 255.382307 
L 239.756011 254.427232 
L 240.022532 255.860566 
L 240.022532 255.833862 
L 241.061964 255.40796 
L 241.061964 257.641771 
L 241.061964 257.625823 
L 241.834875 257.389196 
L 241.834875 258.732828 
L 241.834875 258.714735 
L 243.673871 258.152334 
L 245.741314 257.450838 
L 248.337991 256.505991 
L 248.337991 256.477623 
L 250.934668 255.422138 
L 250.934668 255.409292 
L 253.546575 254.248629 
L 254.330909 255.574417 
L 254.330909 255.548393 
L 257.182685 254.233942 
L 257.182685 254.222307 
L 259.813629 252.920392 
L 263.255559 251.132701 
L 268.228082 248.316485 
L 269.789134 247.411851 
L 270.04804 254.518377 
L 270.04804 254.494586 
L 272.427693 253.601518 
L 275.020563 252.549308 
L 278.458685 251.057259 
L 278.458685 251.038685 
L 281.824466 249.445877 
L 281.824466 249.437448 
L 283.693922 248.518355 
L 283.952828 257.048422 
L 284.718124 256.874587 
L 284.718124 257.246303 
L 286.55712 256.761875 
L 288.666444 256.133024 
L 291.285966 255.273428 
L 295.253324 253.731239 
L 295.253324 253.708879 
L 297.884268 252.578286 
L 297.884268 256.19873 
L 299.9974 255.496108 
L 302.932939 254.431099 
L 302.932939 254.407477 
L 305.857057 253.212323 
L 305.857057 253.190813 
L 308.788789 251.881919 
L 310.372686 251.135797 
L 310.372686 254.023498 
L 311.393081 253.557549 
L 312.219297 256.52966 
L 315.904903 255.152877 
L 318.5625 254.062247 
L 321.486617 252.767358 
L 321.486617 252.746527 
L 324.658218 251.244324 
L 324.658218 254.049 
L 324.658218 254.026084 
L 325.74334 255.372139 
L 325.74334 255.346583 
L 326.546711 254.992538 
L 326.546711 257.418915 
L 326.546711 257.403353 
L 329.2005 256.440045 
L 333.251621 254.719269 
L 336.137664 253.385086 
L 336.137664 253.37419 
L 339.084626 251.919606 
L 339.084626 254.395253 
L 339.084626 254.383473 
L 340.938852 253.508485 
L 340.938852 256.699764 
L 342.819729 255.967023 
L 342.819729 255.940074 
L 346.044635 254.671025 
L 349.254311 253.237555 
L 349.254311 253.226779 
L 352.677204 251.577761 
L 352.677204 251.548968 
L 353.743288 251.024098 
L 354.017424 253.877521 
L 354.017424 253.866214 
L 355.053049 253.383666 
L 355.053049 256.95599 
L 355.053049 256.941159 
L 355.867842 258.363084 
L 355.867842 258.34579 
L 358.003819 257.687665 
L 358.003819 257.671648 
L 359.884696 257.031954 
L 362.591789 256.044586 
L 366.604836 254.347569 
L 366.604836 254.324113 
L 368.20777 253.602201 
L 368.20777 255.426537 
L 369.80309 254.725312 
L 370.065803 257.212532 
L 370.065803 257.182104 
L 372.734822 256.208699 
L 372.734822 256.181141 
L 375.700821 254.980411 
L 379.892818 253.03557 
L 382.33339 251.84203 
L 382.592296 254.311858 
L 382.592296 254.300159 
L 383.662188 253.794661 
L 384.454136 256.652622 
L 384.454136 258.250181 
L 384.454136 258.233114 
L 386.357859 257.654109 
L 388.809853 256.838622 
L 388.809853 256.823965 
L 390.686923 256.112758 
L 393.355942 255.049398 
L 396.009731 253.912707 
L 396.268637 255.559254 
L 396.268637 255.533276 
L 398.693979 254.473849 
L 398.952886 257.089091 
L 398.952886 257.074057 
L 398.952886 258.508871 
L 401.054595 257.861676 
L 402.958317 257.217278 
L 405.063834 256.436043 
L 407.694779 255.384183 
L 407.694779 255.371388 
L 410.394257 254.189234 
L 411.167168 253.843898 
L 411.448919 255.500273 
L 411.448919 255.487347 
L 413.573473 254.526823 
L 413.573473 257.447117 
L 413.573473 257.431512 
L 416.265336 256.459315 
L 416.265336 256.445196 
L 418.900088 255.375466 
L 418.900088 255.362682 
L 421.569107 254.176887 
L 424.790205 252.655554 
L 424.790205 252.634899 
L 425.848675 252.122544 
L 425.848675 254.546001 
L 425.848675 254.534081 
L 428.243557 253.389881 
L 428.243557 256.618083 
L 428.243557 256.603748 
L 430.908768 255.595575 
L 430.908768 255.569528 
L 434.068947 254.280673 
L 438.839676 252.033194 
L 438.839676 252.01341 
L 440.678671 251.091828 
L 440.678671 254.017971 
L 440.678671 254.006544 
L 442.540512 253.149143 
L 442.540512 256.486334 
L 442.540512 256.472181 
L 443.328653 256.187345 
L 443.328653 257.959212 
L 445.719728 257.223183 
L 448.346865 256.315491 
L 448.346865 256.301568 
L 452.352297 254.668577 
L 454.697683 253.630139 
L 454.964204 255.407592 
L 454.964204 255.394774 
L 457.11541 254.434595 
L 457.11541 257.096909 
L 457.11541 257.066849 
L 459.773006 256.107635 
L 463.508109 254.526157 
L 466.455072 253.180162 
L 469.394419 251.723402 
L 471.774072 250.493034 
L 471.774072 255.834024 
L 471.774072 255.82071 
L 474.412631 254.855035 
L 476.849395 253.860153 
L 476.849395 253.848864 
L 480.306555 252.366895 
L 480.306555 252.346653 
L 483.794174 250.689986 
L 484.053081 250.551014 
L 484.053081 253.775843 
L 486.447963 252.67981 
L 486.714484 256.213083 
L 486.714484 256.199293 
L 486.714484 257.941924 
L 488.564903 257.400193 
L 491.241536 256.542069 
L 495.239353 255.002283 
L 495.239353 254.989905 
L 498.993493 253.310201 
L 498.993493 251.106469 
L 498.993493 251.106469 
" style="fill:none;stroke:#0000ff;stroke-linecap:square;"/>
   </g>
   <g id="patch_8">
    <path d="M 72 165.176471 
L 518.4 165.176471 
" style="fill:none;stroke:#000000;stroke-linecap:square;stroke-linejoin:miter;"/>
   </g>
   <g id="patch_9">
    <path d="M 518.4 266.823529 
L 518.4 165.176471 
" style="fill:none;stroke:#000000;stroke-linecap:square;stroke-linejoin:miter;"/>
   </g>
   <g id="patch_10">
    <path d="M 72 266.823529 
L 518.4 266.823529 
" style="fill:none;stroke:#000000;stroke-linecap:square;stroke-linejoin:miter;"/>
   </g>
   <g id="patch_11">
    <path d="M 72 266.823529 
L 72 165.176471 
" style="fill:none;stroke:#000000;stroke-linecap:square;stroke-linejoin:miter;"/>
   </g>
   <g id="matplotlib.axis_3">
    <g id="xtick_7">
     <g id="line2d_33">
      <g>
       <use style="stroke:#000000;stroke-width:0.5;" x="72.0" xlink:href="#m4f1c3ef5b6" y="266.823529412"/>
      </g>
     </g>
     <g id="line2d_34">
      <g>
       <use style="stroke:#000000;stroke-width:0.5;" x="72.0" xlink:href="#m8b9cc81279" y="165.176470588"/>
      </g>
     </g>
     <g id="text_17">
      <!-- 0 -->
      <g transform="translate(68.1825 279.941654412)scale(0.12 -0.12)">
       <use xlink:href="#BitstreamVeraSans-Roman-30"/>
      </g>
     </g>
    </g>
    <g id="xtick_8">
     <g id="line2d_35">
      <g>
       <use style="stroke:#000000;stroke-width:0.5;" x="161.28" xlink:href="#m4f1c3ef5b6" y="266.823529412"/>
      </g>
     </g>
     <g id="line2d_36">
      <g>
       <use style="stroke:#000000;stroke-width:0.5;" x="161.28" xlink:href="#m8b9cc81279" y="165.176470588"/>
      </g>
     </g>
     <g id="text_18">
      <!-- 1 -->
      <g transform="translate(157.4625 279.941654412)scale(0.12 -0.12)">
       <use xlink:href="#BitstreamVeraSans-Roman-31"/>
      </g>
     </g>
    </g>
    <g id="xtick_9">
     <g id="line2d_37">
      <g>
       <use style="stroke:#000000;stroke-width:0.5;" x="250.56" xlink:href="#m4f1c3ef5b6" y="266.823529412"/>
      </g>
     </g>
     <g id="line2d_38">
      <g>
       <use style="stroke:#000000;stroke-width:0.5;" x="250.56" xlink:href="#m8b9cc81279" y="165.176470588"/>
      </g>
     </g>
     <g id="text_19">
      <!-- 2 -->
      <g transform="translate(246.7425 279.941654412)scale(0.12 -0.12)">
       <use xlink:href="#BitstreamVeraSans-Roman-32"/>
      </g>
     </g>
    </g>
    <g id="xtick_10">
     <g id="line2d_39">
      <g>
       <use style="stroke:#000000;stroke-width:0.5;" x="339.84" xlink:href="#m4f1c3ef5b6" y="266.823529412"/>
      </g>
     </g>
     <g id="line2d_40">
      <g>
       <use style="stroke:#000000;stroke-width:0.5;" x="339.84" xlink:href="#m8b9cc81279" y="165.176470588"/>
      </g>
     </g>
     <g id="text_20">
      <!-- 3 -->
      <g transform="translate(336.0225 279.941654412)scale(0.12 -0.12)">
       <use xlink:href="#BitstreamVeraSans-Roman-33"/>
      </g>
     </g>
    </g>
    <g id="xtick_11">
     <g id="line2d_41">
      <g>
       <use style="stroke:#000000;stroke-width:0.5;" x="429.12" xlink:href="#m4f1c3ef5b6" y="266.823529412"/>
      </g>
     </g>
     <g id="line2d_42">
      <g>
       <use style="stroke:#000000;stroke-width:0.5;" x="429.12" xlink:href="#m8b9cc81279" y="165.176470588"/>
      </g>
     </g>
     <g id="text_21">
      <!-- 4 -->
      <g transform="translate(425.3025 279.941654412)scale(0.12 -0.12)">
       <use xlink:href="#BitstreamVeraSans-Roman-34"/>
      </g>
     </g>
    </g>
    <g id="xtick_12">
     <g id="line2d_43">
      <g>
       <use style="stroke:#000000;stroke-width:0.5;" x="518.4" xlink:href="#m4f1c3ef5b6" y="266.823529412"/>
      </g>
     </g>
     <g id="line2d_44">
      <g>
       <use style="stroke:#000000;stroke-width:0.5;" x="518.4" xlink:href="#m8b9cc81279" y="165.176470588"/>
      </g>
     </g>
     <g id="text_22">
      <!-- 5 -->
      <g transform="translate(514.5825 279.941654412)scale(0.12 -0.12)">
       <use xlink:href="#BitstreamVeraSans-Roman-35"/>
      </g>
     </g>
    </g>
   </g>
   <g id="matplotlib.axis_4">
    <g id="ytick_10">
     <g id="line2d_45">
      <g>
       <use style="stroke:#000000;stroke-width:0.5;" x="72.0" xlink:href="#m4edd68c302" y="266.823529412"/>
      </g>
     </g>
     <g id="line2d_46">
      <g>
       <use style="stroke:#000000;stroke-width:0.5;" x="518.4" xlink:href="#m2ce0b5ab04" y="266.823529412"/>
      </g>
     </g>
     <g id="text_23">
      <!-- 0.000 -->
      <g transform="translate(33.64625 270.134779412)scale(0.12 -0.12)">
       <use xlink:href="#BitstreamVeraSans-Roman-30"/>
       <use x="63.623046875" xlink:href="#BitstreamVeraSans-Roman-2e"/>
       <use x="95.41015625" xlink:href="#BitstreamVeraSans-Roman-30"/>
       <use x="159.033203125" xlink:href="#BitstreamVeraSans-Roman-30"/>
       <use x="222.65625" xlink:href="#BitstreamVeraSans-Roman-30"/>
      </g>
     </g>
    </g>
    <g id="ytick_11">
     <g id="line2d_47">
      <g>
       <use style="stroke:#000000;stroke-width:0.5;" x="72.0" xlink:href="#m4edd68c302" y="254.117647059"/>
      </g>
     </g>
     <g id="line2d_48">
      <g>
       <use style="stroke:#000000;stroke-width:0.5;" x="518.4" xlink:href="#m2ce0b5ab04" y="254.117647059"/>
      </g>
     </g>
     <g id="text_24">
      <!-- 0.001 -->
      <g transform="translate(33.64625 257.428897059)scale(0.12 -0.12)">
       <use xlink:href="#BitstreamVeraSans-Roman-30"/>
       <use x="63.623046875" xlink:href="#BitstreamVeraSans-Roman-2e"/>
       <use x="95.41015625" xlink:href="#BitstreamVeraSans-Roman-30"/>
       <use x="159.033203125" xlink:href="#BitstreamVeraSans-Roman-30"/>
       <use x="222.65625" xlink:href="#BitstreamVeraSans-Roman-31"/>
      </g>
     </g>
    </g>
    <g id="ytick_12">
     <g id="line2d_49">
      <g>
       <use style="stroke:#000000;stroke-width:0.5;" x="72.0" xlink:href="#m4edd68c302" y="241.411764706"/>
      </g>
     </g>
     <g id="line2d_50">
      <g>
       <use style="stroke:#000000;stroke-width:0.5;" x="518.4" xlink:href="#m2ce0b5ab04" y="241.411764706"/>
      </g>
     </g>
     <g id="text_25">
      <!-- 0.002 -->
      <g transform="translate(33.64625 244.723014706)scale(0.12 -0.12)">
       <use xlink:href="#BitstreamVeraSans-Roman-30"/>
       <use x="63.623046875" xlink:href="#BitstreamVeraSans-Roman-2e"/>
       <use x="95.41015625" xlink:href="#BitstreamVeraSans-Roman-30"/>
       <use x="159.033203125" xlink:href="#BitstreamVeraSans-Roman-30"/>
       <use x="222.65625" xlink:href="#BitstreamVeraSans-Roman-32"/>
      </g>
     </g>
    </g>
    <g id="ytick_13">
     <g id="line2d_51">
      <g>
       <use style="stroke:#000000;stroke-width:0.5;" x="72.0" xlink:href="#m4edd68c302" y="228.705882353"/>
      </g>
     </g>
     <g id="line2d_52">
      <g>
       <use style="stroke:#000000;stroke-width:0.5;" x="518.4" xlink:href="#m2ce0b5ab04" y="228.705882353"/>
      </g>
     </g>
     <g id="text_26">
      <!-- 0.003 -->
      <g transform="translate(33.64625 232.017132353)scale(0.12 -0.12)">
       <use xlink:href="#BitstreamVeraSans-Roman-30"/>
       <use x="63.623046875" xlink:href="#BitstreamVeraSans-Roman-2e"/>
       <use x="95.41015625" xlink:href="#BitstreamVeraSans-Roman-30"/>
       <use x="159.033203125" xlink:href="#BitstreamVeraSans-Roman-30"/>
       <use x="222.65625" xlink:href="#BitstreamVeraSans-Roman-33"/>
      </g>
     </g>
    </g>
    <g id="ytick_14">
     <g id="line2d_53">
      <g>
       <use style="stroke:#000000;stroke-width:0.5;" x="72.0" xlink:href="#m4edd68c302" y="216.0"/>
      </g>
     </g>
     <g id="line2d_54">
      <g>
       <use style="stroke:#000000;stroke-width:0.5;" x="518.4" xlink:href="#m2ce0b5ab04" y="216.0"/>
      </g>
     </g>
     <g id="text_27">
      <!-- 0.004 -->
      <g transform="translate(33.64625 219.31125)scale(0.12 -0.12)">
       <use xlink:href="#BitstreamVeraSans-Roman-30"/>
       <use x="63.623046875" xlink:href="#BitstreamVeraSans-Roman-2e"/>
       <use x="95.41015625" xlink:href="#BitstreamVeraSans-Roman-30"/>
       <use x="159.033203125" xlink:href="#BitstreamVeraSans-Roman-30"/>
       <use x="222.65625" xlink:href="#BitstreamVeraSans-Roman-34"/>
      </g>
     </g>
    </g>
    <g id="ytick_15">
     <g id="line2d_55">
      <g>
       <use style="stroke:#000000;stroke-width:0.5;" x="72.0" xlink:href="#m4edd68c302" y="203.294117647"/>
      </g>
     </g>
     <g id="line2d_56">
      <g>
       <use style="stroke:#000000;stroke-width:0.5;" x="518.4" xlink:href="#m2ce0b5ab04" y="203.294117647"/>
      </g>
     </g>
     <g id="text_28">
      <!-- 0.005 -->
      <g transform="translate(33.64625 206.605367647)scale(0.12 -0.12)">
       <use xlink:href="#BitstreamVeraSans-Roman-30"/>
       <use x="63.623046875" xlink:href="#BitstreamVeraSans-Roman-2e"/>
       <use x="95.41015625" xlink:href="#BitstreamVeraSans-Roman-30"/>
       <use x="159.033203125" xlink:href="#BitstreamVeraSans-Roman-30"/>
       <use x="222.65625" xlink:href="#BitstreamVeraSans-Roman-35"/>
      </g>
     </g>
    </g>
    <g id="ytick_16">
     <g id="line2d_57">
      <g>
       <use style="stroke:#000000;stroke-width:0.5;" x="72.0" xlink:href="#m4edd68c302" y="190.588235294"/>
      </g>
     </g>
     <g id="line2d_58">
      <g>
       <use style="stroke:#000000;stroke-width:0.5;" x="518.4" xlink:href="#m2ce0b5ab04" y="190.588235294"/>
      </g>
     </g>
     <g id="text_29">
      <!-- 0.006 -->
      <g transform="translate(33.64625 193.899485294)scale(0.12 -0.12)">
       <use xlink:href="#BitstreamVeraSans-Roman-30"/>
       <use x="63.623046875" xlink:href="#BitstreamVeraSans-Roman-2e"/>
       <use x="95.41015625" xlink:href="#BitstreamVeraSans-Roman-30"/>
       <use x="159.033203125" xlink:href="#BitstreamVeraSans-Roman-30"/>
       <use x="222.65625" xlink:href="#BitstreamVeraSans-Roman-36"/>
      </g>
     </g>
    </g>
    <g id="ytick_17">
     <g id="line2d_59">
      <g>
       <use style="stroke:#000000;stroke-width:0.5;" x="72.0" xlink:href="#m4edd68c302" y="177.882352941"/>
      </g>
     </g>
     <g id="line2d_60">
      <g>
       <use style="stroke:#000000;stroke-width:0.5;" x="518.4" xlink:href="#m2ce0b5ab04" y="177.882352941"/>
      </g>
     </g>
     <g id="text_30">
      <!-- 0.007 -->
      <g transform="translate(33.64625 181.193602941)scale(0.12 -0.12)">
       <use xlink:href="#BitstreamVeraSans-Roman-30"/>
       <use x="63.623046875" xlink:href="#BitstreamVeraSans-Roman-2e"/>
       <use x="95.41015625" xlink:href="#BitstreamVeraSans-Roman-30"/>
       <use x="159.033203125" xlink:href="#BitstreamVeraSans-Roman-30"/>
       <use x="222.65625" xlink:href="#BitstreamVeraSans-Roman-37"/>
      </g>
     </g>
    </g>
    <g id="ytick_18">
     <g id="line2d_61">
      <g>
       <use style="stroke:#000000;stroke-width:0.5;" x="72.0" xlink:href="#m4edd68c302" y="165.176470588"/>
      </g>
     </g>
     <g id="line2d_62">
      <g>
       <use style="stroke:#000000;stroke-width:0.5;" x="518.4" xlink:href="#m2ce0b5ab04" y="165.176470588"/>
      </g>
     </g>
     <g id="text_31">
      <!-- 0.008 -->
      <g transform="translate(33.64625 168.487720588)scale(0.12 -0.12)">
       <use xlink:href="#BitstreamVeraSans-Roman-30"/>
       <use x="63.623046875" xlink:href="#BitstreamVeraSans-Roman-2e"/>
       <use x="95.41015625" xlink:href="#BitstreamVeraSans-Roman-30"/>
       <use x="159.033203125" xlink:href="#BitstreamVeraSans-Roman-30"/>
       <use x="222.65625" xlink:href="#BitstreamVeraSans-Roman-38"/>
      </g>
     </g>
    </g>
    <g id="text_32">
     <!-- thegma_y -->
     <defs>
      <path d="M 32.171875 -5.078125 
Q 28.375 -14.84375 24.75 -17.8125 
Q 21.140625 -20.796875 15.09375 -20.796875 
L 7.90625 -20.796875 
L 7.90625 -13.28125 
L 13.1875 -13.28125 
Q 16.890625 -13.28125 18.9375 -11.515625 
Q 21 -9.765625 23.484375 -3.21875 
L 25.09375 0.875 
L 2.984375 54.6875 
L 12.5 54.6875 
L 29.59375 11.921875 
L 46.6875 54.6875 
L 56.203125 54.6875 
z
" id="BitstreamVeraSans-Roman-79"/>
     </defs>
     <g transform="translate(25.816875 245.728125)rotate(-90.0)scale(0.12 -0.12)">
      <use xlink:href="#BitstreamVeraSans-Roman-74"/>
      <use x="39.208984375" xlink:href="#BitstreamVeraSans-Roman-68"/>
      <use x="102.587890625" xlink:href="#BitstreamVeraSans-Roman-65"/>
      <use x="164.111328125" xlink:href="#BitstreamVeraSans-Roman-67"/>
      <use x="227.587890625" xlink:href="#BitstreamVeraSans-Roman-6d"/>
      <use x="325.0" xlink:href="#BitstreamVeraSans-Roman-61"/>
      <use x="386.279296875" xlink:href="#BitstreamVeraSans-Roman-5f"/>
      <use x="436.279296875" xlink:href="#BitstreamVeraSans-Roman-79"/>
     </g>
    </g>
   </g>
  </g>
  <g id="axes_3">
   <g id="patch_12">
    <path d="M 72 388.8 
L 518.4 388.8 
L 518.4 287.152941 
L 72 287.152941 
z
" style="fill:#ffffff;"/>
   </g>
   <g id="line2d_63">
    <path clip-path="url(#p25184e879d)" d="M 72 49.971049 
L 72 48.991104 
L 77.48272 48.839762 
L 77.48272 169.392055 
L 77.48272 169.383682 
L 78.107141 169.375309 
L 78.301321 337.069081 
L 78.301321 337.033581 
L 78.937164 336.962653 
L 78.937164 341.701708 
L 80.159354 341.545943 
L 80.159354 341.468253 
L 81.60999 341.274584 
L 81.60999 341.197337 
L 82.855025 341.043217 
L 82.855025 340.966344 
L 84.298046 340.774698 
L 89.392407 339.827719 
L 89.392407 339.79022 
L 90.694553 339.640512 
L 90.694553 341.335543 
L 90.694553 341.296854 
L 91.330396 341.258197 
L 91.555036 342.592253 
L 91.555036 342.512807 
L 92.209916 342.433497 
L 92.209916 355.480601 
L 93.493025 355.260783 
L 95.19876 354.771383 
L 95.19876 354.717439 
L 95.89933 354.556117 
L 97.197669 354.342196 
L 97.197669 354.235732 
L 98.092418 354.076648 
L 98.092418 354.023781 
L 99.421216 353.813115 
L 99.421216 353.708256 
L 100.704325 353.499472 
L 100.704325 353.395542 
L 101.621919 353.240217 
L 101.621919 353.137042 
L 102.912643 352.931583 
L 102.912643 352.829294 
L 104.230019 352.625583 
L 104.230019 356.493983 
L 104.922974 356.380451 
L 105.15142 358.527573 
L 105.15142 358.466949 
L 105.802493 358.346061 
L 105.802493 358.285797 
L 106.480219 358.165625 
L 106.480219 358.105715 
L 107.150329 357.986245 
L 107.150329 357.926683 
L 107.843284 357.807903 
L 107.843284 357.748684 
L 108.75707 357.571699 
L 108.75707 357.512926 
L 109.415758 357.395711 
L 109.415758 357.337267 
L 110.127751 357.220704 
L 110.127751 357.162584 
L 110.790246 357.046662 
L 110.790246 356.988859 
L 111.487008 356.873568 
L 111.487008 356.816079 
L 112.400795 356.644226 
L 112.400795 356.587146 
L 113.07852 356.473287 
L 113.07852 356.416508 
L 113.996114 356.246765 
L 113.996114 356.19038 
L 114.879441 356.021808 
L 114.879441 355.96581 
L 115.857955 355.798385 
L 115.857955 355.742765 
L 117.262902 355.521215 
L 117.262902 355.410991 
L 117.944434 355.30113 
L 117.944434 361.251445 
L 119.105705 361.052109 
L 119.105705 360.985981 
L 119.105705 360.985981 
L 119.105705 360.985981 
L 119.105705 367.934874 
L 119.810082 367.759518 
L 119.810082 367.672386 
L 120.510652 367.499192 
L 120.510652 367.41312 
L 121.447283 367.242009 
L 121.447283 367.072244 
L 122.121201 366.903796 
L 122.121201 366.820056 
L 123.0921 366.653526 
L 123.0921 366.488239 
L 123.785054 366.324167 
L 123.785054 366.242579 
L 124.489432 366.080281 
L 124.489432 365.919135 
L 125.894379 365.679521 
L 126.13044 365.521149 
L 126.13044 365.442365 
L 127.070879 365.28559 
L 127.070879 365.052368 
L 128.487249 364.821414 
L 128.727118 364.668672 
L 128.727118 364.516892 
L 130.128257 364.290983 
L 130.128257 364.216142 
L 131.057274 363.992972 
L 131.057274 365.796412 
L 131.057274 365.637241 
L 131.788303 365.479156 
L 131.788303 365.400513 
L 132.485065 365.322135 
L 132.485065 369.331999 
L 133.212287 369.144175 
L 134.38498 368.591176 
L 134.38498 368.500474 
L 135.843232 368.230768 
L 135.843232 368.141648 
L 136.075486 367.964552 
L 136.075486 367.876566 
L 137.480433 367.614802 
L 137.480433 367.528262 
L 137.708879 367.356232 
L 137.708879 367.270732 
L 138.417064 367.100743 
L 138.417064 367.016246 
L 139.132864 366.848228 
L 139.132864 366.764699 
L 139.856278 366.598584 
L 139.856278 366.515991 
L 140.556848 366.351716 
L 140.556848 366.270028 
L 141.523939 366.107534 
L 141.523939 365.946196 
L 142.270198 365.785988 
L 142.270198 365.706301 
L 143.724642 365.468873 
L 143.724642 365.390265 
L 144.946832 364.924054 
L 144.946832 364.847234 
L 145.662631 364.77066 
L 145.662631 369.372363 
L 145.662631 369.278031 
L 147.128498 368.997732 
L 147.128498 368.905176 
L 147.372174 368.721345 
L 147.372174 368.630058 
L 148.110818 368.448712 
L 148.110818 368.358642 
L 149.081717 368.179682 
L 149.081717 368.002263 
L 149.847013 367.826344 
L 149.847013 367.738935 
L 150.59708 367.565198 
L 150.59708 367.47886 
L 151.320494 367.307225 
L 151.320494 367.221919 
L 152.763516 366.968002 
L 152.763516 366.884017 
L 153.026229 366.717005 
L 153.026229 366.63397 
L 153.761066 366.468828 
L 153.761066 366.386713 
L 154.488288 366.223379 
L 154.488288 366.142154 
L 155.20028 365.98057 
L 155.20028 365.900206 
L 155.965577 365.740318 
L 155.965577 365.660788 
L 156.955512 365.502543 
L 156.955512 365.345366 
L 157.701771 365.189235 
L 157.701771 365.111555 
L 158.421378 364.956955 
L 158.421378 364.88003 
L 159.152408 364.803351 
L 159.388469 369.468034 
L 159.388469 369.278901 
L 160.40125 369.091584 
L 160.40125 368.90603 
L 161.136086 368.722191 
L 161.136086 368.6309 
L 161.870923 368.449546 
L 161.870923 368.359472 
L 162.624797 368.180506 
L 162.624797 368.091602 
L 163.610925 367.914931 
L 163.610925 367.739742 
L 164.600861 367.565998 
L 164.600861 367.393664 
L 165.335698 367.222706 
L 165.335698 367.137734 
L 166.093379 366.96878 
L 166.093379 366.884792 
L 166.835831 366.717774 
L 166.835831 366.634736 
L 168.061828 366.387471 
L 168.061828 366.224131 
L 168.81951 366.061965 
L 168.81951 365.981315 
L 169.565769 365.820862 
L 169.565769 365.741055 
L 170.536667 365.582262 
L 170.536667 365.424549 
L 171.511373 365.267892 
L 171.777894 366.480022 
L 171.777894 366.316011 
L 172.516538 366.153187 
L 172.516538 366.072212 
L 173.270412 365.911123 
L 173.270412 369.32756 
L 174.267963 369.139779 
L 174.267963 368.953775 
L 175.014222 368.769498 
L 175.014222 368.677992 
L 176.004158 368.496217 
L 176.004158 368.316056 
L 176.746609 368.137465 
L 176.746609 368.048746 
L 177.466216 367.872437 
L 177.466216 367.784837 
L 178.463767 367.610723 
L 178.463767 367.438028 
L 179.468932 367.266719 
L 179.716416 367.096761 
L 179.716416 367.012279 
L 180.47029 366.844291 
L 180.47029 366.760777 
L 181.231779 366.594692 
L 181.231779 366.512113 
L 182.023728 366.347867 
L 182.023728 366.266193 
L 183.006048 366.103727 
L 183.006048 365.942415 
L 184.007406 365.782234 
L 184.007406 365.623159 
L 184.749858 365.465169 
L 184.749858 365.386574 
L 185.499925 365.23017 
L 185.499925 365.152356 
L 186.48986 364.997491 
L 186.48986 369.33296 
L 186.48986 369.238819 
L 187.506448 369.051881 
L 187.506448 368.866697 
L 188.286974 368.683217 
L 188.286974 368.592102 
L 189.05227 368.411094 
L 189.05227 368.321189 
L 190.065051 368.142554 
L 190.065051 367.877461 
L 191.047371 367.702583 
L 191.047371 367.615685 
L 192.048729 367.442951 
L 192.048729 367.271602 
L 192.783566 367.101606 
L 192.783566 366.932932 
L 193.784924 366.765548 
L 193.784924 366.682332 
L 194.55022 366.516831 
L 194.55022 366.43454 
L 195.517311 366.270859 
L 195.517311 366.108359 
L 196.313067 365.947015 
L 196.313067 365.866768 
L 197.006022 365.707112 
L 197.006022 365.627696 
L 197.740859 365.469675 
L 197.740859 365.391065 
L 198.529 365.312718 
L 198.784099 366.548935 
L 198.784099 366.384419 
L 199.770227 366.221102 
L 199.770227 369.546458 
L 199.770227 369.451277 
L 201.274168 369.202643 
L 201.274168 369.016048 
L 202.290755 368.831196 
L 202.290755 368.648039 
L 203.292113 368.466533 
L 203.292113 368.286632 
L 204.072639 368.108295 
L 204.072639 368.019701 
L 204.807476 367.843636 
L 204.807476 367.756156 
L 205.820257 367.582277 
L 205.820257 367.409812 
L 206.844459 367.238727 
L 207.099558 367.068988 
L 207.099558 366.984614 
L 207.861047 366.816837 
L 207.861047 366.733427 
L 208.630151 366.567546 
L 208.630151 366.485068 
L 209.654353 366.321019 
L 209.654353 366.15816 
L 210.381575 365.996463 
L 210.381575 365.916043 
L 211.390548 365.756045 
L 211.390548 365.59715 
L 212.14823 365.439336 
L 212.14823 369.033141 
L 212.924948 368.940421 
L 212.924948 369.78876 
L 212.924948 369.692373 
L 213.663593 369.596469 
L 213.663593 371.459811 
L 213.663593 371.354188 
L 214.432696 371.144839 
L 214.432696 371.041089 
L 215.460706 370.835388 
L 215.460706 370.632016 
L 216.21458 370.430895 
L 216.21458 370.331156 
L 216.995107 370.133276 
L 216.995107 370.035119 
L 217.756595 369.840328 
L 217.756595 369.74368 
L 218.521892 369.551839 
L 218.521892 369.456632 
L 219.511827 369.26761 
L 219.511827 369.080399 
L 220.277124 368.89495 
L 220.277124 368.80287 
L 221.030998 368.619971 
L 221.030998 368.52914 
L 221.807717 368.348689 
L 221.807717 368.259057 
L 222.57682 368.080958 
L 222.57682 367.904377 
L 223.593408 367.729275 
L 223.593408 367.642268 
L 224.362512 367.469318 
L 224.362512 367.383366 
L 225.375292 367.21249 
L 225.375292 367.042956 
L 226.144396 366.874733 
L 226.144396 367.598301 
L 226.917307 367.425707 
L 226.917307 367.339931 
L 227.682604 367.254495 
L 227.930088 371.421059 
L 228.718229 371.210913 
L 228.718229 371.106776 
L 229.49114 370.90032 
L 229.49114 370.79798 
L 230.237399 370.595025 
L 230.237399 370.494392 
L 231.02554 370.294767 
L 231.02554 370.195757 
L 232.023091 369.999303 
L 232.023091 369.80488 
L 233.062523 369.612427 
L 233.062523 369.421885 
L 233.831627 369.233199 
L 233.831627 369.139534 
L 234.604538 368.953532 
L 234.604538 368.861182 
L 235.655393 368.677753 
L 235.655393 368.49598 
L 236.413074 368.315821 
L 236.413074 368.226333 
L 237.452507 368.048515 
L 237.452507 368.259517 
L 237.452507 368.170273 
L 238.23684 367.992933 
L 238.23684 367.904828 
L 238.975484 367.729723 
L 238.975484 367.642714 
L 239.756011 367.556061 
L 240.022532 368.076621 
L 240.022532 367.900077 
L 241.061964 367.725011 
L 241.061964 370.24711 
L 241.061964 370.148353 
L 241.834875 370.050117 
L 241.834875 371.426265 
L 241.834875 371.320845 
L 242.615402 371.11189 
L 242.615402 371.008333 
L 243.673871 370.803006 
L 243.673871 370.599995 
L 244.701881 370.399224 
L 244.964595 370.20062 
L 244.964595 370.102109 
L 245.741314 369.906629 
L 245.741314 369.809643 
L 246.544684 369.617142 
L 246.544684 369.521612 
L 247.580309 369.331959 
L 247.580309 369.144136 
L 248.337991 368.958091 
L 248.337991 368.865719 
L 249.41169 368.682249 
L 249.41169 368.500436 
L 250.173179 368.320238 
L 250.173179 368.23073 
L 250.934668 368.052874 
L 250.934668 367.964516 
L 251.715194 367.788913 
L 251.715194 367.701659 
L 252.499528 367.528227 
L 252.499528 367.442038 
L 253.546575 367.270697 
L 253.546575 367.100708 
L 254.330909 367.793064 
L 254.330909 367.705793 
L 254.330909 367.618882 
L 255.10382 367.446122 
L 255.10382 367.360263 
L 256.150867 367.18957 
L 256.150867 367.020215 
L 257.182685 366.852166 
L 257.182685 366.685394 
L 257.974633 366.51987 
L 257.974633 366.437568 
L 258.755159 366.273866 
L 258.755159 366.192459 
L 259.813629 366.030518 
L 259.813629 365.869722 
L 260.57131 365.710045 
L 260.57131 365.630619 
L 261.66024 365.472578 
L 261.66024 365.315601 
L 262.471225 365.159667 
L 262.471225 365.082084 
L 263.514465 364.927675 
L 263.514465 364.850843 
L 264.0437 364.697916 
L 264.0437 364.621814 
L 264.805189 364.470326 
L 264.805189 364.394935 
L 265.875081 364.244846 
L 265.875081 364.095669 
L 266.667029 363.947388 
L 266.667029 363.873578 
L 267.439941 363.72661 
L 267.439941 363.653448 
L 268.228082 363.507759 
L 268.228082 363.435228 
L 268.997185 363.290785 
L 268.997185 363.21887 
L 269.789134 363.147156 
L 270.04804 369.764512 
L 270.04804 369.572463 
L 270.843796 369.382314 
L 270.843796 369.287934 
L 271.624322 369.10053 
L 271.624322 369.007494 
L 272.427693 368.822721 
L 272.427693 368.730973 
L 273.219641 368.548723 
L 273.219641 368.45821 
L 274.255266 368.278382 
L 274.255266 368.100117 
L 275.020563 367.923373 
L 275.020563 367.83556 
L 275.820126 367.661029 
L 275.820126 367.574301 
L 276.596845 367.401901 
L 276.596845 367.316219 
L 277.400216 367.145873 
L 277.400216 367.0612 
L 278.458685 366.892837 
L 278.458685 366.725758 
L 279.254441 366.559934 
L 279.254441 366.395337 
L 280.282451 366.231941 
L 280.282451 366.150685 
L 281.066785 365.989041 
L 281.066785 365.908647 
L 281.824466 365.748701 
L 281.824466 365.669142 
L 282.886743 365.51084 
L 282.886743 365.353607 
L 283.693922 365.275385 
L 283.952828 371.540294 
L 284.718124 371.328714 
L 284.718124 371.320332 
L 285.536725 371.111383 
L 285.536725 371.007829 
L 286.55712 370.802507 
L 286.55712 370.599502 
L 287.604167 370.398737 
L 287.604167 370.200138 
L 288.666444 370.003638 
L 288.666444 369.80917 
L 289.439356 369.616674 
L 289.439356 369.521147 
L 290.501633 369.331499 
L 290.501633 369.14368 
L 291.54868 368.957639 
L 291.54868 368.773326 
L 292.610957 368.590694 
L 292.610957 368.409698 
L 293.380061 368.230294 
L 293.380061 368.141177 
L 294.194854 367.964085 
L 294.194854 367.876101 
L 295.253324 367.701234 
L 295.253324 367.527805 
L 296.285141 367.355778 
L 296.285141 367.18512 
L 297.088512 367.015799 
L 297.088512 366.93163 
L 297.884268 366.764257 
L 297.884268 369.916842 
L 298.950352 369.723259 
L 298.950352 369.436514 
L 299.9974 369.247686 
L 299.9974 369.153953 
L 301.063484 368.967816 
L 301.063484 368.783409 
L 301.878277 368.600686 
L 301.878277 368.509941 
L 302.932939 368.329659 
L 302.932939 368.150951 
L 303.976179 367.973776 
L 303.976179 367.798096 
L 305.049879 367.623873 
L 305.049879 367.451072 
L 305.857057 367.279659 
L 305.857057 367.1096 
L 307.448569 366.856982 
L 307.71509 366.690174 
L 307.71509 366.60724 
L 308.788789 366.442295 
L 308.788789 366.278558 
L 309.584545 366.116003 
L 309.584545 366.035161 
L 310.372686 365.874332 
L 310.372686 367.026927 
L 311.393081 366.858827 
L 311.393081 366.692005 
L 312.219297 369.970204 
L 312.470588 369.776079 
L 312.470588 369.679755 
L 313.277766 369.488549 
L 313.277766 369.393652 
L 314.054485 369.205238 
L 314.054485 369.018618 
L 315.649804 368.741943 
L 315.904903 368.559595 
L 315.904903 368.469034 
L 316.712082 368.289111 
L 320.668017 366.902887 
L 320.668017 366.81915 
L 321.486617 366.652627 
L 321.486617 366.569833 
L 321.745523 366.487347 
L 322.522242 366.323282 
L 322.522242 366.241696 
L 323.314191 366.079405 
L 323.314191 365.918265 
L 324.658218 365.838119 
L 324.658218 367.099914 
L 324.658218 366.931253 
L 325.74334 367.682192 
L 325.74334 367.595378 
L 325.74334 367.508917 
L 326.546711 367.337042 
L 326.546711 370.057171 
L 326.546711 369.959411 
L 327.346274 369.765395 
L 327.346274 369.669125 
L 328.408551 369.478024 
L 328.408551 369.383179 
L 329.2005 369.194865 
L 329.463214 369.008343 
L 329.463214 368.915738 
L 330.293237 368.73181 
L 330.293237 368.640475 
L 331.907593 368.368921 
L 331.907593 368.279201 
L 333.251621 367.748912 
L 334.032147 367.575093 
L 334.313898 367.402686 
L 334.313898 367.317001 
L 335.871143 367.061974 
L 336.137664 366.893604 
L 336.137664 366.809903 
L 337.203749 366.64345 
L 337.203749 366.478237 
L 338.269833 366.314238 
L 338.269833 366.070459 
L 339.084626 365.989778 
L 339.084626 367.218204 
L 339.084626 367.133249 
L 339.857537 366.96433 
L 339.857537 366.880359 
L 340.938852 366.713374 
L 340.938852 370.112792 
L 341.742223 369.9172 
L 342.012551 369.723614 
L 342.012551 369.627554 
L 342.819729 369.436863 
L 342.819729 369.061008 
L 344.712029 368.783747 
L 344.712029 368.692177 
L 345.778114 368.510275 
L 346.577677 368.151279 
L 346.577677 368.062501 
L 347.346781 367.886076 
L 347.346781 367.798419 
L 348.98779 367.537616 
L 348.98779 367.451389 
L 350.308973 366.941174 
L 350.308973 366.857291 
L 351.085692 366.69048 
L 351.085692 366.607545 
L 352.677204 366.360579 
L 352.677204 366.116302 
L 352.958954 366.035458 
L 353.743288 365.954901 
L 354.017424 367.450931 
L 354.017424 367.365054 
L 354.809373 367.194322 
L 355.053049 367.109461 
L 355.053049 370.478152 
L 355.053049 370.378157 
L 355.867842 371.838277 
L 355.867842 371.730313 
L 356.652176 371.516407 
L 358.003819 370.99288 
L 358.003819 370.787729 
L 359.092748 370.584889 
L 359.092748 370.384283 
L 359.884696 370.185838 
L 359.884696 370.087405 
L 361.514283 369.795165 
L 361.514283 369.698745 
L 361.784611 369.50735 
L 361.784611 369.412362 
L 362.877348 369.223767 
L 362.877348 368.944234 
L 364.491704 368.668581 
L 364.491704 368.486891 
L 365.542559 368.306812 
L 365.542559 368.039621 
L 366.604836 367.863389 
L 366.604836 367.775826 
L 367.419629 367.601786 
L 367.419629 367.5153 
L 368.20777 367.343374 
L 368.20777 368.073611 
L 368.988296 367.897091 
L 368.988296 367.809388 
L 369.80309 367.72205 
L 370.065803 370.524462 
L 370.065803 370.324511 
L 371.15854 370.126702 
L 371.15854 369.930966 
L 371.939066 369.73724 
L 371.939066 369.641112 
L 372.734822 369.450288 
L 372.734822 369.355578 
L 373.816136 369.167529 
L 373.816136 368.981264 
L 374.893643 368.796733 
L 374.893643 368.61389 
L 375.963535 368.432687 
L 375.963535 368.253083 
L 376.778328 368.075035 
L 376.778328 367.986582 
L 377.539817 367.810795 
L 377.539817 367.636468 
L 378.56402 367.463565 
L 378.56402 367.206806 
L 379.892818 367.037316 
L 379.892818 366.953064 
L 380.722841 366.785528 
L 380.722841 366.702236 
L 381.510982 366.536588 
L 381.510982 366.454224 
L 382.33339 366.2904 
L 382.592296 367.567888 
L 382.592296 367.48154 
L 383.365207 367.309883 
L 383.662188 367.139587 
L 384.454136 370.449325 
L 384.454136 371.892514 
L 384.454136 371.784205 
L 385.287967 371.56963 
L 385.287967 371.463339 
L 386.357859 371.252687 
L 386.357859 371.044534 
L 387.180267 370.838793 
L 387.180267 370.736802 
L 387.987445 370.534527 
L 387.987445 370.434225 
L 388.809853 370.235246 
L 388.809853 370.136553 
L 389.613224 369.940715 
L 389.613224 369.843555 
L 390.686923 369.650713 
L 390.686923 369.365038 
L 391.490294 369.176898 
L 391.745393 369.083501 
L 392.556379 368.898023 
L 392.556379 368.805929 
L 393.355942 368.623002 
L 393.355942 368.532158 
L 394.170735 368.351679 
L 394.170735 368.262035 
L 395.210168 368.08391 
L 395.210168 367.907304 
L 396.009731 367.819558 
L 396.268637 368.507355 
L 396.268637 368.327096 
L 397.08343 368.14841 
L 397.08343 368.059644 
L 397.863956 367.883242 
L 397.863956 367.795597 
L 398.693979 367.708316 
L 398.952886 371.820947 
L 400.00374 371.605914 
L 400.00374 371.393536 
L 401.054595 371.183719 
L 401.054595 370.976372 
L 401.89604 370.771409 
L 401.89604 370.669796 
L 402.958317 370.468261 
L 402.958317 370.268917 
L 404.020594 370.071695 
L 404.020594 369.876528 
L 405.063834 369.683354 
L 405.063834 369.492112 
L 405.867205 369.302746 
L 405.867205 369.20875 
L 406.659154 369.022096 
L 406.659154 368.929427 
L 407.694779 368.745374 
L 407.694779 368.562994 
L 408.776093 368.382244 
L 408.776093 368.203079 
L 409.571849 368.02546 
L 409.571849 367.849346 
L 411.167168 367.587917 
L 411.167168 367.501487 
L 411.448919 368.234662 
L 411.448919 368.145526 
L 412.233253 367.968397 
L 413.573473 367.532028 
L 413.573473 370.519139 
L 413.573473 370.418921 
L 414.376844 370.220106 
L 414.376844 370.121493 
L 415.450543 369.925811 
L 415.450543 369.828727 
L 416.265336 369.636034 
L 416.265336 369.540411 
L 417.308576 369.350575 
L 417.308576 369.162574 
L 418.085295 368.976355 
L 418.085295 368.883899 
L 418.900088 368.700263 
L 418.900088 368.609071 
L 419.707266 368.427911 
L 419.707266 368.248349 
L 421.310201 367.981908 
L 421.569107 367.80616 
L 421.569107 367.718835 
L 422.380092 367.545262 
L 422.380092 367.459005 
L 423.191078 367.287528 
L 423.191078 367.202301 
L 423.979219 367.032846 
L 423.979219 366.948611 
L 424.790205 366.781109 
L 424.790205 366.697834 
L 425.848675 366.532218 
L 425.848675 367.733063 
L 425.848675 367.64604 
L 426.640623 367.47306 
L 426.640623 367.387093 
L 427.436379 367.216188 
L 427.436379 367.131241 
L 428.243557 366.962337 
L 428.243557 370.286368 
L 428.243557 370.187403 
L 429.043121 369.991036 
L 429.043121 369.893617 
L 430.08636 369.700269 
L 430.08636 369.604326 
L 430.908768 369.413864 
L 430.908768 369.131629 
L 432.50028 368.853387 
L 432.50028 368.761498 
L 433.296036 368.578973 
L 433.296036 368.488325 
L 434.327854 368.308233 
L 434.327854 368.041024 
L 435.923173 367.777212 
L 436.189694 367.60316 
L 436.189694 367.430527 
L 437.781206 367.17416 
L 437.781206 367.004925 
L 438.839676 366.836993 
L 438.839676 366.670335 
L 439.894338 366.504923 
L 439.894338 366.34073 
L 440.678671 366.177728 
L 440.678671 367.590539 
L 440.678671 367.504099 
L 442.273991 367.246857 
L 442.540512 367.161789 
L 442.540512 370.438442 
L 442.540512 370.338663 
L 443.328653 370.140703 
L 443.328653 370.042507 
L 443.328653 370.042507 
L 443.328653 370.042507 
L 443.328653 371.576202 
L 444.923972 371.259139 
L 444.923972 371.050911 
L 445.719728 370.845097 
L 445.719728 370.74307 
L 446.534521 370.540726 
L 446.534521 370.44039 
L 447.562531 370.044413 
L 448.346865 369.849528 
L 449.412949 369.370864 
L 449.412949 369.276539 
L 450.993039 368.996261 
L 450.993039 368.903712 
L 452.352297 368.357216 
L 453.163282 368.178269 
L 453.163282 368.000862 
L 454.697683 367.737552 
L 454.697683 367.650511 
L 454.964204 368.397046 
L 454.964204 368.307203 
L 455.782804 368.128689 
L 456.053133 367.951703 
L 456.053133 367.863772 
L 457.11541 367.689007 
L 457.11541 370.436557 
L 457.11541 370.237554 
L 458.687885 369.942986 
L 458.962021 369.749138 
L 458.962021 369.65295 
L 459.773006 369.462009 
L 460.031912 369.367242 
L 461.113227 369.179081 
L 461.113227 368.992707 
L 461.91279 368.808071 
L 461.91279 368.71639 
L 462.742813 368.534271 
L 462.742813 368.174857 
L 464.840715 367.8216 
L 464.840715 367.734211 
L 465.644086 367.560512 
L 465.644086 367.474193 
L 466.455072 367.302595 
L 466.455072 367.132357 
L 467.517349 366.963445 
L 467.517349 366.795829 
L 469.127898 366.546774 
L 469.127898 366.382274 
L 470.985931 365.815793 
L 471.774072 365.656488 
L 471.774072 370.273615 
L 471.774072 370.174718 
L 473.369391 369.881129 
L 473.63972 369.687908 
L 473.63972 369.592027 
L 474.412631 369.401685 
L 474.412631 369.307212 
L 475.242654 369.119625 
L 475.242654 369.026498 
L 476.03841 368.84155 
L 476.03841 368.749715 
L 476.849395 368.567296 
L 476.849395 368.296711 
L 477.664189 368.118287 
L 477.664189 368.02965 
L 477.926902 367.94139 
L 478.730273 367.76598 
L 478.730273 367.678822 
L 480.306555 367.419478 
L 480.306555 367.333726 
L 481.094696 367.163242 
L 481.094696 367.078502 
L 481.924719 366.910006 
L 484.053081 366.248607 
L 484.053081 367.667727 
L 484.845029 367.49457 
L 484.845029 367.408517 
L 485.640785 367.237442 
L 485.640785 367.152411 
L 486.447963 367.067713 
L 486.714484 371.736641 
L 487.772954 371.522656 
L 487.772954 371.31129 
L 488.564903 371.102448 
L 488.564903 370.998946 
L 489.356851 370.793726 
L 489.356851 370.691988 
L 490.419128 370.490208 
L 490.419128 370.290628 
L 491.511865 370.093177 
L 491.511865 369.897789 
L 492.581757 369.704399 
L 492.581757 369.32338 
L 494.43979 369.042438 
L 494.43979 368.857341 
L 495.239353 368.673947 
L 498.16347 367.606882 
L 498.993493 367.434218 
L 498.993493 353.081093 
L 498.993493 353.081093 
" style="fill:none;stroke:#0000ff;stroke-linecap:square;"/>
   </g>
   <g id="patch_13">
    <path d="M 72 287.152941 
L 518.4 287.152941 
" style="fill:none;stroke:#000000;stroke-linecap:square;stroke-linejoin:miter;"/>
   </g>
   <g id="patch_14">
    <path d="M 518.4 388.8 
L 518.4 287.152941 
" style="fill:none;stroke:#000000;stroke-linecap:square;stroke-linejoin:miter;"/>
   </g>
   <g id="patch_15">
    <path d="M 72 388.8 
L 518.4 388.8 
" style="fill:none;stroke:#000000;stroke-linecap:square;stroke-linejoin:miter;"/>
   </g>
   <g id="patch_16">
    <path d="M 72 388.8 
L 72 287.152941 
" style="fill:none;stroke:#000000;stroke-linecap:square;stroke-linejoin:miter;"/>
   </g>
   <g id="matplotlib.axis_5">
    <g id="xtick_13">
     <g id="line2d_64">
      <g>
       <use style="stroke:#000000;stroke-width:0.5;" x="72.0" xlink:href="#m4f1c3ef5b6" y="388.8"/>
      </g>
     </g>
     <g id="line2d_65">
      <g>
       <use style="stroke:#000000;stroke-width:0.5;" x="72.0" xlink:href="#m8b9cc81279" y="287.152941176"/>
      </g>
     </g>
     <g id="text_33">
      <!-- 0 -->
      <g transform="translate(68.1825 401.918125)scale(0.12 -0.12)">
       <use xlink:href="#BitstreamVeraSans-Roman-30"/>
      </g>
     </g>
    </g>
    <g id="xtick_14">
     <g id="line2d_66">
      <g>
       <use style="stroke:#000000;stroke-width:0.5;" x="161.28" xlink:href="#m4f1c3ef5b6" y="388.8"/>
      </g>
     </g>
     <g id="line2d_67">
      <g>
       <use style="stroke:#000000;stroke-width:0.5;" x="161.28" xlink:href="#m8b9cc81279" y="287.152941176"/>
      </g>
     </g>
     <g id="text_34">
      <!-- 1 -->
      <g transform="translate(157.4625 401.918125)scale(0.12 -0.12)">
       <use xlink:href="#BitstreamVeraSans-Roman-31"/>
      </g>
     </g>
    </g>
    <g id="xtick_15">
     <g id="line2d_68">
      <g>
       <use style="stroke:#000000;stroke-width:0.5;" x="250.56" xlink:href="#m4f1c3ef5b6" y="388.8"/>
      </g>
     </g>
     <g id="line2d_69">
      <g>
       <use style="stroke:#000000;stroke-width:0.5;" x="250.56" xlink:href="#m8b9cc81279" y="287.152941176"/>
      </g>
     </g>
     <g id="text_35">
      <!-- 2 -->
      <g transform="translate(246.7425 401.918125)scale(0.12 -0.12)">
       <use xlink:href="#BitstreamVeraSans-Roman-32"/>
      </g>
     </g>
    </g>
    <g id="xtick_16">
     <g id="line2d_70">
      <g>
       <use style="stroke:#000000;stroke-width:0.5;" x="339.84" xlink:href="#m4f1c3ef5b6" y="388.8"/>
      </g>
     </g>
     <g id="line2d_71">
      <g>
       <use style="stroke:#000000;stroke-width:0.5;" x="339.84" xlink:href="#m8b9cc81279" y="287.152941176"/>
      </g>
     </g>
     <g id="text_36">
      <!-- 3 -->
      <g transform="translate(336.0225 401.918125)scale(0.12 -0.12)">
       <use xlink:href="#BitstreamVeraSans-Roman-33"/>
      </g>
     </g>
    </g>
    <g id="xtick_17">
     <g id="line2d_72">
      <g>
       <use style="stroke:#000000;stroke-width:0.5;" x="429.12" xlink:href="#m4f1c3ef5b6" y="388.8"/>
      </g>
     </g>
     <g id="line2d_73">
      <g>
       <use style="stroke:#000000;stroke-width:0.5;" x="429.12" xlink:href="#m8b9cc81279" y="287.152941176"/>
      </g>
     </g>
     <g id="text_37">
      <!-- 4 -->
      <g transform="translate(425.3025 401.918125)scale(0.12 -0.12)">
       <use xlink:href="#BitstreamVeraSans-Roman-34"/>
      </g>
     </g>
    </g>
    <g id="xtick_18">
     <g id="line2d_74">
      <g>
       <use style="stroke:#000000;stroke-width:0.5;" x="518.4" xlink:href="#m4f1c3ef5b6" y="388.8"/>
      </g>
     </g>
     <g id="line2d_75">
      <g>
       <use style="stroke:#000000;stroke-width:0.5;" x="518.4" xlink:href="#m8b9cc81279" y="287.152941176"/>
      </g>
     </g>
     <g id="text_38">
      <!-- 5 -->
      <g transform="translate(514.5825 401.918125)scale(0.12 -0.12)">
       <use xlink:href="#BitstreamVeraSans-Roman-35"/>
      </g>
     </g>
    </g>
    <g id="text_39">
     <!-- travel_distance -->
     <defs>
      <path d="M 54.890625 33.015625 
L 54.890625 0 
L 45.90625 0 
L 45.90625 32.71875 
Q 45.90625 40.484375 42.875 44.328125 
Q 39.84375 48.1875 33.796875 48.1875 
Q 26.515625 48.1875 22.3125 43.546875 
Q 18.109375 38.921875 18.109375 30.90625 
L 18.109375 0 
L 9.078125 0 
L 9.078125 54.6875 
L 18.109375 54.6875 
L 18.109375 46.1875 
Q 21.34375 51.125 25.703125 53.5625 
Q 30.078125 56 35.796875 56 
Q 45.21875 56 50.046875 50.171875 
Q 54.890625 44.34375 54.890625 33.015625 
" id="BitstreamVeraSans-Roman-6e"/>
      <path d="M 9.421875 75.984375 
L 18.40625 75.984375 
L 18.40625 0 
L 9.421875 0 
z
" id="BitstreamVeraSans-Roman-6c"/>
      <path d="M 9.421875 54.6875 
L 18.40625 54.6875 
L 18.40625 0 
L 9.421875 0 
z
M 9.421875 75.984375 
L 18.40625 75.984375 
L 18.40625 64.59375 
L 9.421875 64.59375 
z
" id="BitstreamVeraSans-Roman-69"/>
      <path d="M 2.984375 54.6875 
L 12.5 54.6875 
L 29.59375 8.796875 
L 46.6875 54.6875 
L 56.203125 54.6875 
L 35.6875 0 
L 23.484375 0 
z
" id="BitstreamVeraSans-Roman-76"/>
      <path d="M 45.40625 46.390625 
L 45.40625 75.984375 
L 54.390625 75.984375 
L 54.390625 0 
L 45.40625 0 
L 45.40625 8.203125 
Q 42.578125 3.328125 38.25 0.953125 
Q 33.9375 -1.421875 27.875 -1.421875 
Q 17.96875 -1.421875 11.734375 6.484375 
Q 5.515625 14.40625 5.515625 27.296875 
Q 5.515625 40.1875 11.734375 48.09375 
Q 17.96875 56 27.875 56 
Q 33.9375 56 38.25 53.625 
Q 42.578125 51.265625 45.40625 46.390625 
M 14.796875 27.296875 
Q 14.796875 17.390625 18.875 11.75 
Q 22.953125 6.109375 30.078125 6.109375 
Q 37.203125 6.109375 41.296875 11.75 
Q 45.40625 17.390625 45.40625 27.296875 
Q 45.40625 37.203125 41.296875 42.84375 
Q 37.203125 48.484375 30.078125 48.484375 
Q 22.953125 48.484375 18.875 42.84375 
Q 14.796875 37.203125 14.796875 27.296875 
" id="BitstreamVeraSans-Roman-64"/>
      <path d="M 41.109375 46.296875 
Q 39.59375 47.171875 37.8125 47.578125 
Q 36.03125 48 33.890625 48 
Q 26.265625 48 22.1875 43.046875 
Q 18.109375 38.09375 18.109375 28.8125 
L 18.109375 0 
L 9.078125 0 
L 9.078125 54.6875 
L 18.109375 54.6875 
L 18.109375 46.1875 
Q 20.953125 51.171875 25.484375 53.578125 
Q 30.03125 56 36.53125 56 
Q 37.453125 56 38.578125 55.875 
Q 39.703125 55.765625 41.0625 55.515625 
z
" id="BitstreamVeraSans-Roman-72"/>
      <path d="M 44.28125 53.078125 
L 44.28125 44.578125 
Q 40.484375 46.53125 36.375 47.5 
Q 32.28125 48.484375 27.875 48.484375 
Q 21.1875 48.484375 17.84375 46.4375 
Q 14.5 44.390625 14.5 40.28125 
Q 14.5 37.15625 16.890625 35.375 
Q 19.28125 33.59375 26.515625 31.984375 
L 29.59375 31.296875 
Q 39.15625 29.25 43.1875 25.515625 
Q 47.21875 21.78125 47.21875 15.09375 
Q 47.21875 7.46875 41.1875 3.015625 
Q 35.15625 -1.421875 24.609375 -1.421875 
Q 20.21875 -1.421875 15.453125 -0.5625 
Q 10.6875 0.296875 5.421875 2 
L 5.421875 11.28125 
Q 10.40625 8.6875 15.234375 7.390625 
Q 20.0625 6.109375 24.8125 6.109375 
Q 31.15625 6.109375 34.5625 8.28125 
Q 37.984375 10.453125 37.984375 14.40625 
Q 37.984375 18.0625 35.515625 20.015625 
Q 33.0625 21.96875 24.703125 23.78125 
L 21.578125 24.515625 
Q 13.234375 26.265625 9.515625 29.90625 
Q 5.8125 33.546875 5.8125 39.890625 
Q 5.8125 47.609375 11.28125 51.796875 
Q 16.75 56 26.8125 56 
Q 31.78125 56 36.171875 55.265625 
Q 40.578125 54.546875 44.28125 53.078125 
" id="BitstreamVeraSans-Roman-73"/>
      <path d="M 48.78125 52.59375 
L 48.78125 44.1875 
Q 44.96875 46.296875 41.140625 47.34375 
Q 37.3125 48.390625 33.40625 48.390625 
Q 24.65625 48.390625 19.8125 42.84375 
Q 14.984375 37.3125 14.984375 27.296875 
Q 14.984375 17.28125 19.8125 11.734375 
Q 24.65625 6.203125 33.40625 6.203125 
Q 37.3125 6.203125 41.140625 7.25 
Q 44.96875 8.296875 48.78125 10.40625 
L 48.78125 2.09375 
Q 45.015625 0.34375 40.984375 -0.53125 
Q 36.96875 -1.421875 32.421875 -1.421875 
Q 20.0625 -1.421875 12.78125 6.34375 
Q 5.515625 14.109375 5.515625 27.296875 
Q 5.515625 40.671875 12.859375 48.328125 
Q 20.21875 56 33.015625 56 
Q 37.15625 56 41.109375 55.140625 
Q 45.0625 54.296875 48.78125 52.59375 
" id="BitstreamVeraSans-Roman-63"/>
     </defs>
     <g transform="translate(249.3703125 418.531875)scale(0.12 -0.12)">
      <use xlink:href="#BitstreamVeraSans-Roman-74"/>
      <use x="39.208984375" xlink:href="#BitstreamVeraSans-Roman-72"/>
      <use x="80.322265625" xlink:href="#BitstreamVeraSans-Roman-61"/>
      <use x="141.6015625" xlink:href="#BitstreamVeraSans-Roman-76"/>
      <use x="200.78125" xlink:href="#BitstreamVeraSans-Roman-65"/>
      <use x="262.3046875" xlink:href="#BitstreamVeraSans-Roman-6c"/>
      <use x="290.087890625" xlink:href="#BitstreamVeraSans-Roman-5f"/>
      <use x="340.087890625" xlink:href="#BitstreamVeraSans-Roman-64"/>
      <use x="403.564453125" xlink:href="#BitstreamVeraSans-Roman-69"/>
      <use x="431.34765625" xlink:href="#BitstreamVeraSans-Roman-73"/>
      <use x="483.447265625" xlink:href="#BitstreamVeraSans-Roman-74"/>
      <use x="522.65625" xlink:href="#BitstreamVeraSans-Roman-61"/>
      <use x="583.935546875" xlink:href="#BitstreamVeraSans-Roman-6e"/>
      <use x="647.314453125" xlink:href="#BitstreamVeraSans-Roman-63"/>
      <use x="702.294921875" xlink:href="#BitstreamVeraSans-Roman-65"/>
     </g>
    </g>
   </g>
   <g id="matplotlib.axis_6">
    <g id="ytick_19">
     <g id="line2d_76">
      <g>
       <use style="stroke:#000000;stroke-width:0.5;" x="72.0" xlink:href="#m4edd68c302" y="388.8"/>
      </g>
     </g>
     <g id="line2d_77">
      <g>
       <use style="stroke:#000000;stroke-width:0.5;" x="518.4" xlink:href="#m2ce0b5ab04" y="388.8"/>
      </g>
     </g>
     <g id="text_40">
      <!-- 0.0 -->
      <g transform="translate(48.91625 392.11125)scale(0.12 -0.12)">
       <use xlink:href="#BitstreamVeraSans-Roman-30"/>
       <use x="63.623046875" xlink:href="#BitstreamVeraSans-Roman-2e"/>
       <use x="95.41015625" xlink:href="#BitstreamVeraSans-Roman-30"/>
      </g>
     </g>
    </g>
    <g id="ytick_20">
     <g id="line2d_78">
      <g>
       <use style="stroke:#000000;stroke-width:0.5;" x="72.0" xlink:href="#m4edd68c302" y="375.247058824"/>
      </g>
     </g>
     <g id="line2d_79">
      <g>
       <use style="stroke:#000000;stroke-width:0.5;" x="518.4" xlink:href="#m2ce0b5ab04" y="375.247058824"/>
      </g>
     </g>
     <g id="text_41">
      <!-- 0.2 -->
      <g transform="translate(48.91625 378.558308824)scale(0.12 -0.12)">
       <use xlink:href="#BitstreamVeraSans-Roman-30"/>
       <use x="63.623046875" xlink:href="#BitstreamVeraSans-Roman-2e"/>
       <use x="95.41015625" xlink:href="#BitstreamVeraSans-Roman-32"/>
      </g>
     </g>
    </g>
    <g id="ytick_21">
     <g id="line2d_80">
      <g>
       <use style="stroke:#000000;stroke-width:0.5;" x="72.0" xlink:href="#m4edd68c302" y="361.694117647"/>
      </g>
     </g>
     <g id="line2d_81">
      <g>
       <use style="stroke:#000000;stroke-width:0.5;" x="518.4" xlink:href="#m2ce0b5ab04" y="361.694117647"/>
      </g>
     </g>
     <g id="text_42">
      <!-- 0.4 -->
      <g transform="translate(48.91625 365.005367647)scale(0.12 -0.12)">
       <use xlink:href="#BitstreamVeraSans-Roman-30"/>
       <use x="63.623046875" xlink:href="#BitstreamVeraSans-Roman-2e"/>
       <use x="95.41015625" xlink:href="#BitstreamVeraSans-Roman-34"/>
      </g>
     </g>
    </g>
    <g id="ytick_22">
     <g id="line2d_82">
      <g>
       <use style="stroke:#000000;stroke-width:0.5;" x="72.0" xlink:href="#m4edd68c302" y="348.141176471"/>
      </g>
     </g>
     <g id="line2d_83">
      <g>
       <use style="stroke:#000000;stroke-width:0.5;" x="518.4" xlink:href="#m2ce0b5ab04" y="348.141176471"/>
      </g>
     </g>
     <g id="text_43">
      <!-- 0.6 -->
      <g transform="translate(48.91625 351.452426471)scale(0.12 -0.12)">
       <use xlink:href="#BitstreamVeraSans-Roman-30"/>
       <use x="63.623046875" xlink:href="#BitstreamVeraSans-Roman-2e"/>
       <use x="95.41015625" xlink:href="#BitstreamVeraSans-Roman-36"/>
      </g>
     </g>
    </g>
    <g id="ytick_23">
     <g id="line2d_84">
      <g>
       <use style="stroke:#000000;stroke-width:0.5;" x="72.0" xlink:href="#m4edd68c302" y="334.588235294"/>
      </g>
     </g>
     <g id="line2d_85">
      <g>
       <use style="stroke:#000000;stroke-width:0.5;" x="518.4" xlink:href="#m2ce0b5ab04" y="334.588235294"/>
      </g>
     </g>
     <g id="text_44">
      <!-- 0.8 -->
      <g transform="translate(48.91625 337.899485294)scale(0.12 -0.12)">
       <use xlink:href="#BitstreamVeraSans-Roman-30"/>
       <use x="63.623046875" xlink:href="#BitstreamVeraSans-Roman-2e"/>
       <use x="95.41015625" xlink:href="#BitstreamVeraSans-Roman-38"/>
      </g>
     </g>
    </g>
    <g id="ytick_24">
     <g id="line2d_86">
      <g>
       <use style="stroke:#000000;stroke-width:0.5;" x="72.0" xlink:href="#m4edd68c302" y="321.035294118"/>
      </g>
     </g>
     <g id="line2d_87">
      <g>
       <use style="stroke:#000000;stroke-width:0.5;" x="518.4" xlink:href="#m2ce0b5ab04" y="321.035294118"/>
      </g>
     </g>
     <g id="text_45">
      <!-- 1.0 -->
      <g transform="translate(48.91625 324.346544118)scale(0.12 -0.12)">
       <use xlink:href="#BitstreamVeraSans-Roman-31"/>
       <use x="63.623046875" xlink:href="#BitstreamVeraSans-Roman-2e"/>
       <use x="95.41015625" xlink:href="#BitstreamVeraSans-Roman-30"/>
      </g>
     </g>
    </g>
    <g id="ytick_25">
     <g id="line2d_88">
      <g>
       <use style="stroke:#000000;stroke-width:0.5;" x="72.0" xlink:href="#m4edd68c302" y="307.482352941"/>
      </g>
     </g>
     <g id="line2d_89">
      <g>
       <use style="stroke:#000000;stroke-width:0.5;" x="518.4" xlink:href="#m2ce0b5ab04" y="307.482352941"/>
      </g>
     </g>
     <g id="text_46">
      <!-- 1.2 -->
      <g transform="translate(48.91625 310.793602941)scale(0.12 -0.12)">
       <use xlink:href="#BitstreamVeraSans-Roman-31"/>
       <use x="63.623046875" xlink:href="#BitstreamVeraSans-Roman-2e"/>
       <use x="95.41015625" xlink:href="#BitstreamVeraSans-Roman-32"/>
      </g>
     </g>
    </g>
    <g id="ytick_26">
     <g id="line2d_90">
      <g>
       <use style="stroke:#000000;stroke-width:0.5;" x="72.0" xlink:href="#m4edd68c302" y="293.929411765"/>
      </g>
     </g>
     <g id="line2d_91">
      <g>
       <use style="stroke:#000000;stroke-width:0.5;" x="518.4" xlink:href="#m2ce0b5ab04" y="293.929411765"/>
      </g>
     </g>
     <g id="text_47">
      <!-- 1.4 -->
      <g transform="translate(48.91625 297.240661765)scale(0.12 -0.12)">
       <use xlink:href="#BitstreamVeraSans-Roman-31"/>
       <use x="63.623046875" xlink:href="#BitstreamVeraSans-Roman-2e"/>
       <use x="95.41015625" xlink:href="#BitstreamVeraSans-Roman-34"/>
      </g>
     </g>
    </g>
    <g id="text_48">
     <!-- thegma_theta -->
     <g transform="translate(41.086875 380.028970588)rotate(-90.0)scale(0.12 -0.12)">
      <use xlink:href="#BitstreamVeraSans-Roman-74"/>
      <use x="39.208984375" xlink:href="#BitstreamVeraSans-Roman-68"/>
      <use x="102.587890625" xlink:href="#BitstreamVeraSans-Roman-65"/>
      <use x="164.111328125" xlink:href="#BitstreamVeraSans-Roman-67"/>
      <use x="227.587890625" xlink:href="#BitstreamVeraSans-Roman-6d"/>
      <use x="325.0" xlink:href="#BitstreamVeraSans-Roman-61"/>
      <use x="386.279296875" xlink:href="#BitstreamVeraSans-Roman-5f"/>
      <use x="436.279296875" xlink:href="#BitstreamVeraSans-Roman-74"/>
      <use x="475.48828125" xlink:href="#BitstreamVeraSans-Roman-68"/>
      <use x="538.8671875" xlink:href="#BitstreamVeraSans-Roman-65"/>
      <use x="600.390625" xlink:href="#BitstreamVeraSans-Roman-74"/>
      <use x="639.599609375" xlink:href="#BitstreamVeraSans-Roman-61"/>
     </g>
    </g>
   </g>
  </g>
 </g>
 <defs>
  <clipPath id="p7e8ec4be46">
   <rect height="101.647058824" width="446.4" x="72.0" y="43.2"/>
  </clipPath>
  <clipPath id="p25184e879d">
   <rect height="101.647058824" width="446.4" x="72.0" y="287.152941176"/>
  </clipPath>
  <clipPath id="p908c7a8ef7">
   <rect height="101.647058824" width="446.4" x="72.0" y="165.176470588"/>
  </clipPath>
 </defs>
</svg>
