<?xml version="1.0" encoding="utf-8" standalone="no"?>
<!DOCTYPE svg PUBLIC "-//W3C//DTD SVG 1.1//EN"
  "http://www.w3.org/Graphics/SVG/1.1/DTD/svg11.dtd">
<!-- Created with matplotlib (http://matplotlib.org/) -->
<svg height="432pt" version="1.1" viewBox="0 0 576 432" width="576pt" xmlns="http://www.w3.org/2000/svg" xmlns:xlink="http://www.w3.org/1999/xlink">
 <defs>
  <style type="text/css">
*{stroke-linecap:butt;stroke-linejoin:round;stroke-miterlimit:100000;}
  </style>
 </defs>
 <g id="figure_1">
  <g id="patch_1">
   <path d="M 0 432 
L 576 432 
L 576 0 
L 0 0 
z
" style="fill:#ffffff;"/>
  </g>
  <g id="axes_1">
   <g id="patch_2">
    <path d="M 72 388.8 
L 518.4 388.8 
L 518.4 43.2 
L 72 43.2 
z
" style="fill:#ffffff;"/>
   </g>
   <g id="line2d_1">
    <path clip-path="url(#p57a2e87f7e)" d="M 72 357.5232 
L 72.744 207.22176 
L 73.488 357.5232 
L 74.232 207.22176 
L 74.976 357.5232 
L 75.72 207.11808 
L 76.464 357.5232 
L 77.208 206.97984 
L 77.952 357.5232 
L 78.696 206.6688 
L 79.44 357.5232 
L 80.184 207.04896 
L 80.928 357.5232 
L 81.672 207.1872 
L 82.416 357.5232 
L 83.16 207.1872 
L 83.904 357.5232 
L 84.648 207.0144 
L 85.392 357.5232 
L 86.136 207.25632 
L 86.88 357.5232 
L 87.624 207.22176 
L 88.368 357.5232 
L 89.112 207.1872 
L 89.856 357.5232 
L 90.6 207.11808 
L 91.344 357.5232 
L 92.088 207.22176 
L 92.832 357.5232 
L 93.576 207.1872 
L 94.32 357.5232 
L 95.064 207.22176 
L 95.808 357.5232 
L 96.552 207.11808 
L 97.296 357.5232 
L 98.04 207.15264 
L 98.784 357.5232 
L 99.528 207.11808 
L 100.272 357.5232 
L 101.016 207.0144 
L 101.76 357.5232 
L 102.504 207.1872 
L 103.248 357.5232 
L 103.992 207.15264 
L 104.736 357.5232 
L 105.48 207.11808 
L 106.224 357.5232 
L 106.968 206.91072 
L 107.712 357.5232 
L 108.456 207.15264 
L 109.2 357.5232 
L 109.944 207.04896 
L 110.688 357.5232 
L 111.432 207.15264 
L 112.176 357.5232 
L 112.92 207.08352 
L 113.664 357.5232 
L 114.408 206.94528 
L 115.152 357.5232 
L 115.896 207.0144 
L 116.64 357.5232 
L 117.384 207.04896 
L 118.128 357.5232 
L 118.872 207.15264 
L 119.616 357.5232 
L 120.36 207.11808 
L 121.104 357.5232 
L 121.848 207.15264 
L 122.592 357.5232 
L 123.336 207.1872 
L 124.08 357.5232 
L 124.824 207.15264 
L 125.568 357.5232 
L 126.312 207.22176 
L 127.056 357.5232 
L 127.8 207.1872 
L 128.544 357.5232 
L 129.288 207.08352 
L 130.032 357.5232 
L 130.776 207.1872 
L 131.52 357.5232 
L 132.264 207.1872 
L 133.008 357.5232 
L 133.752 207.15264 
L 134.496 357.5232 
L 135.24 207.15264 
L 135.984 357.5232 
L 136.728 76.27392 
L 137.472 357.5232 
L 138.216 74.4768 
L 138.96 357.5232 
L 139.704 74.4768 
L 140.448 357.5232 
L 141.192 125.6256 
L 141.936 220.8384 
L 142.68 212.47488 
L 143.424 220.04352 
L 144.168 212.44032 
L 144.912 220.21632 
L 145.656 212.47488 
L 146.4 220.04352 
L 147.144 212.09472 
L 147.888 220.07808 
L 148.632 212.47488 
L 149.376 220.00896 
L 150.12 212.47488 
L 150.864 220.00896 
L 151.608 212.47488 
L 152.352 220.21632 
L 153.096 209.71008 
L 153.84 220.04352 
L 154.584 212.44032 
L 155.328 220.04352 
L 156.072 209.67552 
L 156.816 220.04352 
L 157.56 209.98656 
L 158.304 220.04352 
L 159.048 212.44032 
L 159.792 220.04352 
L 160.536 212.44032 
L 161.28 357.5232 
L 162.024 74.4768 
L 162.768 220.04352 
L 163.512 212.47488 
L 164.256 220.04352 
L 165 212.30208 
L 165.744 220.18176 
L 166.488 212.44032 
L 167.232 220.00896 
L 167.976 212.33664 
L 168.72 220.04352 
L 169.464 212.44032 
L 170.208 220.04352 
L 170.952 212.1984 
L 171.696 220.07808 
L 172.44 212.16384 
L 173.184 220.04352 
L 173.928 212.44032 
L 174.672 220.04352 
L 175.416 212.23296 
L 176.16 220.07808 
L 176.904 212.44032 
L 177.648 220.18176 
L 178.392 212.44032 
L 179.136 220.07808 
L 179.88 212.44032 
L 180.624 220.00896 
L 181.368 212.47488 
L 182.112 220.04352 
L 182.856 212.3712 
L 183.6 220.04352 
L 184.344 212.44032 
L 185.088 357.5232 
L 185.832 86.71104 
L 186.576 220.07808 
L 187.32 212.47488 
L 188.064 220.04352 
L 188.808 212.47488 
L 189.552 220.52736 
L 190.296 212.40576 
L 191.04 220.04352 
L 191.784 212.40576 
L 192.528 220.07808 
L 193.272 212.40576 
L 194.016 220.04352 
L 194.76 212.3712 
L 195.504 220.11264 
L 196.248 212.44032 
L 196.992 220.42368 
L 197.736 212.44032 
L 198.48 220.63104 
L 199.224 212.44032 
L 199.968 220.11264 
L 200.712 212.3712 
L 201.456 357.5232 
L 202.2 212.16384 
L 202.944 220.1472 
L 203.688 212.44032 
L 204.432 220.04352 
L 205.176 212.40576 
L 205.92 220.04352 
L 206.664 212.47488 
L 207.408 220.07808 
L 208.152 212.44032 
L 208.896 220.56192 
L 209.64 212.44032 
L 210.384 220.11264 
L 211.128 212.44032 
L 211.872 220.00896 
L 212.616 212.40576 
L 213.36 357.5232 
L 214.104 212.47488 
L 214.848 220.07808 
L 215.592 212.16384 
L 216.336 220.07808 
L 217.08 74.4768 
L 217.824 357.5232 
L 218.568 212.44032 
L 219.312 220.56192 
L 220.056 212.44032 
L 220.8 220.28544 
L 221.544 212.40576 
L 222.288 357.5232 
L 223.032 212.44032 
L 223.776 220.32 
L 224.52 212.3712 
L 225.264 220.04352 
L 226.008 212.40576 
L 226.752 220.04352 
L 227.496 212.1984 
L 228.24 220.18176 
L 228.984 209.32992 
L 229.728 357.5232 
L 230.472 212.44032 
L 231.216 220.07808 
L 231.96 74.4768 
L 232.704 220.8384 
L 233.448 212.47488 
L 234.192 220.4928 
L 234.936 212.30208 
L 235.68 220.38912 
L 236.424 212.47488 
L 237.168 220.07808 
L 237.912 212.0256 
L 238.656 357.5232 
L 239.4 212.44032 
L 240.144 220.00896 
L 240.888 212.23296 
L 241.632 220.07808 
L 242.376 212.44032 
L 243.12 220.07808 
L 243.864 212.09472 
L 244.608 220.11264 
L 245.352 212.44032 
L 246.096 357.5232 
L 246.84 212.33664 
L 247.584 220.07808 
L 248.328 212.40576 
L 249.072 220.07808 
L 249.816 212.12928 
L 250.56 357.5232 
L 251.304 212.40576 
L 252.048 220.59648 
L 252.792 209.71008 
L 253.536 220.38912 
L 254.28 212.40576 
L 255.024 220.04352 
L 255.768 212.1984 
L 256.512 220.11264 
L 257.256 212.12928 
L 258 220.11264 
L 258.744 212.47488 
L 259.488 220.35456 
L 260.232 212.12928 
L 260.976 220.07808 
L 261.72 212.44032 
L 262.464 357.5232 
L 263.208 74.4768 
L 263.952 220.70016 
L 264.696 212.47488 
L 265.44 220.04352 
L 266.184 212.44032 
L 266.928 220.07808 
L 267.672 74.4768 
L 268.416 220.07808 
L 269.16 212.47488 
L 269.904 220.04352 
L 270.648 74.4768 
L 271.392 357.5232 
L 272.136 212.44032 
L 272.88 357.5232 
L 273.624 212.44032 
L 274.368 220.04352 
L 275.112 212.40576 
L 275.856 220.11264 
L 276.6 212.44032 
L 277.344 357.5232 
L 278.088 212.30208 
L 278.832 220.07808 
L 279.576 206.73792 
L 280.32 220.00896 
L 281.064 212.1984 
L 281.808 220.07808 
L 282.552 212.40576 
L 283.296 220.11264 
L 284.04 212.47488 
L 284.784 220.04352 
L 285.528 212.40576 
L 286.272 220.04352 
L 287.016 212.44032 
L 287.76 220.1472 
L 288.504 212.47488 
L 289.248 220.07808 
L 289.992 212.47488 
L 290.736 220.04352 
L 291.48 212.3712 
L 292.224 220.35456 
L 292.968 120.75264 
L 293.712 220.32 
L 294.456 212.44032 
L 295.2 220.04352 
L 295.944 212.40576 
L 296.688 220.04352 
L 297.432 212.47488 
L 298.176 220.45824 
L 298.92 212.40576 
L 299.664 357.5232 
L 300.408 212.47488 
L 301.152 220.21632 
L 301.896 212.44032 
L 302.64 220.4928 
L 303.384 212.33664 
L 304.128 220.07808 
L 304.872 212.44032 
L 305.616 220.04352 
L 306.36 212.47488 
L 307.104 220.04352 
L 307.848 212.44032 
L 308.592 357.5232 
L 309.336 212.33664 
L 310.08 220.42368 
L 310.824 212.44032 
L 311.568 357.5232 
L 312.312 212.3712 
L 313.056 357.5232 
L 313.8 212.44032 
L 314.544 220.07808 
L 315.288 212.40576 
L 316.032 220.07808 
L 316.776 212.23296 
L 317.52 357.5232 
L 318.264 212.1984 
L 319.008 220.04352 
L 319.752 212.44032 
L 320.496 220.07808 
L 321.24 212.3712 
L 321.984 220.04352 
L 322.728 212.30208 
L 323.472 220.04352 
L 324.216 212.44032 
L 324.96 220.07808 
L 325.704 212.40576 
L 326.448 220.07808 
L 327.192 74.4768 
L 327.936 220.00896 
L 328.68 212.44032 
L 329.424 220.07808 
L 330.168 212.44032 
L 330.912 220.38912 
L 331.656 212.40576 
L 332.4 220.04352 
L 333.144 212.47488 
L 333.888 220.04352 
L 334.632 212.40576 
L 335.376 220.63104 
L 336.12 212.40576 
L 336.864 220.07808 
L 337.608 74.4768 
L 338.352 220.04352 
L 339.096 212.44032 
L 339.84 220.25088 
L 340.584 212.1984 
L 341.328 220.04352 
L 342.072 212.40576 
L 342.816 224.36352 
L 343.56 212.40576 
L 344.304 220.00896 
L 345.048 212.44032 
L 345.792 220.07808 
L 346.536 212.40576 
L 347.28 220.59648 
L 348.024 212.47488 
L 348.768 220.42368 
L 349.512 212.44032 
L 350.256 220.18176 
L 351 212.44032 
L 351.744 220.87296 
L 352.488 74.4768 
L 353.232 220.07808 
L 353.976 212.44032 
L 354.72 220.00896 
L 355.464 212.30208 
L 356.208 220.35456 
L 356.952 212.44032 
L 357.696 220.00896 
L 358.44 212.44032 
L 359.184 357.5232 
L 359.928 212.40576 
L 360.672 220.04352 
L 361.416 212.44032 
L 362.16 220.25088 
L 362.904 212.47488 
L 363.648 357.5232 
L 364.392 212.23296 
L 365.136 220.21632 
L 365.88 212.44032 
L 366.624 220.04352 
L 367.368 212.47488 
L 368.112 357.5232 
L 368.856 212.40576 
L 369.6 220.07808 
L 370.344 74.4768 
L 371.088 357.5232 
L 371.832 212.40576 
L 372.576 220.07808 
L 373.32 212.12928 
L 374.064 220.07808 
L 374.808 212.44032 
L 375.552 220.04352 
L 376.296 212.44032 
L 377.04 220.35456 
L 377.784 212.40576 
L 378.528 220.59648 
L 379.272 212.44032 
L 380.016 220.18176 
L 380.76 212.44032 
L 381.504 220.11264 
L 382.248 212.33664 
L 382.992 357.5232 
L 383.736 212.47488 
L 384.48 220.07808 
L 385.224 212.40576 
L 385.968 220.04352 
L 386.712 212.40576 
L 387.456 220.04352 
L 388.2 212.44032 
L 388.944 220.04352 
L 389.688 74.4768 
L 390.432 357.5232 
L 391.176 212.44032 
L 391.92 220.07808 
L 392.664 212.44032 
L 393.408 220.4928 
L 394.152 212.26752 
L 394.896 357.5232 
L 395.64 212.44032 
L 396.384 220.4928 
L 397.128 212.44032 
L 397.872 357.5232 
L 398.616 212.3712 
L 399.36 220.52736 
L 400.104 212.3712 
L 400.848 220.07808 
L 401.592 212.40576 
L 402.336 220.04352 
L 403.08 212.44032 
L 403.824 220.18176 
L 404.568 212.44032 
L 405.312 220.59648 
L 406.056 212.47488 
L 406.8 220.1472 
L 407.544 212.3712 
L 408.288 220.4928 
L 409.032 212.3712 
L 409.776 220.11264 
L 410.52 211.57632 
L 411.264 357.5232 
L 412.008 74.4768 
L 412.752 357.5232 
L 413.496 212.44032 
L 414.24 220.07808 
L 414.984 212.23296 
L 415.728 220.07808 
L 416.472 212.44032 
L 417.216 220.04352 
L 417.96 212.06016 
L 418.704 220.11264 
L 419.448 212.44032 
L 420.192 353.99808 
L 420.936 212.50944 
L 421.68 357.5232 
L 422.424 212.44032 
L 423.168 220.11264 
L 423.912 212.40576 
L 424.656 220.45824 
L 425.4 212.3712 
L 426.144 220.1472 
L 426.888 212.44032 
L 427.632 220.11264 
L 428.376 212.44032 
L 429.12 220.07808 
L 429.864 212.47488 
L 430.608 220.18176 
L 431.352 212.44032 
L 432.096 357.5232 
L 432.84 212.3712 
L 433.584 220.07808 
L 434.328 212.3712 
L 435.072 357.5232 
L 435.816 212.44032 
L 436.56 220.07808 
L 437.304 212.40576 
L 438.048 220.59648 
L 438.792 209.81376 
L 439.536 220.07808 
L 440.28 212.44032 
L 441.024 357.5232 
L 441.768 212.44032 
L 442.512 357.5232 
L 443.256 212.3712 
L 444 220.07808 
L 444.744 212.40576 
L 445.488 220.11264 
L 446.232 212.40576 
L 446.976 220.52736 
L 447.72 74.4768 
L 448.464 220.76928 
L 449.208 212.12928 
L 449.952 357.5232 
L 450.696 210.71232 
L 451.44 220.1472 
L 452.184 212.3712 
L 452.928 220.07808 
L 453.672 212.40576 
L 454.416 220.04352 
L 455.16 212.3712 
L 455.904 220.4928 
L 456.648 74.4768 
L 457.392 220.04352 
L 458.136 212.47488 
L 458.88 357.5232 
L 459.624 212.40576 
L 460.368 220.38912 
L 461.112 212.44032 
L 461.856 220.1472 
L 462.6 212.44032 
L 463.344 357.5232 
L 464.088 212.40576 
L 464.832 220.07808 
L 465.576 74.4768 
L 466.32 357.5232 
L 467.064 212.40576 
L 467.808 220.11264 
L 468.552 212.44032 
L 469.296 220.00896 
L 470.04 212.44032 
L 470.784 220.11264 
L 471.528 212.44032 
L 472.272 220.11264 
L 473.016 212.40576 
L 473.76 220.07808 
L 474.504 212.44032 
L 475.248 357.5232 
L 475.992 212.44032 
L 476.736 220.07808 
L 477.48 212.40576 
L 478.224 220.07808 
L 478.968 212.44032 
L 479.712 220.18176 
L 480.456 212.3712 
L 481.2 222.63552 
L 481.944 212.40576 
L 482.688 222.63552 
L 483.432 212.40576 
L 483.432 212.40576 
" style="fill:none;stroke:#0000ff;stroke-linecap:square;"/>
   </g>
   <g id="patch_3">
    <path d="M 72 43.2 
L 518.4 43.2 
" style="fill:none;stroke:#000000;stroke-linecap:square;stroke-linejoin:miter;"/>
   </g>
   <g id="patch_4">
    <path d="M 518.4 388.8 
L 518.4 43.2 
" style="fill:none;stroke:#000000;stroke-linecap:square;stroke-linejoin:miter;"/>
   </g>
   <g id="patch_5">
    <path d="M 72 388.8 
L 518.4 388.8 
" style="fill:none;stroke:#000000;stroke-linecap:square;stroke-linejoin:miter;"/>
   </g>
   <g id="patch_6">
    <path d="M 72 388.8 
L 72 43.2 
" style="fill:none;stroke:#000000;stroke-linecap:square;stroke-linejoin:miter;"/>
   </g>
   <g id="matplotlib.axis_1">
    <g id="xtick_1">
     <g id="line2d_2">
      <defs>
       <path d="M 0 0 
L 0 -4 
" id="m4508fd0f3a" style="stroke:#000000;stroke-width:0.5;"/>
      </defs>
      <g>
       <use style="stroke:#000000;stroke-width:0.5;" x="72.0" xlink:href="#m4508fd0f3a" y="388.8"/>
      </g>
     </g>
     <g id="line2d_3">
      <defs>
       <path d="M 0 0 
L 0 4 
" id="m3193fc4136" style="stroke:#000000;stroke-width:0.5;"/>
      </defs>
      <g>
       <use style="stroke:#000000;stroke-width:0.5;" x="72.0" xlink:href="#m3193fc4136" y="43.2"/>
      </g>
     </g>
     <g id="text_1">
      <!-- 0 -->
      <defs>
       <path d="M 31.78125 66.40625 
Q 24.171875 66.40625 20.328125 58.90625 
Q 16.5 51.421875 16.5 36.375 
Q 16.5 21.390625 20.328125 13.890625 
Q 24.171875 6.390625 31.78125 6.390625 
Q 39.453125 6.390625 43.28125 13.890625 
Q 47.125 21.390625 47.125 36.375 
Q 47.125 51.421875 43.28125 58.90625 
Q 39.453125 66.40625 31.78125 66.40625 
M 31.78125 74.21875 
Q 44.046875 74.21875 50.515625 64.515625 
Q 56.984375 54.828125 56.984375 36.375 
Q 56.984375 17.96875 50.515625 8.265625 
Q 44.046875 -1.421875 31.78125 -1.421875 
Q 19.53125 -1.421875 13.0625 8.265625 
Q 6.59375 17.96875 6.59375 36.375 
Q 6.59375 54.828125 13.0625 64.515625 
Q 19.53125 74.21875 31.78125 74.21875 
" id="BitstreamVeraSans-Roman-30"/>
      </defs>
      <g transform="translate(68.1825 401.918125)scale(0.12 -0.12)">
       <use xlink:href="#BitstreamVeraSans-Roman-30"/>
      </g>
     </g>
    </g>
    <g id="xtick_2">
     <g id="line2d_4">
      <g>
       <use style="stroke:#000000;stroke-width:0.5;" x="146.4" xlink:href="#m4508fd0f3a" y="388.8"/>
      </g>
     </g>
     <g id="line2d_5">
      <g>
       <use style="stroke:#000000;stroke-width:0.5;" x="146.4" xlink:href="#m3193fc4136" y="43.2"/>
      </g>
     </g>
     <g id="text_2">
      <!-- 100 -->
      <defs>
       <path d="M 12.40625 8.296875 
L 28.515625 8.296875 
L 28.515625 63.921875 
L 10.984375 60.40625 
L 10.984375 69.390625 
L 28.421875 72.90625 
L 38.28125 72.90625 
L 38.28125 8.296875 
L 54.390625 8.296875 
L 54.390625 0 
L 12.40625 0 
z
" id="BitstreamVeraSans-Roman-31"/>
      </defs>
      <g transform="translate(134.9475 401.918125)scale(0.12 -0.12)">
       <use xlink:href="#BitstreamVeraSans-Roman-31"/>
       <use x="63.623046875" xlink:href="#BitstreamVeraSans-Roman-30"/>
       <use x="127.24609375" xlink:href="#BitstreamVeraSans-Roman-30"/>
      </g>
     </g>
    </g>
    <g id="xtick_3">
     <g id="line2d_6">
      <g>
       <use style="stroke:#000000;stroke-width:0.5;" x="220.8" xlink:href="#m4508fd0f3a" y="388.8"/>
      </g>
     </g>
     <g id="line2d_7">
      <g>
       <use style="stroke:#000000;stroke-width:0.5;" x="220.8" xlink:href="#m3193fc4136" y="43.2"/>
      </g>
     </g>
     <g id="text_3">
      <!-- 200 -->
      <defs>
       <path d="M 19.1875 8.296875 
L 53.609375 8.296875 
L 53.609375 0 
L 7.328125 0 
L 7.328125 8.296875 
Q 12.9375 14.109375 22.625 23.890625 
Q 32.328125 33.6875 34.8125 36.53125 
Q 39.546875 41.84375 41.421875 45.53125 
Q 43.3125 49.21875 43.3125 52.78125 
Q 43.3125 58.59375 39.234375 62.25 
Q 35.15625 65.921875 28.609375 65.921875 
Q 23.96875 65.921875 18.8125 64.3125 
Q 13.671875 62.703125 7.8125 59.421875 
L 7.8125 69.390625 
Q 13.765625 71.78125 18.9375 73 
Q 24.125 74.21875 28.421875 74.21875 
Q 39.75 74.21875 46.484375 68.546875 
Q 53.21875 62.890625 53.21875 53.421875 
Q 53.21875 48.921875 51.53125 44.890625 
Q 49.859375 40.875 45.40625 35.40625 
Q 44.1875 33.984375 37.640625 27.21875 
Q 31.109375 20.453125 19.1875 8.296875 
" id="BitstreamVeraSans-Roman-32"/>
      </defs>
      <g transform="translate(209.3475 401.918125)scale(0.12 -0.12)">
       <use xlink:href="#BitstreamVeraSans-Roman-32"/>
       <use x="63.623046875" xlink:href="#BitstreamVeraSans-Roman-30"/>
       <use x="127.24609375" xlink:href="#BitstreamVeraSans-Roman-30"/>
      </g>
     </g>
    </g>
    <g id="xtick_4">
     <g id="line2d_8">
      <g>
       <use style="stroke:#000000;stroke-width:0.5;" x="295.2" xlink:href="#m4508fd0f3a" y="388.8"/>
      </g>
     </g>
     <g id="line2d_9">
      <g>
       <use style="stroke:#000000;stroke-width:0.5;" x="295.2" xlink:href="#m3193fc4136" y="43.2"/>
      </g>
     </g>
     <g id="text_4">
      <!-- 300 -->
      <defs>
       <path d="M 40.578125 39.3125 
Q 47.65625 37.796875 51.625 33 
Q 55.609375 28.21875 55.609375 21.1875 
Q 55.609375 10.40625 48.1875 4.484375 
Q 40.765625 -1.421875 27.09375 -1.421875 
Q 22.515625 -1.421875 17.65625 -0.515625 
Q 12.796875 0.390625 7.625 2.203125 
L 7.625 11.71875 
Q 11.71875 9.328125 16.59375 8.109375 
Q 21.484375 6.890625 26.8125 6.890625 
Q 36.078125 6.890625 40.9375 10.546875 
Q 45.796875 14.203125 45.796875 21.1875 
Q 45.796875 27.640625 41.28125 31.265625 
Q 36.765625 34.90625 28.71875 34.90625 
L 20.21875 34.90625 
L 20.21875 43.015625 
L 29.109375 43.015625 
Q 36.375 43.015625 40.234375 45.921875 
Q 44.09375 48.828125 44.09375 54.296875 
Q 44.09375 59.90625 40.109375 62.90625 
Q 36.140625 65.921875 28.71875 65.921875 
Q 24.65625 65.921875 20.015625 65.03125 
Q 15.375 64.15625 9.8125 62.3125 
L 9.8125 71.09375 
Q 15.4375 72.65625 20.34375 73.4375 
Q 25.25 74.21875 29.59375 74.21875 
Q 40.828125 74.21875 47.359375 69.109375 
Q 53.90625 64.015625 53.90625 55.328125 
Q 53.90625 49.265625 50.4375 45.09375 
Q 46.96875 40.921875 40.578125 39.3125 
" id="BitstreamVeraSans-Roman-33"/>
      </defs>
      <g transform="translate(283.7475 401.918125)scale(0.12 -0.12)">
       <use xlink:href="#BitstreamVeraSans-Roman-33"/>
       <use x="63.623046875" xlink:href="#BitstreamVeraSans-Roman-30"/>
       <use x="127.24609375" xlink:href="#BitstreamVeraSans-Roman-30"/>
      </g>
     </g>
    </g>
    <g id="xtick_5">
     <g id="line2d_10">
      <g>
       <use style="stroke:#000000;stroke-width:0.5;" x="369.6" xlink:href="#m4508fd0f3a" y="388.8"/>
      </g>
     </g>
     <g id="line2d_11">
      <g>
       <use style="stroke:#000000;stroke-width:0.5;" x="369.6" xlink:href="#m3193fc4136" y="43.2"/>
      </g>
     </g>
     <g id="text_5">
      <!-- 400 -->
      <defs>
       <path d="M 37.796875 64.3125 
L 12.890625 25.390625 
L 37.796875 25.390625 
z
M 35.203125 72.90625 
L 47.609375 72.90625 
L 47.609375 25.390625 
L 58.015625 25.390625 
L 58.015625 17.1875 
L 47.609375 17.1875 
L 47.609375 0 
L 37.796875 0 
L 37.796875 17.1875 
L 4.890625 17.1875 
L 4.890625 26.703125 
z
" id="BitstreamVeraSans-Roman-34"/>
      </defs>
      <g transform="translate(358.1475 401.918125)scale(0.12 -0.12)">
       <use xlink:href="#BitstreamVeraSans-Roman-34"/>
       <use x="63.623046875" xlink:href="#BitstreamVeraSans-Roman-30"/>
       <use x="127.24609375" xlink:href="#BitstreamVeraSans-Roman-30"/>
      </g>
     </g>
    </g>
    <g id="xtick_6">
     <g id="line2d_12">
      <g>
       <use style="stroke:#000000;stroke-width:0.5;" x="444.0" xlink:href="#m4508fd0f3a" y="388.8"/>
      </g>
     </g>
     <g id="line2d_13">
      <g>
       <use style="stroke:#000000;stroke-width:0.5;" x="444.0" xlink:href="#m3193fc4136" y="43.2"/>
      </g>
     </g>
     <g id="text_6">
      <!-- 500 -->
      <defs>
       <path d="M 10.796875 72.90625 
L 49.515625 72.90625 
L 49.515625 64.59375 
L 19.828125 64.59375 
L 19.828125 46.734375 
Q 21.96875 47.46875 24.109375 47.828125 
Q 26.265625 48.1875 28.421875 48.1875 
Q 40.625 48.1875 47.75 41.5 
Q 54.890625 34.8125 54.890625 23.390625 
Q 54.890625 11.625 47.5625 5.09375 
Q 40.234375 -1.421875 26.90625 -1.421875 
Q 22.3125 -1.421875 17.546875 -0.640625 
Q 12.796875 0.140625 7.71875 1.703125 
L 7.71875 11.625 
Q 12.109375 9.234375 16.796875 8.0625 
Q 21.484375 6.890625 26.703125 6.890625 
Q 35.15625 6.890625 40.078125 11.328125 
Q 45.015625 15.765625 45.015625 23.390625 
Q 45.015625 31 40.078125 35.4375 
Q 35.15625 39.890625 26.703125 39.890625 
Q 22.75 39.890625 18.8125 39.015625 
Q 14.890625 38.140625 10.796875 36.28125 
z
" id="BitstreamVeraSans-Roman-35"/>
      </defs>
      <g transform="translate(432.5475 401.918125)scale(0.12 -0.12)">
       <use xlink:href="#BitstreamVeraSans-Roman-35"/>
       <use x="63.623046875" xlink:href="#BitstreamVeraSans-Roman-30"/>
       <use x="127.24609375" xlink:href="#BitstreamVeraSans-Roman-30"/>
      </g>
     </g>
    </g>
    <g id="xtick_7">
     <g id="line2d_14">
      <g>
       <use style="stroke:#000000;stroke-width:0.5;" x="518.4" xlink:href="#m4508fd0f3a" y="388.8"/>
      </g>
     </g>
     <g id="line2d_15">
      <g>
       <use style="stroke:#000000;stroke-width:0.5;" x="518.4" xlink:href="#m3193fc4136" y="43.2"/>
      </g>
     </g>
     <g id="text_7">
      <!-- 600 -->
      <defs>
       <path d="M 33.015625 40.375 
Q 26.375 40.375 22.484375 35.828125 
Q 18.609375 31.296875 18.609375 23.390625 
Q 18.609375 15.53125 22.484375 10.953125 
Q 26.375 6.390625 33.015625 6.390625 
Q 39.65625 6.390625 43.53125 10.953125 
Q 47.40625 15.53125 47.40625 23.390625 
Q 47.40625 31.296875 43.53125 35.828125 
Q 39.65625 40.375 33.015625 40.375 
M 52.59375 71.296875 
L 52.59375 62.3125 
Q 48.875 64.0625 45.09375 64.984375 
Q 41.3125 65.921875 37.59375 65.921875 
Q 27.828125 65.921875 22.671875 59.328125 
Q 17.53125 52.734375 16.796875 39.40625 
Q 19.671875 43.65625 24.015625 45.921875 
Q 28.375 48.1875 33.59375 48.1875 
Q 44.578125 48.1875 50.953125 41.515625 
Q 57.328125 34.859375 57.328125 23.390625 
Q 57.328125 12.15625 50.6875 5.359375 
Q 44.046875 -1.421875 33.015625 -1.421875 
Q 20.359375 -1.421875 13.671875 8.265625 
Q 6.984375 17.96875 6.984375 36.375 
Q 6.984375 53.65625 15.1875 63.9375 
Q 23.390625 74.21875 37.203125 74.21875 
Q 40.921875 74.21875 44.703125 73.484375 
Q 48.484375 72.75 52.59375 71.296875 
" id="BitstreamVeraSans-Roman-36"/>
      </defs>
      <g transform="translate(506.9475 401.918125)scale(0.12 -0.12)">
       <use xlink:href="#BitstreamVeraSans-Roman-36"/>
       <use x="63.623046875" xlink:href="#BitstreamVeraSans-Roman-30"/>
       <use x="127.24609375" xlink:href="#BitstreamVeraSans-Roman-30"/>
      </g>
     </g>
    </g>
   </g>
   <g id="matplotlib.axis_2">
    <g id="ytick_1">
     <g id="line2d_16">
      <defs>
       <path d="M 0 0 
L 4 0 
" id="m7d5e42330a" style="stroke:#000000;stroke-width:0.5;"/>
      </defs>
      <g>
       <use style="stroke:#000000;stroke-width:0.5;" x="72.0" xlink:href="#m7d5e42330a" y="354.24"/>
      </g>
     </g>
     <g id="line2d_17">
      <defs>
       <path d="M 0 0 
L -4 0 
" id="m2a0177c9c5" style="stroke:#000000;stroke-width:0.5;"/>
      </defs>
      <g>
       <use style="stroke:#000000;stroke-width:0.5;" x="518.4" xlink:href="#m2a0177c9c5" y="354.24"/>
      </g>
     </g>
     <g id="text_8">
      <!-- −4000 -->
      <defs>
       <path d="M 10.59375 35.5 
L 73.1875 35.5 
L 73.1875 27.203125 
L 10.59375 27.203125 
z
" id="BitstreamVeraSans-Roman-2212"/>
      </defs>
      <g transform="translate(27.404375 357.55125)scale(0.12 -0.12)">
       <use xlink:href="#BitstreamVeraSans-Roman-2212"/>
       <use x="83.7890625" xlink:href="#BitstreamVeraSans-Roman-34"/>
       <use x="147.412109375" xlink:href="#BitstreamVeraSans-Roman-30"/>
       <use x="211.03515625" xlink:href="#BitstreamVeraSans-Roman-30"/>
       <use x="274.658203125" xlink:href="#BitstreamVeraSans-Roman-30"/>
      </g>
     </g>
    </g>
    <g id="ytick_2">
     <g id="line2d_18">
      <g>
       <use style="stroke:#000000;stroke-width:0.5;" x="72.0" xlink:href="#m7d5e42330a" y="285.12"/>
      </g>
     </g>
     <g id="line2d_19">
      <g>
       <use style="stroke:#000000;stroke-width:0.5;" x="518.4" xlink:href="#m2a0177c9c5" y="285.12"/>
      </g>
     </g>
     <g id="text_9">
      <!-- −2000 -->
      <g transform="translate(27.404375 288.43125)scale(0.12 -0.12)">
       <use xlink:href="#BitstreamVeraSans-Roman-2212"/>
       <use x="83.7890625" xlink:href="#BitstreamVeraSans-Roman-32"/>
       <use x="147.412109375" xlink:href="#BitstreamVeraSans-Roman-30"/>
       <use x="211.03515625" xlink:href="#BitstreamVeraSans-Roman-30"/>
       <use x="274.658203125" xlink:href="#BitstreamVeraSans-Roman-30"/>
      </g>
     </g>
    </g>
    <g id="ytick_3">
     <g id="line2d_20">
      <g>
       <use style="stroke:#000000;stroke-width:0.5;" x="72.0" xlink:href="#m7d5e42330a" y="216.0"/>
      </g>
     </g>
     <g id="line2d_21">
      <g>
       <use style="stroke:#000000;stroke-width:0.5;" x="518.4" xlink:href="#m2a0177c9c5" y="216.0"/>
      </g>
     </g>
     <g id="text_10">
      <!-- 0 -->
      <g transform="translate(60.365 219.31125)scale(0.12 -0.12)">
       <use xlink:href="#BitstreamVeraSans-Roman-30"/>
      </g>
     </g>
    </g>
    <g id="ytick_4">
     <g id="line2d_22">
      <g>
       <use style="stroke:#000000;stroke-width:0.5;" x="72.0" xlink:href="#m7d5e42330a" y="146.88"/>
      </g>
     </g>
     <g id="line2d_23">
      <g>
       <use style="stroke:#000000;stroke-width:0.5;" x="518.4" xlink:href="#m2a0177c9c5" y="146.88"/>
      </g>
     </g>
     <g id="text_11">
      <!-- 2000 -->
      <g transform="translate(37.46 150.19125)scale(0.12 -0.12)">
       <use xlink:href="#BitstreamVeraSans-Roman-32"/>
       <use x="63.623046875" xlink:href="#BitstreamVeraSans-Roman-30"/>
       <use x="127.24609375" xlink:href="#BitstreamVeraSans-Roman-30"/>
       <use x="190.869140625" xlink:href="#BitstreamVeraSans-Roman-30"/>
      </g>
     </g>
    </g>
    <g id="ytick_5">
     <g id="line2d_24">
      <g>
       <use style="stroke:#000000;stroke-width:0.5;" x="72.0" xlink:href="#m7d5e42330a" y="77.76"/>
      </g>
     </g>
     <g id="line2d_25">
      <g>
       <use style="stroke:#000000;stroke-width:0.5;" x="518.4" xlink:href="#m2a0177c9c5" y="77.76"/>
      </g>
     </g>
     <g id="text_12">
      <!-- 4000 -->
      <g transform="translate(37.46 81.07125)scale(0.12 -0.12)">
       <use xlink:href="#BitstreamVeraSans-Roman-34"/>
       <use x="63.623046875" xlink:href="#BitstreamVeraSans-Roman-30"/>
       <use x="127.24609375" xlink:href="#BitstreamVeraSans-Roman-30"/>
       <use x="190.869140625" xlink:href="#BitstreamVeraSans-Roman-30"/>
      </g>
     </g>
    </g>
   </g>
  </g>
 </g>
 <defs>
  <clipPath id="p57a2e87f7e">
   <rect height="345.6" width="446.4" x="72.0" y="43.2"/>
  </clipPath>
 </defs>
</svg>
